<svg width="1764" height="200" viewBox="0 0 1764 200" fill="none" xmlns="http://www.w3.org/2000/svg">
<g clip-path="url(#clip0_1338_390)">
<path d="M67.4374 165L123.597 39H152.397L208.737 165H178.137L132.057 53.76H143.577L97.3174 165H67.4374ZM95.5174 138L103.257 115.86H168.057L175.977 138H95.5174ZM255.131 166.44C246.011 166.44 237.791 164.4 230.471 160.32C223.151 156.12 217.331 150.3 213.011 142.86C208.811 135.42 206.711 126.66 206.711 116.58C206.711 106.38 208.811 97.56 213.011 90.12C217.331 82.68 223.151 76.92 230.471 72.84C237.791 68.76 246.011 66.72 255.131 66.72C263.291 66.72 270.431 68.52 276.551 72.12C282.671 75.72 287.411 81.18 290.771 88.5C294.131 95.82 295.811 105.18 295.811 116.58C295.811 127.86 294.191 137.22 290.951 144.66C287.711 151.98 283.031 157.44 276.911 161.04C270.911 164.64 263.651 166.44 255.131 166.44ZM259.991 143.4C264.551 143.4 268.691 142.32 272.411 140.16C276.131 138 279.071 134.94 281.231 130.98C283.511 126.9 284.651 122.1 284.651 116.58C284.651 110.94 283.511 106.14 281.231 102.18C279.071 98.22 276.131 95.16 272.411 93C268.691 90.84 264.551 89.76 259.991 89.76C255.311 89.76 251.111 90.84 247.391 93C243.671 95.16 240.671 98.22 238.391 102.18C236.231 106.14 235.151 110.94 235.151 116.58C235.151 122.1 236.231 126.9 238.391 130.98C240.671 134.94 243.671 138 247.391 140.16C251.111 142.32 255.311 143.4 259.991 143.4ZM285.371 165V145.2L285.911 116.4L284.111 87.78V31.44H312.191V165H285.371ZM359.06 165L318.38 68.16H347.36L381.2 151.5H366.8L401.9 68.16H428.9L388.04 165H359.06ZM480.381 166.44C469.341 166.44 459.621 164.28 451.221 159.96C442.941 155.64 436.521 149.76 431.961 142.32C427.401 134.76 425.121 126.18 425.121 116.58C425.121 106.86 427.341 98.28 431.781 90.84C436.341 83.28 442.521 77.4 450.321 73.2C458.121 68.88 466.941 66.72 476.781 66.72C486.261 66.72 494.781 68.76 502.341 72.84C510.021 76.8 516.081 82.56 520.521 90.12C524.961 97.56 527.181 106.5 527.181 116.94C527.181 118.02 527.121 119.28 527.001 120.72C526.881 122.04 526.761 123.3 526.641 124.5H447.981V108.12H511.881L501.081 112.98C501.081 107.94 500.061 103.56 498.021 99.84C495.981 96.12 493.161 93.24 489.561 91.2C485.961 89.04 481.761 87.96 476.961 87.96C472.161 87.96 467.901 89.04 464.181 91.2C460.581 93.24 457.761 96.18 455.721 100.02C453.681 103.74 452.661 108.18 452.661 113.34V117.66C452.661 122.94 453.801 127.62 456.081 131.7C458.481 135.66 461.781 138.72 465.981 140.88C470.301 142.92 475.341 143.94 481.101 143.94C486.261 143.94 490.761 143.16 494.601 141.6C498.561 140.04 502.161 137.7 505.401 134.58L520.341 150.78C515.901 155.82 510.321 159.72 503.601 162.48C496.881 165.12 489.141 166.44 480.381 166.44ZM540.476 165V68.16H567.296V95.52L563.516 87.6C566.396 80.76 571.016 75.6 577.376 72.12C583.736 68.52 591.476 66.72 600.596 66.72V92.64C599.396 92.52 598.316 92.46 597.356 92.46C596.396 92.34 595.376 92.28 594.296 92.28C586.616 92.28 580.376 94.5 575.576 98.94C570.896 103.26 568.556 110.04 568.556 119.28V165H540.476ZM645.176 166.44C636.896 166.44 628.916 165.48 621.236 163.56C613.676 161.52 607.676 159 603.236 156L612.596 135.84C617.036 138.6 622.256 140.88 628.256 142.68C634.376 144.36 640.376 145.2 646.256 145.2C652.736 145.2 657.296 144.42 659.936 142.86C662.696 141.3 664.076 139.14 664.076 136.38C664.076 134.1 662.996 132.42 660.836 131.34C658.796 130.14 656.036 129.24 652.556 128.64C649.076 128.04 645.236 127.44 641.036 126.84C636.956 126.24 632.816 125.46 628.616 124.5C624.416 123.42 620.576 121.86 617.096 119.82C613.616 117.78 610.796 115.02 608.636 111.54C606.596 108.06 605.576 103.56 605.576 98.04C605.576 91.92 607.316 86.52 610.796 81.84C614.396 77.16 619.556 73.5 626.276 70.86C632.996 68.1 641.036 66.72 650.396 66.72C656.996 66.72 663.716 67.44 670.556 68.88C677.396 70.32 683.096 72.42 687.656 75.18L678.296 95.16C673.616 92.4 668.876 90.54 664.076 89.58C659.396 88.5 654.836 87.96 650.396 87.96C644.156 87.96 639.596 88.8 636.716 90.48C633.836 92.16 632.396 94.32 632.396 96.96C632.396 99.36 633.416 101.16 635.456 102.36C637.616 103.56 640.436 104.52 643.916 105.24C647.396 105.96 651.176 106.62 655.256 107.22C659.456 107.7 663.656 108.48 667.856 109.56C672.056 110.64 675.836 112.2 679.196 114.24C682.676 116.16 685.496 118.86 687.656 122.34C689.816 125.7 690.896 130.14 690.896 135.66C690.896 141.66 689.096 147 685.496 151.68C681.896 156.24 676.676 159.84 669.836 162.48C663.116 165.12 654.896 166.44 645.176 166.44ZM750.881 166.44C739.841 166.44 730.121 164.28 721.721 159.96C713.441 155.64 707.021 149.76 702.461 142.32C697.901 134.76 695.621 126.18 695.621 116.58C695.621 106.86 697.841 98.28 702.281 90.84C706.841 83.28 713.021 77.4 720.821 73.2C728.621 68.88 737.441 66.72 747.281 66.72C756.761 66.72 765.281 68.76 772.841 72.84C780.521 76.8 786.581 82.56 791.021 90.12C795.461 97.56 797.681 106.5 797.681 116.94C797.681 118.02 797.621 119.28 797.501 120.72C797.381 122.04 797.261 123.3 797.141 124.5H718.481V108.12H782.381L771.581 112.98C771.581 107.94 770.561 103.56 768.521 99.84C766.481 96.12 763.661 93.24 760.061 91.2C756.461 89.04 752.261 87.96 747.461 87.96C742.661 87.96 738.401 89.04 734.681 91.2C731.081 93.24 728.261 96.18 726.221 100.02C724.181 103.74 723.161 108.18 723.161 113.34V117.66C723.161 122.94 724.301 127.62 726.581 131.7C728.981 135.66 732.281 138.72 736.481 140.88C740.801 142.92 745.841 143.94 751.601 143.94C756.761 143.94 761.261 143.16 765.101 141.6C769.061 140.04 772.661 137.7 775.901 134.58L790.841 150.78C786.401 155.82 780.821 159.72 774.101 162.48C767.381 165.12 759.641 166.44 750.881 166.44ZM889.132 166.44C880.852 166.44 872.872 165.48 865.192 163.56C857.632 161.52 851.632 159 847.192 156L856.552 135.84C860.992 138.6 866.212 140.88 872.212 142.68C878.332 144.36 884.332 145.2 890.212 145.2C896.692 145.2 901.252 144.42 903.892 142.86C906.652 141.3 908.032 139.14 908.032 136.38C908.032 134.1 906.952 132.42 904.792 131.34C902.752 130.14 899.992 129.24 896.512 128.64C893.032 128.04 889.192 127.44 884.992 126.84C880.912 126.24 876.772 125.46 872.572 124.5C868.372 123.42 864.532 121.86 861.052 119.82C857.572 117.78 854.752 115.02 852.592 111.54C850.552 108.06 849.532 103.56 849.532 98.04C849.532 91.92 851.272 86.52 854.752 81.84C858.352 77.16 863.512 73.5 870.232 70.86C876.952 68.1 884.992 66.72 894.352 66.72C900.952 66.72 907.672 67.44 914.512 68.88C921.352 70.32 927.052 72.42 931.612 75.18L922.252 95.16C917.572 92.4 912.832 90.54 908.032 89.58C903.352 88.5 898.792 87.96 894.352 87.96C888.112 87.96 883.552 88.8 880.672 90.48C877.792 92.16 876.352 94.32 876.352 96.96C876.352 99.36 877.372 101.16 879.412 102.36C881.572 103.56 884.392 104.52 887.872 105.24C891.352 105.96 895.132 106.62 899.212 107.22C903.412 107.7 907.612 108.48 911.812 109.56C916.012 110.64 919.792 112.2 923.152 114.24C926.632 116.16 929.452 118.86 931.612 122.34C933.772 125.7 934.852 130.14 934.852 135.66C934.852 141.66 933.052 147 929.452 151.68C925.852 156.24 920.632 159.84 913.792 162.48C907.072 165.12 898.852 166.44 889.132 166.44ZM993.577 166.44C983.137 166.44 973.837 164.34 965.677 160.14C957.517 155.82 951.097 149.88 946.417 142.32C941.857 134.76 939.577 126.18 939.577 116.58C939.577 106.86 941.857 98.28 946.417 90.84C951.097 83.28 957.517 77.4 965.677 73.2C973.837 68.88 983.137 66.72 993.577 66.72C1003.78 66.72 1012.66 68.88 1020.22 73.2C1027.78 77.4 1033.36 83.46 1036.96 91.38L1015.18 103.08C1012.66 98.52 1009.48 95.16 1005.64 93C1001.92 90.84 997.837 89.76 993.397 89.76C988.597 89.76 984.277 90.84 980.437 93C976.597 95.16 973.537 98.22 971.257 102.18C969.097 106.14 968.017 110.94 968.017 116.58C968.017 122.22 969.097 127.02 971.257 130.98C973.537 134.94 976.597 138 980.437 140.16C984.277 142.32 988.597 143.4 993.397 143.4C997.837 143.4 1001.92 142.38 1005.64 140.34C1009.48 138.18 1012.66 134.76 1015.18 130.08L1036.96 141.96C1033.36 149.76 1027.78 155.82 1020.22 160.14C1012.66 164.34 1003.78 166.44 993.577 166.44ZM1094.55 166.44C1083.51 166.44 1073.79 164.28 1065.39 159.96C1057.11 155.64 1050.69 149.76 1046.13 142.32C1041.57 134.76 1039.29 126.18 1039.29 116.58C1039.29 106.86 1041.51 98.28 1045.95 90.84C1050.51 83.28 1056.69 77.4 1064.49 73.2C1072.29 68.88 1081.11 66.72 1090.95 66.72C1100.43 66.72 1108.95 68.76 1116.51 72.84C1124.19 76.8 1130.25 82.56 1134.69 90.12C1139.13 97.56 1141.35 106.5 1141.35 116.94C1141.35 118.02 1141.29 119.28 1141.17 120.72C1141.05 122.04 1140.93 123.3 1140.81 124.5H1062.15V108.12H1126.05L1115.25 112.98C1115.25 107.94 1114.23 103.56 1112.19 99.84C1110.15 96.12 1107.33 93.24 1103.73 91.2C1100.13 89.04 1095.93 87.96 1091.13 87.96C1086.33 87.96 1082.07 89.04 1078.35 91.2C1074.75 93.24 1071.93 96.18 1069.89 100.02C1067.85 103.74 1066.83 108.18 1066.83 113.34V117.66C1066.83 122.94 1067.97 127.62 1070.25 131.7C1072.65 135.66 1075.95 138.72 1080.15 140.88C1084.47 142.92 1089.51 143.94 1095.27 143.94C1100.43 143.94 1104.93 143.16 1108.77 141.6C1112.73 140.04 1116.33 137.7 1119.57 134.58L1134.51 150.78C1130.07 155.82 1124.49 159.72 1117.77 162.48C1111.05 165.12 1103.31 166.44 1094.55 166.44ZM1213.51 66.72C1221.19 66.72 1228.03 68.28 1234.03 71.4C1240.15 74.4 1244.95 79.08 1248.43 85.44C1251.91 91.68 1253.65 99.72 1253.65 109.56V165H1225.57V113.88C1225.57 106.08 1223.83 100.32 1220.35 96.6C1216.99 92.88 1212.19 91.02 1205.95 91.02C1201.51 91.02 1197.49 91.98 1193.89 93.9C1190.41 95.7 1187.65 98.52 1185.61 102.36C1183.69 106.2 1182.73 111.12 1182.73 117.12V165H1154.65V68.16H1181.47V94.98L1176.43 86.88C1179.91 80.4 1184.89 75.42 1191.37 71.94C1197.85 68.46 1205.23 66.72 1213.51 66.72ZM1333.1 165V146.1L1331.3 141.96V108.12C1331.3 102.12 1329.44 97.44 1325.72 94.08C1322.12 90.72 1316.54 89.04 1308.98 89.04C1303.82 89.04 1298.72 89.88 1293.68 91.56C1288.76 93.12 1284.56 95.28 1281.08 98.04L1271 78.42C1276.28 74.7 1282.64 71.82 1290.08 69.78C1297.52 67.74 1305.08 66.72 1312.76 66.72C1327.52 66.72 1338.98 70.2 1347.14 77.16C1355.3 84.12 1359.38 94.98 1359.38 109.74V165H1333.1ZM1303.58 166.44C1296.02 166.44 1289.54 165.18 1284.14 162.66C1278.74 160.02 1274.6 156.48 1271.72 152.04C1268.84 147.6 1267.4 142.62 1267.4 137.1C1267.4 131.34 1268.78 126.3 1271.54 121.98C1274.42 117.66 1278.92 114.3 1285.04 111.9C1291.16 109.38 1299.14 108.12 1308.98 108.12H1334.72V124.5H1312.04C1305.44 124.5 1300.88 125.58 1298.36 127.74C1295.96 129.9 1294.76 132.6 1294.76 135.84C1294.76 139.44 1296.14 142.32 1298.9 144.48C1301.78 146.52 1305.68 147.54 1310.6 147.54C1315.28 147.54 1319.48 146.46 1323.2 144.3C1326.92 142.02 1329.62 138.72 1331.3 134.4L1335.62 147.36C1333.58 153.6 1329.86 158.34 1324.46 161.58C1319.06 164.82 1312.1 166.44 1303.58 166.44ZM1379.4 165V68.16H1406.22V95.52L1402.44 87.6C1405.32 80.76 1409.94 75.6 1416.3 72.12C1422.66 68.52 1430.4 66.72 1439.52 66.72V92.64C1438.32 92.52 1437.24 92.46 1436.28 92.46C1435.32 92.34 1434.3 92.28 1433.22 92.28C1425.54 92.28 1419.3 94.5 1414.5 98.94C1409.82 103.26 1407.48 110.04 1407.48 119.28V165H1379.4ZM1450.99 165V68.16H1479.07V165H1450.99ZM1465.03 54.66C1459.87 54.66 1455.67 53.16 1452.43 50.16C1449.19 47.16 1447.57 43.44 1447.57 39C1447.57 34.56 1449.19 30.84 1452.43 27.84C1455.67 24.84 1459.87 23.34 1465.03 23.34C1470.19 23.34 1474.39 24.78 1477.63 27.66C1480.87 30.42 1482.49 34.02 1482.49 38.46C1482.49 43.14 1480.87 47.04 1477.63 50.16C1474.51 53.16 1470.31 54.66 1465.03 54.66ZM1545.81 166.44C1535.49 166.44 1526.31 164.28 1518.27 159.96C1510.35 155.64 1504.05 149.76 1499.37 142.32C1494.81 134.76 1492.53 126.18 1492.53 116.58C1492.53 106.86 1494.81 98.28 1499.37 90.84C1504.05 83.28 1510.35 77.4 1518.27 73.2C1526.31 68.88 1535.49 66.72 1545.81 66.72C1556.01 66.72 1565.13 68.88 1573.17 73.2C1581.21 77.4 1587.51 83.22 1592.07 90.66C1596.63 98.1 1598.91 106.74 1598.91 116.58C1598.91 126.18 1596.63 134.76 1592.07 142.32C1587.51 149.76 1581.21 155.64 1573.17 159.96C1565.13 164.28 1556.01 166.44 1545.81 166.44ZM1545.81 143.4C1550.49 143.4 1554.69 142.32 1558.41 140.16C1562.13 138 1565.07 134.94 1567.23 130.98C1569.39 126.9 1570.47 122.1 1570.47 116.58C1570.47 110.94 1569.39 106.14 1567.23 102.18C1565.07 98.22 1562.13 95.16 1558.41 93C1554.69 90.84 1550.49 89.76 1545.81 89.76C1541.13 89.76 1536.93 90.84 1533.21 93C1529.49 95.16 1526.49 98.22 1524.21 102.18C1522.05 106.14 1520.97 110.94 1520.97 116.58C1520.97 122.1 1522.05 126.9 1524.21 130.98C1526.49 134.94 1529.49 138 1533.21 140.16C1536.93 142.32 1541.13 143.4 1545.81 143.4ZM1644.86 166.44C1636.58 166.44 1628.6 165.48 1620.92 163.56C1613.36 161.52 1607.36 159 1602.92 156L1612.28 135.84C1616.72 138.6 1621.94 140.88 1627.94 142.68C1634.06 144.36 1640.06 145.2 1645.94 145.2C1652.42 145.2 1656.98 144.42 1659.62 142.86C1662.38 141.3 1663.76 139.14 1663.76 136.38C1663.76 134.1 1662.68 132.42 1660.52 131.34C1658.48 130.14 1655.72 129.24 1652.24 128.64C1648.76 128.04 1644.92 127.44 1640.72 126.84C1636.64 126.24 1632.5 125.46 1628.3 124.5C1624.1 123.42 1620.26 121.86 1616.78 119.82C1613.3 117.78 1610.48 115.02 1608.32 111.54C1606.28 108.06 1605.26 103.56 1605.26 98.04C1605.26 91.92 1607 86.52 1610.48 81.84C1614.08 77.16 1619.24 73.5 1625.96 70.86C1632.68 68.1 1640.72 66.72 1650.08 66.72C1656.68 66.72 1663.4 67.44 1670.24 68.88C1677.08 70.32 1682.78 72.42 1687.34 75.18L1677.98 95.16C1673.3 92.4 1668.56 90.54 1663.76 89.58C1659.08 88.5 1654.52 87.96 1650.08 87.96C1643.84 87.96 1639.28 88.8 1636.4 90.48C1633.52 92.16 1632.08 94.32 1632.08 96.96C1632.08 99.36 1633.1 101.16 1635.14 102.36C1637.3 103.56 1640.12 104.52 1643.6 105.24C1647.08 105.96 1650.86 106.62 1654.94 107.22C1659.14 107.7 1663.34 108.48 1667.54 109.56C1671.74 110.64 1675.52 112.2 1678.88 114.24C1682.36 116.16 1685.18 118.86 1687.34 122.34C1689.5 125.7 1690.58 130.14 1690.58 135.66C1690.58 141.66 1688.78 147 1685.18 151.68C1681.58 156.24 1676.36 159.84 1669.52 162.48C1662.8 165.12 1654.58 166.44 1644.86 166.44Z" fill="#282828" fill-opacity="0.02"/>
<path d="M601.201 120L618.673 80.8H627.633L645.161 120H635.641L621.305 85.392H624.889L610.497 120H601.201ZM609.937 111.6L612.345 104.712H632.505L634.969 111.6H609.937ZM662.954 120.448C660.117 120.448 657.559 119.813 655.282 118.544C653.005 117.237 651.194 115.427 649.85 113.112C648.543 110.797 647.89 108.072 647.89 104.936C647.89 101.763 648.543 99.0187 649.85 96.704C651.194 94.3893 653.005 92.5973 655.282 91.328C657.559 90.0587 660.117 89.424 662.954 89.424C665.493 89.424 667.714 89.984 669.618 91.104C671.522 92.224 672.997 93.9227 674.042 96.2C675.087 98.4773 675.61 101.389 675.61 104.936C675.61 108.445 675.106 111.357 674.098 113.672C673.09 115.949 671.634 117.648 669.73 118.768C667.863 119.888 665.605 120.448 662.954 120.448ZM664.466 113.28C665.885 113.28 667.173 112.944 668.33 112.272C669.487 111.6 670.402 110.648 671.074 109.416C671.783 108.147 672.138 106.653 672.138 104.936C672.138 103.181 671.783 101.688 671.074 100.456C670.402 99.224 669.487 98.272 668.33 97.6C667.173 96.928 665.885 96.592 664.466 96.592C663.01 96.592 661.703 96.928 660.546 97.6C659.389 98.272 658.455 99.224 657.746 100.456C657.074 101.688 656.738 103.181 656.738 104.936C656.738 106.653 657.074 108.147 657.746 109.416C658.455 110.648 659.389 111.6 660.546 112.272C661.703 112.944 663.01 113.28 664.466 113.28ZM672.362 120V113.84L672.53 104.88L671.97 95.976V78.448H680.706V120H672.362ZM698.648 120L685.992 89.872H695.008L705.536 115.8H701.056L711.976 89.872H720.376L707.664 120H698.648ZM739.752 120.448C736.317 120.448 733.293 119.776 730.68 118.432C728.104 117.088 726.107 115.259 724.688 112.944C723.269 110.592 722.56 107.923 722.56 104.936C722.56 101.912 723.251 99.2427 724.632 96.928C726.051 94.576 727.973 92.7467 730.4 91.44C732.827 90.096 735.571 89.424 738.632 89.424C741.581 89.424 744.232 90.0587 746.584 91.328C748.973 92.56 750.859 94.352 752.24 96.704C753.621 99.0187 754.312 101.8 754.312 105.048C754.312 105.384 754.293 105.776 754.256 106.224C754.219 106.635 754.181 107.027 754.144 107.4H729.672V102.304H749.552L746.192 103.816C746.192 102.248 745.875 100.885 745.24 99.728C744.605 98.5707 743.728 97.6747 742.608 97.04C741.488 96.368 740.181 96.032 738.688 96.032C737.195 96.032 735.869 96.368 734.712 97.04C733.592 97.6747 732.715 98.5893 732.08 99.784C731.445 100.941 731.128 102.323 731.128 103.928V105.272C731.128 106.915 731.483 108.371 732.192 109.64C732.939 110.872 733.965 111.824 735.272 112.496C736.616 113.131 738.184 113.448 739.976 113.448C741.581 113.448 742.981 113.205 744.176 112.72C745.408 112.235 746.528 111.507 747.536 110.536L752.184 115.576C750.803 117.144 749.067 118.357 746.976 119.216C744.885 120.037 742.477 120.448 739.752 120.448ZM761.808 120V89.872H770.152V98.384L768.976 95.92C769.872 93.792 771.309 92.1867 773.288 91.104C775.267 89.984 777.675 89.424 780.512 89.424V97.488C780.139 97.4507 779.803 97.432 779.504 97.432C779.205 97.3947 778.888 97.376 778.552 97.376C776.163 97.376 774.221 98.0667 772.728 99.448C771.272 100.792 770.544 102.901 770.544 105.776V120H761.808ZM797.741 120.448C795.165 120.448 792.683 120.149 790.293 119.552C787.941 118.917 786.075 118.133 784.693 117.2L787.605 110.928C788.987 111.787 790.611 112.496 792.477 113.056C794.381 113.579 796.248 113.84 798.077 113.84C800.093 113.84 801.512 113.597 802.333 113.112C803.192 112.627 803.621 111.955 803.621 111.096C803.621 110.387 803.285 109.864 802.613 109.528C801.979 109.155 801.12 108.875 800.037 108.688C798.955 108.501 797.76 108.315 796.453 108.128C795.184 107.941 793.896 107.699 792.589 107.4C791.283 107.064 790.088 106.579 789.005 105.944C787.923 105.309 787.045 104.451 786.373 103.368C785.739 102.285 785.421 100.885 785.421 99.168C785.421 97.264 785.963 95.584 787.045 94.128C788.165 92.672 789.771 91.5333 791.861 90.712C793.952 89.8533 796.453 89.424 799.365 89.424C801.419 89.424 803.509 89.648 805.637 90.096C807.765 90.544 809.539 91.1973 810.957 92.056L808.045 98.272C806.589 97.4133 805.115 96.8347 803.621 96.536C802.165 96.2 800.747 96.032 799.365 96.032C797.424 96.032 796.005 96.2933 795.109 96.816C794.213 97.3387 793.765 98.0107 793.765 98.832C793.765 99.5787 794.083 100.139 794.717 100.512C795.389 100.885 796.267 101.184 797.349 101.408C798.432 101.632 799.608 101.837 800.877 102.024C802.184 102.173 803.491 102.416 804.797 102.752C806.104 103.088 807.28 103.573 808.325 104.208C809.408 104.805 810.285 105.645 810.957 106.728C811.629 107.773 811.965 109.155 811.965 110.872C811.965 112.739 811.405 114.4 810.285 115.856C809.165 117.275 807.541 118.395 805.413 119.216C803.323 120.037 800.765 120.448 797.741 120.448ZM833.987 120.448C830.553 120.448 827.529 119.776 824.915 118.432C822.339 117.088 820.342 115.259 818.923 112.944C817.505 110.592 816.795 107.923 816.795 104.936C816.795 101.912 817.486 99.2427 818.867 96.928C820.286 94.576 822.209 92.7467 824.635 91.44C827.062 90.096 829.806 89.424 832.867 89.424C835.817 89.424 838.467 90.0587 840.819 91.328C843.209 92.56 845.094 94.352 846.475 96.704C847.857 99.0187 848.547 101.8 848.547 105.048C848.547 105.384 848.529 105.776 848.491 106.224C848.454 106.635 848.417 107.027 848.379 107.4H823.907V102.304H843.787L840.427 103.816C840.427 102.248 840.11 100.885 839.475 99.728C838.841 98.5707 837.963 97.6747 836.843 97.04C835.723 96.368 834.417 96.032 832.923 96.032C831.43 96.032 830.105 96.368 828.947 97.04C827.827 97.6747 826.95 98.5893 826.315 99.784C825.681 100.941 825.363 102.323 825.363 103.928V105.272C825.363 106.915 825.718 108.371 826.427 109.64C827.174 110.872 828.201 111.824 829.507 112.496C830.851 113.131 832.419 113.448 834.211 113.448C835.817 113.448 837.217 113.205 838.411 112.72C839.643 112.235 840.763 111.507 841.771 110.536L846.419 115.576C845.038 117.144 843.302 118.357 841.211 119.216C839.121 120.037 836.713 120.448 833.987 120.448ZM883.719 120.448C881.143 120.448 878.66 120.149 876.271 119.552C873.919 118.917 872.052 118.133 870.671 117.2L873.583 110.928C874.964 111.787 876.588 112.496 878.455 113.056C880.359 113.579 882.225 113.84 884.055 113.84C886.071 113.84 887.489 113.597 888.311 113.112C889.169 112.627 889.599 111.955 889.599 111.096C889.599 110.387 889.263 109.864 888.591 109.528C887.956 109.155 887.097 108.875 886.015 108.688C884.932 108.501 883.737 108.315 882.431 108.128C881.161 107.941 879.873 107.699 878.567 107.4C877.26 107.064 876.065 106.579 874.983 105.944C873.9 105.309 873.023 104.451 872.351 103.368C871.716 102.285 871.399 100.885 871.399 99.168C871.399 97.264 871.94 95.584 873.023 94.128C874.143 92.672 875.748 91.5333 877.839 90.712C879.929 89.8533 882.431 89.424 885.343 89.424C887.396 89.424 889.487 89.648 891.615 90.096C893.743 90.544 895.516 91.1973 896.935 92.056L894.023 98.272C892.567 97.4133 891.092 96.8347 889.599 96.536C888.143 96.2 886.724 96.032 885.343 96.032C883.401 96.032 881.983 96.2933 881.087 96.816C880.191 97.3387 879.743 98.0107 879.743 98.832C879.743 99.5787 880.06 100.139 880.695 100.512C881.367 100.885 882.244 101.184 883.327 101.408C884.409 101.632 885.585 101.837 886.855 102.024C888.161 102.173 889.468 102.416 890.775 102.752C892.081 103.088 893.257 103.573 894.303 104.208C895.385 104.805 896.263 105.645 896.935 106.728C897.607 107.773 897.943 109.155 897.943 110.872C897.943 112.739 897.383 114.4 896.263 115.856C895.143 117.275 893.519 118.395 891.391 119.216C889.3 120.037 886.743 120.448 883.719 120.448ZM919.573 120.448C916.325 120.448 913.431 119.795 910.893 118.488C908.354 117.144 906.357 115.296 904.901 112.944C903.482 110.592 902.773 107.923 902.773 104.936C902.773 101.912 903.482 99.2427 904.901 96.928C906.357 94.576 908.354 92.7467 910.893 91.44C913.431 90.096 916.325 89.424 919.573 89.424C922.746 89.424 925.509 90.096 927.861 91.44C930.213 92.7467 931.949 94.632 933.069 97.096L926.293 100.736C925.509 99.3173 924.519 98.272 923.325 97.6C922.167 96.928 920.898 96.592 919.517 96.592C918.023 96.592 916.679 96.928 915.485 97.6C914.29 98.272 913.338 99.224 912.629 100.456C911.957 101.688 911.621 103.181 911.621 104.936C911.621 106.691 911.957 108.184 912.629 109.416C913.338 110.648 914.29 111.6 915.485 112.272C916.679 112.944 918.023 113.28 919.517 113.28C920.898 113.28 922.167 112.963 923.325 112.328C924.519 111.656 925.509 110.592 926.293 109.136L933.069 112.832C931.949 115.259 930.213 117.144 927.861 118.488C925.509 119.795 922.746 120.448 919.573 120.448ZM954.348 120.448C950.913 120.448 947.889 119.776 945.276 118.432C942.7 117.088 940.703 115.259 939.284 112.944C937.865 110.592 937.156 107.923 937.156 104.936C937.156 101.912 937.847 99.2427 939.228 96.928C940.647 94.576 942.569 92.7467 944.996 91.44C947.423 90.096 950.167 89.424 953.228 89.424C956.177 89.424 958.828 90.0587 961.18 91.328C963.569 92.56 965.455 94.352 966.836 96.704C968.217 99.0187 968.908 101.8 968.908 105.048C968.908 105.384 968.889 105.776 968.852 106.224C968.815 106.635 968.777 107.027 968.74 107.4H944.268V102.304H964.148L960.788 103.816C960.788 102.248 960.471 100.885 959.836 99.728C959.201 98.5707 958.324 97.6747 957.204 97.04C956.084 96.368 954.777 96.032 953.284 96.032C951.791 96.032 950.465 96.368 949.308 97.04C948.188 97.6747 947.311 98.5893 946.676 99.784C946.041 100.941 945.724 102.323 945.724 103.928V105.272C945.724 106.915 946.079 108.371 946.788 109.64C947.535 110.872 948.561 111.824 949.868 112.496C951.212 113.131 952.78 113.448 954.572 113.448C956.177 113.448 957.577 113.205 958.772 112.72C960.004 112.235 961.124 111.507 962.132 110.536L966.78 115.576C965.399 117.144 963.663 118.357 961.572 119.216C959.481 120.037 957.073 120.448 954.348 120.448ZM994.716 89.424C997.105 89.424 999.233 89.9093 1001.1 90.88C1003 91.8133 1004.5 93.2693 1005.58 95.248C1006.66 97.1893 1007.2 99.6907 1007.2 102.752V120H998.468V104.096C998.468 101.669 997.927 99.8773 996.844 98.72C995.799 97.5627 994.305 96.984 992.364 96.984C990.983 96.984 989.732 97.2827 988.612 97.88C987.529 98.44 986.671 99.3173 986.036 100.512C985.439 101.707 985.14 103.237 985.14 105.104V120H976.404V89.872H984.748V98.216L983.18 95.696C984.263 93.68 985.812 92.1307 987.828 91.048C989.844 89.9653 992.14 89.424 994.716 89.424ZM1035.28 120V114.12L1034.72 112.832V102.304C1034.72 100.437 1034.14 98.9813 1032.99 97.936C1031.87 96.8907 1030.13 96.368 1027.78 96.368C1026.17 96.368 1024.59 96.6293 1023.02 97.152C1021.49 97.6373 1020.18 98.3093 1019.1 99.168L1015.96 93.064C1017.61 91.9067 1019.58 91.0107 1021.9 90.376C1024.21 89.7413 1026.57 89.424 1028.95 89.424C1033.55 89.424 1037.11 90.5067 1039.65 92.672C1042.19 94.8373 1043.46 98.216 1043.46 102.808V120H1035.28ZM1026.1 120.448C1023.75 120.448 1021.73 120.056 1020.05 119.272C1018.37 118.451 1017.08 117.349 1016.19 115.968C1015.29 114.587 1014.84 113.037 1014.84 111.32C1014.84 109.528 1015.27 107.96 1016.13 106.616C1017.03 105.272 1018.43 104.227 1020.33 103.48C1022.23 102.696 1024.72 102.304 1027.78 102.304H1035.79V107.4H1028.73C1026.68 107.4 1025.26 107.736 1024.47 108.408C1023.73 109.08 1023.35 109.92 1023.35 110.928C1023.35 112.048 1023.78 112.944 1024.64 113.616C1025.54 114.251 1026.75 114.568 1028.28 114.568C1029.74 114.568 1031.05 114.232 1032.2 113.56C1033.36 112.851 1034.2 111.824 1034.72 110.48L1036.07 114.512C1035.43 116.453 1034.27 117.928 1032.59 118.936C1030.91 119.944 1028.75 120.448 1026.1 120.448ZM1053.05 120V89.872H1061.39V98.384L1060.21 95.92C1061.11 93.792 1062.55 92.1867 1064.53 91.104C1066.5 89.984 1068.91 89.424 1071.75 89.424V97.488C1071.38 97.4507 1071.04 97.432 1070.74 97.432C1070.44 97.3947 1070.13 97.376 1069.79 97.376C1067.4 97.376 1065.46 98.0667 1063.97 99.448C1062.51 100.792 1061.78 102.901 1061.78 105.776V120H1053.05ZM1078.68 120V89.872H1087.41V120H1078.68ZM1083.05 85.672C1081.44 85.672 1080.13 85.2053 1079.13 84.272C1078.12 83.3387 1077.61 82.1813 1077.61 80.8C1077.61 79.4187 1078.12 78.2613 1079.13 77.328C1080.13 76.3947 1081.44 75.928 1083.05 75.928C1084.65 75.928 1085.96 76.376 1086.97 77.272C1087.97 78.1307 1088.48 79.2507 1088.48 80.632C1088.48 82.088 1087.97 83.3013 1086.97 84.272C1086 85.2053 1084.69 85.672 1083.05 85.672ZM1111.54 120.448C1108.33 120.448 1105.47 119.776 1102.97 118.432C1100.51 117.088 1098.55 115.259 1097.09 112.944C1095.67 110.592 1094.96 107.923 1094.96 104.936C1094.96 101.912 1095.67 99.2427 1097.09 96.928C1098.55 94.576 1100.51 92.7467 1102.97 91.44C1105.47 90.096 1108.33 89.424 1111.54 89.424C1114.71 89.424 1117.55 90.096 1120.05 91.44C1122.55 92.7467 1124.51 94.5573 1125.93 96.872C1127.35 99.1867 1128.06 101.875 1128.06 104.936C1128.06 107.923 1127.35 110.592 1125.93 112.944C1124.51 115.259 1122.55 117.088 1120.05 118.432C1117.55 119.776 1114.71 120.448 1111.54 120.448ZM1111.54 113.28C1112.99 113.28 1114.3 112.944 1115.46 112.272C1116.62 111.6 1117.53 110.648 1118.2 109.416C1118.87 108.147 1119.21 106.653 1119.21 104.936C1119.21 103.181 1118.87 101.688 1118.2 100.456C1117.53 99.224 1116.62 98.272 1115.46 97.6C1114.3 96.928 1112.99 96.592 1111.54 96.592C1110.08 96.592 1108.78 96.928 1107.62 97.6C1106.46 98.272 1105.53 99.224 1104.82 100.456C1104.15 101.688 1103.81 103.181 1103.81 104.936C1103.81 106.653 1104.15 108.147 1104.82 109.416C1105.53 110.648 1106.46 111.6 1107.62 112.272C1108.78 112.944 1110.08 113.28 1111.54 113.28ZM1145.71 120.448C1143.14 120.448 1140.65 120.149 1138.27 119.552C1135.91 118.917 1134.05 118.133 1132.67 117.2L1135.58 110.928C1136.96 111.787 1138.58 112.496 1140.45 113.056C1142.35 113.579 1144.22 113.84 1146.05 113.84C1148.07 113.84 1149.48 113.597 1150.31 113.112C1151.16 112.627 1151.59 111.955 1151.59 111.096C1151.59 110.387 1151.26 109.864 1150.59 109.528C1149.95 109.155 1149.09 108.875 1148.01 108.688C1146.93 108.501 1145.73 108.315 1144.43 108.128C1143.16 107.941 1141.87 107.699 1140.56 107.4C1139.25 107.064 1138.06 106.579 1136.98 105.944C1135.89 105.309 1135.02 104.451 1134.35 103.368C1133.71 102.285 1133.39 100.885 1133.39 99.168C1133.39 97.264 1133.93 95.584 1135.02 94.128C1136.14 92.672 1137.74 91.5333 1139.83 90.712C1141.92 89.8533 1144.43 89.424 1147.34 89.424C1149.39 89.424 1151.48 89.648 1153.61 90.096C1155.74 90.544 1157.51 91.1973 1158.93 92.056L1156.02 98.272C1154.56 97.4133 1153.09 96.8347 1151.59 96.536C1150.14 96.2 1148.72 96.032 1147.34 96.032C1145.4 96.032 1143.98 96.2933 1143.08 96.816C1142.19 97.3387 1141.74 98.0107 1141.74 98.832C1141.74 99.5787 1142.05 100.139 1142.69 100.512C1143.36 100.885 1144.24 101.184 1145.32 101.408C1146.4 101.632 1147.58 101.837 1148.85 102.024C1150.16 102.173 1151.46 102.416 1152.77 102.752C1154.08 103.088 1155.25 103.573 1156.3 104.208C1157.38 104.805 1158.26 105.645 1158.93 106.728C1159.6 107.773 1159.94 109.155 1159.94 110.872C1159.94 112.739 1159.38 114.4 1158.26 115.856C1157.14 117.275 1155.51 118.395 1153.39 119.216C1151.29 120.037 1148.74 120.448 1145.71 120.448Z" fill="#282828"/>
</g>
<defs>
<clipPath id="clip0_1338_390">
<rect width="1764" height="200" fill="white"/>
</clipPath>
</defs>
</svg>
