<svg width="24" height="24" viewBox="0 0 24 24" fill="none" xmlns="http://www.w3.org/2000/svg">
<path d="M14.63 8.24304H17.373" stroke="white" stroke-width="1.5" stroke-linecap="round" stroke-linejoin="round"/>
<path fill-rule="evenodd" clip-rule="evenodd" d="M18.149 12.993H13.627V12.725C13.627 11.413 14.69 10.35 16.002 10.35V10.35C17.314 10.35 18.377 11.413 18.377 12.725V12.765C18.376 12.891 18.275 12.993 18.149 12.993V12.993Z" stroke="white" stroke-width="1.5" stroke-linecap="round" stroke-linejoin="round"/>
<path d="M13.626 12.993V13.124C13.626 14.489 14.733 15.595 16.098 15.595C16.727 15.595 17.356 15.355 17.838 14.878" stroke="white" stroke-width="1.5" stroke-linecap="round" stroke-linejoin="round"/>
<path fill-rule="evenodd" clip-rule="evenodd" d="M12 22C17.5228 22 22 17.5228 22 12C22 6.47715 17.5228 2 12 2C6.47715 2 2 6.47715 2 12C2 17.5228 6.47715 22 12 22Z" stroke="white" stroke-width="1.5" stroke-linecap="round" stroke-linejoin="round"/>
<path d="M6.12399 11.501V8.50098C6.12399 8.36298 6.23599 8.25098 6.37399 8.25098H8.69499C9.59199 8.25098 10.32 8.97898 10.32 9.87598V9.87598C10.32 10.773 9.59199 11.501 8.69499 11.501" stroke="white" stroke-width="1.5" stroke-linecap="round" stroke-linejoin="round"/>
<path fill-rule="evenodd" clip-rule="evenodd" d="M9.32199 11.501H6.12399V15.344C6.12399 15.482 6.23599 15.594 6.37399 15.594H9.32299C10.453 15.594 11.37 14.678 11.37 13.547V13.547C11.369 12.417 10.453 11.501 9.32199 11.501Z" stroke="white" stroke-width="1.5" stroke-linecap="round" stroke-linejoin="round"/>
</svg>
