<svg width="1764" height="200" viewBox="0 0 1764 200" fill="none" xmlns="http://www.w3.org/2000/svg">
<g clip-path="url(#clip0_1337_221)">
<path d="M324.178 165V39H385.738C401.578 39 413.458 42 421.378 48C429.418 54 433.438 61.92 433.438 71.76C433.438 78.36 431.818 84.12 428.578 89.04C425.338 93.84 420.898 97.56 415.258 100.2C409.618 102.84 403.138 104.16 395.818 104.16L399.238 96.78C407.158 96.78 414.178 98.1 420.298 100.74C426.418 103.26 431.158 107.04 434.518 112.08C437.998 117.12 439.738 123.3 439.738 130.62C439.738 141.42 435.478 149.88 426.958 156C418.438 162 405.898 165 389.338 165H324.178ZM353.158 143.04H387.178C394.738 143.04 400.438 141.84 404.278 139.44C408.238 136.92 410.218 132.96 410.218 127.56C410.218 122.28 408.238 118.38 404.278 115.86C400.438 113.22 394.738 111.9 387.178 111.9H350.998V90.66H382.138C389.218 90.66 394.618 89.46 398.338 87.06C402.178 84.54 404.098 80.76 404.098 75.72C404.098 70.8 402.178 67.14 398.338 64.74C394.618 62.22 389.218 60.96 382.138 60.96H353.158V143.04ZM513.295 166.44C502.255 166.44 492.535 164.28 484.135 159.96C475.855 155.64 469.435 149.76 464.875 142.32C460.315 134.76 458.035 126.18 458.035 116.58C458.035 106.86 460.255 98.28 464.695 90.84C469.255 83.28 475.435 77.4 483.235 73.2C491.035 68.88 499.855 66.72 509.695 66.72C519.175 66.72 527.695 68.76 535.255 72.84C542.935 76.8 548.995 82.56 553.435 90.12C557.875 97.56 560.095 106.5 560.095 116.94C560.095 118.02 560.035 119.28 559.915 120.72C559.795 122.04 559.675 123.3 559.555 124.5H480.895V108.12H544.795L533.995 112.98C533.995 107.94 532.975 103.56 530.935 99.84C528.895 96.12 526.075 93.24 522.475 91.2C518.875 89.04 514.675 87.96 509.875 87.96C505.075 87.96 500.815 89.04 497.095 91.2C493.495 93.24 490.675 96.18 488.635 100.02C486.595 103.74 485.575 108.18 485.575 113.34V117.66C485.575 122.94 486.715 127.62 488.995 131.7C491.395 135.66 494.695 138.72 498.895 140.88C503.215 142.92 508.255 143.94 514.015 143.94C519.175 143.94 523.675 143.16 527.515 141.6C531.475 140.04 535.075 137.7 538.315 134.58L553.255 150.78C548.815 155.82 543.235 159.72 536.515 162.48C529.795 165.12 522.055 166.44 513.295 166.44ZM643.049 66.72C650.729 66.72 657.569 68.28 663.569 71.4C669.689 74.4 674.489 79.08 677.969 85.44C681.449 91.68 683.189 99.72 683.189 109.56V165H655.109V113.88C655.109 106.08 653.369 100.32 649.889 96.6C646.529 92.88 641.729 91.02 635.489 91.02C631.049 91.02 627.029 91.98 623.429 93.9C619.949 95.7 617.189 98.52 615.149 102.36C613.229 106.2 612.269 111.12 612.269 117.12V165H584.189V68.16H611.009V94.98L605.969 86.88C609.449 80.4 614.429 75.42 620.909 71.94C627.389 68.46 634.769 66.72 643.049 66.72ZM761.546 166.44C751.106 166.44 741.806 164.34 733.646 160.14C725.486 155.82 719.066 149.88 714.386 142.32C709.826 134.76 707.546 126.18 707.546 116.58C707.546 106.86 709.826 98.28 714.386 90.84C719.066 83.28 725.486 77.4 733.646 73.2C741.806 68.88 751.106 66.72 761.546 66.72C771.746 66.72 780.626 68.88 788.186 73.2C795.746 77.4 801.326 83.46 804.926 91.38L783.146 103.08C780.626 98.52 777.446 95.16 773.606 93C769.886 90.84 765.806 89.76 761.366 89.76C756.566 89.76 752.246 90.84 748.406 93C744.566 95.16 741.506 98.22 739.226 102.18C737.066 106.14 735.986 110.94 735.986 116.58C735.986 122.22 737.066 127.02 739.226 130.98C741.506 134.94 744.566 138 748.406 140.16C752.246 142.32 756.566 143.4 761.366 143.4C765.806 143.4 769.886 142.38 773.606 140.34C777.446 138.18 780.626 134.76 783.146 130.08L804.926 141.96C801.326 149.76 795.746 155.82 788.186 160.14C780.626 164.34 771.746 166.44 761.546 166.44ZM884.826 66.72C892.506 66.72 899.346 68.28 905.346 71.4C911.466 74.4 916.266 79.08 919.746 85.44C923.226 91.68 924.966 99.72 924.966 109.56V165H896.886V113.88C896.886 106.08 895.146 100.32 891.666 96.6C888.306 92.88 883.506 91.02 877.266 91.02C872.826 91.02 868.806 91.98 865.206 93.9C861.726 95.7 858.966 98.52 856.926 102.36C855.006 106.2 854.046 111.12 854.046 117.12V165H825.966V31.44H854.046V94.98L847.746 86.88C851.226 80.4 856.206 75.42 862.686 71.94C869.166 68.46 876.546 66.72 884.826 66.72ZM1079.84 66.72C1087.52 66.72 1094.3 68.28 1100.18 71.4C1106.18 74.4 1110.86 79.08 1114.22 85.44C1117.7 91.68 1119.44 99.72 1119.44 109.56V165H1091.36V113.88C1091.36 106.08 1089.74 100.32 1086.5 96.6C1083.26 92.88 1078.7 91.02 1072.82 91.02C1068.74 91.02 1065.08 91.98 1061.84 93.9C1058.6 95.7 1056.08 98.46 1054.28 102.18C1052.48 105.9 1051.58 110.64 1051.58 116.4V165H1023.5V113.88C1023.5 106.08 1021.88 100.32 1018.64 96.6C1015.52 92.88 1011.02 91.02 1005.14 91.02C1001.06 91.02 997.399 91.98 994.159 93.9C990.919 95.7 988.399 98.46 986.599 102.18C984.799 105.9 983.899 110.64 983.899 116.4V165H955.819V68.16H982.639V94.62L977.599 86.88C980.959 80.28 985.699 75.3 991.819 71.94C998.059 68.46 1005.14 66.72 1013.06 66.72C1021.94 66.72 1029.68 69 1036.28 73.56C1043 78 1047.44 84.84 1049.6 94.08L1039.7 91.38C1042.94 83.82 1048.1 77.82 1055.18 73.38C1062.38 68.94 1070.6 66.72 1079.84 66.72ZM1209.41 165V146.1L1207.61 141.96V108.12C1207.61 102.12 1205.75 97.44 1202.03 94.08C1198.43 90.72 1192.85 89.04 1185.29 89.04C1180.13 89.04 1175.03 89.88 1169.99 91.56C1165.07 93.12 1160.87 95.28 1157.39 98.04L1147.31 78.42C1152.59 74.7 1158.95 71.82 1166.39 69.78C1173.83 67.74 1181.39 66.72 1189.07 66.72C1203.83 66.72 1215.29 70.2 1223.45 77.16C1231.61 84.12 1235.69 94.98 1235.69 109.74V165H1209.41ZM1179.89 166.44C1172.33 166.44 1165.85 165.18 1160.45 162.66C1155.05 160.02 1150.91 156.48 1148.03 152.04C1145.15 147.6 1143.71 142.62 1143.71 137.1C1143.71 131.34 1145.09 126.3 1147.85 121.98C1150.73 117.66 1155.23 114.3 1161.35 111.9C1167.47 109.38 1175.45 108.12 1185.29 108.12H1211.03V124.5H1188.35C1181.75 124.5 1177.19 125.58 1174.67 127.74C1172.27 129.9 1171.07 132.6 1171.07 135.84C1171.07 139.44 1172.45 142.32 1175.21 144.48C1178.09 146.52 1181.99 147.54 1186.91 147.54C1191.59 147.54 1195.79 146.46 1199.51 144.3C1203.23 142.02 1205.93 138.72 1207.61 134.4L1211.93 147.36C1209.89 153.6 1206.17 158.34 1200.77 161.58C1195.37 164.82 1188.41 166.44 1179.89 166.44ZM1266.5 165V68.16H1293.32V95.52L1289.54 87.6C1292.42 80.76 1297.04 75.6 1303.4 72.12C1309.76 68.52 1317.5 66.72 1326.62 66.72V92.64C1325.42 92.52 1324.34 92.46 1323.38 92.46C1322.42 92.34 1321.4 92.28 1320.32 92.28C1312.64 92.28 1306.4 94.5 1301.6 98.94C1296.92 103.26 1294.58 110.04 1294.58 119.28V165H1266.5ZM1372.11 145.2L1372.83 111L1418.01 68.16H1451.49L1408.11 112.26L1393.53 124.14L1372.11 145.2ZM1348.89 165V31.44H1376.97V165H1348.89ZM1421.07 165L1388.31 124.32L1405.95 102.54L1455.09 165H1421.07Z" fill="#282828" fill-opacity="0.02"/>
<path d="M708.455 120V80.8H727.607C732.535 80.8 736.231 81.7333 738.695 83.6C741.197 85.4667 742.447 87.9307 742.447 90.992C742.447 93.0453 741.943 94.8373 740.935 96.368C739.927 97.8613 738.546 99.0187 736.791 99.84C735.037 100.661 733.021 101.072 730.743 101.072L731.807 98.776C734.271 98.776 736.455 99.1867 738.359 100.008C740.263 100.792 741.738 101.968 742.783 103.536C743.866 105.104 744.407 107.027 744.407 109.304C744.407 112.664 743.082 115.296 740.431 117.2C737.781 119.067 733.879 120 728.727 120H708.455ZM717.471 113.168H728.055C730.407 113.168 732.181 112.795 733.375 112.048C734.607 111.264 735.223 110.032 735.223 108.352C735.223 106.709 734.607 105.496 733.375 104.712C732.181 103.891 730.407 103.48 728.055 103.48H716.799V96.872H726.487C728.69 96.872 730.37 96.4987 731.527 95.752C732.722 94.968 733.319 93.792 733.319 92.224C733.319 90.6933 732.722 89.5547 731.527 88.808C730.37 88.024 728.69 87.632 726.487 87.632H717.471V113.168ZM767.292 120.448C763.857 120.448 760.833 119.776 758.22 118.432C755.644 117.088 753.646 115.259 752.228 112.944C750.809 110.592 750.1 107.923 750.1 104.936C750.1 101.912 750.79 99.2427 752.172 96.928C753.59 94.576 755.513 92.7467 757.94 91.44C760.366 90.096 763.11 89.424 766.172 89.424C769.121 89.424 771.772 90.0587 774.124 91.328C776.513 92.56 778.398 94.352 779.78 96.704C781.161 99.0187 781.852 101.8 781.852 105.048C781.852 105.384 781.833 105.776 781.796 106.224C781.758 106.635 781.721 107.027 781.684 107.4H757.212V102.304H777.092L773.732 103.816C773.732 102.248 773.414 100.885 772.78 99.728C772.145 98.5707 771.268 97.6747 770.148 97.04C769.028 96.368 767.721 96.032 766.228 96.032C764.734 96.032 763.409 96.368 762.252 97.04C761.132 97.6747 760.254 98.5893 759.62 99.784C758.985 100.941 758.668 102.323 758.668 103.928V105.272C758.668 106.915 759.022 108.371 759.732 109.64C760.478 110.872 761.505 111.824 762.812 112.496C764.156 113.131 765.724 113.448 767.516 113.448C769.121 113.448 770.521 113.205 771.716 112.72C772.948 112.235 774.068 111.507 775.076 110.536L779.724 115.576C778.342 117.144 776.606 118.357 774.516 119.216C772.425 120.037 770.017 120.448 767.292 120.448ZM807.66 89.424C810.049 89.424 812.177 89.9093 814.044 90.88C815.948 91.8133 817.441 93.2693 818.524 95.248C819.606 97.1893 820.148 99.6907 820.148 102.752V120H811.412V104.096C811.412 101.669 810.87 99.8773 809.788 98.72C808.742 97.5627 807.249 96.984 805.308 96.984C803.926 96.984 802.676 97.2827 801.556 97.88C800.473 98.44 799.614 99.3173 798.98 100.512C798.382 101.707 798.084 103.237 798.084 105.104V120H789.348V89.872H797.692V98.216L796.124 95.696C797.206 93.68 798.756 92.1307 800.772 91.048C802.788 89.9653 805.084 89.424 807.66 89.424ZM844.525 120.448C841.277 120.448 838.384 119.795 835.845 118.488C833.307 117.144 831.309 115.296 829.853 112.944C828.435 110.592 827.725 107.923 827.725 104.936C827.725 101.912 828.435 99.2427 829.853 96.928C831.309 94.576 833.307 92.7467 835.845 91.44C838.384 90.096 841.277 89.424 844.525 89.424C847.699 89.424 850.461 90.096 852.813 91.44C855.165 92.7467 856.901 94.632 858.021 97.096L851.245 100.736C850.461 99.3173 849.472 98.272 848.277 97.6C847.12 96.928 845.851 96.592 844.469 96.592C842.976 96.592 841.632 96.928 840.437 97.6C839.243 98.272 838.291 99.224 837.581 100.456C836.909 101.688 836.573 103.181 836.573 104.936C836.573 106.691 836.909 108.184 837.581 109.416C838.291 110.648 839.243 111.6 840.437 112.272C841.632 112.944 842.976 113.28 844.469 113.28C845.851 113.28 847.12 112.963 848.277 112.328C849.472 111.656 850.461 110.592 851.245 109.136L858.021 112.832C856.901 115.259 855.165 117.144 852.813 118.488C850.461 119.795 847.699 120.448 844.525 120.448ZM882.879 89.424C885.268 89.424 887.396 89.9093 889.263 90.88C891.167 91.8133 892.66 93.2693 893.743 95.248C894.826 97.1893 895.367 99.6907 895.367 102.752V120H886.631V104.096C886.631 101.669 886.09 99.8773 885.007 98.72C883.962 97.5627 882.468 96.984 880.527 96.984C879.146 96.984 877.895 97.2827 876.775 97.88C875.692 98.44 874.834 99.3173 874.199 100.512C873.602 101.707 873.303 103.237 873.303 105.104V120H864.567V78.448H873.303V98.216L871.343 95.696C872.426 93.68 873.975 92.1307 875.991 91.048C878.007 89.9653 880.303 89.424 882.879 89.424ZM943.55 89.424C945.939 89.424 948.049 89.9093 949.878 90.88C951.745 91.8133 953.201 93.2693 954.246 95.248C955.329 97.1893 955.87 99.6907 955.87 102.752V120H947.134V104.096C947.134 101.669 946.63 99.8773 945.622 98.72C944.614 97.5627 943.195 96.984 941.366 96.984C940.097 96.984 938.958 97.2827 937.95 97.88C936.942 98.44 936.158 99.2987 935.598 100.456C935.038 101.613 934.758 103.088 934.758 104.88V120H926.022V104.096C926.022 101.669 925.518 99.8773 924.51 98.72C923.539 97.5627 922.139 96.984 920.31 96.984C919.041 96.984 917.902 97.2827 916.894 97.88C915.886 98.44 915.102 99.2987 914.542 100.456C913.982 101.613 913.702 103.088 913.702 104.88V120H904.966V89.872H913.31V98.104L911.742 95.696C912.787 93.6427 914.262 92.0933 916.166 91.048C918.107 89.9653 920.31 89.424 922.774 89.424C925.537 89.424 927.945 90.1333 929.998 91.552C932.089 92.9333 933.47 95.0613 934.142 97.936L931.062 97.096C932.07 94.744 933.675 92.8773 935.878 91.496C938.118 90.1147 940.675 89.424 943.55 89.424ZM983.86 120V114.12L983.3 112.832V102.304C983.3 100.437 982.722 98.9813 981.564 97.936C980.444 96.8907 978.708 96.368 976.356 96.368C974.751 96.368 973.164 96.6293 971.596 97.152C970.066 97.6373 968.759 98.3093 967.676 99.168L964.54 93.064C966.183 91.9067 968.162 91.0107 970.476 90.376C972.791 89.7413 975.143 89.424 977.532 89.424C982.124 89.424 985.69 90.5067 988.228 92.672C990.767 94.8373 992.036 98.216 992.036 102.808V120H983.86ZM974.676 120.448C972.324 120.448 970.308 120.056 968.628 119.272C966.948 118.451 965.66 117.349 964.764 115.968C963.868 114.587 963.42 113.037 963.42 111.32C963.42 109.528 963.85 107.96 964.708 106.616C965.604 105.272 967.004 104.227 968.908 103.48C970.812 102.696 973.295 102.304 976.356 102.304H984.364V107.4H977.308C975.255 107.4 973.836 107.736 973.052 108.408C972.306 109.08 971.932 109.92 971.932 110.928C971.932 112.048 972.362 112.944 973.22 113.616C974.116 114.251 975.33 114.568 976.86 114.568C978.316 114.568 979.623 114.232 980.78 113.56C981.938 112.851 982.778 111.824 983.3 110.48L984.644 114.512C984.01 116.453 982.852 117.928 981.172 118.936C979.492 119.944 977.327 120.448 974.676 120.448ZM1001.62 120V89.872H1009.97V98.384L1008.79 95.92C1009.69 93.792 1011.12 92.1867 1013.1 91.104C1015.08 89.984 1017.49 89.424 1020.33 89.424V97.488C1019.95 97.4507 1019.62 97.432 1019.32 97.432C1019.02 97.3947 1018.7 97.376 1018.37 97.376C1015.98 97.376 1014.04 98.0667 1012.54 99.448C1011.09 100.792 1010.36 102.901 1010.36 105.776V120H1001.62ZM1034.48 113.84L1034.7 103.2L1048.76 89.872H1059.18L1045.68 103.592L1041.14 107.288L1034.48 113.84ZM1027.26 120V78.448H1035.99V120H1027.26ZM1049.71 120L1039.52 107.344L1045.01 100.568L1060.3 120H1049.71Z" fill="#282828"/>
</g>
<defs>
<clipPath id="clip0_1337_221">
<rect width="1764" height="200" fill="white"/>
</clipPath>
</defs>
</svg>
