<svg width="618" height="384" viewBox="0 0 618 384" fill="none" xmlns="http://www.w3.org/2000/svg">
<path d="M132.064 59.256L129.472 65.176L129.28 63.736C129.728 63.736 130.112 63.896 130.432 64.216C130.752 64.536 130.912 64.9307 130.912 65.4C130.912 65.9333 130.731 66.3707 130.368 66.712C130.027 67.0533 129.611 67.224 129.12 67.224C128.672 67.224 128.288 67.064 127.968 66.744C127.648 66.424 127.488 66.04 127.488 65.592C127.488 65.2933 127.531 65.0267 127.616 64.792C127.723 64.536 127.872 64.2373 128.064 63.896L130.528 59.256H132.064ZM137.504 59.256L134.912 65.176L134.72 63.736C135.168 63.736 135.552 63.896 135.872 64.216C136.192 64.536 136.352 64.9307 136.352 65.4C136.352 65.9333 136.171 66.3707 135.808 66.712C135.467 67.0533 135.051 67.224 134.56 67.224C134.112 67.224 133.728 67.064 133.408 66.744C133.088 66.424 132.928 66.04 132.928 65.592C132.928 65.2933 132.971 65.0267 133.056 64.792C133.163 64.536 133.312 64.2373 133.504 63.896L135.968 59.256H137.504ZM143.579 71.448H155.419L155.003 73.496H143.131L143.579 71.448ZM141.499 83H139.163L143.643 60.6H159.003L158.587 62.648H145.563L141.499 83ZM166.818 83.16C165.261 83.16 163.906 82.872 162.754 82.296C161.624 81.6987 160.738 80.8667 160.098 79.8C159.48 78.7333 159.17 77.4747 159.17 76.024C159.17 74.104 159.586 72.3973 160.418 70.904C161.25 69.3893 162.402 68.2053 163.874 67.352C165.346 66.4773 167.021 66.04 168.898 66.04C170.456 66.04 171.8 66.328 172.93 66.904C174.082 67.48 174.968 68.3013 175.586 69.368C176.226 70.4347 176.546 71.6933 176.546 73.144C176.546 75.064 176.13 76.7813 175.298 78.296C174.466 79.7893 173.314 80.9733 171.842 81.848C170.392 82.7227 168.717 83.16 166.818 83.16ZM166.978 81.144C168.386 81.144 169.634 80.8133 170.722 80.152C171.832 79.4693 172.696 78.5307 173.314 77.336C173.954 76.1413 174.274 74.7867 174.274 73.272C174.274 71.608 173.784 70.3173 172.802 69.4C171.842 68.4827 170.488 68.024 168.738 68.024C167.352 68.024 166.104 68.3653 164.994 69.048C163.885 69.7307 163.01 70.6693 162.37 71.864C161.752 73.0373 161.442 74.392 161.442 75.928C161.442 77.5707 161.922 78.8507 162.882 79.768C163.864 80.6853 165.229 81.144 166.978 81.144ZM187.841 83.16C186.283 83.16 184.929 82.872 183.777 82.296C182.646 81.6987 181.761 80.8667 181.121 79.8C180.502 78.7333 180.193 77.4747 180.193 76.024C180.193 74.104 180.609 72.3973 181.441 70.904C182.273 69.3893 183.425 68.2053 184.897 67.352C186.369 66.4773 188.043 66.04 189.921 66.04C191.478 66.04 192.822 66.328 193.953 66.904C195.105 67.48 195.99 68.3013 196.609 69.368C197.249 70.4347 197.569 71.6933 197.569 73.144C197.569 75.064 197.153 76.7813 196.321 78.296C195.489 79.7893 194.337 80.9733 192.865 81.848C191.414 82.7227 189.739 83.16 187.841 83.16ZM188.001 81.144C189.409 81.144 190.657 80.8133 191.745 80.152C192.854 79.4693 193.718 78.5307 194.337 77.336C194.977 76.1413 195.297 74.7867 195.297 73.272C195.297 71.608 194.806 70.3173 193.825 69.4C192.865 68.4827 191.51 68.024 189.761 68.024C188.374 68.024 187.126 68.3653 186.017 69.048C184.907 69.7307 184.033 70.6693 183.393 71.864C182.774 73.0373 182.465 74.392 182.465 75.928C182.465 77.5707 182.945 78.8507 183.905 79.768C184.886 80.6853 186.251 81.144 188.001 81.144ZM208.543 83.16C207.114 83.16 205.845 82.872 204.735 82.296C203.626 81.72 202.762 80.8987 202.143 79.832C201.525 78.7653 201.215 77.496 201.215 76.024C201.215 74.5947 201.45 73.272 201.919 72.056C202.389 70.84 203.05 69.784 203.903 68.888C204.757 67.9707 205.759 67.2667 206.911 66.776C208.085 66.2853 209.354 66.04 210.719 66.04C212.191 66.04 213.439 66.3067 214.463 66.84C215.487 67.352 216.277 68.1093 216.831 69.112C217.386 70.0933 217.663 71.288 217.663 72.696C217.663 74.2107 217.45 75.608 217.023 76.888C216.618 78.168 216.01 79.2773 215.199 80.216C214.389 81.1547 213.418 81.88 212.287 82.392C211.178 82.904 209.93 83.16 208.543 83.16ZM209.023 81.144C210.431 81.144 211.679 80.8133 212.767 80.152C213.877 79.4693 214.741 78.5307 215.359 77.336C215.999 76.1413 216.319 74.7867 216.319 73.272C216.319 71.608 215.829 70.3173 214.847 69.4C213.887 68.4827 212.533 68.024 210.783 68.024C209.397 68.024 208.149 68.3653 207.039 69.048C205.93 69.7307 205.055 70.6693 204.415 71.864C203.797 73.0373 203.487 74.392 203.487 75.928C203.487 77.5707 203.967 78.8507 204.927 79.768C205.909 80.6853 207.274 81.144 209.023 81.144ZM214.559 83L215.519 78.168L216.479 74.776L216.799 71.256L219.199 59.256H221.471L216.735 83H214.559ZM233.358 83L236.686 66.2H238.958L235.63 83H233.358ZM238.798 62.488C238.35 62.488 237.976 62.3387 237.678 62.04C237.4 61.7413 237.262 61.3893 237.262 60.984C237.262 60.5147 237.422 60.1093 237.742 59.768C238.083 59.4267 238.51 59.256 239.022 59.256C239.47 59.256 239.843 59.3947 240.142 59.672C240.44 59.9493 240.59 60.3013 240.59 60.728C240.59 61.24 240.419 61.6667 240.078 62.008C239.736 62.328 239.31 62.488 238.798 62.488ZM254.464 66.04C255.978 66.04 257.216 66.3387 258.176 66.936C259.157 67.512 259.829 68.3547 260.192 69.464C260.576 70.5733 260.608 71.896 260.288 73.432L258.368 83H256.096L258.016 73.4C258.357 71.736 258.176 70.4347 257.472 69.496C256.789 68.5573 255.573 68.088 253.824 68.088C252.032 68.088 250.538 68.5787 249.344 69.56C248.17 70.5413 247.381 72.0133 246.976 73.976L245.184 83H242.912L246.24 66.2H248.416L247.456 71.032L246.976 70.2C247.786 68.7493 248.832 67.6933 250.112 67.032C251.413 66.3707 252.864 66.04 254.464 66.04ZM265.88 83L269.656 64.056C269.976 62.4773 270.616 61.2613 271.576 60.408C272.558 59.5333 273.838 59.096 275.416 59.096C276.099 59.096 276.739 59.192 277.336 59.384C277.934 59.576 278.424 59.8427 278.808 60.184L277.784 61.848C277.187 61.2933 276.398 61.016 275.416 61.016C274.435 61.016 273.646 61.2827 273.048 61.816C272.472 62.328 272.067 63.16 271.832 64.312L271.32 66.776L271.192 67.768L268.152 83H265.88ZM265.848 68.088L266.2 66.2H276.6L276.216 68.088H265.848ZM276.344 83L281.08 59.256H283.352L278.616 83H276.344ZM292.997 83.16C291.524 83.16 290.298 82.8613 289.316 82.264C288.356 81.6667 287.695 80.8133 287.332 79.704C286.97 78.5947 286.927 77.2827 287.204 75.768L289.124 66.2H291.396L289.476 75.768C289.156 77.432 289.338 78.744 290.02 79.704C290.703 80.6427 291.898 81.112 293.604 81.112C295.375 81.112 296.847 80.6213 298.021 79.64C299.215 78.6587 300.015 77.1867 300.42 75.224L302.212 66.2H304.485L301.125 83H298.948L299.908 78.168L300.389 78.968C299.599 80.4187 298.554 81.4853 297.252 82.168C295.972 82.8293 294.554 83.16 292.997 83.16ZM316.097 83.16C314.497 83.16 313.099 82.872 311.905 82.296C310.731 81.6987 309.825 80.8667 309.185 79.8C308.566 78.7333 308.257 77.464 308.257 75.992C308.257 74.072 308.662 72.3653 309.473 70.872C310.283 69.3787 311.393 68.2053 312.801 67.352C314.209 66.4773 315.798 66.04 317.569 66.04C319.062 66.04 320.353 66.328 321.441 66.904C322.529 67.4587 323.371 68.2693 323.969 69.336C324.587 70.4027 324.897 71.6827 324.897 73.176C324.897 73.5173 324.875 73.8693 324.833 74.232C324.79 74.5733 324.737 74.904 324.673 75.224H309.921L310.209 73.528H323.617L322.689 74.168C322.902 72.824 322.806 71.6933 322.401 70.776C321.995 69.8587 321.366 69.1653 320.513 68.696C319.681 68.2053 318.678 67.96 317.505 67.96C316.139 67.96 314.923 68.3013 313.857 68.984C312.79 69.6453 311.958 70.5733 311.361 71.768C310.763 72.9413 310.465 74.3173 310.465 75.896C310.465 77.5813 310.945 78.8827 311.905 79.8C312.886 80.696 314.347 81.144 316.289 81.144C317.419 81.144 318.465 80.9627 319.425 80.6C320.385 80.216 321.174 79.6933 321.793 79.032L322.817 80.664C322.027 81.4533 321.035 82.072 319.841 82.52C318.667 82.9467 317.419 83.16 316.097 83.16ZM340.241 66.04C341.756 66.04 342.993 66.3387 343.953 66.936C344.934 67.512 345.606 68.3547 345.969 69.464C346.353 70.5733 346.385 71.896 346.065 73.432L344.145 83H341.873L343.793 73.4C344.134 71.736 343.953 70.4347 343.249 69.496C342.566 68.5573 341.35 68.088 339.601 68.088C337.809 68.088 336.316 68.5787 335.121 69.56C333.948 70.5413 333.158 72.0133 332.753 73.976L330.961 83H328.689L332.017 66.2H334.193L333.233 71.032L332.753 70.2C333.564 68.7493 334.609 67.6933 335.889 67.032C337.19 66.3707 338.641 66.04 340.241 66.04ZM358.89 83.16C357.29 83.16 355.903 82.872 354.73 82.296C353.578 81.6987 352.682 80.8667 352.042 79.8C351.423 78.7333 351.114 77.4747 351.114 76.024C351.114 74.104 351.53 72.3973 352.362 70.904C353.194 69.3893 354.346 68.2053 355.818 67.352C357.311 66.4773 359.007 66.04 360.906 66.04C362.463 66.04 363.797 66.328 364.906 66.904C366.037 67.4587 366.911 68.2907 367.53 69.4L365.61 70.52C365.141 69.6667 364.49 69.0373 363.658 68.632C362.847 68.2267 361.866 68.024 360.714 68.024C359.306 68.024 358.047 68.3653 356.938 69.048C355.829 69.7307 354.954 70.6693 354.314 71.864C353.695 73.0373 353.386 74.392 353.386 75.928C353.386 77.5707 353.866 78.8507 354.826 79.768C355.807 80.6853 357.194 81.144 358.986 81.144C360.074 81.144 361.077 80.9413 361.994 80.536C362.933 80.1093 363.701 79.5013 364.298 78.712L365.93 79.96C365.205 80.9627 364.213 81.752 362.954 82.328C361.695 82.8827 360.341 83.16 358.89 83.16ZM377.664 83.16C376.064 83.16 374.667 82.872 373.472 82.296C372.299 81.6987 371.392 80.8667 370.752 79.8C370.133 78.7333 369.824 77.464 369.824 75.992C369.824 74.072 370.229 72.3653 371.04 70.872C371.851 69.3787 372.96 68.2053 374.368 67.352C375.776 66.4773 377.365 66.04 379.136 66.04C380.629 66.04 381.92 66.328 383.008 66.904C384.096 67.4587 384.939 68.2693 385.536 69.336C386.155 70.4027 386.464 71.6827 386.464 73.176C386.464 73.5173 386.443 73.8693 386.4 74.232C386.357 74.5733 386.304 74.904 386.24 75.224H371.488L371.776 73.528H385.184L384.256 74.168C384.469 72.824 384.373 71.6933 383.968 70.776C383.563 69.8587 382.933 69.1653 382.08 68.696C381.248 68.2053 380.245 67.96 379.072 67.96C377.707 67.96 376.491 68.3013 375.424 68.984C374.357 69.6453 373.525 70.5733 372.928 71.768C372.331 72.9413 372.032 74.3173 372.032 75.896C372.032 77.5813 372.512 78.8827 373.472 79.8C374.453 80.696 375.915 81.144 377.856 81.144C378.987 81.144 380.032 80.9627 380.992 80.6C381.952 80.216 382.741 79.6933 383.36 79.032L384.384 80.664C383.595 81.4533 382.603 82.072 381.408 82.52C380.235 82.9467 378.987 83.16 377.664 83.16ZM395.153 83.16C393.787 83.16 392.497 82.968 391.281 82.584C390.065 82.2 389.126 81.7093 388.465 81.112L389.553 79.32C390.193 79.896 391.035 80.3547 392.081 80.696C393.126 81.016 394.225 81.176 395.377 81.176C396.977 81.176 398.203 80.9093 399.057 80.376C399.931 79.8427 400.369 79.1067 400.369 78.168C400.369 77.528 400.134 77.048 399.665 76.728C399.217 76.3867 398.63 76.1307 397.905 75.96C397.179 75.768 396.411 75.5867 395.601 75.416C394.79 75.2453 394.022 75.032 393.297 74.776C392.571 74.4987 391.974 74.0827 391.505 73.528C391.057 72.9733 390.833 72.2267 390.833 71.288C390.833 70.2213 391.131 69.2933 391.729 68.504C392.347 67.7147 393.201 67.1067 394.289 66.68C395.377 66.2533 396.657 66.04 398.129 66.04C399.195 66.04 400.251 66.1787 401.297 66.456C402.342 66.7333 403.185 67.1173 403.825 67.608L402.865 69.432C402.203 68.92 401.435 68.5573 400.561 68.344C399.686 68.1093 398.811 67.992 397.937 67.992C396.379 67.992 395.174 68.28 394.321 68.856C393.489 69.4107 393.073 70.1467 393.073 71.064C393.073 71.704 393.297 72.1947 393.745 72.536C394.214 72.8773 394.811 73.144 395.537 73.336C396.262 73.528 397.03 73.7093 397.841 73.88C398.673 74.0293 399.441 74.2427 400.145 74.52C400.87 74.7973 401.457 75.2027 401.905 75.736C402.374 76.248 402.609 76.9733 402.609 77.912C402.609 79.0213 402.299 79.9707 401.681 80.76C401.062 81.528 400.187 82.1253 399.057 82.552C397.947 82.9573 396.646 83.16 395.153 83.16ZM427.728 66.04C429.243 66.04 430.48 66.3387 431.44 66.936C432.422 67.512 433.094 68.3547 433.456 69.464C433.84 70.5733 433.872 71.896 433.552 73.432L431.632 83H429.36L431.28 73.4C431.622 71.736 431.44 70.4347 430.736 69.496C430.054 68.5573 428.838 68.088 427.088 68.088C425.296 68.088 423.803 68.5787 422.608 69.56C421.435 70.5413 420.646 72.0133 420.24 73.976L418.448 83H416.176L419.504 66.2H421.68L420.72 71.032L420.24 70.2C421.051 68.7493 422.096 67.6933 423.376 67.032C424.678 66.3707 426.128 66.04 427.728 66.04ZM446.25 83.16C444.692 83.16 443.338 82.872 442.186 82.296C441.055 81.6987 440.17 80.8667 439.53 79.8C438.911 78.7333 438.602 77.4747 438.602 76.024C438.602 74.104 439.018 72.3973 439.85 70.904C440.682 69.3893 441.834 68.2053 443.306 67.352C444.778 66.4773 446.452 66.04 448.33 66.04C449.887 66.04 451.231 66.328 452.362 66.904C453.514 67.48 454.399 68.3013 455.018 69.368C455.658 70.4347 455.978 71.6933 455.978 73.144C455.978 75.064 455.562 76.7813 454.73 78.296C453.898 79.7893 452.746 80.9733 451.274 81.848C449.823 82.7227 448.148 83.16 446.25 83.16ZM446.41 81.144C447.818 81.144 449.066 80.8133 450.154 80.152C451.263 79.4693 452.127 78.5307 452.746 77.336C453.386 76.1413 453.706 74.7867 453.706 73.272C453.706 71.608 453.215 70.3173 452.234 69.4C451.274 68.4827 449.919 68.024 448.17 68.024C446.783 68.024 445.535 68.3653 444.426 69.048C443.316 69.7307 442.442 70.6693 441.802 71.864C441.183 73.0373 440.874 74.392 440.874 75.928C440.874 77.5707 441.354 78.8507 442.314 79.768C443.295 80.6853 444.66 81.144 446.41 81.144ZM465.128 83.16C464.168 83.16 463.347 82.9573 462.664 82.552C461.981 82.1253 461.501 81.528 461.224 80.76C460.968 79.992 460.947 79.0747 461.16 78.008L464.232 62.488H466.504L463.432 77.912C463.219 78.9573 463.293 79.768 463.656 80.344C464.04 80.92 464.733 81.208 465.736 81.208C466.205 81.208 466.664 81.144 467.112 81.016C467.56 80.8667 467.965 80.6427 468.328 80.344L468.872 82.072C468.339 82.4773 467.741 82.7653 467.08 82.936C466.419 83.0853 465.768 83.16 465.128 83.16ZM460.136 68.088L460.488 66.2H470.888L470.504 68.088H460.136ZM132.992 131.16C131.435 131.16 130.08 130.872 128.928 130.296C127.797 129.699 126.912 128.867 126.272 127.8C125.653 126.733 125.344 125.475 125.344 124.024C125.344 122.104 125.76 120.397 126.592 118.904C127.424 117.389 128.576 116.205 130.048 115.352C131.52 114.477 133.195 114.04 135.072 114.04C136.629 114.04 137.973 114.328 139.104 114.904C140.256 115.48 141.141 116.301 141.76 117.368C142.4 118.435 142.72 119.693 142.72 121.144C142.72 123.064 142.304 124.781 141.472 126.296C140.64 127.789 139.488 128.973 138.016 129.848C136.565 130.723 134.891 131.16 132.992 131.16ZM133.152 129.144C134.56 129.144 135.808 128.813 136.896 128.152C138.005 127.469 138.869 126.531 139.488 125.336C140.128 124.141 140.448 122.787 140.448 121.272C140.448 119.608 139.957 118.317 138.976 117.4C138.016 116.483 136.661 116.024 134.912 116.024C133.525 116.024 132.277 116.365 131.168 117.048C130.059 117.731 129.184 118.669 128.544 119.864C127.925 121.037 127.616 122.392 127.616 123.928C127.616 125.571 128.096 126.851 129.056 127.768C130.037 128.685 131.403 129.144 133.152 129.144ZM158.078 114.04C159.593 114.04 160.831 114.339 161.791 114.936C162.772 115.512 163.444 116.355 163.806 117.464C164.19 118.573 164.222 119.896 163.903 121.432L161.983 131H159.71L161.631 121.4C161.972 119.736 161.791 118.435 161.087 117.496C160.404 116.557 159.188 116.088 157.438 116.088C155.646 116.088 154.153 116.579 152.958 117.56C151.785 118.541 150.996 120.013 150.59 121.976L148.798 131H146.526L149.854 114.2H152.03L151.07 119.032L150.59 118.2C151.401 116.749 152.446 115.693 153.726 115.032C155.028 114.371 156.478 114.04 158.078 114.04ZM169.111 131L173.847 107.256H176.119L171.383 131H169.111ZM177.801 137.368C177.012 137.368 176.255 137.229 175.529 136.952C174.804 136.696 174.228 136.333 173.801 135.864L175.017 134.2C175.38 134.584 175.807 134.883 176.297 135.096C176.788 135.309 177.343 135.416 177.961 135.416C178.687 135.416 179.348 135.213 179.945 134.808C180.564 134.424 181.204 133.72 181.865 132.696L183.561 130.104L183.849 129.784L193.833 114.2H196.169L183.881 133.176C183.177 134.243 182.516 135.075 181.897 135.672C181.279 136.291 180.639 136.728 179.977 136.984C179.337 137.24 178.612 137.368 177.801 137.368ZM183.177 131.48L178.857 114.2H181.161L184.937 129.624L183.177 131.48ZM211.648 131.16C210.688 131.16 209.867 130.957 209.184 130.552C208.501 130.125 208.021 129.528 207.744 128.76C207.488 127.992 207.467 127.075 207.68 126.008L210.752 110.488H213.024L209.952 125.912C209.739 126.957 209.813 127.768 210.176 128.344C210.56 128.92 211.253 129.208 212.256 129.208C212.725 129.208 213.184 129.144 213.632 129.016C214.08 128.867 214.485 128.643 214.848 128.344L215.392 130.072C214.859 130.477 214.261 130.765 213.6 130.936C212.939 131.085 212.288 131.16 211.648 131.16ZM206.656 116.088L207.008 114.2H217.408L217.024 116.088H206.656ZM231.816 114.04C233.331 114.04 234.568 114.339 235.528 114.936C236.509 115.512 237.181 116.355 237.544 117.464C237.928 118.573 237.96 119.896 237.64 121.432L235.72 131H233.448L235.368 121.4C235.709 119.736 235.528 118.435 234.824 117.496C234.141 116.557 232.925 116.088 231.176 116.088C229.384 116.088 227.891 116.579 226.696 117.56C225.523 118.541 224.733 120.013 224.328 121.976L222.536 131H220.264L225 107.256H227.272L224.904 119.032L224.328 118.2C225.139 116.749 226.184 115.693 227.464 115.032C228.765 114.371 230.216 114.04 231.816 114.04ZM250.529 131.16C248.929 131.16 247.532 130.872 246.337 130.296C245.164 129.699 244.257 128.867 243.617 127.8C242.998 126.733 242.689 125.464 242.689 123.992C242.689 122.072 243.094 120.365 243.905 118.872C244.716 117.379 245.825 116.205 247.233 115.352C248.641 114.477 250.23 114.04 252.001 114.04C253.494 114.04 254.785 114.328 255.873 114.904C256.961 115.459 257.804 116.269 258.401 117.336C259.02 118.403 259.329 119.683 259.329 121.176C259.329 121.517 259.308 121.869 259.265 122.232C259.222 122.573 259.169 122.904 259.105 123.224H244.353L244.641 121.528H258.049L257.121 122.168C257.334 120.824 257.238 119.693 256.833 118.776C256.428 117.859 255.798 117.165 254.945 116.696C254.113 116.205 253.11 115.96 251.937 115.96C250.572 115.96 249.356 116.301 248.289 116.984C247.222 117.645 246.39 118.573 245.793 119.768C245.196 120.941 244.897 122.317 244.897 123.896C244.897 125.581 245.377 126.883 246.337 127.8C247.318 128.696 248.78 129.144 250.721 129.144C251.852 129.144 252.897 128.963 253.857 128.6C254.817 128.216 255.606 127.693 256.225 127.032L257.249 128.664C256.46 129.453 255.468 130.072 254.273 130.52C253.1 130.947 251.852 131.16 250.529 131.16ZM272.456 131L277.192 107.256H279.464L277.096 119.064L276.072 122.392L275.688 125.656L274.632 131H272.456ZM281.8 131.16C280.35 131.16 279.102 130.904 278.056 130.392C277.032 129.859 276.243 129.101 275.688 128.12C275.155 127.117 274.878 125.912 274.856 124.504C274.856 122.968 275.07 121.56 275.496 120.28C275.923 119 276.531 117.901 277.32 116.984C278.131 116.045 279.091 115.32 280.2 114.808C281.331 114.296 282.59 114.04 283.976 114.04C285.427 114.04 286.697 114.328 287.785 114.904C288.894 115.459 289.758 116.269 290.377 117.336C291.017 118.403 291.337 119.672 291.337 121.144C291.337 122.595 291.102 123.928 290.632 125.144C290.163 126.36 289.491 127.416 288.617 128.312C287.763 129.208 286.761 129.912 285.609 130.424C284.457 130.915 283.187 131.16 281.8 131.16ZM281.769 129.144C283.177 129.144 284.424 128.813 285.512 128.152C286.601 127.469 287.454 126.531 288.073 125.336C288.712 124.141 289.032 122.787 289.032 121.272C289.032 119.608 288.552 118.317 287.593 117.4C286.633 116.483 285.267 116.024 283.497 116.024C282.11 116.024 280.862 116.365 279.752 117.048C278.664 117.731 277.8 118.669 277.16 119.864C276.542 121.037 276.232 122.392 276.232 123.928C276.232 125.571 276.712 126.851 277.672 127.768C278.633 128.685 279.998 129.144 281.769 129.144ZM295.104 131L298.432 114.2H300.608L299.648 119.16L299.392 118.296C300.139 116.824 301.12 115.747 302.336 115.064C303.573 114.381 305.109 114.04 306.944 114.04L306.528 116.248C306.421 116.248 306.315 116.248 306.208 116.248C306.123 116.227 306.016 116.216 305.888 116.216C304.096 116.216 302.613 116.739 301.44 117.784C300.288 118.808 299.499 120.365 299.072 122.456L297.376 131H295.104ZM315.669 131.16C314.24 131.16 312.971 130.872 311.861 130.296C310.752 129.72 309.888 128.899 309.269 127.832C308.651 126.765 308.341 125.496 308.341 124.024C308.341 122.595 308.576 121.272 309.045 120.056C309.515 118.84 310.176 117.784 311.029 116.888C311.883 115.971 312.885 115.267 314.037 114.776C315.211 114.285 316.48 114.04 317.845 114.04C319.317 114.04 320.565 114.307 321.589 114.84C322.613 115.352 323.403 116.109 323.957 117.112C324.512 118.093 324.789 119.288 324.789 120.696C324.789 122.723 324.416 124.525 323.669 126.104C322.923 127.683 321.867 128.92 320.501 129.816C319.136 130.712 317.525 131.16 315.669 131.16ZM316.149 129.144C317.557 129.144 318.805 128.813 319.893 128.152C321.003 127.469 321.867 126.531 322.485 125.336C323.125 124.141 323.445 122.787 323.445 121.272C323.445 119.608 322.955 118.317 321.973 117.4C321.013 116.483 319.659 116.024 317.909 116.024C316.523 116.024 315.275 116.365 314.165 117.048C313.056 117.731 312.181 118.669 311.541 119.864C310.923 121.037 310.613 122.392 310.613 123.928C310.613 125.571 311.093 126.851 312.053 127.768C313.035 128.685 314.4 129.144 316.149 129.144ZM321.685 131L322.645 126.168L323.605 122.776L323.925 119.256L324.949 114.2H327.221L323.861 131H321.685ZM331.149 131L334.477 114.2H336.749L333.421 131H331.149ZM336.589 110.488C336.141 110.488 335.768 110.339 335.469 110.04C335.192 109.741 335.053 109.389 335.053 108.984C335.053 108.515 335.213 108.109 335.533 107.768C335.874 107.427 336.301 107.256 336.813 107.256C337.261 107.256 337.634 107.395 337.933 107.672C338.232 107.949 338.381 108.301 338.381 108.728C338.381 109.24 338.21 109.667 337.869 110.008C337.528 110.328 337.101 110.488 336.589 110.488ZM352.255 114.04C353.769 114.04 355.007 114.339 355.967 114.936C356.948 115.512 357.62 116.355 357.983 117.464C358.367 118.573 358.399 119.896 358.079 121.432L356.159 131H353.887L355.807 121.4C356.148 119.736 355.967 118.435 355.263 117.496C354.58 116.557 353.364 116.088 351.615 116.088C349.823 116.088 348.329 116.579 347.135 117.56C345.961 118.541 345.172 120.013 344.767 121.976L342.975 131H340.703L344.031 114.2H346.207L345.247 119.032L344.767 118.2C345.577 116.749 346.623 115.693 347.903 115.032C349.204 114.371 350.655 114.04 352.255 114.04ZM377.519 131.16C376.153 131.16 374.863 130.968 373.647 130.584C372.431 130.2 371.492 129.709 370.831 129.112L371.919 127.32C372.559 127.896 373.401 128.355 374.447 128.696C375.492 129.016 376.591 129.176 377.743 129.176C379.343 129.176 380.569 128.909 381.423 128.376C382.297 127.843 382.735 127.107 382.735 126.168C382.735 125.528 382.5 125.048 382.031 124.728C381.583 124.387 380.996 124.131 380.271 123.96C379.545 123.768 378.777 123.587 377.967 123.416C377.156 123.245 376.388 123.032 375.663 122.776C374.937 122.499 374.34 122.083 373.871 121.528C373.423 120.973 373.199 120.227 373.199 119.288C373.199 118.221 373.497 117.293 374.095 116.504C374.713 115.715 375.567 115.107 376.655 114.68C377.743 114.253 379.023 114.04 380.495 114.04C381.561 114.04 382.617 114.179 383.663 114.456C384.708 114.733 385.551 115.117 386.191 115.608L385.231 117.432C384.569 116.92 383.801 116.557 382.927 116.344C382.052 116.109 381.177 115.992 380.303 115.992C378.745 115.992 377.54 116.28 376.687 116.856C375.855 117.411 375.439 118.147 375.439 119.064C375.439 119.704 375.663 120.195 376.111 120.536C376.58 120.877 377.177 121.144 377.903 121.336C378.628 121.528 379.396 121.709 380.207 121.88C381.039 122.029 381.807 122.243 382.511 122.52C383.236 122.797 383.823 123.203 384.271 123.736C384.74 124.248 384.975 124.973 384.975 125.912C384.975 127.021 384.665 127.971 384.047 128.76C383.428 129.528 382.553 130.125 381.423 130.552C380.313 130.957 379.012 131.16 377.519 131.16ZM394.552 131.16C393.592 131.16 392.77 130.957 392.088 130.552C391.405 130.125 390.925 129.528 390.648 128.76C390.392 127.992 390.37 127.075 390.584 126.008L393.656 110.488H395.928L392.856 125.912C392.642 126.957 392.717 127.768 393.08 128.344C393.464 128.92 394.157 129.208 395.16 129.208C395.629 129.208 396.088 129.144 396.536 129.016C396.984 128.867 397.389 128.643 397.752 128.344L398.296 130.072C397.762 130.477 397.165 130.765 396.504 130.936C395.842 131.085 395.192 131.16 394.552 131.16ZM389.56 116.088L389.912 114.2H400.312L399.928 116.088H389.56ZM403.168 131L406.496 114.2H408.672L407.712 119.16L407.456 118.296C408.202 116.824 409.184 115.747 410.4 115.064C411.637 114.381 413.173 114.04 415.008 114.04L414.592 116.248C414.485 116.248 414.378 116.248 414.272 116.248C414.186 116.227 414.08 116.216 413.952 116.216C412.16 116.216 410.677 116.739 409.504 117.784C408.352 118.808 407.562 120.365 407.136 122.456L405.44 131H403.168ZM424.011 131.16C422.539 131.16 421.313 130.861 420.331 130.264C419.371 129.667 418.71 128.813 418.347 127.704C417.985 126.595 417.942 125.283 418.219 123.768L420.139 114.2H422.411L420.491 123.768C420.171 125.432 420.353 126.744 421.035 127.704C421.718 128.643 422.913 129.112 424.619 129.112C426.39 129.112 427.862 128.621 429.035 127.64C430.23 126.659 431.03 125.187 431.435 123.224L433.227 114.2H435.5L432.139 131H429.963L430.923 126.168L431.403 126.968C430.614 128.419 429.569 129.485 428.267 130.168C426.987 130.829 425.569 131.16 424.011 131.16ZM447.047 131.16C445.447 131.16 444.061 130.872 442.887 130.296C441.735 129.699 440.839 128.867 440.199 127.8C439.581 126.733 439.271 125.475 439.271 124.024C439.271 122.104 439.687 120.397 440.519 118.904C441.351 117.389 442.503 116.205 443.975 115.352C445.469 114.477 447.165 114.04 449.063 114.04C450.621 114.04 451.954 114.328 453.063 114.904C454.194 115.459 455.069 116.291 455.687 117.4L453.767 118.52C453.298 117.667 452.647 117.037 451.815 116.632C451.005 116.227 450.023 116.024 448.871 116.024C447.463 116.024 446.205 116.365 445.095 117.048C443.986 117.731 443.111 118.669 442.471 119.864C441.853 121.037 441.543 122.392 441.543 123.928C441.543 125.571 442.023 126.851 442.983 127.768C443.965 128.685 445.351 129.144 447.143 129.144C448.231 129.144 449.234 128.941 450.151 128.536C451.09 128.109 451.858 127.501 452.455 126.712L454.087 127.96C453.362 128.963 452.37 129.752 451.111 130.328C449.853 130.883 448.498 131.16 447.047 131.16ZM463.954 131.16C462.994 131.16 462.173 130.957 461.49 130.552C460.808 130.125 460.328 129.528 460.05 128.76C459.794 127.992 459.773 127.075 459.986 126.008L463.058 110.488H465.33L462.258 125.912C462.045 126.957 462.12 127.768 462.482 128.344C462.866 128.92 463.56 129.208 464.562 129.208C465.032 129.208 465.49 129.144 465.938 129.016C466.386 128.867 466.792 128.643 467.154 128.344L467.698 130.072C467.165 130.477 466.568 130.765 465.906 130.936C465.245 131.085 464.594 131.16 463.954 131.16ZM458.962 116.088L459.314 114.2H469.714L469.33 116.088H458.962ZM479.61 131.16C478.138 131.16 476.912 130.861 475.93 130.264C474.97 129.667 474.309 128.813 473.946 127.704C473.584 126.595 473.541 125.283 473.818 123.768L475.738 114.2H478.01L476.09 123.768C475.77 125.432 475.952 126.744 476.634 127.704C477.317 128.643 478.512 129.112 480.218 129.112C481.989 129.112 483.461 128.621 484.634 127.64C485.829 126.659 486.629 125.187 487.034 123.224L488.826 114.2H491.098L487.738 131H485.562L486.522 126.168L487.002 126.968C486.213 128.419 485.168 129.485 483.866 130.168C482.586 130.829 481.168 131.16 479.61 131.16ZM495.03 131L498.358 114.2H500.534L499.574 119.16L499.318 118.296C500.065 116.824 501.046 115.747 502.262 115.064C503.5 114.381 505.036 114.04 506.87 114.04L506.454 116.248C506.348 116.248 506.241 116.248 506.134 116.248C506.049 116.227 505.942 116.216 505.814 116.216C504.022 116.216 502.54 116.739 501.366 117.784C500.214 118.808 499.425 120.365 498.998 122.456L497.302 131H495.03ZM516.108 131.16C514.508 131.16 513.11 130.872 511.916 130.296C510.742 129.699 509.836 128.867 509.196 127.8C508.577 126.733 508.268 125.464 508.268 123.992C508.268 122.072 508.673 120.365 509.484 118.872C510.294 117.379 511.404 116.205 512.812 115.352C514.22 114.477 515.809 114.04 517.58 114.04C519.073 114.04 520.364 114.328 521.452 114.904C522.54 115.459 523.382 116.269 523.98 117.336C524.598 118.403 524.908 119.683 524.908 121.176C524.908 121.517 524.886 121.869 524.844 122.232C524.801 122.573 524.748 122.904 524.684 123.224H509.932L510.22 121.528H523.628L522.7 122.168C522.913 120.824 522.817 119.693 522.412 118.776C522.006 117.859 521.377 117.165 520.524 116.696C519.692 116.205 518.689 115.96 517.516 115.96C516.15 115.96 514.934 116.301 513.868 116.984C512.801 117.645 511.969 118.573 511.372 119.768C510.774 120.941 510.476 122.317 510.476 123.896C510.476 125.581 510.956 126.883 511.916 127.8C512.897 128.696 514.358 129.144 516.3 129.144C517.43 129.144 518.476 128.963 519.436 128.6C520.396 128.216 521.185 127.693 521.804 127.032L522.828 128.664C522.038 129.453 521.046 130.072 519.852 130.52C518.678 130.947 517.43 131.16 516.108 131.16ZM526.364 135.672L528.956 129.752L529.18 131.16C528.711 131.16 528.316 131 527.996 130.68C527.676 130.36 527.516 129.965 527.516 129.496C527.516 128.963 527.698 128.525 528.06 128.184C528.423 127.843 528.839 127.672 529.308 127.672C529.778 127.672 530.162 127.832 530.46 128.152C530.78 128.451 530.94 128.845 530.94 129.336C530.94 129.613 530.887 129.88 530.78 130.136C530.695 130.371 530.546 130.669 530.332 131.032L527.9 135.672H526.364ZM125.504 179L130.24 155.256H132.512L130.144 167.064L129.12 170.392L128.736 173.656L127.68 179H125.504ZM134.848 179.16C133.397 179.16 132.149 178.904 131.104 178.392C130.08 177.859 129.291 177.101 128.736 176.12C128.203 175.117 127.925 173.912 127.904 172.504C127.904 170.968 128.117 169.56 128.544 168.28C128.971 167 129.579 165.901 130.368 164.984C131.179 164.045 132.139 163.32 133.248 162.808C134.379 162.296 135.637 162.04 137.024 162.04C138.475 162.04 139.744 162.328 140.832 162.904C141.941 163.459 142.805 164.269 143.424 165.336C144.064 166.403 144.384 167.672 144.384 169.144C144.384 170.595 144.149 171.928 143.68 173.144C143.211 174.36 142.539 175.416 141.664 176.312C140.811 177.208 139.808 177.912 138.656 178.424C137.504 178.915 136.235 179.16 134.848 179.16ZM134.816 177.144C136.224 177.144 137.472 176.813 138.56 176.152C139.648 175.469 140.501 174.531 141.12 173.336C141.76 172.141 142.08 170.787 142.08 169.272C142.08 167.608 141.6 166.317 140.64 165.4C139.68 164.483 138.315 164.024 136.544 164.024C135.157 164.024 133.909 164.365 132.8 165.048C131.712 165.731 130.848 166.669 130.208 167.864C129.589 169.037 129.28 170.392 129.28 171.928C129.28 173.571 129.76 174.851 130.72 175.768C131.68 176.685 133.045 177.144 134.816 177.144ZM155.191 179.16C153.719 179.16 152.493 178.861 151.511 178.264C150.551 177.667 149.89 176.813 149.527 175.704C149.165 174.595 149.122 173.283 149.399 171.768L151.319 162.2H153.591L151.671 171.768C151.351 173.432 151.533 174.744 152.215 175.704C152.898 176.643 154.093 177.112 155.799 177.112C157.57 177.112 159.042 176.621 160.215 175.64C161.41 174.659 162.21 173.187 162.615 171.224L164.407 162.2H166.68L163.319 179H161.143L162.103 174.168L162.583 174.968C161.794 176.419 160.749 177.485 159.447 178.168C158.167 178.829 156.749 179.16 155.191 179.16ZM175.955 179.16C174.995 179.16 174.174 178.957 173.491 178.552C172.809 178.125 172.329 177.528 172.051 176.76C171.795 175.992 171.774 175.075 171.987 174.008L175.059 158.488H177.331L174.259 173.912C174.046 174.957 174.121 175.768 174.483 176.344C174.867 176.92 175.561 177.208 176.563 177.208C177.033 177.208 177.491 177.144 177.939 177.016C178.387 176.867 178.793 176.643 179.155 176.344L179.699 178.072C179.166 178.477 178.569 178.765 177.907 178.936C177.246 179.085 176.595 179.16 175.955 179.16ZM170.963 164.088L171.315 162.2H181.715L181.331 164.088H170.963ZM201.074 179.16C199.645 179.16 198.376 178.872 197.266 178.296C196.157 177.72 195.293 176.899 194.674 175.832C194.056 174.765 193.746 173.496 193.746 172.024C193.746 170.595 193.981 169.272 194.45 168.056C194.92 166.84 195.581 165.784 196.434 164.888C197.288 163.971 198.29 163.267 199.442 162.776C200.616 162.285 201.885 162.04 203.25 162.04C204.722 162.04 205.97 162.307 206.994 162.84C208.018 163.352 208.808 164.109 209.362 165.112C209.917 166.093 210.194 167.288 210.194 168.696C210.194 170.723 209.821 172.525 209.074 174.104C208.328 175.683 207.272 176.92 205.906 177.816C204.541 178.712 202.93 179.16 201.074 179.16ZM201.554 177.144C202.962 177.144 204.21 176.813 205.298 176.152C206.408 175.469 207.272 174.531 207.89 173.336C208.53 172.141 208.85 170.787 208.85 169.272C208.85 167.608 208.36 166.317 207.378 165.4C206.418 164.483 205.064 164.024 203.314 164.024C201.928 164.024 200.68 164.365 199.57 165.048C198.461 165.731 197.586 166.669 196.946 167.864C196.328 169.037 196.018 170.392 196.018 171.928C196.018 173.571 196.498 174.851 197.458 175.768C198.44 176.685 199.805 177.144 201.554 177.144ZM207.09 179L208.05 174.168L209.01 170.776L209.33 167.256L210.354 162.2H212.626L209.266 179H207.09ZM216.554 179L221.29 155.256H223.562L218.826 179H216.554ZM231.004 179.16C229.638 179.16 228.348 178.968 227.132 178.584C225.916 178.2 224.977 177.709 224.316 177.112L225.404 175.32C226.044 175.896 226.886 176.355 227.932 176.696C228.977 177.016 230.076 177.176 231.228 177.176C232.828 177.176 234.054 176.909 234.908 176.376C235.782 175.843 236.22 175.107 236.22 174.168C236.22 173.528 235.985 173.048 235.516 172.728C235.068 172.387 234.481 172.131 233.756 171.96C233.03 171.768 232.262 171.587 231.452 171.416C230.641 171.245 229.873 171.032 229.148 170.776C228.422 170.499 227.825 170.083 227.356 169.528C226.908 168.973 226.684 168.227 226.684 167.288C226.684 166.221 226.982 165.293 227.58 164.504C228.198 163.715 229.052 163.107 230.14 162.68C231.228 162.253 232.508 162.04 233.98 162.04C235.046 162.04 236.102 162.179 237.148 162.456C238.193 162.733 239.036 163.117 239.676 163.608L238.716 165.432C238.054 164.92 237.286 164.557 236.412 164.344C235.537 164.109 234.662 163.992 233.788 163.992C232.23 163.992 231.025 164.28 230.172 164.856C229.34 165.411 228.924 166.147 228.924 167.064C228.924 167.704 229.148 168.195 229.596 168.536C230.065 168.877 230.662 169.144 231.388 169.336C232.113 169.528 232.881 169.709 233.692 169.88C234.524 170.029 235.292 170.243 235.996 170.52C236.721 170.797 237.308 171.203 237.756 171.736C238.225 172.248 238.46 172.973 238.46 173.912C238.46 175.021 238.15 175.971 237.532 176.76C236.913 177.528 236.038 178.125 234.908 178.552C233.798 178.957 232.497 179.16 231.004 179.16ZM250.181 179.16C248.623 179.16 247.269 178.872 246.117 178.296C244.986 177.699 244.101 176.867 243.461 175.8C242.842 174.733 242.533 173.475 242.533 172.024C242.533 170.104 242.949 168.397 243.781 166.904C244.613 165.389 245.765 164.205 247.237 163.352C248.709 162.477 250.383 162.04 252.261 162.04C253.818 162.04 255.162 162.328 256.293 162.904C257.445 163.48 258.33 164.301 258.949 165.368C259.589 166.435 259.909 167.693 259.909 169.144C259.909 171.064 259.493 172.781 258.661 174.296C257.829 175.789 256.677 176.973 255.205 177.848C253.754 178.723 252.079 179.16 250.181 179.16ZM250.341 177.144C251.749 177.144 252.997 176.813 254.085 176.152C255.194 175.469 256.058 174.531 256.677 173.336C257.317 172.141 257.637 170.787 257.637 169.272C257.637 167.608 257.146 166.317 256.165 165.4C255.205 164.483 253.85 164.024 252.101 164.024C250.714 164.024 249.466 164.365 248.357 165.048C247.247 165.731 246.373 166.669 245.733 167.864C245.114 169.037 244.805 170.392 244.805 171.928C244.805 173.571 245.285 174.851 246.245 175.768C247.226 176.685 248.591 177.144 250.341 177.144ZM273.05 179L276.378 162.2H278.65L275.322 179H273.05ZM278.49 158.488C278.042 158.488 277.669 158.339 277.37 158.04C277.093 157.741 276.954 157.389 276.954 156.984C276.954 156.515 277.114 156.109 277.434 155.768C277.776 155.427 278.202 155.256 278.714 155.256C279.162 155.256 279.536 155.395 279.834 155.672C280.133 155.949 280.282 156.301 280.282 156.728C280.282 157.24 280.112 157.667 279.77 158.008C279.429 158.328 279.002 158.488 278.49 158.488ZM287.948 179.16C286.988 179.16 286.167 178.957 285.484 178.552C284.801 178.125 284.321 177.528 284.044 176.76C283.788 175.992 283.767 175.075 283.98 174.008L287.052 158.488H289.324L286.252 173.912C286.039 174.957 286.113 175.768 286.476 176.344C286.86 176.92 287.553 177.208 288.556 177.208C289.025 177.208 289.484 177.144 289.932 177.016C290.38 176.867 290.785 176.643 291.148 176.344L291.692 178.072C291.159 178.477 290.561 178.765 289.9 178.936C289.239 179.085 288.588 179.16 287.948 179.16ZM282.956 164.088L283.308 162.2H293.708L293.324 164.088H282.956ZM301.46 179.16C300.095 179.16 298.804 178.968 297.588 178.584C296.372 178.2 295.433 177.709 294.772 177.112L295.86 175.32C296.5 175.896 297.343 176.355 298.388 176.696C299.433 177.016 300.532 177.176 301.684 177.176C303.284 177.176 304.511 176.909 305.364 176.376C306.239 175.843 306.676 175.107 306.676 174.168C306.676 173.528 306.441 173.048 305.972 172.728C305.524 172.387 304.937 172.131 304.212 171.96C303.487 171.768 302.719 171.587 301.908 171.416C301.097 171.245 300.329 171.032 299.604 170.776C298.879 170.499 298.281 170.083 297.812 169.528C297.364 168.973 297.14 168.227 297.14 167.288C297.14 166.221 297.439 165.293 298.036 164.504C298.655 163.715 299.508 163.107 300.596 162.68C301.684 162.253 302.964 162.04 304.436 162.04C305.503 162.04 306.559 162.179 307.604 162.456C308.649 162.733 309.492 163.117 310.132 163.608L309.172 165.432C308.511 164.92 307.743 164.557 306.868 164.344C305.993 164.109 305.119 163.992 304.244 163.992C302.687 163.992 301.481 164.28 300.628 164.856C299.796 165.411 299.38 166.147 299.38 167.064C299.38 167.704 299.604 168.195 300.052 168.536C300.521 168.877 301.119 169.144 301.844 169.336C302.569 169.528 303.337 169.709 304.148 169.88C304.98 170.029 305.748 170.243 306.452 170.52C307.177 170.797 307.764 171.203 308.212 171.736C308.681 172.248 308.916 172.973 308.916 173.912C308.916 175.021 308.607 175.971 307.988 176.76C307.369 177.528 306.495 178.125 305.364 178.552C304.255 178.957 302.953 179.16 301.46 179.16ZM322.868 179L326.644 160.056C326.964 158.477 327.604 157.261 328.564 156.408C329.545 155.533 330.825 155.096 332.404 155.096C333.087 155.096 333.727 155.192 334.324 155.384C334.921 155.576 335.412 155.843 335.796 156.184L334.772 157.848C334.175 157.293 333.385 157.016 332.404 157.016C331.423 157.016 330.633 157.283 330.036 157.816C329.46 158.328 329.055 159.16 328.82 160.312L328.308 162.776L328.18 163.768L325.14 179H322.868ZM322.836 164.088L323.188 162.2H333.588L333.204 164.088H322.836ZM341.328 179.16C339.856 179.16 338.629 178.861 337.648 178.264C336.688 177.667 336.026 176.813 335.664 175.704C335.301 174.595 335.258 173.283 335.536 171.768L337.456 162.2H339.728L337.808 171.768C337.488 173.432 337.669 174.744 338.352 175.704C339.034 176.643 340.229 177.112 341.936 177.112C343.706 177.112 345.178 176.621 346.352 175.64C347.546 174.659 348.346 173.187 348.752 171.224L350.544 162.2H352.816L349.456 179H347.28L348.24 174.168L348.72 174.968C347.93 176.419 346.885 177.485 345.584 178.168C344.304 178.829 342.885 179.16 341.328 179.16ZM368.3 162.04C369.814 162.04 371.052 162.339 372.012 162.936C372.993 163.512 373.665 164.355 374.028 165.464C374.412 166.573 374.444 167.896 374.124 169.432L372.204 179H369.932L371.852 169.4C372.193 167.736 372.012 166.435 371.308 165.496C370.625 164.557 369.409 164.088 367.66 164.088C365.868 164.088 364.374 164.579 363.18 165.56C362.006 166.541 361.217 168.013 360.812 169.976L359.02 179H356.748L360.076 162.2H362.252L361.292 167.032L360.812 166.2C361.622 164.749 362.668 163.693 363.948 163.032C365.249 162.371 366.7 162.04 368.3 162.04ZM386.949 179.16C385.349 179.16 383.962 178.872 382.789 178.296C381.637 177.699 380.741 176.867 380.101 175.8C379.482 174.733 379.173 173.475 379.173 172.024C379.173 170.104 379.589 168.397 380.421 166.904C381.253 165.389 382.405 164.205 383.877 163.352C385.37 162.477 387.066 162.04 388.965 162.04C390.522 162.04 391.855 162.328 392.965 162.904C394.095 163.459 394.97 164.291 395.589 165.4L393.669 166.52C393.199 165.667 392.549 165.037 391.717 164.632C390.906 164.227 389.925 164.024 388.773 164.024C387.365 164.024 386.106 164.365 384.997 165.048C383.887 165.731 383.013 166.669 382.373 167.864C381.754 169.037 381.445 170.392 381.445 171.928C381.445 173.571 381.925 174.851 382.885 175.768C383.866 176.685 385.253 177.144 387.045 177.144C388.133 177.144 389.135 176.941 390.053 176.536C390.991 176.109 391.759 175.501 392.357 174.712L393.989 175.96C393.263 176.963 392.271 177.752 391.013 178.328C389.754 178.883 388.399 179.16 386.949 179.16ZM403.856 179.16C402.896 179.16 402.074 178.957 401.392 178.552C400.709 178.125 400.229 177.528 399.952 176.76C399.696 175.992 399.674 175.075 399.888 174.008L402.96 158.488H405.232L402.16 173.912C401.946 174.957 402.021 175.768 402.384 176.344C402.768 176.92 403.461 177.208 404.464 177.208C404.933 177.208 405.392 177.144 405.84 177.016C406.288 176.867 406.693 176.643 407.056 176.344L407.6 178.072C407.066 178.477 406.469 178.765 405.808 178.936C405.146 179.085 404.496 179.16 403.856 179.16ZM398.864 164.088L399.216 162.2H409.616L409.232 164.088H398.864ZM412.471 179L415.799 162.2H418.071L414.743 179H412.471ZM417.911 158.488C417.463 158.488 417.09 158.339 416.791 158.04C416.514 157.741 416.375 157.389 416.375 156.984C416.375 156.515 416.535 156.109 416.855 155.768C417.197 155.427 417.623 155.256 418.135 155.256C418.583 155.256 418.957 155.395 419.255 155.672C419.554 155.949 419.703 156.301 419.703 156.728C419.703 157.24 419.533 157.667 419.191 158.008C418.85 158.328 418.423 158.488 417.911 158.488ZM429.513 179.16C427.956 179.16 426.601 178.872 425.449 178.296C424.319 177.699 423.433 176.867 422.793 175.8C422.175 174.733 421.865 173.475 421.865 172.024C421.865 170.104 422.281 168.397 423.113 166.904C423.945 165.389 425.097 164.205 426.569 163.352C428.041 162.477 429.716 162.04 431.593 162.04C433.151 162.04 434.495 162.328 435.625 162.904C436.777 163.48 437.663 164.301 438.281 165.368C438.921 166.435 439.241 167.693 439.241 169.144C439.241 171.064 438.825 172.781 437.993 174.296C437.161 175.789 436.009 176.973 434.537 177.848C433.087 178.723 431.412 179.16 429.513 179.16ZM429.673 177.144C431.081 177.144 432.329 176.813 433.417 176.152C434.527 175.469 435.391 174.531 436.009 173.336C436.649 172.141 436.969 170.787 436.969 169.272C436.969 167.608 436.479 166.317 435.497 165.4C434.537 164.483 433.183 164.024 431.433 164.024C430.047 164.024 428.799 164.365 427.689 165.048C426.58 165.731 425.705 166.669 425.065 167.864C424.447 169.037 424.137 170.392 424.137 171.928C424.137 173.571 424.617 174.851 425.577 175.768C426.559 176.685 427.924 177.144 429.673 177.144ZM454.6 162.04C456.114 162.04 457.352 162.339 458.312 162.936C459.293 163.512 459.965 164.355 460.328 165.464C460.712 166.573 460.744 167.896 460.424 169.432L458.504 179H456.232L458.152 169.4C458.493 167.736 458.312 166.435 457.608 165.496C456.925 164.557 455.709 164.088 453.96 164.088C452.168 164.088 450.674 164.579 449.48 165.56C448.306 166.541 447.517 168.013 447.112 169.976L445.32 179H443.048L446.376 162.2H448.552L447.592 167.032L447.112 166.2C447.922 164.749 448.968 163.693 450.248 163.032C451.549 162.371 453 162.04 454.6 162.04ZM470.529 179.16C469.163 179.16 467.873 178.968 466.657 178.584C465.441 178.2 464.502 177.709 463.841 177.112L464.929 175.32C465.569 175.896 466.411 176.355 467.457 176.696C468.502 177.016 469.601 177.176 470.753 177.176C472.353 177.176 473.579 176.909 474.433 176.376C475.307 175.843 475.745 175.107 475.745 174.168C475.745 173.528 475.51 173.048 475.041 172.728C474.593 172.387 474.006 172.131 473.281 171.96C472.555 171.768 471.787 171.587 470.977 171.416C470.166 171.245 469.398 171.032 468.673 170.776C467.947 170.499 467.35 170.083 466.881 169.528C466.433 168.973 466.209 168.227 466.209 167.288C466.209 166.221 466.507 165.293 467.105 164.504C467.723 163.715 468.577 163.107 469.665 162.68C470.753 162.253 472.033 162.04 473.505 162.04C474.571 162.04 475.627 162.179 476.673 162.456C477.718 162.733 478.561 163.117 479.201 163.608L478.241 165.432C477.579 164.92 476.811 164.557 475.937 164.344C475.062 164.109 474.187 163.992 473.313 163.992C471.755 163.992 470.55 164.28 469.697 164.856C468.865 165.411 468.449 166.147 468.449 167.064C468.449 167.704 468.673 168.195 469.121 168.536C469.59 168.877 470.187 169.144 470.913 169.336C471.638 169.528 472.406 169.709 473.217 169.88C474.049 170.029 474.817 170.243 475.521 170.52C476.246 170.797 476.833 171.203 477.281 171.736C477.75 172.248 477.985 172.973 477.985 173.912C477.985 175.021 477.675 175.971 477.057 176.76C476.438 177.528 475.563 178.125 474.433 178.552C473.323 178.957 472.022 179.16 470.529 179.16ZM479.882 183.672L482.474 177.752L482.698 179.16C482.228 179.16 481.834 179 481.514 178.68C481.194 178.36 481.034 177.965 481.034 177.496C481.034 176.963 481.215 176.525 481.578 176.184C481.94 175.843 482.356 175.672 482.826 175.672C483.295 175.672 483.679 175.832 483.978 176.152C484.298 176.451 484.458 176.845 484.458 177.336C484.458 177.613 484.404 177.88 484.298 178.136C484.212 178.371 484.063 178.669 483.85 179.032L481.418 183.672H479.882ZM125.504 227L128.832 210.2H131.104L127.776 227H125.504ZM130.944 206.488C130.496 206.488 130.123 206.339 129.824 206.04C129.547 205.741 129.408 205.389 129.408 204.984C129.408 204.515 129.568 204.109 129.888 203.768C130.229 203.427 130.656 203.256 131.168 203.256C131.616 203.256 131.989 203.395 132.288 203.672C132.587 203.949 132.736 204.301 132.736 204.728C132.736 205.24 132.565 205.667 132.224 206.008C131.883 206.328 131.456 206.488 130.944 206.488ZM146.61 210.04C148.124 210.04 149.362 210.339 150.322 210.936C151.303 211.512 151.975 212.355 152.338 213.464C152.722 214.573 152.754 215.896 152.434 217.432L150.514 227H148.242L150.162 217.4C150.503 215.736 150.322 214.435 149.618 213.496C148.935 212.557 147.719 212.088 145.97 212.088C144.178 212.088 142.684 212.579 141.49 213.56C140.316 214.541 139.527 216.013 139.122 217.976L137.33 227H135.058L138.386 210.2H140.562L139.602 215.032L139.122 214.2C139.932 212.749 140.978 211.693 142.258 211.032C143.559 210.371 145.01 210.04 146.61 210.04ZM165.259 227.16C163.659 227.16 162.272 226.872 161.099 226.296C159.947 225.699 159.051 224.867 158.411 223.8C157.792 222.733 157.483 221.475 157.483 220.024C157.483 218.104 157.899 216.397 158.731 214.904C159.563 213.389 160.715 212.205 162.187 211.352C163.68 210.477 165.376 210.04 167.275 210.04C168.832 210.04 170.165 210.328 171.275 210.904C172.405 211.459 173.28 212.291 173.899 213.4L171.979 214.52C171.509 213.667 170.859 213.037 170.027 212.632C169.216 212.227 168.235 212.024 167.083 212.024C165.675 212.024 164.416 212.365 163.307 213.048C162.197 213.731 161.323 214.669 160.683 215.864C160.064 217.037 159.755 218.392 159.755 219.928C159.755 221.571 160.235 222.851 161.195 223.768C162.176 224.685 163.563 225.144 165.355 225.144C166.443 225.144 167.445 224.941 168.363 224.536C169.301 224.109 170.069 223.501 170.667 222.712L172.299 223.96C171.573 224.963 170.581 225.752 169.323 226.328C168.064 226.883 166.709 227.16 165.259 227.16ZM176.384 227L181.12 203.256H183.392L178.656 227H176.384ZM192.978 227.16C191.506 227.16 190.279 226.861 189.298 226.264C188.338 225.667 187.676 224.813 187.314 223.704C186.951 222.595 186.908 221.283 187.186 219.768L189.106 210.2H191.378L189.458 219.768C189.138 221.432 189.319 222.744 190.002 223.704C190.684 224.643 191.879 225.112 193.586 225.112C195.356 225.112 196.828 224.621 198.002 223.64C199.196 222.659 199.996 221.187 200.402 219.224L202.194 210.2H204.466L201.106 227H198.93L199.89 222.168L200.37 222.968C199.58 224.419 198.535 225.485 197.234 226.168C195.954 226.829 194.535 227.16 192.978 227.16ZM215.566 227.16C214.136 227.16 212.867 226.872 211.758 226.296C210.648 225.72 209.784 224.899 209.166 223.832C208.547 222.765 208.238 221.496 208.238 220.024C208.238 218.595 208.472 217.272 208.942 216.056C209.411 214.84 210.072 213.784 210.926 212.888C211.779 211.971 212.782 211.267 213.934 210.776C215.107 210.285 216.376 210.04 217.742 210.04C219.214 210.04 220.462 210.307 221.486 210.84C222.51 211.352 223.299 212.109 223.854 213.112C224.408 214.093 224.686 215.288 224.686 216.696C224.686 218.211 224.472 219.608 224.046 220.888C223.64 222.168 223.032 223.277 222.222 224.216C221.411 225.155 220.44 225.88 219.31 226.392C218.2 226.904 216.952 227.16 215.566 227.16ZM216.046 225.144C217.454 225.144 218.702 224.813 219.79 224.152C220.899 223.469 221.763 222.531 222.382 221.336C223.022 220.141 223.342 218.787 223.342 217.272C223.342 215.608 222.851 214.317 221.87 213.4C220.91 212.483 219.555 212.024 217.806 212.024C216.419 212.024 215.171 212.365 214.062 213.048C212.952 213.731 212.078 214.669 211.438 215.864C210.819 217.037 210.51 218.392 210.51 219.928C210.51 221.571 210.99 222.851 211.95 223.768C212.931 224.685 214.296 225.144 216.046 225.144ZM221.582 227L222.542 222.168L223.502 218.776L223.822 215.256L226.222 203.256H228.494L223.758 227H221.582ZM231.045 227L234.373 210.2H236.645L233.317 227H231.045ZM236.485 206.488C236.037 206.488 235.664 206.339 235.365 206.04C235.088 205.741 234.949 205.389 234.949 204.984C234.949 204.515 235.109 204.109 235.429 203.768C235.771 203.427 236.197 203.256 236.709 203.256C237.157 203.256 237.531 203.395 237.829 203.672C238.128 203.949 238.277 204.301 238.277 204.728C238.277 205.24 238.107 205.667 237.765 206.008C237.424 206.328 236.997 206.488 236.485 206.488ZM252.151 210.04C253.666 210.04 254.903 210.339 255.863 210.936C256.844 211.512 257.516 212.355 257.879 213.464C258.263 214.573 258.295 215.896 257.975 217.432L256.055 227H253.783L255.703 217.4C256.044 215.736 255.863 214.435 255.159 213.496C254.476 212.557 253.26 212.088 251.511 212.088C249.719 212.088 248.226 212.579 247.031 213.56C245.858 214.541 245.068 216.013 244.663 217.976L242.871 227H240.599L243.927 210.2H246.103L245.143 215.032L244.663 214.2C245.474 212.749 246.519 211.693 247.799 211.032C249.1 210.371 250.551 210.04 252.151 210.04ZM269.392 233.368C267.835 233.368 266.416 233.144 265.136 232.696C263.856 232.269 262.779 231.651 261.904 230.84L263.248 229.112C263.931 229.795 264.816 230.339 265.904 230.744C267.013 231.149 268.229 231.352 269.552 231.352C271.685 231.352 273.339 230.861 274.512 229.88C275.685 228.899 276.464 227.384 276.848 225.336L277.744 220.92L278.608 218.168L278.96 215.288L279.952 210.2H282.128L279.184 224.952C278.608 227.917 277.52 230.061 275.92 231.384C274.32 232.707 272.144 233.368 269.392 233.368ZM270.512 226.36C269.04 226.36 267.739 226.083 266.608 225.528C265.499 224.973 264.635 224.195 264.016 223.192C263.397 222.168 263.088 220.963 263.088 219.576C263.088 218.211 263.323 216.952 263.792 215.8C264.261 214.648 264.923 213.645 265.776 212.792C266.629 211.917 267.643 211.245 268.816 210.776C269.989 210.285 271.28 210.04 272.688 210.04C274.032 210.04 275.227 210.275 276.272 210.744C277.317 211.213 278.139 211.917 278.736 212.856C279.355 213.795 279.664 214.989 279.664 216.44C279.685 218.275 279.323 219.949 278.576 221.464C277.829 222.957 276.773 224.152 275.408 225.048C274.043 225.923 272.411 226.36 270.512 226.36ZM270.96 224.344C272.368 224.344 273.616 224.024 274.704 223.384C275.813 222.744 276.688 221.869 277.328 220.76C277.968 219.629 278.288 218.349 278.288 216.92C278.288 215.384 277.797 214.189 276.816 213.336C275.835 212.461 274.469 212.024 272.72 212.024C271.312 212.024 270.053 212.344 268.944 212.984C267.835 213.624 266.96 214.509 266.32 215.64C265.701 216.749 265.392 218.019 265.392 219.448C265.392 220.984 265.883 222.189 266.864 223.064C267.845 223.917 269.211 224.344 270.96 224.344ZM319.321 210.04C320.836 210.04 322.063 210.339 323.001 210.936C323.961 211.512 324.623 212.355 324.985 213.464C325.348 214.573 325.369 215.896 325.049 217.432L323.129 227H320.857L322.777 217.4C323.119 215.736 322.959 214.435 322.297 213.496C321.657 212.557 320.484 212.088 318.777 212.088C317.092 212.088 315.673 212.557 314.521 213.496C313.391 214.435 312.633 215.843 312.249 217.72L310.393 227H308.121L310.041 217.4C310.383 215.736 310.223 214.435 309.561 213.496C308.9 212.557 307.727 212.088 306.041 212.088C304.313 212.088 302.884 212.579 301.753 213.56C300.623 214.541 299.855 216.013 299.449 217.976L297.657 227H295.385L298.713 210.2H300.889L299.929 215.032L299.449 214.2C300.26 212.749 301.284 211.693 302.521 211.032C303.759 210.371 305.156 210.04 306.713 210.04C307.887 210.04 308.889 210.243 309.721 210.648C310.575 211.032 311.236 211.608 311.705 212.376C312.196 213.123 312.463 214.019 312.505 215.064L311.321 214.808C312.153 213.208 313.252 212.013 314.617 211.224C316.004 210.435 317.572 210.04 319.321 210.04ZM337.963 227.16C336.363 227.16 334.965 226.872 333.771 226.296C332.597 225.699 331.691 224.867 331.051 223.8C330.432 222.733 330.123 221.464 330.123 219.992C330.123 218.072 330.528 216.365 331.339 214.872C332.149 213.379 333.259 212.205 334.667 211.352C336.075 210.477 337.664 210.04 339.435 210.04C340.928 210.04 342.219 210.328 343.307 210.904C344.395 211.459 345.237 212.269 345.835 213.336C346.453 214.403 346.763 215.683 346.763 217.176C346.763 217.517 346.741 217.869 346.699 218.232C346.656 218.573 346.603 218.904 346.539 219.224H331.787L332.075 217.528H345.483L344.555 218.168C344.768 216.824 344.672 215.693 344.267 214.776C343.861 213.859 343.232 213.165 342.379 212.696C341.547 212.205 340.544 211.96 339.371 211.96C338.005 211.96 336.789 212.301 335.723 212.984C334.656 213.645 333.824 214.573 333.227 215.768C332.629 216.941 332.331 218.317 332.331 219.896C332.331 221.581 332.811 222.883 333.771 223.8C334.752 224.696 336.213 225.144 338.155 225.144C339.285 225.144 340.331 224.963 341.291 224.6C342.251 224.216 343.04 223.693 343.659 223.032L344.683 224.664C343.893 225.453 342.901 226.072 341.707 226.52C340.533 226.947 339.285 227.16 337.963 227.16ZM362.107 210.04C363.622 210.04 364.859 210.339 365.819 210.936C366.801 211.512 367.473 212.355 367.835 213.464C368.219 214.573 368.251 215.896 367.931 217.432L366.011 227H363.739L365.659 217.4C366.001 215.736 365.819 214.435 365.115 213.496C364.433 212.557 363.217 212.088 361.467 212.088C359.675 212.088 358.182 212.579 356.987 213.56C355.814 214.541 355.025 216.013 354.619 217.976L352.827 227H350.555L353.883 210.2H356.059L355.099 215.032L354.619 214.2C355.43 212.749 356.475 211.693 357.755 211.032C359.057 210.371 360.507 210.04 362.107 210.04ZM378.484 227.16C377.524 227.16 376.703 226.957 376.02 226.552C375.338 226.125 374.858 225.528 374.58 224.76C374.324 223.992 374.303 223.075 374.516 222.008L377.588 206.488H379.86L376.788 221.912C376.575 222.957 376.65 223.768 377.012 224.344C377.396 224.92 378.09 225.208 379.092 225.208C379.562 225.208 380.02 225.144 380.468 225.016C380.916 224.867 381.322 224.643 381.684 224.344L382.228 226.072C381.695 226.477 381.098 226.765 380.436 226.936C379.775 227.085 379.124 227.16 378.484 227.16ZM373.492 212.088L373.844 210.2H384.244L383.86 212.088H373.492ZM393.675 227.16C392.245 227.16 390.976 226.872 389.867 226.296C388.757 225.72 387.893 224.899 387.275 223.832C386.656 222.765 386.347 221.496 386.347 220.024C386.347 218.595 386.581 217.272 387.051 216.056C387.52 214.84 388.181 213.784 389.035 212.888C389.888 211.971 390.891 211.267 392.043 210.776C393.216 210.285 394.485 210.04 395.851 210.04C397.323 210.04 398.571 210.307 399.595 210.84C400.619 211.352 401.408 212.109 401.963 213.112C402.517 214.093 402.795 215.288 402.795 216.696C402.795 218.723 402.421 220.525 401.675 222.104C400.928 223.683 399.872 224.92 398.507 225.816C397.141 226.712 395.531 227.16 393.675 227.16ZM394.155 225.144C395.563 225.144 396.811 224.813 397.899 224.152C399.008 223.469 399.872 222.531 400.491 221.336C401.131 220.141 401.451 218.787 401.451 217.272C401.451 215.608 400.96 214.317 399.979 213.4C399.019 212.483 397.664 212.024 395.915 212.024C394.528 212.024 393.28 212.365 392.171 213.048C391.061 213.731 390.187 214.669 389.547 215.864C388.928 217.037 388.619 218.392 388.619 219.928C388.619 221.571 389.099 222.851 390.059 223.768C391.04 224.685 392.405 225.144 394.155 225.144ZM399.691 227L400.651 222.168L401.611 218.776L401.931 215.256L402.955 210.2H405.227L401.867 227H399.691ZM409.154 227L413.89 203.256H416.162L411.426 227H409.154ZM435.211 227.16C433.781 227.16 432.512 226.872 431.403 226.296C430.293 225.72 429.429 224.899 428.811 223.832C428.192 222.765 427.883 221.496 427.883 220.024C427.883 218.595 428.117 217.272 428.587 216.056C429.056 214.84 429.717 213.784 430.571 212.888C431.424 211.971 432.427 211.267 433.579 210.776C434.752 210.285 436.021 210.04 437.387 210.04C438.859 210.04 440.107 210.307 441.131 210.84C442.155 211.352 442.944 212.109 443.499 213.112C444.053 214.093 444.331 215.288 444.331 216.696C444.331 218.723 443.957 220.525 443.211 222.104C442.464 223.683 441.408 224.92 440.043 225.816C438.677 226.712 437.067 227.16 435.211 227.16ZM435.691 225.144C437.099 225.144 438.347 224.813 439.435 224.152C440.544 223.469 441.408 222.531 442.027 221.336C442.667 220.141 442.987 218.787 442.987 217.272C442.987 215.608 442.496 214.317 441.515 213.4C440.555 212.483 439.2 212.024 437.451 212.024C436.064 212.024 434.816 212.365 433.707 213.048C432.597 213.731 431.723 214.669 431.083 215.864C430.464 217.037 430.155 218.392 430.155 219.928C430.155 221.571 430.635 222.851 431.595 223.768C432.576 224.685 433.941 225.144 435.691 225.144ZM441.227 227L442.187 222.168L443.147 218.776L443.467 215.256L444.491 210.2H446.763L443.403 227H441.227ZM462.242 210.04C463.757 210.04 464.994 210.339 465.954 210.936C466.936 211.512 467.608 212.355 467.97 213.464C468.354 214.573 468.386 215.896 468.066 217.432L466.146 227H463.874L465.794 217.4C466.136 215.736 465.954 214.435 465.25 213.496C464.568 212.557 463.352 212.088 461.602 212.088C459.81 212.088 458.317 212.579 457.122 213.56C455.949 214.541 455.16 216.013 454.754 217.976L452.962 227H450.69L454.018 210.2H456.194L455.234 215.032L454.754 214.2C455.565 212.749 456.61 211.693 457.89 211.032C459.192 210.371 460.642 210.04 462.242 210.04ZM480.443 227.16C479.014 227.16 477.745 226.872 476.635 226.296C475.526 225.72 474.662 224.899 474.043 223.832C473.425 222.765 473.115 221.496 473.115 220.024C473.115 218.595 473.35 217.272 473.819 216.056C474.289 214.84 474.95 213.784 475.803 212.888C476.657 211.971 477.659 211.267 478.811 210.776C479.985 210.285 481.254 210.04 482.619 210.04C484.091 210.04 485.339 210.307 486.363 210.84C487.387 211.352 488.177 212.109 488.731 213.112C489.286 214.093 489.563 215.288 489.563 216.696C489.563 218.211 489.35 219.608 488.923 220.888C488.518 222.168 487.91 223.277 487.099 224.216C486.289 225.155 485.318 225.88 484.187 226.392C483.078 226.904 481.83 227.16 480.443 227.16ZM480.923 225.144C482.331 225.144 483.579 224.813 484.667 224.152C485.777 223.469 486.641 222.531 487.259 221.336C487.899 220.141 488.219 218.787 488.219 217.272C488.219 215.608 487.729 214.317 486.747 213.4C485.787 212.483 484.433 212.024 482.683 212.024C481.297 212.024 480.049 212.365 478.939 213.048C477.83 213.731 476.955 214.669 476.315 215.864C475.697 217.037 475.387 218.392 475.387 219.928C475.387 221.571 475.867 222.851 476.827 223.768C477.809 224.685 479.174 225.144 480.923 225.144ZM486.459 227L487.419 222.168L488.379 218.776L488.699 215.256L491.099 203.256H493.371L488.635 227H486.459ZM133.12 275.16C131.52 275.16 130.133 274.872 128.96 274.296C127.808 273.699 126.912 272.867 126.272 271.8C125.653 270.733 125.344 269.475 125.344 268.024C125.344 266.104 125.76 264.397 126.592 262.904C127.424 261.389 128.576 260.205 130.048 259.352C131.541 258.477 133.237 258.04 135.136 258.04C136.693 258.04 138.027 258.328 139.136 258.904C140.267 259.459 141.141 260.291 141.76 261.4L139.84 262.52C139.371 261.667 138.72 261.037 137.888 260.632C137.077 260.227 136.096 260.024 134.944 260.024C133.536 260.024 132.277 260.365 131.168 261.048C130.059 261.731 129.184 262.669 128.544 263.864C127.925 265.037 127.616 266.392 127.616 267.928C127.616 269.571 128.096 270.851 129.056 271.768C130.037 272.685 131.424 273.144 133.216 273.144C134.304 273.144 135.307 272.941 136.224 272.536C137.163 272.109 137.931 271.501 138.528 270.712L140.16 271.96C139.435 272.963 138.443 273.752 137.184 274.328C135.925 274.883 134.571 275.16 133.12 275.16ZM151.702 275.16C150.145 275.16 148.79 274.872 147.638 274.296C146.507 273.699 145.622 272.867 144.982 271.8C144.363 270.733 144.054 269.475 144.054 268.024C144.054 266.104 144.47 264.397 145.302 262.904C146.134 261.389 147.286 260.205 148.758 259.352C150.23 258.477 151.905 258.04 153.782 258.04C155.339 258.04 156.683 258.328 157.814 258.904C158.966 259.48 159.851 260.301 160.47 261.368C161.11 262.435 161.43 263.693 161.43 265.144C161.43 267.064 161.014 268.781 160.182 270.296C159.35 271.789 158.198 272.973 156.726 273.848C155.275 274.723 153.601 275.16 151.702 275.16ZM151.862 273.144C153.27 273.144 154.518 272.813 155.606 272.152C156.715 271.469 157.579 270.531 158.198 269.336C158.838 268.141 159.158 266.787 159.158 265.272C159.158 263.608 158.667 262.317 157.686 261.4C156.726 260.483 155.371 260.024 153.622 260.024C152.235 260.024 150.987 260.365 149.878 261.048C148.769 261.731 147.894 262.669 147.254 263.864C146.635 265.037 146.326 266.392 146.326 267.928C146.326 269.571 146.806 270.851 147.766 271.768C148.747 272.685 150.113 273.144 151.862 273.144ZM171.444 281.368C169.887 281.368 168.468 281.144 167.188 280.696C165.908 280.269 164.831 279.651 163.956 278.84L165.3 277.112C165.983 277.795 166.868 278.339 167.956 278.744C169.066 279.149 170.282 279.352 171.604 279.352C173.738 279.352 175.391 278.861 176.564 277.88C177.738 276.899 178.516 275.384 178.9 273.336L179.796 268.92L180.66 266.168L181.012 263.288L182.004 258.2H184.181L181.236 272.952C180.66 275.917 179.572 278.061 177.972 279.384C176.372 280.707 174.196 281.368 171.444 281.368ZM172.564 274.36C171.092 274.36 169.791 274.083 168.66 273.528C167.551 272.973 166.687 272.195 166.068 271.192C165.45 270.168 165.14 268.963 165.14 267.576C165.14 266.211 165.375 264.952 165.844 263.8C166.314 262.648 166.975 261.645 167.828 260.792C168.682 259.917 169.695 259.245 170.868 258.776C172.042 258.285 173.332 258.04 174.74 258.04C176.084 258.04 177.279 258.275 178.324 258.744C179.37 259.213 180.191 259.917 180.788 260.856C181.407 261.795 181.716 262.989 181.716 264.44C181.738 266.275 181.375 267.949 180.628 269.464C179.882 270.957 178.826 272.152 177.46 273.048C176.095 273.923 174.463 274.36 172.564 274.36ZM173.012 272.344C174.42 272.344 175.668 272.024 176.756 271.384C177.866 270.744 178.74 269.869 179.38 268.76C180.02 267.629 180.34 266.349 180.34 264.92C180.34 263.384 179.85 262.189 178.868 261.336C177.887 260.461 176.522 260.024 174.772 260.024C173.364 260.024 172.106 260.344 170.996 260.984C169.887 261.624 169.012 262.509 168.372 263.64C167.754 264.749 167.444 266.019 167.444 267.448C167.444 268.984 167.935 270.189 168.916 271.064C169.898 271.917 171.263 272.344 173.012 272.344ZM199.655 258.04C201.169 258.04 202.407 258.339 203.367 258.936C204.348 259.512 205.02 260.355 205.383 261.464C205.767 262.573 205.799 263.896 205.479 265.432L203.559 275H201.287L203.207 265.4C203.548 263.736 203.367 262.435 202.663 261.496C201.98 260.557 200.764 260.088 199.015 260.088C197.223 260.088 195.729 260.579 194.535 261.56C193.361 262.541 192.572 264.013 192.167 265.976L190.375 275H188.103L191.431 258.2H193.607L192.647 263.032L192.167 262.2C192.977 260.749 194.023 259.693 195.303 259.032C196.604 258.371 198.055 258.04 199.655 258.04ZM210.688 275L214.016 258.2H216.288L212.96 275H210.688ZM216.128 254.488C215.68 254.488 215.306 254.339 215.008 254.04C214.73 253.741 214.592 253.389 214.592 252.984C214.592 252.515 214.752 252.109 215.072 251.768C215.413 251.427 215.84 251.256 216.352 251.256C216.8 251.256 217.173 251.395 217.472 251.672C217.77 251.949 217.92 252.301 217.92 252.728C217.92 253.24 217.749 253.667 217.408 254.008C217.066 254.328 216.64 254.488 216.128 254.488ZM225.586 275.16C224.626 275.16 223.804 274.957 223.122 274.552C222.439 274.125 221.959 273.528 221.682 272.76C221.426 271.992 221.404 271.075 221.618 270.008L224.69 254.488H226.962L223.89 269.912C223.676 270.957 223.751 271.768 224.114 272.344C224.498 272.92 225.191 273.208 226.194 273.208C226.663 273.208 227.122 273.144 227.57 273.016C228.018 272.867 228.423 272.643 228.786 272.344L229.33 274.072C228.796 274.477 228.199 274.765 227.538 274.936C226.876 275.085 226.226 275.16 225.586 275.16ZM220.594 260.088L220.946 258.2H231.346L230.962 260.088H220.594ZM234.202 275L237.53 258.2H239.802L236.474 275H234.202ZM239.642 254.488C239.194 254.488 238.82 254.339 238.522 254.04C238.244 253.741 238.106 253.389 238.106 252.984C238.106 252.515 238.266 252.109 238.586 251.768C238.927 251.427 239.354 251.256 239.866 251.256C240.314 251.256 240.687 251.395 240.986 251.672C241.284 251.949 241.434 252.301 241.434 252.728C241.434 253.24 241.263 253.667 240.922 254.008C240.58 254.328 240.154 254.488 239.642 254.488ZM248.107 275L243.947 258.2H246.219L249.995 273.784H248.907L258.891 258.2H261.259L250.411 275H248.107ZM269.27 275.16C267.67 275.16 266.273 274.872 265.078 274.296C263.905 273.699 262.998 272.867 262.358 271.8C261.74 270.733 261.43 269.464 261.43 267.992C261.43 266.072 261.836 264.365 262.646 262.872C263.457 261.379 264.566 260.205 265.974 259.352C267.382 258.477 268.972 258.04 270.742 258.04C272.236 258.04 273.526 258.328 274.614 258.904C275.702 259.459 276.545 260.269 277.142 261.336C277.761 262.403 278.07 263.683 278.07 265.176C278.07 265.517 278.049 265.869 278.006 266.232C277.964 266.573 277.91 266.904 277.846 267.224H263.094L263.382 265.528H276.79L275.862 266.168C276.076 264.824 275.98 263.693 275.574 262.776C275.169 261.859 274.54 261.165 273.686 260.696C272.854 260.205 271.852 259.96 270.678 259.96C269.313 259.96 268.097 260.301 267.03 260.984C265.964 261.645 265.132 262.573 264.534 263.768C263.937 264.941 263.638 266.317 263.638 267.896C263.638 269.581 264.118 270.883 265.078 271.8C266.06 272.696 267.521 273.144 269.462 273.144C270.593 273.144 271.638 272.963 272.598 272.6C273.558 272.216 274.348 271.693 274.966 271.032L275.99 272.664C275.201 273.453 274.209 274.072 273.014 274.52C271.841 274.947 270.593 275.16 269.27 275.16ZM291.582 275L295.358 256.056C295.678 254.477 296.318 253.261 297.278 252.408C298.259 251.533 299.539 251.096 301.118 251.096C301.8 251.096 302.44 251.192 303.038 251.384C303.635 251.576 304.126 251.843 304.51 252.184L303.486 253.848C302.888 253.293 302.099 253.016 301.118 253.016C300.136 253.016 299.347 253.283 298.75 253.816C298.174 254.328 297.768 255.16 297.534 256.312L297.022 258.776L296.894 259.768L293.854 275H291.582ZM291.55 260.088L291.902 258.2H302.302L301.918 260.088H291.55ZM310.041 275.16C308.569 275.16 307.343 274.861 306.361 274.264C305.401 273.667 304.74 272.813 304.377 271.704C304.015 270.595 303.972 269.283 304.249 267.768L306.169 258.2H308.441L306.521 267.768C306.201 269.432 306.383 270.744 307.065 271.704C307.748 272.643 308.943 273.112 310.649 273.112C312.42 273.112 313.892 272.621 315.065 271.64C316.26 270.659 317.06 269.187 317.465 267.224L319.257 258.2H321.529L318.169 275H315.993L316.953 270.168L317.433 270.968C316.644 272.419 315.599 273.485 314.297 274.168C313.017 274.829 311.599 275.16 310.041 275.16ZM337.014 258.04C338.528 258.04 339.766 258.339 340.726 258.936C341.707 259.512 342.379 260.355 342.742 261.464C343.126 262.573 343.158 263.896 342.838 265.432L340.918 275H338.646L340.566 265.4C340.907 263.736 340.726 262.435 340.022 261.496C339.339 260.557 338.123 260.088 336.374 260.088C334.582 260.088 333.088 260.579 331.894 261.56C330.72 262.541 329.931 264.013 329.526 265.976L327.734 275H325.462L328.79 258.2H330.966L330.006 263.032L329.526 262.2C330.336 260.749 331.382 259.693 332.662 259.032C333.963 258.371 335.414 258.04 337.014 258.04ZM355.662 275.16C354.062 275.16 352.676 274.872 351.502 274.296C350.35 273.699 349.454 272.867 348.814 271.8C348.196 270.733 347.886 269.475 347.886 268.024C347.886 266.104 348.302 264.397 349.134 262.904C349.966 261.389 351.118 260.205 352.59 259.352C354.084 258.477 355.78 258.04 357.678 258.04C359.236 258.04 360.569 258.328 361.678 258.904C362.809 259.459 363.684 260.291 364.302 261.4L362.382 262.52C361.913 261.667 361.262 261.037 360.43 260.632C359.62 260.227 358.638 260.024 357.486 260.024C356.078 260.024 354.82 260.365 353.71 261.048C352.601 261.731 351.726 262.669 351.086 263.864C350.468 265.037 350.158 266.392 350.158 267.928C350.158 269.571 350.638 270.851 351.598 271.768C352.58 272.685 353.966 273.144 355.758 273.144C356.846 273.144 357.849 272.941 358.766 272.536C359.705 272.109 360.473 271.501 361.07 270.712L362.702 271.96C361.977 272.963 360.985 273.752 359.726 274.328C358.468 274.883 357.113 275.16 355.662 275.16ZM372.569 275.16C371.609 275.16 370.788 274.957 370.105 274.552C369.423 274.125 368.943 273.528 368.665 272.76C368.409 271.992 368.388 271.075 368.601 270.008L371.673 254.488H373.945L370.873 269.912C370.66 270.957 370.735 271.768 371.097 272.344C371.481 272.92 372.175 273.208 373.177 273.208C373.647 273.208 374.105 273.144 374.553 273.016C375.001 272.867 375.407 272.643 375.769 272.344L376.313 274.072C375.78 274.477 375.183 274.765 374.521 274.936C373.86 275.085 373.209 275.16 372.569 275.16ZM367.577 260.088L367.929 258.2H378.329L377.945 260.088H367.577ZM381.185 275L384.513 258.2H386.785L383.457 275H381.185ZM386.625 254.488C386.177 254.488 385.804 254.339 385.505 254.04C385.228 253.741 385.089 253.389 385.089 252.984C385.089 252.515 385.249 252.109 385.569 251.768C385.911 251.427 386.337 251.256 386.849 251.256C387.297 251.256 387.671 251.395 387.969 251.672C388.268 251.949 388.417 252.301 388.417 252.728C388.417 253.24 388.247 253.667 387.905 254.008C387.564 254.328 387.137 254.488 386.625 254.488ZM398.227 275.16C396.67 275.16 395.315 274.872 394.163 274.296C393.032 273.699 392.147 272.867 391.507 271.8C390.888 270.733 390.579 269.475 390.579 268.024C390.579 266.104 390.995 264.397 391.827 262.904C392.659 261.389 393.811 260.205 395.283 259.352C396.755 258.477 398.43 258.04 400.307 258.04C401.864 258.04 403.208 258.328 404.339 258.904C405.491 259.48 406.376 260.301 406.995 261.368C407.635 262.435 407.955 263.693 407.955 265.144C407.955 267.064 407.539 268.781 406.707 270.296C405.875 271.789 404.723 272.973 403.251 273.848C401.8 274.723 400.126 275.16 398.227 275.16ZM398.387 273.144C399.795 273.144 401.043 272.813 402.131 272.152C403.24 271.469 404.104 270.531 404.723 269.336C405.363 268.141 405.683 266.787 405.683 265.272C405.683 263.608 405.192 262.317 404.211 261.4C403.251 260.483 401.896 260.024 400.147 260.024C398.76 260.024 397.512 260.365 396.403 261.048C395.294 261.731 394.419 262.669 393.779 263.864C393.16 265.037 392.851 266.392 392.851 267.928C392.851 269.571 393.331 270.851 394.291 271.768C395.272 272.685 396.638 273.144 398.387 273.144ZM423.314 258.04C424.828 258.04 426.066 258.339 427.026 258.936C428.007 259.512 428.679 260.355 429.042 261.464C429.426 262.573 429.458 263.896 429.138 265.432L427.218 275H424.946L426.866 265.4C427.207 263.736 427.026 262.435 426.322 261.496C425.639 260.557 424.423 260.088 422.674 260.088C420.882 260.088 419.388 260.579 418.194 261.56C417.02 262.541 416.231 264.013 415.826 265.976L414.034 275H411.762L415.09 258.2H417.266L416.306 263.032L415.826 262.2C416.636 260.749 417.682 259.693 418.962 259.032C420.263 258.371 421.714 258.04 423.314 258.04ZM434.826 275.16C434.357 275.16 433.962 275 433.642 274.68C433.322 274.36 433.162 273.965 433.162 273.496C433.162 272.963 433.344 272.525 433.706 272.184C434.069 271.843 434.485 271.672 434.954 271.672C435.424 271.672 435.808 271.832 436.106 272.152C436.426 272.451 436.586 272.845 436.586 273.336C436.586 273.699 436.501 274.019 436.33 274.296C436.181 274.552 435.968 274.765 435.69 274.936C435.413 275.085 435.125 275.16 434.826 275.16ZM443.348 259.064L445.908 253.176L446.132 254.584C445.663 254.584 445.268 254.424 444.948 254.104C444.628 253.784 444.468 253.389 444.468 252.92C444.468 252.387 444.65 251.949 445.012 251.608C445.375 251.267 445.791 251.096 446.26 251.096C446.73 251.096 447.114 251.256 447.412 251.576C447.732 251.875 447.892 252.269 447.892 252.76C447.892 253.037 447.839 253.304 447.732 253.56C447.647 253.795 447.508 254.093 447.316 254.456L444.884 259.064H443.348ZM448.788 259.064L451.348 253.176L451.572 254.584C451.103 254.584 450.708 254.424 450.388 254.104C450.068 253.784 449.908 253.389 449.908 252.92C449.908 252.387 450.09 251.949 450.452 251.608C450.815 251.267 451.231 251.096 451.7 251.096C452.17 251.096 452.554 251.256 452.852 251.576C453.172 251.875 453.332 252.269 453.332 252.76C453.332 253.037 453.279 253.304 453.172 253.56C453.087 253.795 452.948 254.093 452.756 254.456L450.324 259.064H448.788ZM126.736 343V326.2H133.024C134.448 326.2 135.672 326.432 136.696 326.896C137.72 327.344 138.504 328 139.048 328.864C139.608 329.712 139.888 330.744 139.888 331.96C139.888 333.144 139.608 334.168 139.048 335.032C138.504 335.88 137.72 336.536 136.696 337C135.672 337.464 134.448 337.696 133.024 337.696H127.72L128.512 336.856V343H126.736ZM128.512 337L127.72 336.136H132.976C134.656 336.136 135.928 335.776 136.792 335.056C137.672 334.32 138.112 333.288 138.112 331.96C138.112 330.616 137.672 329.576 136.792 328.84C135.928 328.104 134.656 327.736 132.976 327.736H127.72L128.512 326.896V337ZM143.783 343V330.4H145.415V333.832L145.247 333.232C145.599 332.272 146.191 331.544 147.023 331.048C147.855 330.536 148.887 330.28 150.119 330.28V331.936C150.055 331.936 149.991 331.936 149.927 331.936C149.863 331.92 149.799 331.912 149.735 331.912C148.407 331.912 147.367 332.32 146.615 333.136C145.863 333.936 145.487 335.08 145.487 336.568V343H143.783ZM159.184 343.12C157.872 343.12 156.72 342.848 155.728 342.304C154.736 341.744 153.96 340.984 153.4 340.024C152.84 339.048 152.56 337.936 152.56 336.688C152.56 335.44 152.824 334.336 153.352 333.376C153.896 332.416 154.632 331.664 155.56 331.12C156.504 330.56 157.56 330.28 158.728 330.28C159.912 330.28 160.96 330.552 161.872 331.096C162.8 331.624 163.528 332.376 164.056 333.352C164.584 334.312 164.848 335.424 164.848 336.688C164.848 336.768 164.84 336.856 164.824 336.952C164.824 337.032 164.824 337.12 164.824 337.216H153.856V335.944H163.912L163.24 336.448C163.24 335.536 163.04 334.728 162.64 334.024C162.256 333.304 161.728 332.744 161.056 332.344C160.384 331.944 159.608 331.744 158.728 331.744C157.864 331.744 157.088 331.944 156.4 332.344C155.712 332.744 155.176 333.304 154.792 334.024C154.408 334.744 154.216 335.568 154.216 336.496V336.76C154.216 337.72 154.424 338.568 154.84 339.304C155.272 340.024 155.864 340.592 156.616 341.008C157.384 341.408 158.256 341.608 159.232 341.608C160 341.608 160.712 341.472 161.368 341.2C162.04 340.928 162.616 340.512 163.096 339.952L164.056 341.056C163.496 341.728 162.792 342.24 161.944 342.592C161.112 342.944 160.192 343.12 159.184 343.12ZM172.42 343.12C171.38 343.12 170.396 342.976 169.468 342.688C168.54 342.384 167.812 342.008 167.284 341.56L168.052 340.216C168.564 340.6 169.22 340.936 170.02 341.224C170.82 341.496 171.66 341.632 172.54 341.632C173.74 341.632 174.604 341.448 175.132 341.08C175.66 340.696 175.924 340.192 175.924 339.568C175.924 339.104 175.772 338.744 175.468 338.488C175.18 338.216 174.796 338.016 174.316 337.888C173.836 337.744 173.3 337.624 172.708 337.528C172.116 337.432 171.524 337.32 170.932 337.192C170.356 337.064 169.828 336.88 169.348 336.64C168.868 336.384 168.476 336.04 168.172 335.608C167.884 335.176 167.74 334.6 167.74 333.88C167.74 333.192 167.932 332.576 168.316 332.032C168.7 331.488 169.26 331.064 169.996 330.76C170.748 330.44 171.66 330.28 172.732 330.28C173.548 330.28 174.364 330.392 175.18 330.616C175.996 330.824 176.668 331.104 177.196 331.456L176.452 332.824C175.892 332.44 175.292 332.168 174.652 332.008C174.012 331.832 173.372 331.744 172.732 331.744C171.596 331.744 170.756 331.944 170.212 332.344C169.684 332.728 169.42 333.224 169.42 333.832C169.42 334.312 169.564 334.688 169.852 334.96C170.156 335.232 170.548 335.448 171.028 335.608C171.524 335.752 172.06 335.872 172.636 335.968C173.228 336.064 173.812 336.184 174.388 336.328C174.98 336.456 175.516 336.64 175.996 336.88C176.492 337.104 176.884 337.432 177.172 337.864C177.476 338.28 177.628 338.832 177.628 339.52C177.628 340.256 177.42 340.896 177.004 341.44C176.604 341.968 176.012 342.384 175.228 342.688C174.46 342.976 173.524 343.12 172.42 343.12ZM184.859 343.12C183.819 343.12 182.835 342.976 181.907 342.688C180.979 342.384 180.251 342.008 179.723 341.56L180.491 340.216C181.003 340.6 181.659 340.936 182.459 341.224C183.259 341.496 184.099 341.632 184.979 341.632C186.179 341.632 187.043 341.448 187.571 341.08C188.099 340.696 188.363 340.192 188.363 339.568C188.363 339.104 188.211 338.744 187.907 338.488C187.619 338.216 187.235 338.016 186.755 337.888C186.275 337.744 185.739 337.624 185.147 337.528C184.555 337.432 183.963 337.32 183.371 337.192C182.795 337.064 182.267 336.88 181.787 336.64C181.307 336.384 180.915 336.04 180.611 335.608C180.323 335.176 180.179 334.6 180.179 333.88C180.179 333.192 180.371 332.576 180.755 332.032C181.139 331.488 181.699 331.064 182.435 330.76C183.187 330.44 184.099 330.28 185.171 330.28C185.987 330.28 186.803 330.392 187.619 330.616C188.435 330.824 189.107 331.104 189.635 331.456L188.891 332.824C188.331 332.44 187.731 332.168 187.091 332.008C186.451 331.832 185.811 331.744 185.171 331.744C184.035 331.744 183.195 331.944 182.651 332.344C182.123 332.728 181.859 333.224 181.859 333.832C181.859 334.312 182.003 334.688 182.291 334.96C182.595 335.232 182.987 335.448 183.467 335.608C183.963 335.752 184.499 335.872 185.075 335.968C185.667 336.064 186.251 336.184 186.827 336.328C187.419 336.456 187.955 336.64 188.435 336.88C188.931 337.104 189.323 337.432 189.611 337.864C189.915 338.28 190.067 338.832 190.067 339.52C190.067 340.256 189.859 340.896 189.443 341.44C189.043 341.968 188.451 342.384 187.667 342.688C186.899 342.976 185.963 343.12 184.859 343.12ZM194.273 343V326.2H200.561C201.985 326.2 203.209 326.432 204.233 326.896C205.257 327.344 206.041 328 206.585 328.864C207.145 329.712 207.425 330.744 207.425 331.96C207.425 333.144 207.145 334.168 206.585 335.032C206.041 335.88 205.257 336.536 204.233 337C203.209 337.448 201.985 337.672 200.561 337.672H195.257L196.049 336.856V343H194.273ZM205.745 343L201.425 336.904H203.345L207.689 343H205.745ZM196.049 337L195.257 336.16H200.513C202.193 336.16 203.465 335.792 204.329 335.056C205.209 334.32 205.649 333.288 205.649 331.96C205.649 330.616 205.209 329.576 204.329 328.84C203.465 328.104 202.193 327.736 200.513 327.736H195.257L196.049 326.896V337ZM217.329 343.12C216.017 343.12 214.865 342.848 213.873 342.304C212.881 341.744 212.105 340.984 211.545 340.024C210.985 339.048 210.705 337.936 210.705 336.688C210.705 335.44 210.969 334.336 211.497 333.376C212.041 332.416 212.777 331.664 213.705 331.12C214.649 330.56 215.705 330.28 216.873 330.28C218.057 330.28 219.105 330.552 220.017 331.096C220.945 331.624 221.673 332.376 222.201 333.352C222.729 334.312 222.993 335.424 222.993 336.688C222.993 336.768 222.985 336.856 222.969 336.952C222.969 337.032 222.969 337.12 222.969 337.216H212.001V335.944H222.057L221.385 336.448C221.385 335.536 221.185 334.728 220.785 334.024C220.401 333.304 219.873 332.744 219.201 332.344C218.529 331.944 217.753 331.744 216.873 331.744C216.009 331.744 215.233 331.944 214.545 332.344C213.857 332.744 213.321 333.304 212.937 334.024C212.553 334.744 212.361 335.568 212.361 336.496V336.76C212.361 337.72 212.569 338.568 212.985 339.304C213.417 340.024 214.009 340.592 214.761 341.008C215.529 341.408 216.401 341.608 217.377 341.608C218.145 341.608 218.857 341.472 219.513 341.2C220.185 340.928 220.761 340.512 221.241 339.952L222.201 341.056C221.641 341.728 220.937 342.24 220.089 342.592C219.257 342.944 218.337 343.12 217.329 343.12ZM234.726 343V340.216L234.654 339.76V335.104C234.654 334.032 234.35 333.208 233.742 332.632C233.15 332.056 232.262 331.768 231.078 331.768C230.262 331.768 229.486 331.904 228.75 332.176C228.014 332.448 227.39 332.808 226.878 333.256L226.11 331.984C226.75 331.44 227.518 331.024 228.414 330.736C229.31 330.432 230.254 330.28 231.246 330.28C232.878 330.28 234.134 330.688 235.014 331.504C235.91 332.304 236.358 333.528 236.358 335.176V343H234.726ZM230.382 343.12C229.438 343.12 228.614 342.968 227.91 342.664C227.222 342.344 226.694 341.912 226.326 341.368C225.958 340.808 225.774 340.168 225.774 339.448C225.774 338.792 225.926 338.2 226.23 337.672C226.55 337.128 227.062 336.696 227.766 336.376C228.486 336.04 229.446 335.872 230.646 335.872H234.99V337.144H230.694C229.478 337.144 228.63 337.36 228.15 337.792C227.686 338.224 227.454 338.76 227.454 339.4C227.454 340.12 227.734 340.696 228.294 341.128C228.854 341.56 229.638 341.776 230.646 341.776C231.606 341.776 232.43 341.56 233.118 341.128C233.822 340.68 234.334 340.04 234.654 339.208L235.038 340.384C234.718 341.216 234.158 341.88 233.358 342.376C232.574 342.872 231.582 343.12 230.382 343.12ZM246.722 343.12C245.522 343.12 244.442 342.848 243.482 342.304C242.538 341.76 241.794 341.008 241.25 340.048C240.706 339.072 240.434 337.952 240.434 336.688C240.434 335.408 240.706 334.288 241.25 333.328C241.794 332.368 242.538 331.624 243.482 331.096C244.442 330.552 245.522 330.28 246.722 330.28C247.826 330.28 248.81 330.528 249.674 331.024C250.554 331.52 251.25 332.248 251.762 333.208C252.29 334.152 252.554 335.312 252.554 336.688C252.554 338.048 252.298 339.208 251.786 340.168C251.274 341.128 250.578 341.864 249.698 342.376C248.834 342.872 247.842 343.12 246.722 343.12ZM246.842 341.608C247.738 341.608 248.538 341.408 249.242 341.008C249.962 340.592 250.522 340.016 250.922 339.28C251.338 338.528 251.546 337.664 251.546 336.688C251.546 335.696 251.338 334.832 250.922 334.096C250.522 333.36 249.962 332.792 249.242 332.392C248.538 331.976 247.738 331.768 246.842 331.768C245.962 331.768 245.17 331.976 244.466 332.392C243.762 332.792 243.202 333.36 242.786 334.096C242.37 334.832 242.162 335.696 242.162 336.688C242.162 337.664 242.37 338.528 242.786 339.28C243.202 340.016 243.762 340.592 244.466 341.008C245.17 341.408 245.962 341.608 246.842 341.608ZM251.594 343V339.208L251.762 336.664L251.522 334.12V325.192H253.226V343H251.594ZM264.044 343.12C262.732 343.12 261.58 342.848 260.588 342.304C259.596 341.744 258.82 340.984 258.26 340.024C257.7 339.048 257.42 337.936 257.42 336.688C257.42 335.44 257.684 334.336 258.212 333.376C258.756 332.416 259.492 331.664 260.42 331.12C261.364 330.56 262.42 330.28 263.588 330.28C264.772 330.28 265.82 330.552 266.732 331.096C267.66 331.624 268.388 332.376 268.916 333.352C269.444 334.312 269.708 335.424 269.708 336.688C269.708 336.768 269.7 336.856 269.684 336.952C269.684 337.032 269.684 337.12 269.684 337.216H258.716V335.944H268.772L268.1 336.448C268.1 335.536 267.9 334.728 267.5 334.024C267.116 333.304 266.588 332.744 265.916 332.344C265.244 331.944 264.468 331.744 263.588 331.744C262.724 331.744 261.948 331.944 261.26 332.344C260.572 332.744 260.036 333.304 259.652 334.024C259.268 334.744 259.076 335.568 259.076 336.496V336.76C259.076 337.72 259.284 338.568 259.7 339.304C260.132 340.024 260.724 340.592 261.476 341.008C262.244 341.408 263.116 341.608 264.092 341.608C264.86 341.608 265.572 341.472 266.228 341.2C266.9 340.928 267.476 340.512 267.956 339.952L268.916 341.056C268.356 341.728 267.652 342.24 266.804 342.592C265.972 342.944 265.052 343.12 264.044 343.12ZM273.896 343V330.4H275.528V333.832L275.36 333.232C275.712 332.272 276.304 331.544 277.136 331.048C277.968 330.536 279 330.28 280.232 330.28V331.936C280.168 331.936 280.104 331.936 280.04 331.936C279.976 331.92 279.912 331.912 279.848 331.912C278.52 331.912 277.48 332.32 276.728 333.136C275.976 333.936 275.6 335.08 275.6 336.568V343H273.896ZM282.983 346.504L284.039 342.064L284.231 343.096C283.863 343.096 283.551 342.976 283.295 342.736C283.055 342.496 282.935 342.184 282.935 341.8C282.935 341.416 283.055 341.104 283.295 340.864C283.551 340.624 283.855 340.504 284.207 340.504C284.575 340.504 284.871 340.632 285.095 340.888C285.335 341.144 285.455 341.448 285.455 341.8C285.455 341.928 285.447 342.056 285.431 342.184C285.415 342.312 285.383 342.456 285.335 342.616C285.287 342.776 285.223 342.968 285.143 343.192L284.135 346.504H282.983ZM295.382 343V341.776L302.366 334.936C303.006 334.312 303.486 333.768 303.806 333.304C304.126 332.824 304.342 332.376 304.454 331.96C304.566 331.544 304.622 331.152 304.622 330.784C304.622 329.808 304.286 329.04 303.614 328.48C302.958 327.92 301.982 327.64 300.686 327.64C299.694 327.64 298.814 327.792 298.046 328.096C297.294 328.4 296.646 328.872 296.102 329.512L294.878 328.456C295.534 327.688 296.374 327.096 297.398 326.68C298.422 326.264 299.566 326.056 300.83 326.056C301.966 326.056 302.95 326.24 303.782 326.608C304.614 326.96 305.254 327.48 305.702 328.168C306.166 328.856 306.398 329.664 306.398 330.592C306.398 331.136 306.318 331.672 306.158 332.2C306.014 332.728 305.742 333.288 305.342 333.88C304.958 334.456 304.39 335.112 303.638 335.848L297.23 342.136L296.75 341.464H307.166V343H295.382ZM316.704 343.144C315.408 343.144 314.256 342.808 313.248 342.136C312.24 341.448 311.448 340.472 310.872 339.208C310.296 337.928 310.008 336.392 310.008 334.6C310.008 332.808 310.296 331.28 310.872 330.016C311.448 328.736 312.24 327.76 313.248 327.088C314.256 326.4 315.408 326.056 316.704 326.056C318 326.056 319.152 326.4 320.16 327.088C321.168 327.76 321.96 328.736 322.536 330.016C323.128 331.28 323.424 332.808 323.424 334.6C323.424 336.392 323.128 337.928 322.536 339.208C321.96 340.472 321.168 341.448 320.16 342.136C319.152 342.808 318 343.144 316.704 343.144ZM316.704 341.56C317.696 341.56 318.56 341.296 319.296 340.768C320.032 340.224 320.608 339.44 321.024 338.416C321.44 337.376 321.648 336.104 321.648 334.6C321.648 333.096 321.44 331.832 321.024 330.808C320.608 329.768 320.032 328.984 319.296 328.456C318.56 327.912 317.696 327.64 316.704 327.64C315.744 327.64 314.888 327.912 314.136 328.456C313.384 328.984 312.8 329.768 312.384 330.808C311.968 331.832 311.76 333.096 311.76 334.6C311.76 336.104 311.968 337.376 312.384 338.416C312.8 339.44 313.384 340.224 314.136 340.768C314.888 341.296 315.744 341.56 316.704 341.56ZM326.306 343V341.776L333.29 334.936C333.93 334.312 334.41 333.768 334.73 333.304C335.05 332.824 335.266 332.376 335.378 331.96C335.49 331.544 335.546 331.152 335.546 330.784C335.546 329.808 335.21 329.04 334.538 328.48C333.882 327.92 332.906 327.64 331.61 327.64C330.618 327.64 329.738 327.792 328.97 328.096C328.218 328.4 327.57 328.872 327.026 329.512L325.802 328.456C326.458 327.688 327.298 327.096 328.322 326.68C329.346 326.264 330.49 326.056 331.754 326.056C332.89 326.056 333.874 326.24 334.706 326.608C335.538 326.96 336.178 327.48 336.626 328.168C337.09 328.856 337.322 329.664 337.322 330.592C337.322 331.136 337.242 331.672 337.082 332.2C336.938 332.728 336.666 333.288 336.266 333.88C335.882 334.456 335.314 335.112 334.562 335.848L328.154 342.136L327.674 341.464H338.09V343H326.306ZM347.628 343.144C346.332 343.144 345.18 342.808 344.172 342.136C343.164 341.448 342.372 340.472 341.796 339.208C341.22 337.928 340.932 336.392 340.932 334.6C340.932 332.808 341.22 331.28 341.796 330.016C342.372 328.736 343.164 327.76 344.172 327.088C345.18 326.4 346.332 326.056 347.628 326.056C348.924 326.056 350.076 326.4 351.084 327.088C352.092 327.76 352.884 328.736 353.46 330.016C354.052 331.28 354.348 332.808 354.348 334.6C354.348 336.392 354.052 337.928 353.46 339.208C352.884 340.472 352.092 341.448 351.084 342.136C350.076 342.808 348.924 343.144 347.628 343.144ZM347.628 341.56C348.62 341.56 349.484 341.296 350.22 340.768C350.956 340.224 351.532 339.44 351.948 338.416C352.364 337.376 352.572 336.104 352.572 334.6C352.572 333.096 352.364 331.832 351.948 330.808C351.532 329.768 350.956 328.984 350.22 328.456C349.484 327.912 348.62 327.64 347.628 327.64C346.668 327.64 345.812 327.912 345.06 328.456C344.308 328.984 343.724 329.768 343.308 330.808C342.892 331.832 342.684 333.096 342.684 334.6C342.684 336.104 342.892 337.376 343.308 338.416C343.724 339.44 344.308 340.224 345.06 340.768C345.812 341.296 346.668 341.56 347.628 341.56ZM358.581 343.12C358.229 343.12 357.925 342.992 357.669 342.736C357.429 342.48 357.309 342.168 357.309 341.8C357.309 341.416 357.429 341.104 357.669 340.864C357.925 340.624 358.229 340.504 358.581 340.504C358.933 340.504 359.229 340.624 359.469 340.864C359.725 341.104 359.853 341.416 359.853 341.8C359.853 342.168 359.725 342.48 359.469 342.736C359.229 342.992 358.933 343.12 358.581 343.12Z" fill="#282828"/>
</svg>
