<svg width="1764" height="200" viewBox="0 0 1764 200" fill="none" xmlns="http://www.w3.org/2000/svg">
<g clip-path="url(#clip0_1337_199)">
<path d="M569.79 167.16C560.07 167.16 551.01 165.6 542.61 162.48C534.33 159.24 527.13 154.68 521.01 148.8C514.89 142.92 510.09 136.02 506.61 128.1C503.25 120.18 501.57 111.48 501.57 102C501.57 92.52 503.25 83.82 506.61 75.9C510.09 67.98 514.89 61.08 521.01 55.2C527.25 49.32 534.51 44.82 542.79 41.7C551.07 38.46 560.13 36.84 569.97 36.84C580.89 36.84 590.73 38.76 599.49 42.6C608.37 46.32 615.81 51.84 621.81 59.16L603.09 76.44C598.77 71.52 593.97 67.86 588.69 65.46C583.41 62.94 577.65 61.68 571.41 61.68C565.53 61.68 560.13 62.64 555.21 64.56C550.29 66.48 546.03 69.24 542.43 72.84C538.83 76.44 536.01 80.7 533.97 85.62C532.05 90.54 531.09 96 531.09 102C531.09 108 532.05 113.46 533.97 118.38C536.01 123.3 538.83 127.56 542.43 131.16C546.03 134.76 550.29 137.52 555.21 139.44C560.13 141.36 565.53 142.32 571.41 142.32C577.65 142.32 583.41 141.12 588.69 138.72C593.97 136.2 598.77 132.42 603.09 127.38L621.81 144.66C615.81 151.98 608.37 157.56 599.49 161.4C590.73 165.24 580.83 167.16 569.79 167.16ZM687.662 166.44C677.342 166.44 668.162 164.28 660.122 159.96C652.202 155.64 645.902 149.76 641.222 142.32C636.662 134.76 634.382 126.18 634.382 116.58C634.382 106.86 636.662 98.28 641.222 90.84C645.902 83.28 652.202 77.4 660.122 73.2C668.162 68.88 677.342 66.72 687.662 66.72C697.862 66.72 706.982 68.88 715.022 73.2C723.062 77.4 729.362 83.22 733.922 90.66C738.482 98.1 740.762 106.74 740.762 116.58C740.762 126.18 738.482 134.76 733.922 142.32C729.362 149.76 723.062 155.64 715.022 159.96C706.982 164.28 697.862 166.44 687.662 166.44ZM687.662 143.4C692.342 143.4 696.542 142.32 700.262 140.16C703.982 138 706.922 134.94 709.082 130.98C711.242 126.9 712.322 122.1 712.322 116.58C712.322 110.94 711.242 106.14 709.082 102.18C706.922 98.22 703.982 95.16 700.262 93C696.542 90.84 692.342 89.76 687.662 89.76C682.982 89.76 678.782 90.84 675.062 93C671.342 95.16 668.342 98.22 666.062 102.18C663.902 106.14 662.822 110.94 662.822 116.58C662.822 122.1 663.902 126.9 666.062 130.98C668.342 134.94 671.342 138 675.062 140.16C678.782 142.32 682.982 143.4 687.662 143.4ZM823.791 66.72C831.471 66.72 838.311 68.28 844.311 71.4C850.431 74.4 855.231 79.08 858.711 85.44C862.191 91.68 863.931 99.72 863.931 109.56V165H835.851V113.88C835.851 106.08 834.111 100.32 830.631 96.6C827.271 92.88 822.471 91.02 816.231 91.02C811.791 91.02 807.771 91.98 804.171 93.9C800.691 95.7 797.931 98.52 795.891 102.36C793.971 106.2 793.011 111.12 793.011 117.12V165H764.931V68.16H791.751V94.98L786.711 86.88C790.191 80.4 795.171 75.42 801.651 71.94C808.131 68.46 815.511 66.72 823.791 66.72ZM934.384 166.44C922.984 166.44 914.104 163.56 907.744 157.8C901.384 151.92 898.204 143.22 898.204 131.7V46.74H926.284V131.34C926.284 135.42 927.364 138.6 929.524 140.88C931.684 143.04 934.624 144.12 938.344 144.12C942.784 144.12 946.564 142.92 949.684 140.52L957.244 160.32C954.364 162.36 950.884 163.92 946.804 165C942.844 165.96 938.704 166.44 934.384 166.44ZM883.264 91.92V70.32H950.404V91.92H883.264ZM1023.48 166.44C1012.44 166.44 1002.72 164.28 994.319 159.96C986.039 155.64 979.619 149.76 975.059 142.32C970.499 134.76 968.219 126.18 968.219 116.58C968.219 106.86 970.439 98.28 974.879 90.84C979.439 83.28 985.619 77.4 993.419 73.2C1001.22 68.88 1010.04 66.72 1019.88 66.72C1029.36 66.72 1037.88 68.76 1045.44 72.84C1053.12 76.8 1059.18 82.56 1063.62 90.12C1068.06 97.56 1070.28 106.5 1070.28 116.94C1070.28 118.02 1070.22 119.28 1070.1 120.72C1069.98 122.04 1069.86 123.3 1069.74 124.5H991.079V108.12H1054.98L1044.18 112.98C1044.18 107.94 1043.16 103.56 1041.12 99.84C1039.08 96.12 1036.26 93.24 1032.66 91.2C1029.06 89.04 1024.86 87.96 1020.06 87.96C1015.26 87.96 1011 89.04 1007.28 91.2C1003.68 93.24 1000.86 96.18 998.819 100.02C996.779 103.74 995.759 108.18 995.759 113.34V117.66C995.759 122.94 996.899 127.62 999.179 131.7C1001.58 135.66 1004.88 138.72 1009.08 140.88C1013.4 142.92 1018.44 143.94 1024.2 143.94C1029.36 143.94 1033.86 143.16 1037.7 141.6C1041.66 140.04 1045.26 137.7 1048.5 134.58L1063.44 150.78C1059 155.82 1053.42 159.72 1046.7 162.48C1039.98 165.12 1032.24 166.44 1023.48 166.44ZM1079.5 165L1122.88 108.12L1122.34 123.6L1080.76 68.16H1112.26L1138.54 104.34L1126.66 104.7L1153.84 68.16H1183.72L1141.96 123.06V107.94L1185.16 165H1153.3L1125.76 126.48L1137.46 128.1L1110.1 165H1079.5ZM1243.79 166.44C1232.39 166.44 1223.51 163.56 1217.15 157.8C1210.79 151.92 1207.61 143.22 1207.61 131.7V46.74H1235.69V131.34C1235.69 135.42 1236.77 138.6 1238.93 140.88C1241.09 143.04 1244.03 144.12 1247.75 144.12C1252.19 144.12 1255.97 142.92 1259.09 140.52L1266.65 160.32C1263.77 162.36 1260.29 163.92 1256.21 165C1252.25 165.96 1248.11 166.44 1243.79 166.44ZM1192.67 91.92V70.32H1259.81V91.92H1192.67Z" fill="#282828" fill-opacity="0.02"/>
<path d="M784.868 120.672C780.873 120.672 777.252 119.813 774.004 118.096C770.793 116.341 768.255 113.933 766.388 110.872C764.559 107.773 763.644 104.283 763.644 100.4C763.644 96.5173 764.559 93.0453 766.388 89.984C768.255 86.8853 770.793 84.4773 774.004 82.76C777.252 81.0053 780.892 80.128 784.924 80.128C788.321 80.128 791.383 80.7253 794.108 81.92C796.871 83.1147 799.185 84.832 801.052 87.072L795.228 92.448C792.577 89.3867 789.292 87.856 785.372 87.856C782.945 87.856 780.78 88.3973 778.876 89.48C776.972 90.5253 775.479 92 774.396 93.904C773.351 95.808 772.828 97.9733 772.828 100.4C772.828 102.827 773.351 104.992 774.396 106.896C775.479 108.8 776.972 110.293 778.876 111.376C780.78 112.421 782.945 112.944 785.372 112.944C789.292 112.944 792.577 111.395 795.228 108.296L801.052 113.672C799.185 115.949 796.871 117.685 794.108 118.88C791.345 120.075 788.265 120.672 784.868 120.672ZM821.539 120.448C818.366 120.448 815.51 119.795 812.971 118.488C810.47 117.144 808.51 115.296 807.091 112.944C805.673 110.592 804.963 107.923 804.963 104.936C804.963 101.949 805.673 99.28 807.091 96.928C808.51 94.576 810.47 92.7467 812.971 91.44C815.51 90.096 818.366 89.424 821.539 89.424C824.713 89.424 827.55 90.096 830.051 91.44C832.553 92.7467 834.513 94.576 835.931 96.928C837.35 99.28 838.059 101.949 838.059 104.936C838.059 107.923 837.35 110.592 835.931 112.944C834.513 115.296 832.553 117.144 830.051 118.488C827.55 119.795 824.713 120.448 821.539 120.448ZM821.539 113.28C823.779 113.28 825.609 112.533 827.027 111.04C828.483 109.509 829.211 107.475 829.211 104.936C829.211 102.397 828.483 100.381 827.027 98.888C825.609 97.3573 823.779 96.592 821.539 96.592C819.299 96.592 817.451 97.3573 815.995 98.888C814.539 100.381 813.811 102.397 813.811 104.936C813.811 107.475 814.539 109.509 815.995 111.04C817.451 112.533 819.299 113.28 821.539 113.28ZM863.891 89.424C867.624 89.424 870.629 90.544 872.907 92.784C875.221 95.024 876.379 98.3467 876.379 102.752V120H867.643V104.096C867.643 101.707 867.12 99.9333 866.075 98.776C865.029 97.5813 863.517 96.984 861.539 96.984C859.336 96.984 857.581 97.6747 856.275 99.056C854.968 100.4 854.315 102.416 854.315 105.104V120H845.579V89.872H853.923V93.4C855.08 92.1307 856.517 91.16 858.235 90.488C859.952 89.7787 861.837 89.424 863.891 89.424ZM905.409 118.544C904.551 119.179 903.487 119.664 902.217 120C900.985 120.299 899.679 120.448 898.297 120.448C894.713 120.448 891.932 119.533 889.953 117.704C888.012 115.875 887.041 113.187 887.041 109.64V97.264H882.393V90.544H887.041V83.208H895.777V90.544H903.281V97.264H895.777V109.528C895.777 110.797 896.095 111.787 896.729 112.496C897.401 113.168 898.335 113.504 899.529 113.504C900.911 113.504 902.087 113.131 903.057 112.384L905.409 118.544ZM940.576 105.048C940.576 105.16 940.52 105.944 940.408 107.4H917.616C918.026 109.267 918.997 110.741 920.528 111.824C922.058 112.907 923.962 113.448 926.24 113.448C927.808 113.448 929.189 113.224 930.384 112.776C931.616 112.291 932.754 111.544 933.8 110.536L938.448 115.576C935.61 118.824 931.466 120.448 926.016 120.448C922.618 120.448 919.613 119.795 917 118.488C914.386 117.144 912.37 115.296 910.952 112.944C909.533 110.592 908.824 107.923 908.824 104.936C908.824 101.987 909.514 99.336 910.896 96.984C912.314 94.5947 914.237 92.7467 916.664 91.44C919.128 90.096 921.872 89.424 924.896 89.424C927.845 89.424 930.514 90.0587 932.904 91.328C935.293 92.5973 937.16 94.4267 938.504 96.816C939.885 99.168 940.576 101.912 940.576 105.048ZM924.952 96.032C922.973 96.032 921.312 96.592 919.968 97.712C918.624 98.832 917.802 100.363 917.504 102.304H932.344C932.045 100.4 931.224 98.888 929.88 97.768C928.536 96.6107 926.893 96.032 924.952 96.032ZM966.403 120L959.795 110.76L952.963 120H943.443L955.035 104.824L943.835 89.872H953.635L960.019 98.664L966.571 89.872H975.867L964.667 104.6L976.315 120H966.403ZM1001.67 118.544C1000.81 119.179 999.745 119.664 998.476 120C997.244 120.299 995.937 120.448 994.556 120.448C990.972 120.448 988.191 119.533 986.212 117.704C984.271 115.875 983.3 113.187 983.3 109.64V97.264H978.652V90.544H983.3V83.208H992.036V90.544H999.54V97.264H992.036V109.528C992.036 110.797 992.353 111.787 992.988 112.496C993.66 113.168 994.593 113.504 995.788 113.504C997.169 113.504 998.345 113.131 999.316 112.384L1001.67 118.544Z" fill="#282828"/>
</g>
<defs>
<clipPath id="clip0_1337_199">
<rect width="1764" height="200" fill="white"/>
</clipPath>
</defs>
</svg>
