<svg width="181" height="23" viewBox="0 0 181 23" fill="none" xmlns="http://www.w3.org/2000/svg">
<path d="M4.88 3.06C6.4 3.06 7.71333 3.34667 8.82 3.92C9.94 4.48 10.7933 5.28667 11.38 6.34C11.98 7.39333 12.28 8.63333 12.28 10.06C12.28 11.4867 11.98 12.7267 11.38 13.78C10.7933 14.82 9.94 15.62 8.82 16.18C7.71333 16.7267 6.4 17 4.88 17H0.54V3.06H4.88ZM4.88 15.5C6.68 15.5 8.05333 15.0267 9 14.08C9.94667 13.12 10.42 11.78 10.42 10.06C10.42 8.32667 9.94 6.97333 8.98 6C8.03333 5.02667 6.66667 4.54 4.88 4.54H2.36V15.5H4.88ZM24.6806 11.1C24.6806 11.4467 24.6606 11.8133 24.6206 12.2H15.8606C15.9273 13.28 16.294 14.1267 16.9606 14.74C17.6406 15.34 18.4606 15.64 19.4206 15.64C20.2073 15.64 20.8606 15.46 21.3806 15.1C21.914 14.7267 22.2873 14.2333 22.5006 13.62H24.4606C24.1673 14.6733 23.5806 15.5333 22.7006 16.2C21.8206 16.8533 20.7273 17.18 19.4206 17.18C18.3806 17.18 17.4473 16.9467 16.6206 16.48C15.8073 16.0133 15.1673 15.3533 14.7006 14.5C14.234 13.6333 14.0006 12.6333 14.0006 11.5C14.0006 10.3667 14.2273 9.37333 14.6806 8.52C15.134 7.66667 15.7673 7.01333 16.5806 6.56C17.4073 6.09333 18.354 5.86 19.4206 5.86C20.4606 5.86 21.3806 6.08667 22.1806 6.54C22.9806 6.99333 23.594 7.62 24.0206 8.42C24.4606 9.20667 24.6806 10.1 24.6806 11.1ZM22.8006 10.72C22.8006 10.0267 22.6473 9.43333 22.3406 8.94C22.034 8.43333 21.614 8.05333 21.0806 7.8C20.5606 7.53333 19.9806 7.4 19.3406 7.4C18.4206 7.4 17.634 7.69333 16.9806 8.28C16.3406 8.86667 15.974 9.68 15.8806 10.72H22.8006ZM28.903 8.08C29.2763 7.42667 29.823 6.89333 30.543 6.48C31.263 6.06667 32.083 5.86 33.003 5.86C33.9896 5.86 34.8763 6.09333 35.663 6.56C36.4496 7.02667 37.0696 7.68667 37.523 8.54C37.9763 9.38 38.203 10.36 38.203 11.48C38.203 12.5867 37.9763 13.5733 37.523 14.44C37.0696 15.3067 36.443 15.98 35.643 16.46C34.8563 16.94 33.9763 17.18 33.003 17.18C32.0563 17.18 31.223 16.9733 30.503 16.56C29.7963 16.1467 29.263 15.62 28.903 14.98V17H27.083V2.2H28.903V8.08ZM36.343 11.48C36.343 10.6533 36.1763 9.93333 35.843 9.32C35.5096 8.70667 35.0563 8.24 34.483 7.92C33.923 7.6 33.303 7.44 32.623 7.44C31.9563 7.44 31.3363 7.60667 30.763 7.94C30.203 8.26 29.7496 8.73333 29.403 9.36C29.0696 9.97333 28.903 10.6867 28.903 11.5C28.903 12.3267 29.0696 13.0533 29.403 13.68C29.7496 14.2933 30.203 14.7667 30.763 15.1C31.3363 15.42 31.9563 15.58 32.623 15.58C33.303 15.58 33.923 15.42 34.483 15.1C35.0563 14.7667 35.5096 14.2933 35.843 13.68C36.1763 13.0533 36.343 12.32 36.343 11.48ZM45.3786 17.18C44.3519 17.18 43.4186 16.9467 42.5786 16.48C41.7519 16.0133 41.0986 15.3533 40.6186 14.5C40.1519 13.6333 39.9186 12.6333 39.9186 11.5C39.9186 10.38 40.1586 9.39333 40.6386 8.54C41.1319 7.67333 41.7986 7.01333 42.6386 6.56C43.4786 6.09333 44.4186 5.86 45.4586 5.86C46.4986 5.86 47.4386 6.09333 48.2786 6.56C49.1186 7.01333 49.7786 7.66667 50.2586 8.52C50.7519 9.37333 50.9986 10.3667 50.9986 11.5C50.9986 12.6333 50.7453 13.6333 50.2386 14.5C49.7453 15.3533 49.0719 16.0133 48.2186 16.48C47.3653 16.9467 46.4186 17.18 45.3786 17.18ZM45.3786 15.58C46.0319 15.58 46.6453 15.4267 47.2186 15.12C47.7919 14.8133 48.2519 14.3533 48.5986 13.74C48.9586 13.1267 49.1386 12.38 49.1386 11.5C49.1386 10.62 48.9653 9.87333 48.6186 9.26C48.2719 8.64667 47.8186 8.19333 47.2586 7.9C46.6986 7.59333 46.0919 7.44 45.4386 7.44C44.7719 7.44 44.1586 7.59333 43.5986 7.9C43.0519 8.19333 42.6119 8.64667 42.2786 9.26C41.9453 9.87333 41.7786 10.62 41.7786 11.5C41.7786 12.3933 41.9386 13.1467 42.2586 13.76C42.5919 14.3733 43.0319 14.8333 43.5786 15.14C44.1253 15.4333 44.7253 15.58 45.3786 15.58ZM55.2116 7.82C55.5316 7.19333 55.9849 6.70667 56.5716 6.36C57.1716 6.01333 57.8982 5.84 58.7516 5.84V7.72H58.2716C56.2316 7.72 55.2116 8.82667 55.2116 11.04V17H53.3916V6.04H55.2116V7.82ZM67.8725 15.02C67.5392 15.6467 67.0058 16.1667 66.2725 16.58C65.5392 16.9933 64.7325 17.2 63.8525 17.2C63.1458 17.2 62.5125 17.06 61.9525 16.78C61.3925 16.5 60.9525 16.1133 60.6325 15.62C60.3258 15.1267 60.1725 14.5667 60.1725 13.94C60.1725 12.94 60.5392 12.12 61.2725 11.48C62.0058 10.8267 63.0792 10.5 64.4925 10.5H67.8725C67.8458 9.55333 67.5858 8.80667 67.0925 8.26C66.6125 7.71333 65.9458 7.44 65.0925 7.44C64.3192 7.44 63.6792 7.65333 63.1725 8.08C62.6792 8.50667 62.3658 9.1 62.2325 9.86H60.4525C60.6125 8.66 61.1058 7.69333 61.9325 6.96C62.7725 6.22667 63.8525 5.86 65.1725 5.86C66.0392 5.86 66.8125 6.04667 67.4925 6.42C68.1858 6.79333 68.7258 7.33333 69.1125 8.04C69.5125 8.74667 69.7125 9.59333 69.7125 10.58V17H67.8725V15.02ZM64.2125 15.6C64.8258 15.6 65.4125 15.4667 65.9725 15.2C66.5325 14.9333 66.9858 14.54 67.3325 14.02C67.6925 13.5 67.8725 12.88 67.8725 12.16V11.98H64.4925C63.6658 11.98 63.0458 12.1467 62.6325 12.48C62.2192 12.8133 62.0125 13.26 62.0125 13.82C62.0125 14.3533 62.2058 14.7867 62.5925 15.12C62.9925 15.44 63.5325 15.6 64.2125 15.6ZM82.9177 17.14C81.891 17.14 80.971 16.9733 80.1577 16.64C79.3443 16.3067 78.691 15.8133 78.1977 15.16C77.7177 14.5067 77.4643 13.72 77.4377 12.8H81.0777C81.131 13.32 81.311 13.72 81.6177 14C81.9243 14.2667 82.3243 14.4 82.8177 14.4C83.3243 14.4 83.7243 14.2867 84.0177 14.06C84.311 13.82 84.4577 13.4933 84.4577 13.08C84.4577 12.7333 84.3377 12.4467 84.0977 12.22C83.871 11.9933 83.5843 11.8067 83.2377 11.66C82.9043 11.5133 82.4243 11.3467 81.7977 11.16C80.891 10.88 80.151 10.6 79.5777 10.32C79.0043 10.04 78.511 9.62667 78.0977 9.08C77.6843 8.53333 77.4777 7.82 77.4777 6.94C77.4777 5.63333 77.951 4.61333 78.8977 3.88C79.8443 3.13333 81.0777 2.76 82.5977 2.76C84.1443 2.76 85.391 3.13333 86.3377 3.88C87.2843 4.61333 87.791 5.64 87.8577 6.96H84.1577C84.131 6.50667 83.9643 6.15333 83.6577 5.9C83.351 5.63333 82.9577 5.5 82.4777 5.5C82.0643 5.5 81.731 5.61333 81.4777 5.84C81.2243 6.05333 81.0977 6.36667 81.0977 6.78C81.0977 7.23333 81.311 7.58667 81.7377 7.84C82.1643 8.09333 82.831 8.36667 83.7377 8.66C84.6443 8.96667 85.3777 9.26 85.9377 9.54C86.511 9.82 87.0043 10.2267 87.4177 10.76C87.831 11.2933 88.0377 11.98 88.0377 12.82C88.0377 13.62 87.831 14.3467 87.4177 15C87.0177 15.6533 86.431 16.1733 85.6577 16.56C84.8843 16.9467 83.971 17.14 82.9177 17.14ZM93.5623 7.42C93.8957 6.9 94.3557 6.48 94.9423 6.16C95.529 5.84 96.2157 5.68 97.0023 5.68C97.9223 5.68 98.7557 5.91333 99.5023 6.38C100.249 6.84667 100.836 7.51333 101.262 8.38C101.702 9.24667 101.922 10.2533 101.922 11.4C101.922 12.5467 101.702 13.56 101.262 14.44C100.836 15.3067 100.249 15.98 99.5023 16.46C98.7557 16.9267 97.9223 17.16 97.0023 17.16C96.229 17.16 95.5423 17 94.9423 16.68C94.3557 16.36 93.8957 15.9467 93.5623 15.44V22.32H90.1423V5.84H93.5623V7.42ZM98.4423 11.4C98.4423 10.5467 98.2023 9.88 97.7223 9.4C97.2557 8.90667 96.6757 8.66 95.9823 8.66C95.3023 8.66 94.7223 8.90667 94.2423 9.4C93.7757 9.89333 93.5423 10.5667 93.5423 11.42C93.5423 12.2733 93.7757 12.9467 94.2423 13.44C94.7223 13.9333 95.3023 14.18 95.9823 14.18C96.6623 14.18 97.2423 13.9333 97.7223 13.44C98.2023 12.9333 98.4423 12.2533 98.4423 11.4ZM114.237 11.24C114.237 11.56 114.217 11.8933 114.177 12.24H106.437C106.49 12.9333 106.71 13.4667 107.097 13.84C107.497 14.2 107.983 14.38 108.557 14.38C109.41 14.38 110.003 14.02 110.337 13.3H113.977C113.79 14.0333 113.45 14.6933 112.957 15.28C112.477 15.8667 111.87 16.3267 111.137 16.66C110.403 16.9933 109.583 17.16 108.677 17.16C107.583 17.16 106.61 16.9267 105.757 16.46C104.903 15.9933 104.237 15.3267 103.757 14.46C103.277 13.5933 103.037 12.58 103.037 11.42C103.037 10.26 103.27 9.24667 103.737 8.38C104.217 7.51333 104.883 6.84667 105.737 6.38C106.59 5.91333 107.57 5.68 108.677 5.68C109.757 5.68 110.717 5.90667 111.557 6.36C112.397 6.81333 113.05 7.46 113.517 8.3C113.997 9.14 114.237 10.12 114.237 11.24ZM110.737 10.34C110.737 9.75333 110.537 9.28667 110.137 8.94C109.737 8.59333 109.237 8.42 108.637 8.42C108.063 8.42 107.577 8.58667 107.177 8.92C106.79 9.25333 106.55 9.72667 106.457 10.34H110.737ZM119.461 7.7C119.861 7.08667 120.361 6.60667 120.961 6.26C121.561 5.9 122.227 5.72 122.961 5.72V9.34H122.021C121.167 9.34 120.527 9.52667 120.101 9.9C119.674 10.26 119.461 10.9 119.461 11.82V17H116.041V5.84H119.461V7.7ZM131.195 15.44C130.902 15.96 130.415 16.3867 129.735 16.72C129.055 17.0533 128.329 17.22 127.555 17.22C126.875 17.22 126.255 17.0867 125.695 16.82C125.149 16.54 124.715 16.1533 124.395 15.66C124.075 15.1667 123.915 14.5933 123.915 13.94C123.915 12.9133 124.315 12.08 125.115 11.44C125.915 10.7867 127.109 10.46 128.695 10.46H131.195C131.169 9.84667 130.995 9.36667 130.675 9.02C130.369 8.66 129.942 8.48 129.395 8.48C128.902 8.48 128.495 8.60667 128.175 8.86C127.855 9.11333 127.642 9.46 127.535 9.9H124.115C124.275 9.08667 124.595 8.36 125.075 7.72C125.555 7.08 126.169 6.58 126.915 6.22C127.675 5.84667 128.522 5.66 129.455 5.66C130.455 5.66 131.349 5.85333 132.135 6.24C132.922 6.62667 133.535 7.18667 133.975 7.92C134.415 8.64 134.635 9.48 134.635 10.44V17H131.195V15.44ZM128.755 14.64C129.155 14.64 129.542 14.5533 129.915 14.38C130.289 14.1933 130.589 13.9333 130.815 13.6C131.055 13.2533 131.175 12.86 131.175 12.42V12.28H129.055C128.495 12.28 128.075 12.3933 127.795 12.62C127.529 12.8333 127.395 13.12 127.395 13.48C127.395 13.84 127.515 14.1267 127.755 14.34C127.995 14.54 128.329 14.64 128.755 14.64ZM143.915 5.72C145.222 5.72 146.262 6.14667 147.035 7C147.822 7.84 148.215 9 148.215 10.48V17H144.815V10.94C144.815 10.1933 144.622 9.61333 144.235 9.2C143.848 8.78667 143.328 8.58 142.675 8.58C142.022 8.58 141.502 8.78667 141.115 9.2C140.728 9.61333 140.535 10.1933 140.535 10.94V17H137.115V5.84H140.535V7.32C140.882 6.82667 141.348 6.44 141.935 6.16C142.522 5.86667 143.182 5.72 143.915 5.72ZM149.912 11.4C149.912 10.2533 150.125 9.24667 150.552 8.38C150.992 7.51333 151.585 6.84667 152.332 6.38C153.078 5.91333 153.912 5.68 154.832 5.68C155.565 5.68 156.232 5.83333 156.832 6.14C157.445 6.44667 157.925 6.86 158.272 7.38V2.2H161.692V17H158.272V15.4C157.952 15.9333 157.492 16.36 156.892 16.68C156.305 17 155.618 17.16 154.832 17.16C153.912 17.16 153.078 16.9267 152.332 16.46C151.585 15.98 150.992 15.3067 150.552 14.44C150.125 13.56 149.912 12.5467 149.912 11.4ZM158.272 11.42C158.272 10.5667 158.032 9.89333 157.552 9.4C157.085 8.90667 156.512 8.66 155.832 8.66C155.152 8.66 154.572 8.90667 154.092 9.4C153.625 9.88 153.392 10.5467 153.392 11.4C153.392 12.2533 153.625 12.9333 154.092 13.44C154.572 13.9333 155.152 14.18 155.832 14.18C156.512 14.18 157.085 13.9333 157.552 13.44C158.032 12.9467 158.272 12.2733 158.272 11.42ZM165.886 4.68C165.286 4.68 164.792 4.50667 164.406 4.16C164.032 3.8 163.846 3.36 163.846 2.84C163.846 2.30667 164.032 1.86667 164.406 1.52C164.792 1.16 165.286 0.979999 165.886 0.979999C166.472 0.979999 166.952 1.16 167.326 1.52C167.712 1.86667 167.906 2.30667 167.906 2.84C167.906 3.36 167.712 3.8 167.326 4.16C166.952 4.50667 166.472 4.68 165.886 4.68ZM167.586 5.84V17H164.166V5.84H167.586ZM175.144 17.16C174.051 17.16 173.064 16.9267 172.184 16.46C171.318 15.9933 170.631 15.3267 170.124 14.46C169.631 13.5933 169.384 12.58 169.384 11.42C169.384 10.2733 169.638 9.26667 170.144 8.4C170.651 7.52 171.344 6.84667 172.224 6.38C173.104 5.91333 174.091 5.68 175.184 5.68C176.278 5.68 177.264 5.91333 178.144 6.38C179.024 6.84667 179.718 7.52 180.224 8.4C180.731 9.26667 180.984 10.2733 180.984 11.42C180.984 12.5667 180.724 13.58 180.204 14.46C179.698 15.3267 178.998 15.9933 178.104 16.46C177.224 16.9267 176.238 17.16 175.144 17.16ZM175.144 14.2C175.798 14.2 176.351 13.96 176.804 13.48C177.271 13 177.504 12.3133 177.504 11.42C177.504 10.5267 177.278 9.84 176.824 9.36C176.384 8.88 175.838 8.64 175.184 8.64C174.518 8.64 173.964 8.88 173.524 9.36C173.084 9.82667 172.864 10.5133 172.864 11.42C172.864 12.3133 173.078 13 173.504 13.48C173.944 13.96 174.491 14.2 175.144 14.2Z" fill="#3E3E3E"/>
</svg>
