<svg width="207" height="24" viewBox="0 0 207 24" fill="none" xmlns="http://www.w3.org/2000/svg">
<path d="M5.5 19H0.113636V1.54545H5.73864C7.43182 1.54545 8.88068 1.89489 10.0852 2.59375C11.2898 3.28693 12.2131 4.28409 12.8551 5.58523C13.4972 6.88068 13.8182 8.43182 13.8182 10.2386C13.8182 12.0568 13.4943 13.6222 12.8466 14.9347C12.1989 16.2415 11.2557 17.2472 10.017 17.9517C8.77841 18.6506 7.27273 19 5.5 19ZM2.22727 17.125H5.36364C6.80682 17.125 8.00284 16.8466 8.9517 16.2898C9.90057 15.733 10.608 14.9403 11.0739 13.9119C11.5398 12.8835 11.7727 11.6591 11.7727 10.2386C11.7727 8.82955 11.5426 7.61648 11.0824 6.59943C10.6222 5.5767 9.93466 4.79261 9.01989 4.24716C8.10511 3.69602 6.96591 3.42045 5.60227 3.42045H2.22727V17.125ZM22.5795 19.2727C21.3182 19.2727 20.2301 18.9943 19.3153 18.4375C18.4062 17.875 17.7045 17.0909 17.2102 16.0852C16.7216 15.0739 16.4773 13.8977 16.4773 12.5568C16.4773 11.2159 16.7216 10.0341 17.2102 9.01136C17.7045 7.98295 18.392 7.18182 19.2727 6.60795C20.1591 6.02841 21.1932 5.73864 22.375 5.73864C23.0568 5.73864 23.7301 5.85227 24.3949 6.07954C25.0597 6.30682 25.6648 6.67614 26.2102 7.1875C26.7557 7.69318 27.1903 8.36364 27.5142 9.19886C27.8381 10.0341 28 11.0625 28 12.2841V13.1364H17.9091V11.3977H25.9545C25.9545 10.6591 25.8068 10 25.5114 9.42045C25.2216 8.84091 24.8068 8.38352 24.267 8.0483C23.733 7.71307 23.1023 7.54545 22.375 7.54545C21.5739 7.54545 20.8807 7.74432 20.2955 8.14205C19.7159 8.53409 19.2699 9.04545 18.9574 9.67614C18.6449 10.3068 18.4886 10.983 18.4886 11.7045V12.8636C18.4886 13.8523 18.6591 14.6903 19 15.3778C19.3466 16.0597 19.8267 16.5795 20.4403 16.9375C21.054 17.2898 21.767 17.4659 22.5795 17.4659C23.108 17.4659 23.5852 17.392 24.0114 17.2443C24.4432 17.0909 24.8153 16.8636 25.1278 16.5625C25.4403 16.2557 25.6818 15.875 25.8523 15.4205L27.7955 15.9659C27.5909 16.625 27.2472 17.2045 26.7642 17.7045C26.2813 18.1989 25.6847 18.5852 24.9744 18.8636C24.2642 19.1364 23.4659 19.2727 22.5795 19.2727ZM31.3324 19V1.54545H33.3438V7.98864H33.5142C33.6619 7.76136 33.8665 7.47159 34.1278 7.11932C34.3949 6.76136 34.7756 6.44318 35.2699 6.16477C35.7699 5.88068 36.446 5.73864 37.2983 5.73864C38.4006 5.73864 39.3722 6.0142 40.2131 6.56534C41.054 7.11648 41.7102 7.89773 42.1818 8.90909C42.6534 9.92045 42.8892 11.1136 42.8892 12.4886C42.8892 13.875 42.6534 15.0767 42.1818 16.0938C41.7102 17.1051 41.0568 17.8892 40.2216 18.446C39.3864 18.9972 38.4233 19.2727 37.3324 19.2727C36.4915 19.2727 35.8182 19.1335 35.3125 18.8551C34.8068 18.571 34.4176 18.25 34.1449 17.892C33.8722 17.5284 33.6619 17.2273 33.5142 16.9886H33.2756V19H31.3324ZM33.3097 12.4545C33.3097 13.4432 33.4545 14.3153 33.7443 15.071C34.0341 15.821 34.4574 16.4091 35.0142 16.8352C35.571 17.2557 36.2528 17.4659 37.0597 17.4659C37.9006 17.4659 38.6023 17.2443 39.1648 16.8011C39.733 16.3523 40.1591 15.75 40.4432 14.9943C40.733 14.233 40.8778 13.3864 40.8778 12.4545C40.8778 11.5341 40.7358 10.7045 40.4517 9.96591C40.1733 9.22159 39.75 8.63352 39.1818 8.2017C38.6193 7.7642 37.9119 7.54545 37.0597 7.54545C36.2415 7.54545 35.554 7.75284 34.9972 8.16761C34.4403 8.5767 34.0199 9.15057 33.7358 9.8892C33.4517 10.6222 33.3097 11.4773 33.3097 12.4545ZM51.2841 19.2727C50.1023 19.2727 49.0653 18.9915 48.1733 18.429C47.2869 17.8665 46.5938 17.0795 46.0938 16.0682C45.5994 15.0568 45.3523 13.875 45.3523 12.5227C45.3523 11.1591 45.5994 9.96875 46.0938 8.9517C46.5938 7.93466 47.2869 7.14489 48.1733 6.58239C49.0653 6.01989 50.1023 5.73864 51.2841 5.73864C52.4659 5.73864 53.5 6.01989 54.3864 6.58239C55.2784 7.14489 55.9716 7.93466 56.4659 8.9517C56.9659 9.96875 57.2159 11.1591 57.2159 12.5227C57.2159 13.875 56.9659 15.0568 56.4659 16.0682C55.9716 17.0795 55.2784 17.8665 54.3864 18.429C53.5 18.9915 52.4659 19.2727 51.2841 19.2727ZM51.2841 17.4659C52.1818 17.4659 52.9205 17.2358 53.5 16.7756C54.0795 16.3153 54.5085 15.7102 54.7869 14.9602C55.0653 14.2102 55.2045 13.3977 55.2045 12.5227C55.2045 11.6477 55.0653 10.8324 54.7869 10.0767C54.5085 9.32102 54.0795 8.71023 53.5 8.24432C52.9205 7.77841 52.1818 7.54545 51.2841 7.54545C50.3864 7.54545 49.6477 7.77841 49.0682 8.24432C48.4886 8.71023 48.0597 9.32102 47.7812 10.0767C47.5028 10.8324 47.3636 11.6477 47.3636 12.5227C47.3636 13.3977 47.5028 14.2102 47.7812 14.9602C48.0597 15.7102 48.4886 16.3153 49.0682 16.7756C49.6477 17.2358 50.3864 17.4659 51.2841 17.4659ZM60.2862 19V5.90909H62.2294V7.88636H62.3658C62.6044 7.23864 63.0362 6.71307 63.6612 6.30966C64.2862 5.90625 64.9908 5.70454 65.7749 5.70454C65.9226 5.70454 66.1072 5.70739 66.3288 5.71307C66.5504 5.71875 66.718 5.72727 66.8317 5.73864V7.78409C66.7635 7.76705 66.6072 7.74148 66.3629 7.70739C66.1243 7.66761 65.8714 7.64773 65.6044 7.64773C64.968 7.64773 64.3999 7.78125 63.8999 8.0483C63.4055 8.30966 63.0135 8.6733 62.7237 9.1392C62.4396 9.59943 62.2976 10.125 62.2976 10.7159V19H60.2862ZM73.0682 19.3068C72.2386 19.3068 71.4858 19.1506 70.8097 18.8381C70.1335 18.5199 69.5966 18.0625 69.1989 17.4659C68.8011 16.8636 68.6023 16.1364 68.6023 15.2841C68.6023 14.5341 68.75 13.9261 69.0455 13.4602C69.3409 12.9886 69.7358 12.6193 70.2301 12.3523C70.7244 12.0852 71.2699 11.8864 71.8665 11.7557C72.4688 11.6193 73.0739 11.5114 73.6818 11.4318C74.4773 11.3295 75.1222 11.2528 75.6165 11.2017C76.1165 11.1449 76.4801 11.0511 76.7074 10.9205C76.9403 10.7898 77.0568 10.5625 77.0568 10.2386V10.1705C77.0568 9.32955 76.8267 8.67614 76.3665 8.21023C75.9119 7.74432 75.2216 7.51136 74.2955 7.51136C73.3352 7.51136 72.5824 7.72159 72.0369 8.14205C71.4915 8.5625 71.108 9.01136 70.8864 9.48864L68.9773 8.80682C69.3182 8.01136 69.7727 7.39205 70.3409 6.94886C70.9148 6.5 71.5398 6.1875 72.2159 6.01136C72.8977 5.82955 73.5682 5.73864 74.2273 5.73864C74.6477 5.73864 75.1307 5.78977 75.6761 5.89204C76.2273 5.98864 76.7585 6.19034 77.2699 6.49716C77.7869 6.80398 78.2159 7.26705 78.5568 7.88636C78.8977 8.50568 79.0682 9.33523 79.0682 10.375V19H77.0568V17.2273H76.9545C76.8182 17.5114 76.5909 17.8153 76.2727 18.1392C75.9545 18.4631 75.5313 18.7386 75.0028 18.9659C74.4744 19.1932 73.8295 19.3068 73.0682 19.3068ZM73.375 17.5C74.1705 17.5 74.8409 17.3438 75.3864 17.0312C75.9375 16.7188 76.3523 16.3153 76.6307 15.821C76.9148 15.3267 77.0568 14.8068 77.0568 14.2614V12.4205C76.9716 12.5227 76.7841 12.6165 76.4943 12.7017C76.2102 12.7812 75.8807 12.8523 75.5057 12.9148C75.1364 12.9716 74.7756 13.0227 74.4233 13.0682C74.0767 13.108 73.7955 13.142 73.5795 13.1705C73.0568 13.2386 72.5682 13.3494 72.1136 13.5028C71.6648 13.6506 71.3011 13.875 71.0227 14.1761C70.75 14.4716 70.6136 14.875 70.6136 15.3864C70.6136 16.0852 70.8722 16.6136 71.3892 16.9716C71.9119 17.3239 72.5739 17.5 73.375 17.5ZM98.6342 6.56534C98.5661 5.87784 98.2734 5.34375 97.7564 4.96307C97.2393 4.58239 96.5376 4.39204 95.6513 4.39204C95.049 4.39204 94.5405 4.47727 94.1257 4.64773C93.7109 4.8125 93.3928 5.04261 93.1712 5.33807C92.9553 5.63352 92.8473 5.96875 92.8473 6.34375C92.8359 6.65625 92.9013 6.92898 93.0433 7.16193C93.1911 7.39489 93.3928 7.59659 93.6484 7.76705C93.9041 7.93182 94.1996 8.0767 94.5348 8.2017C94.87 8.32102 95.228 8.4233 95.6087 8.50852L97.1768 8.88352C97.9382 9.05398 98.6371 9.28125 99.2734 9.56534C99.9098 9.84943 100.461 10.1989 100.927 10.6136C101.393 11.0284 101.754 11.517 102.009 12.0795C102.271 12.642 102.404 13.2869 102.41 14.0142C102.404 15.0824 102.131 16.0085 101.592 16.7926C101.058 17.571 100.285 18.1761 99.2734 18.608C98.2678 19.0341 97.0547 19.2472 95.6342 19.2472C94.2251 19.2472 92.9979 19.0312 91.9524 18.5994C90.9126 18.1676 90.1001 17.5284 89.5149 16.6818C88.9354 15.8295 88.6314 14.7756 88.603 13.5199H92.174C92.2138 14.1051 92.3814 14.5937 92.6768 14.9858C92.978 15.3722 93.3786 15.6648 93.8786 15.8636C94.3842 16.0568 94.9553 16.1534 95.5916 16.1534C96.2166 16.1534 96.7592 16.0625 97.2195 15.8807C97.6854 15.6989 98.0462 15.446 98.3018 15.1222C98.5575 14.7983 98.6854 14.4261 98.6854 14.0057C98.6854 13.6136 98.5689 13.2841 98.3359 13.017C98.1087 12.75 97.7734 12.5227 97.3303 12.3352C96.8928 12.1477 96.3558 11.9773 95.7195 11.8239L93.8189 11.3466C92.3473 10.9886 91.1854 10.429 90.3331 9.66761C89.4808 8.90625 89.0575 7.88068 89.0632 6.59091C89.0575 5.53409 89.3388 4.6108 89.907 3.82102C90.4808 3.03125 91.2678 2.41477 92.2678 1.97159C93.2678 1.52841 94.4041 1.30682 95.6768 1.30682C96.9723 1.30682 98.103 1.52841 99.0689 1.97159C100.04 2.41477 100.796 3.03125 101.336 3.82102C101.876 4.6108 102.154 5.52557 102.171 6.56534H98.6342ZM104.824 23.9091V5.90909H108.403V8.10795H108.565C108.724 7.75568 108.955 7.39773 109.256 7.03409C109.563 6.66477 109.96 6.35795 110.449 6.11364C110.943 5.86364 111.557 5.73864 112.29 5.73864C113.244 5.73864 114.125 5.98864 114.932 6.48864C115.739 6.98295 116.384 7.73011 116.866 8.73011C117.349 9.72443 117.591 10.9716 117.591 12.4716C117.591 13.9318 117.355 15.1648 116.884 16.1705C116.418 17.1705 115.781 17.929 114.974 18.446C114.173 18.9574 113.276 19.2131 112.281 19.2131C111.577 19.2131 110.977 19.0966 110.483 18.8636C109.994 18.6307 109.594 18.3381 109.281 17.9858C108.969 17.6278 108.73 17.267 108.565 16.9034H108.455V23.9091H104.824ZM108.378 12.4545C108.378 13.233 108.486 13.9119 108.702 14.4915C108.918 15.071 109.23 15.5227 109.639 15.8466C110.048 16.1648 110.545 16.3239 111.131 16.3239C111.722 16.3239 112.222 16.1619 112.631 15.8381C113.04 15.5085 113.349 15.054 113.56 14.4744C113.776 13.8892 113.884 13.2159 113.884 12.4545C113.884 11.6989 113.778 11.0341 113.568 10.4602C113.358 9.88636 113.048 9.4375 112.639 9.11364C112.23 8.78977 111.727 8.62784 111.131 8.62784C110.54 8.62784 110.04 8.78409 109.631 9.09659C109.227 9.40909 108.918 9.85227 108.702 10.4261C108.486 11 108.378 11.6761 108.378 12.4545ZM125.977 19.2557C124.631 19.2557 123.472 18.983 122.5 18.4375C121.534 17.8864 120.79 17.108 120.267 16.1023C119.744 15.0909 119.483 13.8949 119.483 12.5142C119.483 11.1676 119.744 9.9858 120.267 8.96875C120.79 7.9517 121.526 7.15909 122.474 6.59091C123.429 6.02273 124.548 5.73864 125.832 5.73864C126.696 5.73864 127.5 5.87784 128.244 6.15625C128.994 6.42898 129.648 6.84091 130.205 7.39205C130.767 7.94318 131.205 8.63636 131.517 9.47159C131.83 10.3011 131.986 11.2727 131.986 12.3864V13.3835H120.932V11.1335H128.568C128.568 10.6108 128.455 10.1477 128.227 9.74432C128 9.34091 127.685 9.02557 127.281 8.7983C126.884 8.56534 126.42 8.44886 125.892 8.44886C125.341 8.44886 124.852 8.5767 124.426 8.83239C124.006 9.08239 123.676 9.42045 123.438 9.84659C123.199 10.267 123.077 10.7358 123.071 11.2528V13.392C123.071 14.0398 123.19 14.5994 123.429 15.071C123.673 15.5426 124.017 15.9062 124.46 16.1619C124.903 16.4176 125.429 16.5455 126.037 16.5455C126.44 16.5455 126.81 16.4886 127.145 16.375C127.48 16.2614 127.767 16.0909 128.006 15.8636C128.244 15.6364 128.426 15.358 128.551 15.0284L131.909 15.25C131.739 16.0568 131.389 16.7614 130.861 17.3636C130.338 17.9602 129.662 18.4261 128.832 18.7614C128.009 19.0909 127.057 19.2557 125.977 19.2557ZM134.355 19V5.90909H137.875V8.19318H138.011C138.25 7.38068 138.651 6.76705 139.213 6.35227C139.776 5.93182 140.423 5.72159 141.156 5.72159C141.338 5.72159 141.534 5.73295 141.744 5.75568C141.955 5.77841 142.139 5.80966 142.298 5.84943V9.07102C142.128 9.01989 141.892 8.97443 141.591 8.93466C141.29 8.89489 141.014 8.875 140.764 8.875C140.23 8.875 139.753 8.99148 139.332 9.22443C138.918 9.4517 138.588 9.76989 138.344 10.179C138.105 10.5881 137.986 11.0597 137.986 11.5938V19H134.355ZM147.533 19.2472C146.698 19.2472 145.954 19.1023 145.3 18.8125C144.647 18.517 144.13 18.0824 143.749 17.5085C143.374 16.929 143.187 16.2074 143.187 15.3438C143.187 14.6165 143.32 14.0057 143.587 13.5114C143.854 13.017 144.218 12.6193 144.678 12.3182C145.138 12.017 145.661 11.7898 146.246 11.6364C146.837 11.483 147.457 11.375 148.104 11.3125C148.866 11.233 149.479 11.1591 149.945 11.0909C150.411 11.017 150.749 10.9091 150.96 10.767C151.17 10.625 151.275 10.4148 151.275 10.1364V10.0852C151.275 9.54545 151.104 9.12784 150.763 8.83239C150.428 8.53693 149.951 8.3892 149.332 8.3892C148.678 8.3892 148.158 8.53409 147.772 8.82386C147.386 9.10795 147.13 9.46591 147.005 9.89773L143.647 9.625C143.817 8.82955 144.153 8.14205 144.653 7.5625C145.153 6.97727 145.798 6.52841 146.587 6.21591C147.383 5.89773 148.303 5.73864 149.349 5.73864C150.076 5.73864 150.772 5.82386 151.437 5.99432C152.107 6.16477 152.701 6.42898 153.218 6.78693C153.741 7.14489 154.153 7.60511 154.454 8.16761C154.755 8.72443 154.906 9.39205 154.906 10.1705V19H151.462V17.1847H151.36C151.15 17.5938 150.869 17.9545 150.516 18.267C150.164 18.5739 149.741 18.8153 149.246 18.9915C148.752 19.1619 148.181 19.2472 147.533 19.2472ZM148.573 16.7415C149.107 16.7415 149.579 16.6364 149.988 16.4261C150.397 16.2102 150.718 15.9205 150.951 15.5568C151.184 15.1932 151.3 14.7812 151.3 14.321V12.9318C151.187 13.0057 151.031 13.0739 150.832 13.1364C150.638 13.1932 150.42 13.2472 150.175 13.2983C149.931 13.3437 149.687 13.3864 149.442 13.4261C149.198 13.4602 148.977 13.4915 148.778 13.5199C148.352 13.5824 147.979 13.6818 147.661 13.8182C147.343 13.9545 147.096 14.1392 146.92 14.3722C146.744 14.5994 146.656 14.8835 146.656 15.2244C146.656 15.7188 146.835 16.0966 147.192 16.358C147.556 16.6136 148.016 16.7415 148.573 16.7415ZM161.353 11.4318V19H157.722V5.90909H161.183V8.21875H161.336C161.626 7.45739 162.112 6.85511 162.793 6.41193C163.475 5.96307 164.302 5.73864 165.273 5.73864C166.183 5.73864 166.975 5.9375 167.651 6.33523C168.327 6.73295 168.853 7.30114 169.228 8.03977C169.603 8.77273 169.79 9.64773 169.79 10.6648V19H166.16V11.3125C166.165 10.5114 165.961 9.88636 165.546 9.4375C165.131 8.98295 164.56 8.75568 163.833 8.75568C163.344 8.75568 162.913 8.8608 162.538 9.07102C162.168 9.28125 161.879 9.58807 161.668 9.99148C161.464 10.3892 161.359 10.8693 161.353 11.4318ZM177.476 19.2131C176.482 19.2131 175.581 18.9574 174.774 18.446C173.973 17.929 173.337 17.1705 172.865 16.1705C172.399 15.1648 172.166 13.9318 172.166 12.4716C172.166 10.9716 172.408 9.72443 172.891 8.73011C173.374 7.73011 174.016 6.98295 174.817 6.48864C175.624 5.98864 176.507 5.73864 177.467 5.73864C178.2 5.73864 178.811 5.86364 179.3 6.11364C179.794 6.35795 180.192 6.66477 180.493 7.03409C180.8 7.39773 181.033 7.75568 181.192 8.10795H181.303V1.54545H184.925V19H181.345V16.9034H181.192C181.021 17.267 180.78 17.6278 180.467 17.9858C180.161 18.3381 179.76 18.6307 179.266 18.8636C178.777 19.0966 178.18 19.2131 177.476 19.2131ZM178.626 16.3239C179.212 16.3239 179.706 16.1648 180.109 15.8466C180.518 15.5227 180.831 15.071 181.047 14.4915C181.268 13.9119 181.379 13.233 181.379 12.4545C181.379 11.6761 181.271 11 181.055 10.4261C180.839 9.85227 180.527 9.40909 180.118 9.09659C179.709 8.78409 179.212 8.62784 178.626 8.62784C178.03 8.62784 177.527 8.78977 177.118 9.11364C176.709 9.4375 176.399 9.88636 176.189 10.4602C175.979 11.0341 175.874 11.6989 175.874 12.4545C175.874 13.2159 175.979 13.8892 176.189 14.4744C176.405 15.054 176.714 15.5085 177.118 15.8381C177.527 16.1619 178.03 16.3239 178.626 16.3239ZM187.91 19V5.90909H191.54V19H187.91ZM189.734 4.22159C189.194 4.22159 188.731 4.04261 188.344 3.68466C187.964 3.32102 187.773 2.88636 187.773 2.38068C187.773 1.88068 187.964 1.4517 188.344 1.09375C188.731 0.730113 189.194 0.548295 189.734 0.548295C190.273 0.548295 190.734 0.730113 191.114 1.09375C191.501 1.4517 191.694 1.88068 191.694 2.38068C191.694 2.88636 191.501 3.32102 191.114 3.68466C190.734 4.04261 190.273 4.22159 189.734 4.22159ZM200.364 19.2557C199.04 19.2557 197.895 18.9744 196.929 18.4119C195.969 17.8437 195.227 17.054 194.705 16.0426C194.182 15.0256 193.92 13.8466 193.92 12.5057C193.92 11.1534 194.182 9.97159 194.705 8.96023C195.227 7.94318 195.969 7.15341 196.929 6.59091C197.895 6.02273 199.04 5.73864 200.364 5.73864C201.688 5.73864 202.83 6.02273 203.79 6.59091C204.756 7.15341 205.5 7.94318 206.023 8.96023C206.545 9.97159 206.807 11.1534 206.807 12.5057C206.807 13.8466 206.545 15.0256 206.023 16.0426C205.5 17.054 204.756 17.8437 203.79 18.4119C202.83 18.9744 201.688 19.2557 200.364 19.2557ZM200.381 16.4432C200.983 16.4432 201.486 16.2727 201.889 15.9318C202.293 15.5852 202.597 15.1136 202.801 14.517C203.011 13.9205 203.116 13.2415 203.116 12.4801C203.116 11.7188 203.011 11.0398 202.801 10.4432C202.597 9.84659 202.293 9.375 201.889 9.02841C201.486 8.68182 200.983 8.50852 200.381 8.50852C199.773 8.50852 199.261 8.68182 198.847 9.02841C198.438 9.375 198.128 9.84659 197.918 10.4432C197.713 11.0398 197.611 11.7188 197.611 12.4801C197.611 13.2415 197.713 13.9205 197.918 14.517C198.128 15.1136 198.438 15.5852 198.847 15.9318C199.261 16.2727 199.773 16.4432 200.381 16.4432Z" fill="#131218"/>
</svg>
