<svg width="1764" height="200" viewBox="0 0 1764 200" fill="none" xmlns="http://www.w3.org/2000/svg">
<g clip-path="url(#clip0_1338_258)">
<path d="M229.393 165V39H286.633C300.313 39 312.373 41.64 322.813 46.92C333.253 52.08 341.413 59.34 347.293 68.7C353.173 78.06 356.113 89.16 356.113 102C356.113 114.72 353.173 125.82 347.293 135.3C341.413 144.66 333.253 151.98 322.813 157.26C312.373 162.42 300.313 165 286.633 165H229.393ZM258.553 141.06H285.193C293.593 141.06 300.853 139.5 306.973 136.38C313.213 133.14 318.013 128.58 321.373 122.7C324.853 116.82 326.593 109.92 326.593 102C326.593 93.96 324.853 87.06 321.373 81.3C318.013 75.42 313.213 70.92 306.973 67.8C300.853 64.56 293.593 62.94 285.193 62.94H258.553V141.06ZM429.584 166.44C418.544 166.44 408.824 164.28 400.424 159.96C392.144 155.64 385.724 149.76 381.164 142.32C376.604 134.76 374.324 126.18 374.324 116.58C374.324 106.86 376.544 98.28 380.984 90.84C385.544 83.28 391.724 77.4 399.524 73.2C407.324 68.88 416.144 66.72 425.984 66.72C435.464 66.72 443.984 68.76 451.544 72.84C459.224 76.8 465.284 82.56 469.724 90.12C474.164 97.56 476.384 106.5 476.384 116.94C476.384 118.02 476.324 119.28 476.204 120.72C476.084 122.04 475.964 123.3 475.844 124.5H397.184V108.12H461.084L450.284 112.98C450.284 107.94 449.264 103.56 447.224 99.84C445.184 96.12 442.364 93.24 438.764 91.2C435.164 89.04 430.964 87.96 426.164 87.96C421.364 87.96 417.104 89.04 413.384 91.2C409.784 93.24 406.964 96.18 404.924 100.02C402.884 103.74 401.864 108.18 401.864 113.34V117.66C401.864 122.94 403.004 127.62 405.284 131.7C407.684 135.66 410.984 138.72 415.184 140.88C419.504 142.92 424.544 143.94 430.304 143.94C435.464 143.94 439.964 143.16 443.804 141.6C447.764 140.04 451.364 137.7 454.604 134.58L469.544 150.78C465.104 155.82 459.524 159.72 452.804 162.48C446.084 165.12 438.344 166.44 429.584 166.44ZM525.001 165L484.321 68.16H513.301L547.141 151.5H532.741L567.841 68.16H594.841L553.981 165H525.001ZM657.122 166.44C646.082 166.44 636.362 164.28 627.962 159.96C619.682 155.64 613.262 149.76 608.702 142.32C604.142 134.76 601.862 126.18 601.862 116.58C601.862 106.86 604.082 98.28 608.522 90.84C613.082 83.28 619.262 77.4 627.062 73.2C634.862 68.88 643.682 66.72 653.522 66.72C663.002 66.72 671.522 68.76 679.082 72.84C686.762 76.8 692.822 82.56 697.262 90.12C701.702 97.56 703.922 106.5 703.922 116.94C703.922 118.02 703.862 119.28 703.742 120.72C703.622 122.04 703.502 123.3 703.382 124.5H624.722V108.12H688.622L677.822 112.98C677.822 107.94 676.802 103.56 674.762 99.84C672.722 96.12 669.902 93.24 666.302 91.2C662.702 89.04 658.502 87.96 653.702 87.96C648.902 87.96 644.642 89.04 640.922 91.2C637.322 93.24 634.502 96.18 632.462 100.02C630.422 103.74 629.402 108.18 629.402 113.34V117.66C629.402 122.94 630.542 127.62 632.822 131.7C635.222 135.66 638.522 138.72 642.722 140.88C647.042 142.92 652.082 143.94 657.842 143.94C663.002 143.94 667.502 143.16 671.342 141.6C675.302 140.04 678.902 137.7 682.142 134.58L697.082 150.78C692.642 155.82 687.062 159.72 680.342 162.48C673.622 165.12 665.882 166.44 657.122 166.44ZM728.017 165V31.44H756.097V165H728.017ZM833.638 166.44C823.318 166.44 814.138 164.28 806.098 159.96C798.178 155.64 791.878 149.76 787.198 142.32C782.638 134.76 780.358 126.18 780.358 116.58C780.358 106.86 782.638 98.28 787.198 90.84C791.878 83.28 798.178 77.4 806.098 73.2C814.138 68.88 823.318 66.72 833.638 66.72C843.838 66.72 852.958 68.88 860.998 73.2C869.038 77.4 875.338 83.22 879.898 90.66C884.458 98.1 886.738 106.74 886.738 116.58C886.738 126.18 884.458 134.76 879.898 142.32C875.338 149.76 869.038 155.64 860.998 159.96C852.958 164.28 843.838 166.44 833.638 166.44ZM833.638 143.4C838.318 143.4 842.518 142.32 846.238 140.16C849.958 138 852.898 134.94 855.058 130.98C857.218 126.9 858.298 122.1 858.298 116.58C858.298 110.94 857.218 106.14 855.058 102.18C852.898 98.22 849.958 95.16 846.238 93C842.518 90.84 838.318 89.76 833.638 89.76C828.958 89.76 824.758 90.84 821.038 93C817.318 95.16 814.318 98.22 812.038 102.18C809.878 106.14 808.798 110.94 808.798 116.58C808.798 122.1 809.878 126.9 812.038 130.98C814.318 134.94 817.318 138 821.038 140.16C824.758 142.32 828.958 143.4 833.638 143.4ZM968.147 166.44C959.987 166.44 952.847 164.64 946.727 161.04C940.607 157.44 935.807 151.98 932.327 144.66C928.967 137.22 927.287 127.86 927.287 116.58C927.287 105.18 928.907 95.82 932.147 88.5C935.387 81.18 940.067 75.72 946.187 72.12C952.307 68.52 959.627 66.72 968.147 66.72C977.267 66.72 985.427 68.82 992.627 73.02C999.947 77.1 1005.71 82.86 1009.91 90.3C1014.23 97.74 1016.39 106.5 1016.39 116.58C1016.39 126.78 1014.23 135.6 1009.91 143.04C1005.71 150.48 999.947 156.24 992.627 160.32C985.427 164.4 977.267 166.44 968.147 166.44ZM910.907 199.92V68.16H937.727V87.96L937.187 116.76L938.987 145.38V199.92H910.907ZM963.287 143.4C967.967 143.4 972.107 142.32 975.707 140.16C979.427 138 982.367 134.94 984.527 130.98C986.807 126.9 987.947 122.1 987.947 116.58C987.947 110.94 986.807 106.14 984.527 102.18C982.367 98.22 979.427 95.16 975.707 93C972.107 90.84 967.967 89.76 963.287 89.76C958.607 89.76 954.407 90.84 950.687 93C946.967 95.16 944.027 98.22 941.867 102.18C939.707 106.14 938.627 110.94 938.627 116.58C938.627 122.1 939.707 126.9 941.867 130.98C944.027 134.94 946.967 138 950.687 140.16C954.407 142.32 958.607 143.4 963.287 143.4ZM1164.6 66.72C1172.28 66.72 1179.06 68.28 1184.94 71.4C1190.94 74.4 1195.62 79.08 1198.98 85.44C1202.46 91.68 1204.2 99.72 1204.2 109.56V165H1176.12V113.88C1176.12 106.08 1174.5 100.32 1171.26 96.6C1168.02 92.88 1163.46 91.02 1157.58 91.02C1153.5 91.02 1149.84 91.98 1146.6 93.9C1143.36 95.7 1140.84 98.46 1139.04 102.18C1137.24 105.9 1136.34 110.64 1136.34 116.4V165H1108.26V113.88C1108.26 106.08 1106.64 100.32 1103.4 96.6C1100.28 92.88 1095.78 91.02 1089.9 91.02C1085.82 91.02 1082.16 91.98 1078.92 93.9C1075.68 95.7 1073.16 98.46 1071.36 102.18C1069.56 105.9 1068.66 110.64 1068.66 116.4V165H1040.58V68.16H1067.4V94.62L1062.36 86.88C1065.72 80.28 1070.46 75.3 1076.58 71.94C1082.82 68.46 1089.9 66.72 1097.82 66.72C1106.7 66.72 1114.44 69 1121.04 73.56C1127.76 78 1132.2 84.84 1134.36 94.08L1124.46 91.38C1127.7 83.82 1132.86 77.82 1139.94 73.38C1147.14 68.94 1155.36 66.72 1164.6 66.72ZM1283.54 166.44C1272.5 166.44 1262.78 164.28 1254.38 159.96C1246.1 155.64 1239.68 149.76 1235.12 142.32C1230.56 134.76 1228.28 126.18 1228.28 116.58C1228.28 106.86 1230.5 98.28 1234.94 90.84C1239.5 83.28 1245.68 77.4 1253.48 73.2C1261.28 68.88 1270.1 66.72 1279.94 66.72C1289.42 66.72 1297.94 68.76 1305.5 72.84C1313.18 76.8 1319.24 82.56 1323.68 90.12C1328.12 97.56 1330.34 106.5 1330.34 116.94C1330.34 118.02 1330.28 119.28 1330.16 120.72C1330.04 122.04 1329.92 123.3 1329.8 124.5H1251.14V108.12H1315.04L1304.24 112.98C1304.24 107.94 1303.22 103.56 1301.18 99.84C1299.14 96.12 1296.32 93.24 1292.72 91.2C1289.12 89.04 1284.92 87.96 1280.12 87.96C1275.32 87.96 1271.06 89.04 1267.34 91.2C1263.74 93.24 1260.92 96.18 1258.88 100.02C1256.84 103.74 1255.82 108.18 1255.82 113.34V117.66C1255.82 122.94 1256.96 127.62 1259.24 131.7C1261.64 135.66 1264.94 138.72 1269.14 140.88C1273.46 142.92 1278.5 143.94 1284.26 143.94C1289.42 143.94 1293.92 143.16 1297.76 141.6C1301.72 140.04 1305.32 137.7 1308.56 134.58L1323.5 150.78C1319.06 155.82 1313.48 159.72 1306.76 162.48C1300.04 165.12 1292.3 166.44 1283.54 166.44ZM1413.29 66.72C1420.97 66.72 1427.81 68.28 1433.81 71.4C1439.93 74.4 1444.73 79.08 1448.21 85.44C1451.69 91.68 1453.43 99.72 1453.43 109.56V165H1425.35V113.88C1425.35 106.08 1423.61 100.32 1420.13 96.6C1416.77 92.88 1411.97 91.02 1405.73 91.02C1401.29 91.02 1397.27 91.98 1393.67 93.9C1390.19 95.7 1387.43 98.52 1385.39 102.36C1383.47 106.2 1382.51 111.12 1382.51 117.12V165H1354.43V68.16H1381.25V94.98L1376.21 86.88C1379.69 80.4 1384.67 75.42 1391.15 71.94C1397.63 68.46 1405.01 66.72 1413.29 66.72ZM1523.88 166.44C1512.48 166.44 1503.6 163.56 1497.24 157.8C1490.88 151.92 1487.7 143.22 1487.7 131.7V46.74H1515.78V131.34C1515.78 135.42 1516.86 138.6 1519.02 140.88C1521.18 143.04 1524.12 144.12 1527.84 144.12C1532.28 144.12 1536.06 142.92 1539.18 140.52L1546.74 160.32C1543.86 162.36 1540.38 163.92 1536.3 165C1532.34 165.96 1528.2 166.44 1523.88 166.44ZM1472.76 91.92V70.32H1539.9V91.92H1472.76Z" fill="#282828" fill-opacity="0.02"/>
<path d="M678.967 120V80.8H696.775C701.031 80.8 704.783 81.6213 708.031 83.264C711.279 84.8693 713.817 87.128 715.647 90.04C717.476 92.952 718.391 96.4053 718.391 100.4C718.391 104.357 717.476 107.811 715.647 110.76C713.817 113.672 711.279 115.949 708.031 117.592C704.783 119.197 701.031 120 696.775 120H678.967ZM688.039 112.552H696.327C698.94 112.552 701.199 112.067 703.103 111.096C705.044 110.088 706.537 108.669 707.583 106.84C708.665 105.011 709.207 102.864 709.207 100.4C709.207 97.8987 708.665 95.752 707.583 93.96C706.537 92.1307 705.044 90.7307 703.103 89.76C701.199 88.752 698.94 88.248 696.327 88.248H688.039V112.552ZM741.248 120.448C737.814 120.448 734.79 119.776 732.176 118.432C729.6 117.088 727.603 115.259 726.184 112.944C724.766 110.592 724.056 107.923 724.056 104.936C724.056 101.912 724.747 99.2427 726.128 96.928C727.547 94.576 729.47 92.7467 731.896 91.44C734.323 90.096 737.067 89.424 740.128 89.424C743.078 89.424 745.728 90.0587 748.08 91.328C750.47 92.56 752.355 94.352 753.736 96.704C755.118 99.0187 755.808 101.8 755.808 105.048C755.808 105.384 755.79 105.776 755.752 106.224C755.715 106.635 755.678 107.027 755.64 107.4H731.168V102.304H751.048L747.688 103.816C747.688 102.248 747.371 100.885 746.736 99.728C746.102 98.5707 745.224 97.6747 744.104 97.04C742.984 96.368 741.678 96.032 740.184 96.032C738.691 96.032 737.366 96.368 736.208 97.04C735.088 97.6747 734.211 98.5893 733.576 99.784C732.942 100.941 732.624 102.323 732.624 103.928V105.272C732.624 106.915 732.979 108.371 733.688 109.64C734.435 110.872 735.462 111.824 736.768 112.496C738.112 113.131 739.68 113.448 741.472 113.448C743.078 113.448 744.478 113.205 745.672 112.72C746.904 112.235 748.024 111.507 749.032 110.536L753.68 115.576C752.299 117.144 750.563 118.357 748.472 119.216C746.382 120.037 743.974 120.448 741.248 120.448ZM770.934 120L758.278 89.872H767.294L777.822 115.8H773.342L784.262 89.872H792.662L779.95 120H770.934ZM812.038 120.448C808.603 120.448 805.579 119.776 802.966 118.432C800.39 117.088 798.393 115.259 796.974 112.944C795.555 110.592 794.846 107.923 794.846 104.936C794.846 101.912 795.537 99.2427 796.918 96.928C798.337 94.576 800.259 92.7467 802.686 91.44C805.113 90.096 807.857 89.424 810.918 89.424C813.867 89.424 816.518 90.0587 818.87 91.328C821.259 92.56 823.145 94.352 824.526 96.704C825.907 99.0187 826.598 101.8 826.598 105.048C826.598 105.384 826.579 105.776 826.542 106.224C826.505 106.635 826.467 107.027 826.43 107.4H801.958V102.304H821.838L818.478 103.816C818.478 102.248 818.161 100.885 817.526 99.728C816.891 98.5707 816.014 97.6747 814.894 97.04C813.774 96.368 812.467 96.032 810.974 96.032C809.481 96.032 808.155 96.368 806.998 97.04C805.878 97.6747 805.001 98.5893 804.366 99.784C803.731 100.941 803.414 102.323 803.414 103.928V105.272C803.414 106.915 803.769 108.371 804.478 109.64C805.225 110.872 806.251 111.824 807.558 112.496C808.902 113.131 810.47 113.448 812.262 113.448C813.867 113.448 815.267 113.205 816.462 112.72C817.694 112.235 818.814 111.507 819.822 110.536L824.47 115.576C823.089 117.144 821.353 118.357 819.262 119.216C817.171 120.037 814.763 120.448 812.038 120.448ZM834.094 120V78.448H842.83V120H834.094ZM866.954 120.448C863.743 120.448 860.887 119.776 858.386 118.432C855.922 117.088 853.962 115.259 852.506 112.944C851.087 110.592 850.378 107.923 850.378 104.936C850.378 101.912 851.087 99.2427 852.506 96.928C853.962 94.576 855.922 92.7467 858.386 91.44C860.887 90.096 863.743 89.424 866.954 89.424C870.127 89.424 872.965 90.096 875.466 91.44C877.967 92.7467 879.927 94.5573 881.346 96.872C882.765 99.1867 883.474 101.875 883.474 104.936C883.474 107.923 882.765 110.592 881.346 112.944C879.927 115.259 877.967 117.088 875.466 118.432C872.965 119.776 870.127 120.448 866.954 120.448ZM866.954 113.28C868.41 113.28 869.717 112.944 870.874 112.272C872.031 111.6 872.946 110.648 873.618 109.416C874.29 108.147 874.626 106.653 874.626 104.936C874.626 103.181 874.29 101.688 873.618 100.456C872.946 99.224 872.031 98.272 870.874 97.6C869.717 96.928 868.41 96.592 866.954 96.592C865.498 96.592 864.191 96.928 863.034 97.6C861.877 98.272 860.943 99.224 860.234 100.456C859.562 101.688 859.226 103.181 859.226 104.936C859.226 106.653 859.562 108.147 860.234 109.416C860.943 110.648 861.877 111.6 863.034 112.272C864.191 112.944 865.498 113.28 866.954 113.28ZM908.801 120.448C906.263 120.448 904.041 119.888 902.137 118.768C900.233 117.648 898.74 115.949 897.657 113.672C896.612 111.357 896.089 108.445 896.089 104.936C896.089 101.389 896.593 98.4773 897.601 96.2C898.609 93.9227 900.065 92.224 901.969 91.104C903.873 89.984 906.151 89.424 908.801 89.424C911.639 89.424 914.177 90.0773 916.417 91.384C918.695 92.6533 920.487 94.4453 921.793 96.76C923.137 99.0747 923.809 101.8 923.809 104.936C923.809 108.109 923.137 110.853 921.793 113.168C920.487 115.483 918.695 117.275 916.417 118.544C914.177 119.813 911.639 120.448 908.801 120.448ZM890.993 130.864V89.872H899.337V96.032L899.169 104.992L899.729 113.896V130.864H890.993ZM907.289 113.28C908.745 113.28 910.033 112.944 911.153 112.272C912.311 111.6 913.225 110.648 913.897 109.416C914.607 108.147 914.961 106.653 914.961 104.936C914.961 103.181 914.607 101.688 913.897 100.456C913.225 99.224 912.311 98.272 911.153 97.6C910.033 96.928 908.745 96.592 907.289 96.592C905.833 96.592 904.527 96.928 903.369 97.6C902.212 98.272 901.297 99.224 900.625 100.456C899.953 101.688 899.617 103.181 899.617 104.936C899.617 106.653 899.953 108.147 900.625 109.416C901.297 110.648 902.212 111.6 903.369 112.272C904.527 112.944 905.833 113.28 907.289 113.28ZM969.921 89.424C972.311 89.424 974.42 89.9093 976.249 90.88C978.116 91.8133 979.572 93.2693 980.617 95.248C981.7 97.1893 982.241 99.6907 982.241 102.752V120H973.505V104.096C973.505 101.669 973.001 99.8773 971.993 98.72C970.985 97.5627 969.567 96.984 967.737 96.984C966.468 96.984 965.329 97.2827 964.321 97.88C963.313 98.44 962.529 99.2987 961.969 100.456C961.409 101.613 961.129 103.088 961.129 104.88V120H952.393V104.096C952.393 101.669 951.889 99.8773 950.881 98.72C949.911 97.5627 948.511 96.984 946.681 96.984C945.412 96.984 944.273 97.2827 943.265 97.88C942.257 98.44 941.473 99.2987 940.913 100.456C940.353 101.613 940.073 103.088 940.073 104.88V120H931.337V89.872H939.681V98.104L938.113 95.696C939.159 93.6427 940.633 92.0933 942.537 91.048C944.479 89.9653 946.681 89.424 949.145 89.424C951.908 89.424 954.316 90.1333 956.369 91.552C958.46 92.9333 959.841 95.0613 960.513 97.936L957.433 97.096C958.441 94.744 960.047 92.8773 962.249 91.496C964.489 90.1147 967.047 89.424 969.921 89.424ZM1006.92 120.448C1003.49 120.448 1000.46 119.776 997.85 118.432C995.274 117.088 993.277 115.259 991.858 112.944C990.44 110.592 989.73 107.923 989.73 104.936C989.73 101.912 990.421 99.2427 991.802 96.928C993.221 94.576 995.144 92.7467 997.57 91.44C999.997 90.096 1002.74 89.424 1005.8 89.424C1008.75 89.424 1011.4 90.0587 1013.75 91.328C1016.14 92.56 1018.03 94.352 1019.41 96.704C1020.79 99.0187 1021.48 101.8 1021.48 105.048C1021.48 105.384 1021.46 105.776 1021.43 106.224C1021.39 106.635 1021.35 107.027 1021.31 107.4H996.842V102.304H1016.72L1013.36 103.816C1013.36 102.248 1013.05 100.885 1012.41 99.728C1011.78 98.5707 1010.9 97.6747 1009.78 97.04C1008.66 96.368 1007.35 96.032 1005.86 96.032C1004.37 96.032 1003.04 96.368 1001.88 97.04C1000.76 97.6747 999.885 98.5893 999.25 99.784C998.616 100.941 998.298 102.323 998.298 103.928V105.272C998.298 106.915 998.653 108.371 999.362 109.64C1000.11 110.872 1001.14 111.824 1002.44 112.496C1003.79 113.131 1005.35 113.448 1007.15 113.448C1008.75 113.448 1010.15 113.205 1011.35 112.72C1012.58 112.235 1013.7 111.507 1014.71 110.536L1019.35 115.576C1017.97 117.144 1016.24 118.357 1014.15 119.216C1012.06 120.037 1009.65 120.448 1006.92 120.448ZM1047.29 89.424C1049.68 89.424 1051.81 89.9093 1053.67 90.88C1055.58 91.8133 1057.07 93.2693 1058.15 95.248C1059.24 97.1893 1059.78 99.6907 1059.78 102.752V120H1051.04V104.096C1051.04 101.669 1050.5 99.8773 1049.42 98.72C1048.37 97.5627 1046.88 96.984 1044.94 96.984C1043.56 96.984 1042.31 97.2827 1041.19 97.88C1040.1 98.44 1039.25 99.3173 1038.61 100.512C1038.01 101.707 1037.71 103.237 1037.71 105.104V120H1028.98V89.872H1037.32V98.216L1035.75 95.696C1036.84 93.68 1038.39 92.1307 1040.4 91.048C1042.42 89.9653 1044.71 89.424 1047.29 89.424ZM1081.7 120.448C1078.15 120.448 1075.39 119.552 1073.41 117.76C1071.43 115.931 1070.44 113.224 1070.44 109.64V83.208H1079.18V109.528C1079.18 110.797 1079.51 111.787 1080.19 112.496C1080.86 113.168 1081.77 113.504 1082.93 113.504C1084.31 113.504 1085.49 113.131 1086.46 112.384L1088.81 118.544C1087.91 119.179 1086.83 119.664 1085.56 120C1084.33 120.299 1083.04 120.448 1081.7 120.448ZM1065.79 97.264V90.544H1086.68V97.264H1065.79Z" fill="#282828"/>
</g>
<defs>
<clipPath id="clip0_1338_258">
<rect width="1764" height="200" fill="white"/>
</clipPath>
</defs>
</svg>
