<svg width="650" height="900" viewBox="0 0 650 900" fill="none" xmlns="http://www.w3.org/2000/svg">
<path opacity="0.02" d="M-120.04 133V49H-100.6V117.16H-58.48V133H-120.04ZM-18.3325 133.96C-23.6925 133.96 -28.4925 132.92 -32.7325 130.84C-36.8925 128.76 -40.1325 125.6 -42.4525 121.36C-44.7725 117.04 -45.9325 111.56 -45.9325 104.92V68.44H-27.2125V102.16C-27.2125 107.52 -26.0925 111.48 -23.8525 114.04C-21.5325 116.52 -18.2925 117.76 -14.1325 117.76C-11.2525 117.76 -8.6925 117.16 -6.4525 115.96C-4.2125 114.68 -2.4525 112.76 -1.1725 110.2C0.107502 107.56 0.747503 104.28 0.747503 100.36V68.44H19.4675V133H1.7075V115.24L4.9475 120.4C2.7875 124.88 -0.412499 128.28 -4.6525 130.6C-8.8125 132.84 -13.3725 133.96 -18.3325 133.96ZM71.6103 133.96C64.6503 133.96 58.4503 132.56 53.0103 129.76C47.5703 126.88 43.2903 122.92 40.1703 117.88C37.1303 112.84 35.6103 107.12 35.6103 100.72C35.6103 94.24 37.1303 88.52 40.1703 83.56C43.2903 78.52 47.5703 74.6 53.0103 71.8C58.4503 68.92 64.6503 67.48 71.6103 67.48C78.4103 67.48 84.3303 68.92 89.3703 71.8C94.4103 74.6 98.1303 78.64 100.53 83.92L86.0103 91.72C84.3303 88.68 82.2103 86.44 79.6503 85C77.1703 83.56 74.4503 82.84 71.4903 82.84C68.2903 82.84 65.4103 83.56 62.8503 85C60.2903 86.44 58.2503 88.48 56.7303 91.12C55.2903 93.76 54.5703 96.96 54.5703 100.72C54.5703 104.48 55.2903 107.68 56.7303 110.32C58.2503 112.96 60.2903 115 62.8503 116.44C65.4103 117.88 68.2903 118.6 71.4903 118.6C74.4503 118.6 77.1703 117.92 79.6503 116.56C82.2103 115.12 84.3303 112.84 86.0103 109.72L100.53 117.64C98.1303 122.84 94.4103 126.88 89.3703 129.76C84.3303 132.56 78.4103 133.96 71.6103 133.96ZM122.131 157.24C118.771 157.24 115.451 156.72 112.171 155.68C108.891 154.64 106.211 153.2 104.131 151.36L110.971 138.04C112.411 139.32 114.051 140.32 115.891 141.04C117.811 141.76 119.691 142.12 121.531 142.12C124.171 142.12 126.251 141.48 127.771 140.2C129.371 139 130.811 136.96 132.091 134.08L135.451 126.16L136.891 124.12L160.051 68.44H178.051L148.891 136.96C146.811 142.16 144.411 146.24 141.691 149.2C139.051 152.16 136.091 154.24 132.811 155.44C129.611 156.64 126.051 157.24 122.131 157.24ZM133.171 135.52L104.371 68.44H123.691L146.011 122.44L133.171 135.52ZM182.183 151.48L190.103 122.68L192.743 133.48C189.303 133.48 186.463 132.48 184.223 130.48C182.063 128.48 180.983 125.72 180.983 122.2C180.983 118.68 182.103 115.88 184.343 113.8C186.583 111.72 189.343 110.68 192.623 110.68C195.983 110.68 198.743 111.76 200.903 113.92C203.063 116 204.143 118.76 204.143 122.2C204.143 123.24 204.063 124.28 203.903 125.32C203.743 126.28 203.423 127.48 202.943 128.92C202.543 130.28 201.863 132.04 200.903 134.2L194.063 151.48H182.183ZM297.613 133V120.4L296.413 117.64V95.08C296.413 91.08 295.173 87.96 292.693 85.72C290.293 83.48 286.573 82.36 281.533 82.36C278.093 82.36 274.693 82.92 271.333 84.04C268.053 85.08 265.253 86.52 262.933 88.36L256.213 75.28C259.733 72.8 263.973 70.88 268.933 69.52C273.893 68.16 278.933 67.48 284.053 67.48C293.893 67.48 301.533 69.8 306.973 74.44C312.413 79.08 315.133 86.32 315.133 96.16V133H297.613ZM277.933 133.96C272.893 133.96 268.573 133.12 264.973 131.44C261.373 129.68 258.613 127.32 256.693 124.36C254.773 121.4 253.813 118.08 253.813 114.4C253.813 110.56 254.733 107.2 256.573 104.32C258.493 101.44 261.493 99.2 265.573 97.6C269.653 95.92 274.973 95.08 281.533 95.08H298.693V106H283.573C279.173 106 276.133 106.72 274.453 108.16C272.853 109.6 272.053 111.4 272.053 113.56C272.053 115.96 272.973 117.88 274.813 119.32C276.733 120.68 279.333 121.36 282.613 121.36C285.733 121.36 288.533 120.64 291.013 119.2C293.493 117.68 295.293 115.48 296.413 112.6L299.293 121.24C297.933 125.4 295.453 128.56 291.853 130.72C288.253 132.88 283.613 133.96 277.933 133.96ZM374.916 67.48C380.036 67.48 384.596 68.52 388.596 70.6C392.676 72.6 395.876 75.72 398.196 79.96C400.516 84.12 401.676 89.48 401.676 96.04V133H382.956V98.92C382.956 93.72 381.796 89.88 379.476 87.4C377.236 84.92 374.036 83.68 369.876 83.68C366.916 83.68 364.236 84.32 361.836 85.6C359.516 86.8 357.676 88.68 356.316 91.24C355.036 93.8 354.396 97.08 354.396 101.08V133H335.676V68.44H353.556V86.32L350.196 80.92C352.516 76.6 355.836 73.28 360.156 70.96C364.476 68.64 369.396 67.48 374.916 67.48ZM-81.76 313V300.4L-82.96 297.64V275.08C-82.96 271.08 -84.2 267.96 -86.68 265.72C-89.08 263.48 -92.8 262.36 -97.84 262.36C-101.28 262.36 -104.68 262.92 -108.04 264.04C-111.32 265.08 -114.12 266.52 -116.44 268.36L-123.16 255.28C-119.64 252.8 -115.4 250.88 -110.44 249.52C-105.48 248.16 -100.44 247.48 -95.32 247.48C-85.48 247.48 -77.84 249.8 -72.4 254.44C-66.96 259.08 -64.24 266.32 -64.24 276.16V313H-81.76ZM-101.44 313.96C-106.48 313.96 -110.8 313.12 -114.4 311.44C-118 309.68 -120.76 307.32 -122.68 304.36C-124.6 301.4 -125.56 298.08 -125.56 294.4C-125.56 290.56 -124.64 287.2 -122.8 284.32C-120.88 281.44 -117.88 279.2 -113.8 277.6C-109.72 275.92 -104.4 275.08 -97.84 275.08H-80.68V286H-95.8C-100.2 286 -103.24 286.72 -104.92 288.16C-106.52 289.6 -107.32 291.4 -107.32 293.56C-107.32 295.96 -106.4 297.88 -104.56 299.32C-102.64 300.68 -100.04 301.36 -96.76 301.36C-93.64 301.36 -90.84 300.64 -88.36 299.2C-85.88 297.68 -84.08 295.48 -82.96 292.6L-80.08 301.24C-81.44 305.4 -83.92 308.56 -87.52 310.72C-91.12 312.88 -95.76 313.96 -101.44 313.96ZM-5.5375 313.96C-10.9775 313.96 -15.7375 312.76 -19.8175 310.36C-23.8975 307.96 -27.0975 304.32 -29.4175 299.44C-31.6575 294.48 -32.7775 288.24 -32.7775 280.72C-32.7775 273.12 -31.6975 266.88 -29.5375 262C-27.3775 257.12 -24.2575 253.48 -20.1775 251.08C-16.0975 248.68 -11.2175 247.48 -5.5375 247.48C0.542501 247.48 5.9825 248.88 10.7825 251.68C15.6625 254.4 19.5025 258.24 22.3025 263.2C25.1825 268.16 26.6225 274 26.6225 280.72C26.6225 287.52 25.1825 293.4 22.3025 298.36C19.5025 303.32 15.6625 307.16 10.7825 309.88C5.9825 312.6 0.542501 313.96 -5.5375 313.96ZM-43.6975 336.28V248.44H-25.8175V261.64L-26.1775 280.84L-24.9775 299.92V336.28H-43.6975ZM-8.7775 298.6C-5.6575 298.6 -2.8975 297.88 -0.4975 296.44C1.9825 295 3.9425 292.96 5.3825 290.32C6.9025 287.6 7.6625 284.4 7.6625 280.72C7.6625 276.96 6.9025 273.76 5.3825 271.12C3.9425 268.48 1.9825 266.44 -0.4975 265C-2.8975 263.56 -5.6575 262.84 -8.7775 262.84C-11.8975 262.84 -14.6975 263.56 -17.1775 265C-19.6575 266.44 -21.6175 268.48 -23.0575 271.12C-24.4975 273.76 -25.2175 276.96 -25.2175 280.72C-25.2175 284.4 -24.4975 287.6 -23.0575 290.32C-21.6175 292.96 -19.6575 295 -17.1775 296.44C-14.6975 297.88 -11.8975 298.6 -8.7775 298.6ZM80.9141 313.96C75.4741 313.96 70.7141 312.76 66.6341 310.36C62.5541 307.96 59.3541 304.32 57.0341 299.44C54.7941 294.48 53.6741 288.24 53.6741 280.72C53.6741 273.12 54.7541 266.88 56.9141 262C59.0741 257.12 62.1941 253.48 66.2741 251.08C70.3541 248.68 75.2341 247.48 80.9141 247.48C86.9941 247.48 92.4341 248.88 97.2341 251.68C102.114 254.4 105.954 258.24 108.754 263.2C111.634 268.16 113.074 274 113.074 280.72C113.074 287.52 111.634 293.4 108.754 298.36C105.954 303.32 102.114 307.16 97.2341 309.88C92.4341 312.6 86.9941 313.96 80.9141 313.96ZM42.7541 336.28V248.44H60.6341V261.64L60.2741 280.84L61.4741 299.92V336.28H42.7541ZM77.6741 298.6C80.7941 298.6 83.5541 297.88 85.9541 296.44C88.4341 295 90.3941 292.96 91.8341 290.32C93.3541 287.6 94.1141 284.4 94.1141 280.72C94.1141 276.96 93.3541 273.76 91.8341 271.12C90.3941 268.48 88.4341 266.44 85.9541 265C83.5541 263.56 80.7941 262.84 77.6741 262.84C74.5541 262.84 71.7541 263.56 69.2741 265C66.7941 266.44 64.8341 268.48 63.3941 271.12C61.9541 273.76 61.2341 276.96 61.2341 280.72C61.2341 284.4 61.9541 287.6 63.3941 290.32C64.8341 292.96 66.7941 295 69.2741 296.44C71.7541 297.88 74.5541 298.6 77.6741 298.6ZM129.206 313V223.96H147.926V313H129.206ZM168.899 313V248.44H187.619V313H168.899ZM178.259 239.44C174.819 239.44 172.019 238.44 169.859 236.44C167.699 234.44 166.619 231.96 166.619 229C166.619 226.04 167.699 223.56 169.859 221.56C172.019 219.56 174.819 218.56 178.259 218.56C181.699 218.56 184.499 219.52 186.659 221.44C188.819 223.28 189.899 225.68 189.899 228.64C189.899 231.76 188.819 234.36 186.659 236.44C184.579 238.44 181.779 239.44 178.259 239.44ZM239.793 313.96C232.833 313.96 226.633 312.56 221.193 309.76C215.753 306.88 211.473 302.92 208.353 297.88C205.313 292.84 203.793 287.12 203.793 280.72C203.793 274.24 205.313 268.52 208.353 263.56C211.473 258.52 215.753 254.6 221.193 251.8C226.633 248.92 232.833 247.48 239.793 247.48C246.593 247.48 252.513 248.92 257.553 251.8C262.593 254.6 266.313 258.64 268.713 263.92L254.193 271.72C252.513 268.68 250.393 266.44 247.833 265C245.353 263.56 242.633 262.84 239.673 262.84C236.473 262.84 233.593 263.56 231.033 265C228.473 266.44 226.433 268.48 224.913 271.12C223.473 273.76 222.753 276.96 222.753 280.72C222.753 284.48 223.473 287.68 224.913 290.32C226.433 292.96 228.473 295 231.033 296.44C233.593 297.88 236.473 298.6 239.673 298.6C242.633 298.6 245.353 297.92 247.833 296.56C250.393 295.12 252.513 292.84 254.193 289.72L268.713 297.64C266.313 302.84 262.593 306.88 257.553 309.76C252.513 312.56 246.593 313.96 239.793 313.96ZM322.692 313V300.4L321.492 297.64V275.08C321.492 271.08 320.252 267.96 317.772 265.72C315.372 263.48 311.652 262.36 306.612 262.36C303.172 262.36 299.772 262.92 296.412 264.04C293.132 265.08 290.332 266.52 288.012 268.36L281.292 255.28C284.812 252.8 289.052 250.88 294.012 249.52C298.972 248.16 304.012 247.48 309.132 247.48C318.972 247.48 326.612 249.8 332.052 254.44C337.492 259.08 340.212 266.32 340.212 276.16V313H322.692ZM303.012 313.96C297.972 313.96 293.652 313.12 290.052 311.44C286.452 309.68 283.692 307.32 281.772 304.36C279.852 301.4 278.892 298.08 278.892 294.4C278.892 290.56 279.812 287.2 281.652 284.32C283.572 281.44 286.572 279.2 290.652 277.6C294.732 275.92 300.052 275.08 306.612 275.08H323.772V286H308.652C304.252 286 301.212 286.72 299.532 288.16C297.932 289.6 297.132 291.4 297.132 293.56C297.132 295.96 298.052 297.88 299.892 299.32C301.812 300.68 304.412 301.36 307.692 301.36C310.812 301.36 313.612 300.64 316.092 299.2C318.572 297.68 320.372 295.48 321.492 292.6L324.372 301.24C323.012 305.4 320.532 308.56 316.932 310.72C313.332 312.88 308.692 313.96 303.012 313.96ZM387.154 313.96C379.554 313.96 373.634 312.04 369.394 308.2C365.154 304.28 363.034 298.48 363.034 290.8V234.16H381.754V290.56C381.754 293.28 382.474 295.4 383.914 296.92C385.354 298.36 387.314 299.08 389.794 299.08C392.754 299.08 395.274 298.28 397.354 296.68L402.394 309.88C400.474 311.24 398.154 312.28 395.434 313C392.794 313.64 390.034 313.96 387.154 313.96ZM353.074 264.28V249.88H397.834V264.28H353.074ZM416.502 313V248.44H435.222V313H416.502ZM425.862 239.44C422.422 239.44 419.622 238.44 417.462 236.44C415.302 234.44 414.222 231.96 414.222 229C414.222 226.04 415.302 223.56 417.462 221.56C419.622 219.56 422.422 218.56 425.862 218.56C429.302 218.56 432.102 219.52 434.262 221.44C436.422 223.28 437.502 225.68 437.502 228.64C437.502 231.76 436.422 234.36 434.262 236.44C432.182 238.44 429.382 239.44 425.862 239.44ZM486.916 313.96C480.036 313.96 473.916 312.52 468.556 309.64C463.276 306.76 459.076 302.84 455.956 297.88C452.916 292.84 451.396 287.12 451.396 280.72C451.396 274.24 452.916 268.52 455.956 263.56C459.076 258.52 463.276 254.6 468.556 251.8C473.916 248.92 480.036 247.48 486.916 247.48C493.716 247.48 499.796 248.92 505.156 251.8C510.516 254.6 514.716 258.48 517.756 263.44C520.796 268.4 522.316 274.16 522.316 280.72C522.316 287.12 520.796 292.84 517.756 297.88C514.716 302.84 510.516 306.76 505.156 309.64C499.796 312.52 493.716 313.96 486.916 313.96ZM486.916 298.6C490.036 298.6 492.836 297.88 495.316 296.44C497.796 295 499.756 292.96 501.196 290.32C502.636 287.6 503.356 284.4 503.356 280.72C503.356 276.96 502.636 273.76 501.196 271.12C499.756 268.48 497.796 266.44 495.316 265C492.836 263.56 490.036 262.84 486.916 262.84C483.796 262.84 480.996 263.56 478.516 265C476.036 266.44 474.036 268.48 472.516 271.12C471.076 273.76 470.356 276.96 470.356 280.72C470.356 284.4 471.076 287.6 472.516 290.32C474.036 292.96 476.036 295 478.516 296.44C480.996 297.88 483.796 298.6 486.916 298.6ZM577.669 247.48C582.789 247.48 587.349 248.52 591.349 250.6C595.429 252.6 598.629 255.72 600.949 259.96C603.269 264.12 604.429 269.48 604.429 276.04V313H585.709V278.92C585.709 273.72 584.549 269.88 582.229 267.4C579.989 264.92 576.789 263.68 572.629 263.68C569.669 263.68 566.989 264.32 564.589 265.6C562.269 266.8 560.429 268.68 559.069 271.24C557.789 273.8 557.149 277.08 557.149 281.08V313H538.429V248.44H556.309V266.32L552.949 260.92C555.269 256.6 558.589 253.28 562.909 250.96C567.229 248.64 572.149 247.48 577.669 247.48ZM-94.96 493.96C-102.56 493.96 -108.48 492.04 -112.72 488.2C-116.96 484.28 -119.08 478.48 -119.08 470.8V414.16H-100.36V470.56C-100.36 473.28 -99.64 475.4 -98.2 476.92C-96.76 478.36 -94.8 479.08 -92.32 479.08C-89.36 479.08 -86.84 478.28 -84.76 476.68L-79.72 489.88C-81.64 491.24 -83.96 492.28 -86.68 493C-89.32 493.64 -92.08 493.96 -94.96 493.96ZM-129.04 444.28V429.88H-84.28V444.28H-129.04ZM-36.8838 493.96C-43.7638 493.96 -49.8837 492.52 -55.2438 489.64C-60.5238 486.76 -64.7238 482.84 -67.8438 477.88C-70.8838 472.84 -72.4038 467.12 -72.4038 460.72C-72.4038 454.24 -70.8838 448.52 -67.8438 443.56C-64.7238 438.52 -60.5238 434.6 -55.2438 431.8C-49.8837 428.92 -43.7638 427.48 -36.8838 427.48C-30.0837 427.48 -24.0037 428.92 -18.6437 431.8C-13.2837 434.6 -9.08375 438.48 -6.04375 443.44C-3.00375 448.4 -1.48375 454.16 -1.48375 460.72C-1.48375 467.12 -3.00375 472.84 -6.04375 477.88C-9.08375 482.84 -13.2837 486.76 -18.6437 489.64C-24.0037 492.52 -30.0837 493.96 -36.8838 493.96ZM-36.8838 478.6C-33.7638 478.6 -30.9637 477.88 -28.4837 476.44C-26.0037 475 -24.0437 472.96 -22.6037 470.32C-21.1637 467.6 -20.4437 464.4 -20.4437 460.72C-20.4437 456.96 -21.1637 453.76 -22.6037 451.12C-24.0437 448.48 -26.0037 446.44 -28.4837 445C-30.9637 443.56 -33.7638 442.84 -36.8838 442.84C-40.0038 442.84 -42.8038 443.56 -45.2837 445C-47.7637 446.44 -49.7638 448.48 -51.2838 451.12C-52.7238 453.76 -53.4438 456.96 -53.4438 460.72C-53.4438 464.4 -52.7238 467.6 -51.2838 470.32C-49.7638 472.96 -47.7637 475 -45.2837 476.44C-42.8038 477.88 -40.0038 478.6 -36.8838 478.6ZM134.893 427.48C140.013 427.48 144.533 428.52 148.453 430.6C152.453 432.6 155.573 435.72 157.813 439.96C160.133 444.12 161.293 449.48 161.293 456.04V493H142.573V458.92C142.573 453.72 141.493 449.88 139.333 447.4C137.173 444.92 134.133 443.68 130.213 443.68C127.493 443.68 125.053 444.32 122.893 445.6C120.733 446.8 119.053 448.64 117.853 451.12C116.653 453.6 116.053 456.76 116.053 460.6V493H97.3334V458.92C97.3334 453.72 96.2534 449.88 94.0934 447.4C92.0134 444.92 89.0134 443.68 85.0934 443.68C82.3734 443.68 79.9334 444.32 77.7734 445.6C75.6134 446.8 73.9334 448.64 72.7334 451.12C71.5334 453.6 70.9334 456.76 70.9334 460.6V493H52.2134V428.44H70.0934V446.08L66.7334 440.92C68.9734 436.52 72.1334 433.2 76.2134 430.96C80.3734 428.64 85.0934 427.48 90.3734 427.48C96.2934 427.48 101.453 429 105.853 432.04C110.333 435 113.293 439.56 114.733 445.72L108.133 443.92C110.293 438.88 113.733 434.88 118.453 431.92C123.253 428.96 128.733 427.48 134.893 427.48ZM212.862 493.96C205.982 493.96 199.862 492.52 194.502 489.64C189.222 486.76 185.022 482.84 181.902 477.88C178.862 472.84 177.342 467.12 177.342 460.72C177.342 454.24 178.862 448.52 181.902 443.56C185.022 438.52 189.222 434.6 194.502 431.8C199.862 428.92 205.982 427.48 212.862 427.48C219.662 427.48 225.742 428.92 231.102 431.8C236.462 434.6 240.662 438.48 243.702 443.44C246.742 448.4 248.262 454.16 248.262 460.72C248.262 467.12 246.742 472.84 243.702 477.88C240.662 482.84 236.462 486.76 231.102 489.64C225.742 492.52 219.662 493.96 212.862 493.96ZM212.862 478.6C215.982 478.6 218.782 477.88 221.262 476.44C223.742 475 225.702 472.96 227.142 470.32C228.582 467.6 229.302 464.4 229.302 460.72C229.302 456.96 228.582 453.76 227.142 451.12C225.702 448.48 223.742 446.44 221.262 445C218.782 443.56 215.982 442.84 212.862 442.84C209.742 442.84 206.942 443.56 204.462 445C201.982 446.44 199.982 448.48 198.462 451.12C197.022 453.76 196.302 456.96 196.302 460.72C196.302 464.4 197.022 467.6 198.462 470.32C199.982 472.96 201.982 475 204.462 476.44C206.942 477.88 209.742 478.6 212.862 478.6ZM303.614 427.48C308.734 427.48 313.294 428.52 317.294 430.6C321.374 432.6 324.574 435.72 326.894 439.96C329.214 444.12 330.374 449.48 330.374 456.04V493H311.654V458.92C311.654 453.72 310.494 449.88 308.174 447.4C305.934 444.92 302.734 443.68 298.574 443.68C295.614 443.68 292.934 444.32 290.534 445.6C288.214 446.8 286.374 448.68 285.014 451.24C283.734 453.8 283.094 457.08 283.094 461.08V493H264.374V428.44H282.254V446.32L278.894 440.92C281.214 436.6 284.534 433.28 288.854 430.96C293.174 428.64 298.094 427.48 303.614 427.48ZM350.943 493V428.44H369.663V493H350.943ZM360.303 419.44C356.863 419.44 354.063 418.44 351.903 416.44C349.743 414.44 348.663 411.96 348.663 409C348.663 406.04 349.743 403.56 351.903 401.56C354.063 399.56 356.863 398.56 360.303 398.56C363.743 398.56 366.543 399.52 368.703 401.44C370.863 403.28 371.943 405.68 371.943 408.64C371.943 411.76 370.863 414.36 368.703 416.44C366.623 418.44 363.823 419.44 360.303 419.44ZM417.037 493.96C409.437 493.96 403.517 492.04 399.277 488.2C395.037 484.28 392.917 478.48 392.917 470.8V414.16H411.637V470.56C411.637 473.28 412.357 475.4 413.797 476.92C415.237 478.36 417.197 479.08 419.677 479.08C422.637 479.08 425.157 478.28 427.237 476.68L432.277 489.88C430.357 491.24 428.037 492.28 425.317 493C422.677 493.64 419.917 493.96 417.037 493.96ZM382.957 444.28V429.88H427.717V444.28H382.957ZM475.113 493.96C468.233 493.96 462.113 492.52 456.753 489.64C451.473 486.76 447.273 482.84 444.153 477.88C441.113 472.84 439.593 467.12 439.593 460.72C439.593 454.24 441.113 448.52 444.153 443.56C447.273 438.52 451.473 434.6 456.753 431.8C462.113 428.92 468.233 427.48 475.113 427.48C481.913 427.48 487.993 428.92 493.353 431.8C498.713 434.6 502.913 438.48 505.953 443.44C508.993 448.4 510.513 454.16 510.513 460.72C510.513 467.12 508.993 472.84 505.953 477.88C502.913 482.84 498.713 486.76 493.353 489.64C487.993 492.52 481.913 493.96 475.113 493.96ZM475.113 478.6C478.233 478.6 481.033 477.88 483.513 476.44C485.993 475 487.953 472.96 489.393 470.32C490.833 467.6 491.553 464.4 491.553 460.72C491.553 456.96 490.833 453.76 489.393 451.12C487.953 448.48 485.993 446.44 483.513 445C481.033 443.56 478.233 442.84 475.113 442.84C471.993 442.84 469.193 443.56 466.713 445C464.233 446.44 462.233 448.48 460.713 451.12C459.273 453.76 458.553 456.96 458.553 460.72C458.553 464.4 459.273 467.6 460.713 470.32C462.233 472.96 464.233 475 466.713 476.44C469.193 477.88 471.993 478.6 475.113 478.6ZM526.626 493V428.44H544.506V446.68L541.986 441.4C543.906 436.84 546.986 433.4 551.226 431.08C555.466 428.68 560.626 427.48 566.706 427.48V444.76C565.906 444.68 565.186 444.64 564.546 444.64C563.906 444.56 563.226 444.52 562.506 444.52C557.386 444.52 553.226 446 550.026 448.96C546.906 451.84 545.346 456.36 545.346 462.52V493H526.626ZM-82.12 607.48C-77 607.48 -72.44 608.52 -68.44 610.6C-64.36 612.6 -61.16 615.72 -58.84 619.96C-56.52 624.12 -55.36 629.48 -55.36 636.04V673H-74.08V638.92C-74.08 633.72 -75.24 629.88 -77.56 627.4C-79.8 624.92 -83 623.68 -87.16 623.68C-90.12 623.68 -92.8 624.32 -95.2 625.6C-97.52 626.8 -99.36 628.68 -100.72 631.24C-102 633.8 -102.64 637.08 -102.64 641.08V673H-121.36V608.44H-103.48V626.32L-106.84 620.92C-104.52 616.6 -101.2 613.28 -96.88 610.96C-92.56 608.64 -87.64 607.48 -82.12 607.48ZM-7.55125 673.96C-12.9112 673.96 -17.7113 672.92 -21.9513 670.84C-26.1113 668.76 -29.3513 665.6 -31.6713 661.36C-33.9913 657.04 -35.1513 651.56 -35.1513 644.92V608.44H-16.4313V642.16C-16.4313 647.52 -15.3112 651.48 -13.0712 654.04C-10.7513 656.52 -7.51125 657.76 -3.35125 657.76C-0.47125 657.76 2.08875 657.16 4.32875 655.96C6.56875 654.68 8.32875 652.76 9.60875 650.2C10.8888 647.56 11.5288 644.28 11.5288 640.36V608.44H30.2488V673H12.4888V655.24L15.7288 660.4C13.5688 664.88 10.3688 668.28 6.12875 670.6C1.96875 672.84 -2.59125 673.96 -7.55125 673.96ZM77.5916 673.96C69.9916 673.96 64.0716 672.04 59.8316 668.2C55.5916 664.28 53.4716 658.48 53.4716 650.8V594.16H72.1916V650.56C72.1916 653.28 72.9116 655.4 74.3516 656.92C75.7916 658.36 77.7516 659.08 80.2316 659.08C83.1916 659.08 85.7116 658.28 87.7916 656.68L92.8316 669.88C90.9116 671.24 88.5916 672.28 85.8716 673C83.2316 673.64 80.4716 673.96 77.5916 673.96ZM43.5116 624.28V609.88H88.2716V624.28H43.5116ZM106.94 673V608.44H124.82V626.68L122.3 621.4C124.22 616.84 127.3 613.4 131.54 611.08C135.78 608.68 140.94 607.48 147.02 607.48V624.76C146.22 624.68 145.5 624.64 144.86 624.64C144.22 624.56 143.54 624.52 142.82 624.52C137.7 624.52 133.54 626 130.34 628.96C127.22 631.84 125.66 636.36 125.66 642.52V673H106.94ZM161.868 673V608.44H180.588V673H161.868ZM171.228 599.44C167.788 599.44 164.988 598.44 162.828 596.44C160.668 594.44 159.588 591.96 159.588 589C159.588 586.04 160.668 583.56 162.828 581.56C164.988 579.56 167.788 578.56 171.228 578.56C174.668 578.56 177.468 579.52 179.628 581.44C181.788 583.28 182.868 585.68 182.868 588.64C182.868 591.76 181.788 594.36 179.628 596.44C177.548 598.44 174.748 599.44 171.228 599.44ZM227.962 673.96C220.362 673.96 214.442 672.04 210.202 668.2C205.962 664.28 203.842 658.48 203.842 650.8V594.16H222.562V650.56C222.562 653.28 223.282 655.4 224.722 656.92C226.162 658.36 228.122 659.08 230.602 659.08C233.562 659.08 236.082 658.28 238.162 656.68L243.202 669.88C241.282 671.24 238.962 672.28 236.242 673C233.602 673.64 230.842 673.96 227.962 673.96ZM193.882 624.28V609.88H238.642V624.28H193.882ZM257.31 673V608.44H276.03V673H257.31ZM266.67 599.44C263.23 599.44 260.43 598.44 258.27 596.44C256.11 594.44 255.03 591.96 255.03 589C255.03 586.04 256.11 583.56 258.27 581.56C260.43 579.56 263.23 578.56 266.67 578.56C270.11 578.56 272.91 579.52 275.07 581.44C277.23 583.28 278.31 585.68 278.31 588.64C278.31 591.76 277.23 594.36 275.07 596.44C272.99 598.44 270.19 599.44 266.67 599.44ZM327.724 673.96C320.844 673.96 314.724 672.52 309.364 669.64C304.084 666.76 299.884 662.84 296.764 657.88C293.724 652.84 292.204 647.12 292.204 640.72C292.204 634.24 293.724 628.52 296.764 623.56C299.884 618.52 304.084 614.6 309.364 611.8C314.724 608.92 320.844 607.48 327.724 607.48C334.524 607.48 340.604 608.92 345.964 611.8C351.324 614.6 355.524 618.48 358.564 623.44C361.604 628.4 363.124 634.16 363.124 640.72C363.124 647.12 361.604 652.84 358.564 657.88C355.524 662.84 351.324 666.76 345.964 669.64C340.604 672.52 334.524 673.96 327.724 673.96ZM327.724 658.6C330.844 658.6 333.644 657.88 336.124 656.44C338.604 655 340.564 652.96 342.004 650.32C343.444 647.6 344.164 644.4 344.164 640.72C344.164 636.96 343.444 633.76 342.004 631.12C340.564 628.48 338.604 626.44 336.124 625C333.644 623.56 330.844 622.84 327.724 622.84C324.604 622.84 321.804 623.56 319.324 625C316.844 626.44 314.844 628.48 313.324 631.12C311.884 633.76 311.164 636.96 311.164 640.72C311.164 644.4 311.884 647.6 313.324 650.32C314.844 652.96 316.844 655 319.324 656.44C321.804 657.88 324.604 658.6 327.724 658.6ZM418.477 607.48C423.597 607.48 428.157 608.52 432.157 610.6C436.237 612.6 439.437 615.72 441.757 619.96C444.077 624.12 445.237 629.48 445.237 636.04V673H426.517V638.92C426.517 633.72 425.357 629.88 423.037 627.4C420.797 624.92 417.597 623.68 413.437 623.68C410.477 623.68 407.797 624.32 405.397 625.6C403.077 626.8 401.237 628.68 399.877 631.24C398.597 633.8 397.957 637.08 397.957 641.08V673H379.237V608.44H397.117V626.32L393.757 620.92C396.077 616.6 399.397 613.28 403.717 610.96C408.037 608.64 412.957 607.48 418.477 607.48ZM505.406 673V660.4L504.206 657.64V635.08C504.206 631.08 502.966 627.96 500.486 625.72C498.086 623.48 494.366 622.36 489.326 622.36C485.886 622.36 482.486 622.92 479.126 624.04C475.846 625.08 473.046 626.52 470.726 628.36L464.006 615.28C467.526 612.8 471.766 610.88 476.726 609.52C481.686 608.16 486.726 607.48 491.846 607.48C501.686 607.48 509.326 609.8 514.766 614.44C520.206 619.08 522.926 626.32 522.926 636.16V673H505.406ZM485.726 673.96C480.686 673.96 476.366 673.12 472.766 671.44C469.166 669.68 466.406 667.32 464.486 664.36C462.566 661.4 461.606 658.08 461.606 654.4C461.606 650.56 462.526 647.2 464.366 644.32C466.286 641.44 469.286 639.2 473.366 637.6C477.446 635.92 482.766 635.08 489.326 635.08H506.486V646H491.366C486.966 646 483.926 646.72 482.246 648.16C480.646 649.6 479.846 651.4 479.846 653.56C479.846 655.96 480.766 657.88 482.606 659.32C484.526 660.68 487.126 661.36 490.406 661.36C493.526 661.36 496.326 660.64 498.806 659.2C501.286 657.68 503.086 655.48 504.206 652.6L507.086 661.24C505.726 665.4 503.246 668.56 499.646 670.72C496.046 672.88 491.406 673.96 485.726 673.96ZM543.468 673V583.96H562.188V673H543.468ZM-121.36 853V763.96H-102.64V853H-121.36ZM-49.6262 853.96C-56.9863 853.96 -63.4663 852.52 -69.0663 849.64C-74.5863 846.76 -78.8663 842.84 -81.9063 837.88C-84.9463 832.84 -86.4663 827.12 -86.4663 820.72C-86.4663 814.24 -84.9863 808.52 -82.0263 803.56C-78.9863 798.52 -74.8663 794.6 -69.6663 791.8C-64.4662 788.92 -58.5862 787.48 -52.0263 787.48C-45.7062 787.48 -40.0262 788.84 -34.9862 791.56C-29.8662 794.2 -25.8262 798.04 -22.8662 803.08C-19.9062 808.04 -18.4262 814 -18.4262 820.96C-18.4262 821.68 -18.4662 822.52 -18.5462 823.48C-18.6262 824.36 -18.7063 825.2 -18.7862 826H-71.2263V815.08H-28.6263L-35.8262 818.32C-35.8262 814.96 -36.5062 812.04 -37.8663 809.56C-39.2262 807.08 -41.1062 805.16 -43.5062 803.8C-45.9062 802.36 -48.7062 801.64 -51.9062 801.64C-55.1063 801.64 -57.9463 802.36 -60.4262 803.8C-62.8263 805.16 -64.7063 807.12 -66.0663 809.68C-67.4263 812.16 -68.1063 815.12 -68.1063 818.56V821.44C-68.1063 824.96 -67.3463 828.08 -65.8263 830.8C-64.2263 833.44 -62.0263 835.48 -59.2263 836.92C-56.3463 838.28 -52.9862 838.96 -49.1462 838.96C-45.7062 838.96 -42.7063 838.44 -40.1463 837.4C-37.5062 836.36 -35.1062 834.8 -32.9462 832.72L-22.9862 843.52C-25.9462 846.88 -29.6662 849.48 -34.1462 851.32C-38.6262 853.08 -43.7862 853.96 -49.6262 853.96ZM13.985 853L-13.135 788.44H6.185L28.745 844H19.145L42.545 788.44H60.545L33.305 853H13.985ZM102.066 853.96C94.7059 853.96 88.2259 852.52 82.6259 849.64C77.1059 846.76 72.8259 842.84 69.7859 837.88C66.7459 832.84 65.2259 827.12 65.2259 820.72C65.2259 814.24 66.7059 808.52 69.6659 803.56C72.7059 798.52 76.8259 794.6 82.0259 791.8C87.2259 788.92 93.1059 787.48 99.6659 787.48C105.986 787.48 111.666 788.84 116.706 791.56C121.826 794.2 125.866 798.04 128.826 803.08C131.786 808.04 133.266 814 133.266 820.96C133.266 821.68 133.226 822.52 133.146 823.48C133.066 824.36 132.986 825.2 132.906 826H80.4659V815.08H123.066L115.866 818.32C115.866 814.96 115.186 812.04 113.826 809.56C112.466 807.08 110.586 805.16 108.186 803.8C105.786 802.36 102.986 801.64 99.7859 801.64C96.5859 801.64 93.7459 802.36 91.2659 803.8C88.8659 805.16 86.9859 807.12 85.6259 809.68C84.2659 812.16 83.5859 815.12 83.5859 818.56V821.44C83.5859 824.96 84.3459 828.08 85.8659 830.8C87.4659 833.44 89.6659 835.48 92.4659 836.92C95.3459 838.28 98.7059 838.96 102.546 838.96C105.986 838.96 108.986 838.44 111.546 837.4C114.186 836.36 116.586 834.8 118.746 832.72L128.706 843.52C125.746 846.88 122.026 849.48 117.546 851.32C113.066 853.08 107.906 853.96 102.066 853.96ZM149.329 853V763.96H168.049V853H149.329ZM210.743 853.96C205.223 853.96 199.903 853.32 194.783 852.04C189.743 850.68 185.743 849 182.783 847L189.023 833.56C191.983 835.4 195.463 836.92 199.463 838.12C203.543 839.24 207.543 839.8 211.463 839.8C215.783 839.8 218.823 839.28 220.583 838.24C222.423 837.2 223.343 835.76 223.343 833.92C223.343 832.4 222.623 831.28 221.183 830.56C219.823 829.76 217.983 829.16 215.663 828.76C213.343 828.36 210.783 827.96 207.983 827.56C205.263 827.16 202.503 826.64 199.703 826C196.903 825.28 194.343 824.24 192.023 822.88C189.703 821.52 187.823 819.68 186.383 817.36C185.023 815.04 184.343 812.04 184.343 808.36C184.343 804.28 185.503 800.68 187.823 797.56C190.223 794.44 193.663 792 198.143 790.24C202.623 788.4 207.983 787.48 214.223 787.48C218.623 787.48 223.103 787.96 227.663 788.92C232.223 789.88 236.023 791.28 239.063 793.12L232.823 806.44C229.703 804.6 226.543 803.36 223.343 802.72C220.223 802 217.183 801.64 214.223 801.64C210.063 801.64 207.023 802.2 205.103 803.32C203.183 804.44 202.223 805.88 202.223 807.64C202.223 809.24 202.903 810.44 204.263 811.24C205.703 812.04 207.583 812.68 209.903 813.16C212.223 813.64 214.743 814.08 217.463 814.48C220.263 814.8 223.063 815.32 225.863 816.04C228.663 816.76 231.183 817.8 233.423 819.16C235.743 820.44 237.623 822.24 239.063 824.56C240.503 826.8 241.223 829.76 241.223 833.44C241.223 837.44 240.023 841 237.623 844.12C235.223 847.16 231.743 849.56 227.183 851.32C222.703 853.08 217.223 853.96 210.743 853.96Z" fill="black"/>
<path d="M231.648 302V262.8H240.72V294.608H260.376V302H231.648ZM279.112 302.448C276.61 302.448 274.37 301.963 272.392 300.992C270.45 300.021 268.938 298.547 267.856 296.568C266.773 294.552 266.232 291.995 266.232 288.896V271.872H274.968V287.608C274.968 290.109 275.49 291.957 276.536 293.152C277.618 294.309 279.13 294.888 281.072 294.888C282.416 294.888 283.61 294.608 284.656 294.048C285.701 293.451 286.522 292.555 287.12 291.36C287.717 290.128 288.016 288.597 288.016 286.768V271.872H296.752V302H288.464V293.712L289.976 296.12C288.968 298.211 287.474 299.797 285.496 300.88C283.554 301.925 281.426 302.448 279.112 302.448ZM321.085 302.448C317.837 302.448 314.943 301.795 312.405 300.488C309.866 299.144 307.869 297.296 306.413 294.944C304.994 292.592 304.285 289.923 304.285 286.936C304.285 283.912 304.994 281.243 306.413 278.928C307.869 276.576 309.866 274.747 312.405 273.44C314.943 272.096 317.837 271.424 321.085 271.424C324.258 271.424 327.021 272.096 329.373 273.44C331.725 274.747 333.461 276.632 334.581 279.096L327.805 282.736C327.021 281.317 326.031 280.272 324.837 279.6C323.679 278.928 322.41 278.592 321.029 278.592C319.535 278.592 318.191 278.928 316.997 279.6C315.802 280.272 314.85 281.224 314.141 282.456C313.469 283.688 313.133 285.181 313.133 286.936C313.133 288.691 313.469 290.184 314.141 291.416C314.85 292.648 315.802 293.6 316.997 294.272C318.191 294.944 319.535 295.28 321.029 295.28C322.41 295.28 323.679 294.963 324.837 294.328C326.031 293.656 327.021 292.592 327.805 291.136L334.581 294.832C333.461 297.259 331.725 299.144 329.373 300.488C327.021 301.795 324.258 302.448 321.085 302.448ZM344.661 313.312C343.093 313.312 341.544 313.069 340.013 312.584C338.483 312.099 337.232 311.427 336.261 310.568L339.453 304.352C340.125 304.949 340.891 305.416 341.749 305.752C342.645 306.088 343.523 306.256 344.381 306.256C345.613 306.256 346.584 305.957 347.293 305.36C348.04 304.8 348.712 303.848 349.309 302.504L350.877 298.808L351.549 297.856L362.357 271.872H370.757L357.149 303.848C356.179 306.275 355.059 308.179 353.789 309.56C352.557 310.941 351.176 311.912 349.645 312.472C348.152 313.032 346.491 313.312 344.661 313.312ZM349.813 303.176L336.373 271.872H345.389L355.805 297.072L349.813 303.176ZM372.685 310.624L376.381 297.184L377.613 302.224C376.008 302.224 374.683 301.757 373.637 300.824C372.629 299.891 372.125 298.603 372.125 296.96C372.125 295.317 372.648 294.011 373.693 293.04C374.739 292.069 376.027 291.584 377.557 291.584C379.125 291.584 380.413 292.088 381.421 293.096C382.429 294.067 382.933 295.355 382.933 296.96C382.933 297.445 382.896 297.931 382.821 298.416C382.747 298.864 382.597 299.424 382.373 300.096C382.187 300.731 381.869 301.552 381.421 302.56L378.229 310.624H372.685ZM426.553 302V296.12L425.993 294.832V284.304C425.993 282.437 425.414 280.981 424.257 279.936C423.137 278.891 421.401 278.368 419.049 278.368C417.444 278.368 415.857 278.629 414.289 279.152C412.758 279.637 411.452 280.309 410.369 281.168L407.233 275.064C408.876 273.907 410.854 273.011 413.169 272.376C415.484 271.741 417.836 271.424 420.225 271.424C424.817 271.424 428.382 272.507 430.921 274.672C433.46 276.837 434.729 280.216 434.729 284.808V302H426.553ZM417.369 302.448C415.017 302.448 413.001 302.056 411.321 301.272C409.641 300.451 408.353 299.349 407.457 297.968C406.561 296.587 406.113 295.037 406.113 293.32C406.113 291.528 406.542 289.96 407.401 288.616C408.297 287.272 409.697 286.227 411.601 285.48C413.505 284.696 415.988 284.304 419.049 284.304H427.057V289.4H420.001C417.948 289.4 416.529 289.736 415.745 290.408C414.998 291.08 414.625 291.92 414.625 292.928C414.625 294.048 415.054 294.944 415.913 295.616C416.809 296.251 418.022 296.568 419.553 296.568C421.009 296.568 422.316 296.232 423.473 295.56C424.63 294.851 425.47 293.824 425.993 292.48L427.337 296.512C426.702 298.453 425.545 299.928 423.865 300.936C422.185 301.944 420.02 302.448 417.369 302.448ZM462.627 271.424C465.017 271.424 467.145 271.909 469.011 272.88C470.915 273.813 472.409 275.269 473.491 277.248C474.574 279.189 475.115 281.691 475.115 284.752V302H466.379V286.096C466.379 283.669 465.838 281.877 464.755 280.72C463.71 279.563 462.217 278.984 460.275 278.984C458.894 278.984 457.643 279.283 456.523 279.88C455.441 280.44 454.582 281.317 453.947 282.512C453.35 283.707 453.051 285.237 453.051 287.104V302H444.315V271.872H452.659V280.216L451.091 277.696C452.174 275.68 453.723 274.131 455.739 273.048C457.755 271.965 460.051 271.424 462.627 271.424ZM249.512 386V380.12L248.952 378.832V368.304C248.952 366.437 248.373 364.981 247.216 363.936C246.096 362.891 244.36 362.368 242.008 362.368C240.403 362.368 238.816 362.629 237.248 363.152C235.717 363.637 234.411 364.309 233.328 365.168L230.192 359.064C231.835 357.907 233.813 357.011 236.128 356.376C238.443 355.741 240.795 355.424 243.184 355.424C247.776 355.424 251.341 356.507 253.88 358.672C256.419 360.837 257.688 364.216 257.688 368.808V386H249.512ZM240.328 386.448C237.976 386.448 235.96 386.056 234.28 385.272C232.6 384.451 231.312 383.349 230.416 381.968C229.52 380.587 229.072 379.037 229.072 377.32C229.072 375.528 229.501 373.96 230.36 372.616C231.256 371.272 232.656 370.227 234.56 369.48C236.464 368.696 238.947 368.304 242.008 368.304H250.016V373.4H242.96C240.907 373.4 239.488 373.736 238.704 374.408C237.957 375.08 237.584 375.92 237.584 376.928C237.584 378.048 238.013 378.944 238.872 379.616C239.768 380.251 240.981 380.568 242.512 380.568C243.968 380.568 245.275 380.232 246.432 379.56C247.589 378.851 248.429 377.824 248.952 376.48L250.296 380.512C249.661 382.453 248.504 383.928 246.824 384.936C245.144 385.944 242.979 386.448 240.328 386.448ZM285.083 386.448C282.544 386.448 280.323 385.888 278.419 384.768C276.515 383.648 275.021 381.949 273.939 379.672C272.893 377.357 272.371 374.445 272.371 370.936C272.371 367.389 272.875 364.477 273.883 362.2C274.891 359.923 276.347 358.224 278.251 357.104C280.155 355.984 282.432 355.424 285.083 355.424C287.92 355.424 290.459 356.077 292.699 357.384C294.976 358.653 296.768 360.445 298.075 362.76C299.419 365.075 300.091 367.8 300.091 370.936C300.091 374.109 299.419 376.853 298.075 379.168C296.768 381.483 294.976 383.275 292.699 384.544C290.459 385.813 287.92 386.448 285.083 386.448ZM267.275 396.864V355.872H275.619V362.032L275.451 370.992L276.011 379.896V396.864H267.275ZM283.571 379.28C285.027 379.28 286.315 378.944 287.435 378.272C288.592 377.6 289.507 376.648 290.179 375.416C290.888 374.147 291.243 372.653 291.243 370.936C291.243 369.181 290.888 367.688 290.179 366.456C289.507 365.224 288.592 364.272 287.435 363.6C286.315 362.928 285.027 362.592 283.571 362.592C282.115 362.592 280.808 362.928 279.651 363.6C278.493 364.272 277.579 365.224 276.907 366.456C276.235 367.688 275.899 369.181 275.899 370.936C275.899 372.653 276.235 374.147 276.907 375.416C277.579 376.648 278.493 377.6 279.651 378.272C280.808 378.944 282.115 379.28 283.571 379.28ZM325.427 386.448C322.888 386.448 320.667 385.888 318.763 384.768C316.859 383.648 315.365 381.949 314.283 379.672C313.237 377.357 312.715 374.445 312.715 370.936C312.715 367.389 313.219 364.477 314.227 362.2C315.235 359.923 316.691 358.224 318.595 357.104C320.499 355.984 322.776 355.424 325.427 355.424C328.264 355.424 330.803 356.077 333.043 357.384C335.32 358.653 337.112 360.445 338.419 362.76C339.763 365.075 340.435 367.8 340.435 370.936C340.435 374.109 339.763 376.853 338.419 379.168C337.112 381.483 335.32 383.275 333.043 384.544C330.803 385.813 328.264 386.448 325.427 386.448ZM307.619 396.864V355.872H315.963V362.032L315.795 370.992L316.355 379.896V396.864H307.619ZM323.915 379.28C325.371 379.28 326.659 378.944 327.779 378.272C328.936 377.6 329.851 376.648 330.523 375.416C331.232 374.147 331.587 372.653 331.587 370.936C331.587 369.181 331.232 367.688 330.523 366.456C329.851 365.224 328.936 364.272 327.779 363.6C326.659 362.928 325.371 362.592 323.915 362.592C322.459 362.592 321.152 362.928 319.995 363.6C318.837 364.272 317.923 365.224 317.251 366.456C316.579 367.688 316.243 369.181 316.243 370.936C316.243 372.653 316.579 374.147 317.251 375.416C317.923 376.648 318.837 377.6 319.995 378.272C321.152 378.944 322.459 379.28 323.915 379.28ZM347.963 386V344.448H356.699V386H347.963ZM366.486 386V355.872H375.222V386H366.486ZM370.854 351.672C369.249 351.672 367.942 351.205 366.934 350.272C365.926 349.339 365.422 348.181 365.422 346.8C365.422 345.419 365.926 344.261 366.934 343.328C367.942 342.395 369.249 341.928 370.854 341.928C372.46 341.928 373.766 342.376 374.774 343.272C375.782 344.131 376.286 345.251 376.286 346.632C376.286 348.088 375.782 349.301 374.774 350.272C373.804 351.205 372.497 351.672 370.854 351.672ZM399.57 386.448C396.322 386.448 393.429 385.795 390.89 384.488C388.351 383.144 386.354 381.296 384.898 378.944C383.479 376.592 382.77 373.923 382.77 370.936C382.77 367.912 383.479 365.243 384.898 362.928C386.354 360.576 388.351 358.747 390.89 357.44C393.429 356.096 396.322 355.424 399.57 355.424C402.743 355.424 405.506 356.096 407.858 357.44C410.21 358.747 411.946 360.632 413.066 363.096L406.29 366.736C405.506 365.317 404.517 364.272 403.322 363.6C402.165 362.928 400.895 362.592 399.514 362.592C398.021 362.592 396.677 362.928 395.482 363.6C394.287 364.272 393.335 365.224 392.626 366.456C391.954 367.688 391.618 369.181 391.618 370.936C391.618 372.691 391.954 374.184 392.626 375.416C393.335 376.648 394.287 377.6 395.482 378.272C396.677 378.944 398.021 379.28 399.514 379.28C400.895 379.28 402.165 378.963 403.322 378.328C404.517 377.656 405.506 376.592 406.29 375.136L413.066 378.832C411.946 381.259 410.21 383.144 407.858 384.488C405.506 385.795 402.743 386.448 399.57 386.448ZM438.256 386V380.12L437.696 378.832V368.304C437.696 366.437 437.117 364.981 435.96 363.936C434.84 362.891 433.104 362.368 430.752 362.368C429.147 362.368 427.56 362.629 425.992 363.152C424.461 363.637 423.155 364.309 422.072 365.168L418.936 359.064C420.579 357.907 422.557 357.011 424.872 356.376C427.187 355.741 429.539 355.424 431.928 355.424C436.52 355.424 440.085 356.507 442.624 358.672C445.163 360.837 446.432 364.216 446.432 368.808V386H438.256ZM429.072 386.448C426.72 386.448 424.704 386.056 423.024 385.272C421.344 384.451 420.056 383.349 419.16 381.968C418.264 380.587 417.816 379.037 417.816 377.32C417.816 375.528 418.245 373.96 419.104 372.616C420 371.272 421.4 370.227 423.304 369.48C425.208 368.696 427.691 368.304 430.752 368.304H438.76V373.4H431.704C429.651 373.4 428.232 373.736 427.448 374.408C426.701 375.08 426.328 375.92 426.328 376.928C426.328 378.048 426.757 378.944 427.616 379.616C428.512 380.251 429.725 380.568 431.256 380.568C432.712 380.568 434.019 380.232 435.176 379.56C436.333 378.851 437.173 377.824 437.696 376.48L439.04 380.512C438.405 382.453 437.248 383.928 435.568 384.936C433.888 385.944 431.723 386.448 429.072 386.448ZM468.339 386.448C464.792 386.448 462.029 385.552 460.051 383.76C458.072 381.931 457.083 379.224 457.083 375.64V349.208H465.819V375.528C465.819 376.797 466.155 377.787 466.827 378.496C467.499 379.168 468.413 379.504 469.571 379.504C470.952 379.504 472.128 379.131 473.099 378.384L475.451 384.544C474.555 385.179 473.472 385.664 472.203 386C470.971 386.299 469.683 386.448 468.339 386.448ZM452.435 363.264V356.544H473.323V363.264H452.435ZM482.035 386V355.872H490.771V386H482.035ZM486.403 351.672C484.797 351.672 483.491 351.205 482.483 350.272C481.475 349.339 480.971 348.181 480.971 346.8C480.971 345.419 481.475 344.261 482.483 343.328C483.491 342.395 484.797 341.928 486.403 341.928C488.008 341.928 489.315 342.376 490.323 343.272C491.331 344.131 491.835 345.251 491.835 346.632C491.835 348.088 491.331 349.301 490.323 350.272C489.352 351.205 488.045 351.672 486.403 351.672ZM514.894 386.448C511.684 386.448 508.828 385.776 506.326 384.432C503.862 383.088 501.902 381.259 500.446 378.944C499.028 376.592 498.318 373.923 498.318 370.936C498.318 367.912 499.028 365.243 500.446 362.928C501.902 360.576 503.862 358.747 506.326 357.44C508.828 356.096 511.684 355.424 514.894 355.424C518.068 355.424 520.905 356.096 523.406 357.44C525.908 358.747 527.868 360.557 529.286 362.872C530.705 365.187 531.414 367.875 531.414 370.936C531.414 373.923 530.705 376.592 529.286 378.944C527.868 381.259 525.908 383.088 523.406 384.432C520.905 385.776 518.068 386.448 514.894 386.448ZM514.894 379.28C516.35 379.28 517.657 378.944 518.814 378.272C519.972 377.6 520.886 376.648 521.558 375.416C522.23 374.147 522.566 372.653 522.566 370.936C522.566 369.181 522.23 367.688 521.558 366.456C520.886 365.224 519.972 364.272 518.814 363.6C517.657 362.928 516.35 362.592 514.894 362.592C513.438 362.592 512.132 362.928 510.974 363.6C509.817 364.272 508.884 365.224 508.174 366.456C507.502 367.688 507.166 369.181 507.166 370.936C507.166 372.653 507.502 374.147 508.174 375.416C508.884 376.648 509.817 377.6 510.974 378.272C512.132 378.944 513.438 379.28 514.894 379.28ZM557.246 355.424C559.635 355.424 561.763 355.909 563.63 356.88C565.534 357.813 567.027 359.269 568.11 361.248C569.192 363.189 569.734 365.691 569.734 368.752V386H560.998V370.096C560.998 367.669 560.456 365.877 559.374 364.72C558.328 363.563 556.835 362.984 554.894 362.984C553.512 362.984 552.262 363.283 551.142 363.88C550.059 364.44 549.2 365.317 548.566 366.512C547.968 367.707 547.67 369.237 547.67 371.104V386H538.934V355.872H547.278V364.216L545.71 361.696C546.792 359.68 548.342 358.131 550.358 357.048C552.374 355.965 554.67 355.424 557.246 355.424ZM243.352 470.448C239.805 470.448 237.043 469.552 235.064 467.76C233.085 465.931 232.096 463.224 232.096 459.64V433.208H240.832V459.528C240.832 460.797 241.168 461.787 241.84 462.496C242.512 463.168 243.427 463.504 244.584 463.504C245.965 463.504 247.141 463.131 248.112 462.384L250.464 468.544C249.568 469.179 248.485 469.664 247.216 470C245.984 470.299 244.696 470.448 243.352 470.448ZM227.448 447.264V440.544H248.336V447.264H227.448ZM270.454 470.448C267.244 470.448 264.388 469.776 261.886 468.432C259.422 467.088 257.462 465.259 256.006 462.944C254.588 460.592 253.878 457.923 253.878 454.936C253.878 451.912 254.588 449.243 256.006 446.928C257.462 444.576 259.422 442.747 261.886 441.44C264.388 440.096 267.244 439.424 270.454 439.424C273.628 439.424 276.465 440.096 278.966 441.44C281.468 442.747 283.428 444.557 284.846 446.872C286.265 449.187 286.974 451.875 286.974 454.936C286.974 457.923 286.265 460.592 284.846 462.944C283.428 465.259 281.468 467.088 278.966 468.432C276.465 469.776 273.628 470.448 270.454 470.448ZM270.454 463.28C271.91 463.28 273.217 462.944 274.374 462.272C275.532 461.6 276.446 460.648 277.118 459.416C277.79 458.147 278.126 456.653 278.126 454.936C278.126 453.181 277.79 451.688 277.118 450.456C276.446 449.224 275.532 448.272 274.374 447.6C273.217 446.928 271.91 446.592 270.454 446.592C268.998 446.592 267.692 446.928 266.534 447.6C265.377 448.272 264.444 449.224 263.734 450.456C263.062 451.688 262.726 453.181 262.726 454.936C262.726 456.653 263.062 458.147 263.734 459.416C264.444 460.648 265.377 461.6 266.534 462.272C267.692 462.944 268.998 463.28 270.454 463.28ZM350.617 439.424C353.006 439.424 355.116 439.909 356.945 440.88C358.812 441.813 360.268 443.269 361.313 445.248C362.396 447.189 362.937 449.691 362.937 452.752V470H354.201V454.096C354.201 451.669 353.697 449.877 352.689 448.72C351.681 447.563 350.262 446.984 348.433 446.984C347.164 446.984 346.025 447.283 345.017 447.88C344.009 448.44 343.225 449.299 342.665 450.456C342.105 451.613 341.825 453.088 341.825 454.88V470H333.089V454.096C333.089 451.669 332.585 449.877 331.577 448.72C330.606 447.563 329.206 446.984 327.377 446.984C326.108 446.984 324.969 447.283 323.961 447.88C322.953 448.44 322.169 449.299 321.609 450.456C321.049 451.613 320.769 453.088 320.769 454.88V470H312.033V439.872H320.377V448.104L318.809 445.696C319.854 443.643 321.329 442.093 323.233 441.048C325.174 439.965 327.377 439.424 329.841 439.424C332.604 439.424 335.012 440.133 337.065 441.552C339.156 442.933 340.537 445.061 341.209 447.936L338.129 447.096C339.137 444.744 340.742 442.877 342.945 441.496C345.185 440.115 347.742 439.424 350.617 439.424ZM387.002 470.448C383.791 470.448 380.935 469.776 378.434 468.432C375.97 467.088 374.01 465.259 372.554 462.944C371.135 460.592 370.426 457.923 370.426 454.936C370.426 451.912 371.135 449.243 372.554 446.928C374.01 444.576 375.97 442.747 378.434 441.44C380.935 440.096 383.791 439.424 387.002 439.424C390.175 439.424 393.013 440.096 395.514 441.44C398.015 442.747 399.975 444.557 401.394 446.872C402.813 449.187 403.522 451.875 403.522 454.936C403.522 457.923 402.813 460.592 401.394 462.944C399.975 465.259 398.015 467.088 395.514 468.432C393.013 469.776 390.175 470.448 387.002 470.448ZM387.002 463.28C388.458 463.28 389.765 462.944 390.922 462.272C392.079 461.6 392.994 460.648 393.666 459.416C394.338 458.147 394.674 456.653 394.674 454.936C394.674 453.181 394.338 451.688 393.666 450.456C392.994 449.224 392.079 448.272 390.922 447.6C389.765 446.928 388.458 446.592 387.002 446.592C385.546 446.592 384.239 446.928 383.082 447.6C381.925 448.272 380.991 449.224 380.282 450.456C379.61 451.688 379.274 453.181 379.274 454.936C379.274 456.653 379.61 458.147 380.282 459.416C380.991 460.648 381.925 461.6 383.082 462.272C384.239 462.944 385.546 463.28 387.002 463.28ZM429.353 439.424C431.743 439.424 433.871 439.909 435.737 440.88C437.641 441.813 439.135 443.269 440.217 445.248C441.3 447.189 441.841 449.691 441.841 452.752V470H433.105V454.096C433.105 451.669 432.564 449.877 431.481 448.72C430.436 447.563 428.943 446.984 427.001 446.984C425.62 446.984 424.369 447.283 423.249 447.88C422.167 448.44 421.308 449.317 420.673 450.512C420.076 451.707 419.777 453.237 419.777 455.104V470H411.041V439.872H419.385V448.216L417.817 445.696C418.9 443.68 420.449 442.131 422.465 441.048C424.481 439.965 426.777 439.424 429.353 439.424ZM451.44 470V439.872H460.176V470H451.44ZM455.808 435.672C454.203 435.672 452.896 435.205 451.888 434.272C450.88 433.339 450.376 432.181 450.376 430.8C450.376 429.419 450.88 428.261 451.888 427.328C452.896 426.395 454.203 425.928 455.808 425.928C457.413 425.928 458.72 426.376 459.728 427.272C460.736 428.131 461.24 429.251 461.24 430.632C461.24 432.088 460.736 433.301 459.728 434.272C458.757 435.205 457.451 435.672 455.808 435.672ZM482.284 470.448C478.737 470.448 475.975 469.552 473.996 467.76C472.017 465.931 471.028 463.224 471.028 459.64V433.208H479.764V459.528C479.764 460.797 480.1 461.787 480.772 462.496C481.444 463.168 482.359 463.504 483.516 463.504C484.897 463.504 486.073 463.131 487.044 462.384L489.396 468.544C488.5 469.179 487.417 469.664 486.148 470C484.916 470.299 483.628 470.448 482.284 470.448ZM466.38 447.264V440.544H487.268V447.264H466.38ZM509.386 470.448C506.175 470.448 503.319 469.776 500.818 468.432C498.354 467.088 496.394 465.259 494.938 462.944C493.519 460.592 492.81 457.923 492.81 454.936C492.81 451.912 493.519 449.243 494.938 446.928C496.394 444.576 498.354 442.747 500.818 441.44C503.319 440.096 506.175 439.424 509.386 439.424C512.559 439.424 515.397 440.096 517.898 441.44C520.399 442.747 522.359 444.557 523.778 446.872C525.197 449.187 525.906 451.875 525.906 454.936C525.906 457.923 525.197 460.592 523.778 462.944C522.359 465.259 520.399 467.088 517.898 468.432C515.397 469.776 512.559 470.448 509.386 470.448ZM509.386 463.28C510.842 463.28 512.149 462.944 513.306 462.272C514.463 461.6 515.378 460.648 516.05 459.416C516.722 458.147 517.058 456.653 517.058 454.936C517.058 453.181 516.722 451.688 516.05 450.456C515.378 449.224 514.463 448.272 513.306 447.6C512.149 446.928 510.842 446.592 509.386 446.592C507.93 446.592 506.623 446.928 505.466 447.6C504.309 448.272 503.375 449.224 502.666 450.456C501.994 451.688 501.658 453.181 501.658 454.936C501.658 456.653 501.994 458.147 502.666 459.416C503.375 460.648 504.309 461.6 505.466 462.272C506.623 462.944 507.93 463.28 509.386 463.28ZM533.425 470V439.872H541.769V448.384L540.593 445.92C541.489 443.792 542.927 442.187 544.905 441.104C546.884 439.984 549.292 439.424 552.129 439.424V447.488C551.756 447.451 551.42 447.432 551.121 447.432C550.823 447.395 550.505 447.376 550.169 447.376C547.78 447.376 545.839 448.067 544.345 449.448C542.889 450.792 542.161 452.901 542.161 455.776V470H533.425ZM249.344 523.424C251.733 523.424 253.861 523.909 255.728 524.88C257.632 525.813 259.125 527.269 260.208 529.248C261.291 531.189 261.832 533.691 261.832 536.752V554H253.096V538.096C253.096 535.669 252.555 533.877 251.472 532.72C250.427 531.563 248.933 530.984 246.992 530.984C245.611 530.984 244.36 531.283 243.24 531.88C242.157 532.44 241.299 533.317 240.664 534.512C240.067 535.707 239.768 537.237 239.768 539.104V554H231.032V523.872H239.376V532.216L237.808 529.696C238.891 527.68 240.44 526.131 242.456 525.048C244.472 523.965 246.768 523.424 249.344 523.424ZM284.143 554.448C281.641 554.448 279.401 553.963 277.423 552.992C275.481 552.021 273.969 550.547 272.887 548.568C271.804 546.552 271.263 543.995 271.263 540.896V523.872H279.999V539.608C279.999 542.109 280.521 543.957 281.567 545.152C282.649 546.309 284.161 546.888 286.103 546.888C287.447 546.888 288.641 546.608 289.687 546.048C290.732 545.451 291.553 544.555 292.151 543.36C292.748 542.128 293.047 540.597 293.047 538.768V523.872H301.783V554H293.495V545.712L295.007 548.12C293.999 550.211 292.505 551.797 290.527 552.88C288.585 553.925 286.457 554.448 284.143 554.448ZM323.876 554.448C320.329 554.448 317.567 553.552 315.588 551.76C313.609 549.931 312.62 547.224 312.62 543.64V517.208H321.356V543.528C321.356 544.797 321.692 545.787 322.364 546.496C323.036 547.168 323.951 547.504 325.108 547.504C326.489 547.504 327.665 547.131 328.636 546.384L330.988 552.544C330.092 553.179 329.009 553.664 327.74 554C326.508 554.299 325.22 554.448 323.876 554.448ZM307.972 531.264V524.544H328.86V531.264H307.972ZM337.572 554V523.872H345.916V532.384L344.74 529.92C345.636 527.792 347.073 526.187 349.052 525.104C351.031 523.984 353.439 523.424 356.276 523.424V531.488C355.903 531.451 355.567 531.432 355.268 531.432C354.969 531.395 354.652 531.376 354.316 531.376C351.927 531.376 349.985 532.067 348.492 533.448C347.036 534.792 346.308 536.901 346.308 539.776V554H337.572ZM363.205 554V523.872H371.941V554H363.205ZM367.573 519.672C365.968 519.672 364.661 519.205 363.653 518.272C362.645 517.339 362.141 516.181 362.141 514.8C362.141 513.419 362.645 512.261 363.653 511.328C364.661 510.395 365.968 509.928 367.573 509.928C369.178 509.928 370.485 510.376 371.493 511.272C372.501 512.131 373.005 513.251 373.005 514.632C373.005 516.088 372.501 517.301 371.493 518.272C370.522 519.205 369.216 519.672 367.573 519.672ZM394.049 554.448C390.502 554.448 387.74 553.552 385.761 551.76C383.782 549.931 382.793 547.224 382.793 543.64V517.208H391.529V543.528C391.529 544.797 391.865 545.787 392.537 546.496C393.209 547.168 394.124 547.504 395.281 547.504C396.662 547.504 397.838 547.131 398.809 546.384L401.161 552.544C400.265 553.179 399.182 553.664 397.913 554C396.681 554.299 395.393 554.448 394.049 554.448ZM378.145 531.264V524.544H399.033V531.264H378.145ZM407.745 554V523.872H416.481V554H407.745ZM412.113 519.672C410.507 519.672 409.201 519.205 408.193 518.272C407.185 517.339 406.681 516.181 406.681 514.8C406.681 513.419 407.185 512.261 408.193 511.328C409.201 510.395 410.507 509.928 412.113 509.928C413.718 509.928 415.025 510.376 416.033 511.272C417.041 512.131 417.545 513.251 417.545 514.632C417.545 516.088 417.041 517.301 416.033 518.272C415.062 519.205 413.755 519.672 412.113 519.672ZM440.605 554.448C437.394 554.448 434.538 553.776 432.037 552.432C429.573 551.088 427.613 549.259 426.157 546.944C424.738 544.592 424.029 541.923 424.029 538.936C424.029 535.912 424.738 533.243 426.157 530.928C427.613 528.576 429.573 526.747 432.037 525.44C434.538 524.096 437.394 523.424 440.605 523.424C443.778 523.424 446.615 524.096 449.117 525.44C451.618 526.747 453.578 528.557 454.997 530.872C456.415 533.187 457.125 535.875 457.125 538.936C457.125 541.923 456.415 544.592 454.997 546.944C453.578 549.259 451.618 551.088 449.117 552.432C446.615 553.776 443.778 554.448 440.605 554.448ZM440.605 547.28C442.061 547.28 443.367 546.944 444.525 546.272C445.682 545.6 446.597 544.648 447.269 543.416C447.941 542.147 448.277 540.653 448.277 538.936C448.277 537.181 447.941 535.688 447.269 534.456C446.597 533.224 445.682 532.272 444.525 531.6C443.367 530.928 442.061 530.592 440.605 530.592C439.149 530.592 437.842 530.928 436.685 531.6C435.527 532.272 434.594 533.224 433.885 534.456C433.213 535.688 432.877 537.181 432.877 538.936C432.877 540.653 433.213 542.147 433.885 543.416C434.594 544.648 435.527 545.6 436.685 546.272C437.842 546.944 439.149 547.28 440.605 547.28ZM482.956 523.424C485.345 523.424 487.473 523.909 489.34 524.88C491.244 525.813 492.737 527.269 493.82 529.248C494.903 531.189 495.444 533.691 495.444 536.752V554H486.708V538.096C486.708 535.669 486.167 533.877 485.084 532.72C484.039 531.563 482.545 530.984 480.604 530.984C479.223 530.984 477.972 531.283 476.852 531.88C475.769 532.44 474.911 533.317 474.276 534.512C473.679 535.707 473.38 537.237 473.38 539.104V554H464.644V523.872H472.988V532.216L471.42 529.696C472.503 527.68 474.052 526.131 476.068 525.048C478.084 523.965 480.38 523.424 482.956 523.424ZM523.523 554V548.12L522.963 546.832V536.304C522.963 534.437 522.384 532.981 521.227 531.936C520.107 530.891 518.371 530.368 516.019 530.368C514.413 530.368 512.827 530.629 511.259 531.152C509.728 531.637 508.421 532.309 507.339 533.168L504.203 527.064C505.845 525.907 507.824 525.011 510.139 524.376C512.453 523.741 514.805 523.424 517.195 523.424C521.787 523.424 525.352 524.507 527.891 526.672C530.429 528.837 531.699 532.216 531.699 536.808V554H523.523ZM514.339 554.448C511.987 554.448 509.971 554.056 508.291 553.272C506.611 552.451 505.323 551.349 504.427 549.968C503.531 548.587 503.083 547.037 503.083 545.32C503.083 543.528 503.512 541.96 504.371 540.616C505.267 539.272 506.667 538.227 508.571 537.48C510.475 536.696 512.957 536.304 516.019 536.304H524.027V541.4H516.971C514.917 541.4 513.499 541.736 512.715 542.408C511.968 543.08 511.595 543.92 511.595 544.928C511.595 546.048 512.024 546.944 512.883 547.616C513.779 548.251 514.992 548.568 516.523 548.568C517.979 548.568 519.285 548.232 520.443 547.56C521.6 546.851 522.44 545.824 522.963 544.48L524.307 548.512C523.672 550.453 522.515 551.928 520.835 552.936C519.155 553.944 516.989 554.448 514.339 554.448ZM541.285 554V512.448H550.021V554H541.285ZM231.032 638V596.448H239.768V638H231.032ZM264.508 638.448C261.073 638.448 258.049 637.776 255.436 636.432C252.86 635.088 250.862 633.259 249.444 630.944C248.025 628.592 247.316 625.923 247.316 622.936C247.316 619.912 248.006 617.243 249.388 614.928C250.806 612.576 252.729 610.747 255.156 609.44C257.582 608.096 260.326 607.424 263.388 607.424C266.337 607.424 268.988 608.059 271.34 609.328C273.729 610.56 275.614 612.352 276.996 614.704C278.377 617.019 279.068 619.8 279.068 623.048C279.068 623.384 279.049 623.776 279.012 624.224C278.974 624.635 278.937 625.027 278.9 625.4H254.428V620.304H274.308L270.948 621.816C270.948 620.248 270.63 618.885 269.996 617.728C269.361 616.571 268.484 615.675 267.364 615.04C266.244 614.368 264.937 614.032 263.444 614.032C261.95 614.032 260.625 614.368 259.468 615.04C258.348 615.675 257.47 616.589 256.836 617.784C256.201 618.941 255.884 620.323 255.884 621.928V623.272C255.884 624.915 256.238 626.371 256.948 627.64C257.694 628.872 258.721 629.824 260.028 630.496C261.372 631.131 262.94 631.448 264.732 631.448C266.337 631.448 267.737 631.205 268.932 630.72C270.164 630.235 271.284 629.507 272.292 628.536L276.94 633.576C275.558 635.144 273.822 636.357 271.732 637.216C269.641 638.037 267.233 638.448 264.508 638.448ZM294.193 638L281.537 607.872H290.553L301.081 633.8H296.601L307.521 607.872H315.921L303.209 638H294.193ZM335.297 638.448C331.863 638.448 328.839 637.776 326.225 636.432C323.649 635.088 321.652 633.259 320.233 630.944C318.815 628.592 318.105 625.923 318.105 622.936C318.105 619.912 318.796 617.243 320.177 614.928C321.596 612.576 323.519 610.747 325.945 609.44C328.372 608.096 331.116 607.424 334.177 607.424C337.127 607.424 339.777 608.059 342.129 609.328C344.519 610.56 346.404 612.352 347.785 614.704C349.167 617.019 349.857 619.8 349.857 623.048C349.857 623.384 349.839 623.776 349.801 624.224C349.764 624.635 349.727 625.027 349.689 625.4H325.217V620.304H345.097L341.737 621.816C341.737 620.248 341.42 618.885 340.785 617.728C340.151 616.571 339.273 615.675 338.153 615.04C337.033 614.368 335.727 614.032 334.233 614.032C332.74 614.032 331.415 614.368 330.257 615.04C329.137 615.675 328.26 616.589 327.625 617.784C326.991 618.941 326.673 620.323 326.673 621.928V623.272C326.673 624.915 327.028 626.371 327.737 627.64C328.484 628.872 329.511 629.824 330.817 630.496C332.161 631.131 333.729 631.448 335.521 631.448C337.127 631.448 338.527 631.205 339.721 630.72C340.953 630.235 342.073 629.507 343.081 628.536L347.729 633.576C346.348 635.144 344.612 636.357 342.521 637.216C340.431 638.037 338.023 638.448 335.297 638.448ZM357.354 638V596.448H366.09V638H357.354ZM386.013 638.448C383.437 638.448 380.955 638.149 378.565 637.552C376.213 636.917 374.347 636.133 372.965 635.2L375.877 628.928C377.259 629.787 378.883 630.496 380.749 631.056C382.653 631.579 384.52 631.84 386.349 631.84C388.365 631.84 389.784 631.597 390.605 631.112C391.464 630.627 391.893 629.955 391.893 629.096C391.893 628.387 391.557 627.864 390.885 627.528C390.251 627.155 389.392 626.875 388.309 626.688C387.227 626.501 386.032 626.315 384.725 626.128C383.456 625.941 382.168 625.699 380.861 625.4C379.555 625.064 378.36 624.579 377.277 623.944C376.195 623.309 375.317 622.451 374.645 621.368C374.011 620.285 373.693 618.885 373.693 617.168C373.693 615.264 374.235 613.584 375.317 612.128C376.437 610.672 378.043 609.533 380.133 608.712C382.224 607.853 384.725 607.424 387.637 607.424C389.691 607.424 391.781 607.648 393.909 608.096C396.037 608.544 397.811 609.197 399.229 610.056L396.317 616.272C394.861 615.413 393.387 614.835 391.893 614.536C390.437 614.2 389.019 614.032 387.637 614.032C385.696 614.032 384.277 614.293 383.381 614.816C382.485 615.339 382.037 616.011 382.037 616.832C382.037 617.579 382.355 618.139 382.989 618.512C383.661 618.885 384.539 619.184 385.621 619.408C386.704 619.632 387.88 619.837 389.149 620.024C390.456 620.173 391.763 620.416 393.069 620.752C394.376 621.088 395.552 621.573 396.597 622.208C397.68 622.805 398.557 623.645 399.229 624.728C399.901 625.773 400.237 627.155 400.237 628.872C400.237 630.739 399.677 632.4 398.557 633.856C397.437 635.275 395.813 636.395 393.685 637.216C391.595 638.037 389.037 638.448 386.013 638.448Z" fill="black"/>
</svg>
