<svg width="1764" height="200" viewBox="0 0 1764 200" fill="none" xmlns="http://www.w3.org/2000/svg">
<g clip-path="url(#clip0_1337_209)">
<path d="M365.047 165V39H394.207V165H365.047ZM551.55 66.72C559.23 66.72 566.01 68.28 571.89 71.4C577.89 74.4 582.57 79.08 585.93 85.44C589.41 91.68 591.15 99.72 591.15 109.56V165H563.07V113.88C563.07 106.08 561.45 100.32 558.21 96.6C554.97 92.88 550.41 91.02 544.53 91.02C540.45 91.02 536.79 91.98 533.55 93.9C530.31 95.7 527.79 98.46 525.99 102.18C524.19 105.9 523.29 110.64 523.29 116.4V165H495.21V113.88C495.21 106.08 493.59 100.32 490.35 96.6C487.23 92.88 482.73 91.02 476.85 91.02C472.77 91.02 469.11 91.98 465.87 93.9C462.63 95.7 460.11 98.46 458.31 102.18C456.51 105.9 455.61 110.64 455.61 116.4V165H427.53V68.16H454.35V94.62L449.31 86.88C452.67 80.28 457.41 75.3 463.53 71.94C469.77 68.46 476.85 66.72 484.77 66.72C493.65 66.72 501.39 69 507.99 73.56C514.71 78 519.15 84.84 521.31 94.08L511.41 91.38C514.65 83.82 519.81 77.82 526.89 73.38C534.09 68.94 542.31 66.72 551.55 66.72ZM745.739 66.72C753.419 66.72 760.199 68.28 766.079 71.4C772.079 74.4 776.759 79.08 780.119 85.44C783.599 91.68 785.339 99.72 785.339 109.56V165H757.259V113.88C757.259 106.08 755.639 100.32 752.399 96.6C749.159 92.88 744.599 91.02 738.719 91.02C734.639 91.02 730.979 91.98 727.739 93.9C724.499 95.7 721.979 98.46 720.179 102.18C718.379 105.9 717.479 110.64 717.479 116.4V165H689.399V113.88C689.399 106.08 687.779 100.32 684.539 96.6C681.419 92.88 676.919 91.02 671.039 91.02C666.959 91.02 663.299 91.98 660.059 93.9C656.819 95.7 654.299 98.46 652.499 102.18C650.699 105.9 649.799 110.64 649.799 116.4V165H621.719V68.16H648.539V94.62L643.499 86.88C646.859 80.28 651.599 75.3 657.719 71.94C663.959 68.46 671.039 66.72 678.959 66.72C687.839 66.72 695.579 69 702.179 73.56C708.899 78 713.339 84.84 715.499 94.08L705.599 91.38C708.839 83.82 713.999 77.82 721.079 73.38C728.279 68.94 736.499 66.72 745.739 66.72ZM864.671 166.44C853.631 166.44 843.911 164.28 835.511 159.96C827.231 155.64 820.811 149.76 816.251 142.32C811.691 134.76 809.411 126.18 809.411 116.58C809.411 106.86 811.631 98.28 816.071 90.84C820.631 83.28 826.811 77.4 834.611 73.2C842.411 68.88 851.231 66.72 861.071 66.72C870.551 66.72 879.071 68.76 886.631 72.84C894.311 76.8 900.371 82.56 904.811 90.12C909.251 97.56 911.471 106.5 911.471 116.94C911.471 118.02 911.411 119.28 911.291 120.72C911.171 122.04 911.051 123.3 910.931 124.5H832.271V108.12H896.171L885.371 112.98C885.371 107.94 884.351 103.56 882.311 99.84C880.271 96.12 877.451 93.24 873.851 91.2C870.251 89.04 866.051 87.96 861.251 87.96C856.451 87.96 852.191 89.04 848.471 91.2C844.871 93.24 842.051 96.18 840.011 100.02C837.971 103.74 836.951 108.18 836.951 113.34V117.66C836.951 122.94 838.091 127.62 840.371 131.7C842.771 135.66 846.071 138.72 850.271 140.88C854.591 142.92 859.631 143.94 865.391 143.94C870.551 143.94 875.051 143.16 878.891 141.6C882.851 140.04 886.451 137.7 889.691 134.58L904.631 150.78C900.191 155.82 894.611 159.72 887.891 162.48C881.171 165.12 873.431 166.44 864.671 166.44ZM935.565 165V68.16H962.385V95.52L958.605 87.6C961.485 80.76 966.105 75.6 972.465 72.12C978.825 68.52 986.565 66.72 995.685 66.72V92.64C994.485 92.52 993.405 92.46 992.445 92.46C991.485 92.34 990.465 92.28 989.385 92.28C981.705 92.28 975.465 94.5 970.665 98.94C965.985 103.26 963.645 110.04 963.645 119.28V165H935.565ZM1051.07 166.44C1042.79 166.44 1034.81 165.48 1027.13 163.56C1019.57 161.52 1013.57 159 1009.13 156L1018.49 135.84C1022.93 138.6 1028.15 140.88 1034.15 142.68C1040.27 144.36 1046.27 145.2 1052.15 145.2C1058.63 145.2 1063.19 144.42 1065.83 142.86C1068.59 141.3 1069.97 139.14 1069.97 136.38C1069.97 134.1 1068.89 132.42 1066.73 131.34C1064.69 130.14 1061.93 129.24 1058.45 128.64C1054.97 128.04 1051.13 127.44 1046.93 126.84C1042.85 126.24 1038.71 125.46 1034.51 124.5C1030.31 123.42 1026.47 121.86 1022.99 119.82C1019.51 117.78 1016.69 115.02 1014.53 111.54C1012.49 108.06 1011.47 103.56 1011.47 98.04C1011.47 91.92 1013.21 86.52 1016.69 81.84C1020.29 77.16 1025.45 73.5 1032.17 70.86C1038.89 68.1 1046.93 66.72 1056.29 66.72C1062.89 66.72 1069.61 67.44 1076.45 68.88C1083.29 70.32 1088.99 72.42 1093.55 75.18L1084.19 95.16C1079.51 92.4 1074.77 90.54 1069.97 89.58C1065.29 88.5 1060.73 87.96 1056.29 87.96C1050.05 87.96 1045.49 88.8 1042.61 90.48C1039.73 92.16 1038.29 94.32 1038.29 96.96C1038.29 99.36 1039.31 101.16 1041.35 102.36C1043.51 103.56 1046.33 104.52 1049.81 105.24C1053.29 105.96 1057.07 106.62 1061.15 107.22C1065.35 107.7 1069.55 108.48 1073.75 109.56C1077.95 110.64 1081.73 112.2 1085.09 114.24C1088.57 116.16 1091.39 118.86 1093.55 122.34C1095.71 125.7 1096.79 130.14 1096.79 135.66C1096.79 141.66 1094.99 147 1091.39 151.68C1087.79 156.24 1082.57 159.84 1075.73 162.48C1069.01 165.12 1060.79 166.44 1051.07 166.44ZM1119.51 165V68.16H1147.59V165H1119.51ZM1133.55 54.66C1128.39 54.66 1124.19 53.16 1120.95 50.16C1117.71 47.16 1116.09 43.44 1116.09 39C1116.09 34.56 1117.71 30.84 1120.95 27.84C1124.19 24.84 1128.39 23.34 1133.55 23.34C1138.71 23.34 1142.91 24.78 1146.15 27.66C1149.39 30.42 1151.01 34.02 1151.01 38.46C1151.01 43.14 1149.39 47.04 1146.15 50.16C1143.03 53.16 1138.83 54.66 1133.55 54.66ZM1225.13 166.44C1214.81 166.44 1205.63 164.28 1197.59 159.96C1189.67 155.64 1183.37 149.76 1178.69 142.32C1174.13 134.76 1171.85 126.18 1171.85 116.58C1171.85 106.86 1174.13 98.28 1178.69 90.84C1183.37 83.28 1189.67 77.4 1197.59 73.2C1205.63 68.88 1214.81 66.72 1225.13 66.72C1235.33 66.72 1244.45 68.88 1252.49 73.2C1260.53 77.4 1266.83 83.22 1271.39 90.66C1275.95 98.1 1278.23 106.74 1278.23 116.58C1278.23 126.18 1275.95 134.76 1271.39 142.32C1266.83 149.76 1260.53 155.64 1252.49 159.96C1244.45 164.28 1235.33 166.44 1225.13 166.44ZM1225.13 143.4C1229.81 143.4 1234.01 142.32 1237.73 140.16C1241.45 138 1244.39 134.94 1246.55 130.98C1248.71 126.9 1249.79 122.1 1249.79 116.58C1249.79 110.94 1248.71 106.14 1246.55 102.18C1244.39 98.22 1241.45 95.16 1237.73 93C1234.01 90.84 1229.81 89.76 1225.13 89.76C1220.45 89.76 1216.25 90.84 1212.53 93C1208.81 95.16 1205.81 98.22 1203.53 102.18C1201.37 106.14 1200.29 110.94 1200.29 116.58C1200.29 122.1 1201.37 126.9 1203.53 130.98C1205.81 134.94 1208.81 138 1212.53 140.16C1216.25 142.32 1220.45 143.4 1225.13 143.4ZM1361.26 66.72C1368.94 66.72 1375.78 68.28 1381.78 71.4C1387.9 74.4 1392.7 79.08 1396.18 85.44C1399.66 91.68 1401.4 99.72 1401.4 109.56V165H1373.32V113.88C1373.32 106.08 1371.58 100.32 1368.1 96.6C1364.74 92.88 1359.94 91.02 1353.7 91.02C1349.26 91.02 1345.24 91.98 1341.64 93.9C1338.16 95.7 1335.4 98.52 1333.36 102.36C1331.44 106.2 1330.48 111.12 1330.48 117.12V165H1302.4V68.16H1329.22V94.98L1324.18 86.88C1327.66 80.4 1332.64 75.42 1339.12 71.94C1345.6 68.46 1352.98 66.72 1361.26 66.72Z" fill="#282828" fill-opacity="0.02"/>
<path d="M721.17 120V80.8H730.242V120H721.17ZM779.193 89.424C781.583 89.424 783.692 89.9093 785.521 90.88C787.388 91.8133 788.844 93.2693 789.889 95.248C790.972 97.1893 791.513 99.6907 791.513 102.752V120H782.777V104.096C782.777 101.669 782.273 99.8773 781.265 98.72C780.257 97.5627 778.839 96.984 777.009 96.984C775.74 96.984 774.601 97.2827 773.593 97.88C772.585 98.44 771.801 99.2987 771.241 100.456C770.681 101.613 770.401 103.088 770.401 104.88V120H761.665V104.096C761.665 101.669 761.161 99.8773 760.153 98.72C759.183 97.5627 757.783 96.984 755.953 96.984C754.684 96.984 753.545 97.2827 752.537 97.88C751.529 98.44 750.745 99.2987 750.185 100.456C749.625 101.613 749.345 103.088 749.345 104.88V120H740.609V89.872H748.953V98.104L747.385 95.696C748.431 93.6427 749.905 92.0933 751.809 91.048C753.751 89.9653 755.953 89.424 758.417 89.424C761.18 89.424 763.588 90.1333 765.641 91.552C767.732 92.9333 769.113 95.0613 769.785 97.936L766.705 97.096C767.713 94.744 769.319 92.8773 771.521 91.496C773.761 90.1147 776.319 89.424 779.193 89.424ZM839.608 89.424C841.997 89.424 844.106 89.9093 845.936 90.88C847.802 91.8133 849.258 93.2693 850.304 95.248C851.386 97.1893 851.928 99.6907 851.928 102.752V120H843.192V104.096C843.192 101.669 842.688 99.8773 841.68 98.72C840.672 97.5627 839.253 96.984 837.424 96.984C836.154 96.984 835.016 97.2827 834.008 97.88C833 98.44 832.216 99.2987 831.656 100.456C831.096 101.613 830.816 103.088 830.816 104.88V120H822.08V104.096C822.08 101.669 821.576 99.8773 820.568 98.72C819.597 97.5627 818.197 96.984 816.368 96.984C815.098 96.984 813.96 97.2827 812.952 97.88C811.944 98.44 811.16 99.2987 810.6 100.456C810.04 101.613 809.76 103.088 809.76 104.88V120H801.024V89.872H809.368V98.104L807.8 95.696C808.845 93.6427 810.32 92.0933 812.224 91.048C814.165 89.9653 816.368 89.424 818.832 89.424C821.594 89.424 824.002 90.1333 826.056 91.552C828.146 92.9333 829.528 95.0613 830.2 97.936L827.12 97.096C828.128 94.744 829.733 92.8773 831.936 91.496C834.176 90.1147 836.733 89.424 839.608 89.424ZM876.609 120.448C873.174 120.448 870.15 119.776 867.537 118.432C864.961 117.088 862.963 115.259 861.545 112.944C860.126 110.592 859.417 107.923 859.417 104.936C859.417 101.912 860.107 99.2427 861.489 96.928C862.907 94.576 864.83 92.7467 867.257 91.44C869.683 90.096 872.427 89.424 875.489 89.424C878.438 89.424 881.089 90.0587 883.441 91.328C885.83 92.56 887.715 94.352 889.097 96.704C890.478 99.0187 891.169 101.8 891.169 105.048C891.169 105.384 891.15 105.776 891.113 106.224C891.075 106.635 891.038 107.027 891.001 107.4H866.529V102.304H886.409L883.049 103.816C883.049 102.248 882.731 100.885 882.097 99.728C881.462 98.5707 880.585 97.6747 879.465 97.04C878.345 96.368 877.038 96.032 875.545 96.032C874.051 96.032 872.726 96.368 871.569 97.04C870.449 97.6747 869.571 98.5893 868.937 99.784C868.302 100.941 867.985 102.323 867.985 103.928V105.272C867.985 106.915 868.339 108.371 869.049 109.64C869.795 110.872 870.822 111.824 872.129 112.496C873.473 113.131 875.041 113.448 876.833 113.448C878.438 113.448 879.838 113.205 881.033 112.72C882.265 112.235 883.385 111.507 884.393 110.536L889.041 115.576C887.659 117.144 885.923 118.357 883.833 119.216C881.742 120.037 879.334 120.448 876.609 120.448ZM898.665 120V89.872H907.009V98.384L905.833 95.92C906.729 93.792 908.166 92.1867 910.145 91.104C912.123 89.984 914.531 89.424 917.369 89.424V97.488C916.995 97.4507 916.659 97.432 916.361 97.432C916.062 97.3947 915.745 97.376 915.409 97.376C913.019 97.376 911.078 98.0667 909.585 99.448C908.129 100.792 907.401 102.901 907.401 105.776V120H898.665ZM934.598 120.448C932.022 120.448 929.539 120.149 927.15 119.552C924.798 118.917 922.931 118.133 921.55 117.2L924.462 110.928C925.843 111.787 927.467 112.496 929.334 113.056C931.238 113.579 933.105 113.84 934.934 113.84C936.95 113.84 938.369 113.597 939.19 113.112C940.049 112.627 940.478 111.955 940.478 111.096C940.478 110.387 940.142 109.864 939.47 109.528C938.835 109.155 937.977 108.875 936.894 108.688C935.811 108.501 934.617 108.315 933.31 108.128C932.041 107.941 930.753 107.699 929.446 107.4C928.139 107.064 926.945 106.579 925.862 105.944C924.779 105.309 923.902 104.451 923.23 103.368C922.595 102.285 922.278 100.885 922.278 99.168C922.278 97.264 922.819 95.584 923.902 94.128C925.022 92.672 926.627 91.5333 928.718 90.712C930.809 89.8533 933.31 89.424 936.222 89.424C938.275 89.424 940.366 89.648 942.494 90.096C944.622 90.544 946.395 91.1973 947.814 92.056L944.902 98.272C943.446 97.4133 941.971 96.8347 940.478 96.536C939.022 96.2 937.603 96.032 936.222 96.032C934.281 96.032 932.862 96.2933 931.966 96.816C931.07 97.3387 930.622 98.0107 930.622 98.832C930.622 99.5787 930.939 100.139 931.574 100.512C932.246 100.885 933.123 101.184 934.206 101.408C935.289 101.632 936.465 101.837 937.734 102.024C939.041 102.173 940.347 102.416 941.654 102.752C942.961 103.088 944.137 103.573 945.182 104.208C946.265 104.805 947.142 105.645 947.814 106.728C948.486 107.773 948.822 109.155 948.822 110.872C948.822 112.739 948.262 114.4 947.142 115.856C946.022 117.275 944.398 118.395 942.27 119.216C940.179 120.037 937.622 120.448 934.598 120.448ZM955.892 120V89.872H964.628V120H955.892ZM960.26 85.672C958.655 85.672 957.348 85.2053 956.34 84.272C955.332 83.3387 954.828 82.1813 954.828 80.8C954.828 79.4187 955.332 78.2613 956.34 77.328C957.348 76.3947 958.655 75.928 960.26 75.928C961.865 75.928 963.172 76.376 964.18 77.272C965.188 78.1307 965.692 79.2507 965.692 80.632C965.692 82.088 965.188 83.3013 964.18 84.272C963.209 85.2053 961.903 85.672 960.26 85.672ZM988.752 120.448C985.541 120.448 982.685 119.776 980.184 118.432C977.72 117.088 975.76 115.259 974.304 112.944C972.885 110.592 972.176 107.923 972.176 104.936C972.176 101.912 972.885 99.2427 974.304 96.928C975.76 94.576 977.72 92.7467 980.184 91.44C982.685 90.096 985.541 89.424 988.752 89.424C991.925 89.424 994.762 90.096 997.264 91.44C999.765 92.7467 1001.73 94.5573 1003.14 96.872C1004.56 99.1867 1005.27 101.875 1005.27 104.936C1005.27 107.923 1004.56 110.592 1003.14 112.944C1001.73 115.259 999.765 117.088 997.264 118.432C994.762 119.776 991.925 120.448 988.752 120.448ZM988.752 113.28C990.208 113.28 991.514 112.944 992.672 112.272C993.829 111.6 994.744 110.648 995.416 109.416C996.088 108.147 996.424 106.653 996.424 104.936C996.424 103.181 996.088 101.688 995.416 100.456C994.744 99.224 993.829 98.272 992.672 97.6C991.514 96.928 990.208 96.592 988.752 96.592C987.296 96.592 985.989 96.928 984.832 97.6C983.674 98.272 982.741 99.224 982.032 100.456C981.36 101.688 981.024 103.181 981.024 104.936C981.024 106.653 981.36 108.147 982.032 109.416C982.741 110.648 983.674 111.6 984.832 112.272C985.989 112.944 987.296 113.28 988.752 113.28ZM1031.1 89.424C1033.49 89.424 1035.62 89.9093 1037.49 90.88C1039.39 91.8133 1040.88 93.2693 1041.97 95.248C1043.05 97.1893 1043.59 99.6907 1043.59 102.752V120H1034.86V104.096C1034.86 101.669 1034.31 99.8773 1033.23 98.72C1032.19 97.5627 1030.69 96.984 1028.75 96.984C1027.37 96.984 1026.12 97.2827 1025 97.88C1023.92 98.44 1023.06 99.3173 1022.42 100.512C1021.83 101.707 1021.53 103.237 1021.53 105.104V120H1012.79V89.872H1021.14V98.216L1019.57 95.696C1020.65 93.68 1022.2 92.1307 1024.22 91.048C1026.23 89.9653 1028.53 89.424 1031.1 89.424Z" fill="#282828"/>
</g>
<defs>
<clipPath id="clip0_1337_209">
<rect width="1764" height="200" fill="white"/>
</clipPath>
</defs>
</svg>
