<svg width="1764" height="200" viewBox="0 0 1764 200" fill="none" xmlns="http://www.w3.org/2000/svg">
<g clip-path="url(#clip0_1338_393)">
<path d="M261.967 165L220.747 39H250.987L286.807 150.6H271.687L309.127 39H336.127L372.127 150.6H357.547L394.267 39H422.167L380.947 165H349.627L317.767 67.08H326.047L293.287 165H261.967ZM492.563 66.72C500.243 66.72 507.083 68.28 513.083 71.4C519.203 74.4 524.003 79.08 527.483 85.44C530.963 91.68 532.703 99.72 532.703 109.56V165H504.623V113.88C504.623 106.08 502.883 100.32 499.403 96.6C496.043 92.88 491.243 91.02 485.003 91.02C480.563 91.02 476.543 91.98 472.943 93.9C469.463 95.7 466.703 98.52 464.663 102.36C462.743 106.2 461.783 111.12 461.783 117.12V165H433.703V31.44H461.783V94.98L455.483 86.88C458.963 80.4 463.943 75.42 470.423 71.94C476.903 68.46 484.283 66.72 492.563 66.72ZM612.156 165V146.1L610.356 141.96V108.12C610.356 102.12 608.496 97.44 604.776 94.08C601.176 90.72 595.596 89.04 588.036 89.04C582.876 89.04 577.776 89.88 572.736 91.56C567.816 93.12 563.616 95.28 560.136 98.04L550.056 78.42C555.336 74.7 561.696 71.82 569.136 69.78C576.576 67.74 584.136 66.72 591.816 66.72C606.576 66.72 618.036 70.2 626.196 77.16C634.356 84.12 638.436 94.98 638.436 109.74V165H612.156ZM582.636 166.44C575.076 166.44 568.596 165.18 563.196 162.66C557.796 160.02 553.656 156.48 550.776 152.04C547.896 147.6 546.456 142.62 546.456 137.1C546.456 131.34 547.836 126.3 550.596 121.98C553.476 117.66 557.976 114.3 564.096 111.9C570.216 109.38 578.196 108.12 588.036 108.12H613.776V124.5H591.096C584.496 124.5 579.936 125.58 577.416 127.74C575.016 129.9 573.816 132.6 573.816 135.84C573.816 139.44 575.196 142.32 577.956 144.48C580.836 146.52 584.736 147.54 589.656 147.54C594.336 147.54 598.536 146.46 602.256 144.3C605.976 142.02 608.676 138.72 610.356 134.4L614.676 147.36C612.636 153.6 608.916 158.34 603.516 161.58C598.116 164.82 591.156 166.44 582.636 166.44ZM698.05 166.44C686.65 166.44 677.77 163.56 671.41 157.8C665.05 151.92 661.87 143.22 661.87 131.7V46.74H689.95V131.34C689.95 135.42 691.03 138.6 693.19 140.88C695.35 143.04 698.29 144.12 702.01 144.12C706.45 144.12 710.23 142.92 713.35 140.52L720.91 160.32C718.03 162.36 714.55 163.92 710.47 165C706.51 165.96 702.37 166.44 698.05 166.44ZM646.93 91.92V70.32H714.07V91.92H646.93ZM778.829 165V39H807.989V165H778.829ZM876.088 165V31.44H904.168V165H876.088ZM972.889 166.44C961.849 166.44 952.129 164.28 943.729 159.96C935.449 155.64 929.029 149.76 924.469 142.32C919.909 134.76 917.629 126.18 917.629 116.58C917.629 106.86 919.849 98.28 924.289 90.84C928.849 83.28 935.029 77.4 942.829 73.2C950.629 68.88 959.449 66.72 969.289 66.72C978.769 66.72 987.289 68.76 994.849 72.84C1002.53 76.8 1008.59 82.56 1013.03 90.12C1017.47 97.56 1019.69 106.5 1019.69 116.94C1019.69 118.02 1019.63 119.28 1019.51 120.72C1019.39 122.04 1019.27 123.3 1019.15 124.5H940.489V108.12H1004.39L993.589 112.98C993.589 107.94 992.569 103.56 990.529 99.84C988.489 96.12 985.669 93.24 982.069 91.2C978.469 89.04 974.269 87.96 969.469 87.96C964.669 87.96 960.409 89.04 956.689 91.2C953.089 93.24 950.269 96.18 948.229 100.02C946.189 103.74 945.169 108.18 945.169 113.34V117.66C945.169 122.94 946.309 127.62 948.589 131.7C950.989 135.66 954.289 138.72 958.489 140.88C962.809 142.92 967.849 143.94 973.609 143.94C978.769 143.94 983.269 143.16 987.109 141.6C991.069 140.04 994.669 137.7 997.909 134.58L1012.85 150.78C1008.41 155.82 1002.83 159.72 996.109 162.48C989.389 165.12 981.649 166.44 972.889 166.44ZM1089.75 165V146.1L1087.95 141.96V108.12C1087.95 102.12 1086.09 97.44 1082.37 94.08C1078.77 90.72 1073.19 89.04 1065.63 89.04C1060.47 89.04 1055.37 89.88 1050.33 91.56C1045.41 93.12 1041.21 95.28 1037.73 98.04L1027.65 78.42C1032.93 74.7 1039.29 71.82 1046.73 69.78C1054.17 67.74 1061.73 66.72 1069.41 66.72C1084.17 66.72 1095.63 70.2 1103.79 77.16C1111.95 84.12 1116.03 94.98 1116.03 109.74V165H1089.75ZM1060.23 166.44C1052.67 166.44 1046.19 165.18 1040.79 162.66C1035.39 160.02 1031.25 156.48 1028.37 152.04C1025.49 147.6 1024.05 142.62 1024.05 137.1C1024.05 131.34 1025.43 126.3 1028.19 121.98C1031.07 117.66 1035.57 114.3 1041.69 111.9C1047.81 109.38 1055.79 108.12 1065.63 108.12H1091.37V124.5H1068.69C1062.09 124.5 1057.53 125.58 1055.01 127.74C1052.61 129.9 1051.41 132.6 1051.41 135.84C1051.41 139.44 1052.79 142.32 1055.55 144.48C1058.43 146.52 1062.33 147.54 1067.25 147.54C1071.93 147.54 1076.13 146.46 1079.85 144.3C1083.57 142.02 1086.27 138.72 1087.95 134.4L1092.27 147.36C1090.23 153.6 1086.51 158.34 1081.11 161.58C1075.71 164.82 1068.75 166.44 1060.23 166.44ZM1136.04 165V68.16H1162.86V95.52L1159.08 87.6C1161.96 80.76 1166.58 75.6 1172.94 72.12C1179.3 68.52 1187.04 66.72 1196.16 66.72V92.64C1194.96 92.52 1193.88 92.46 1192.92 92.46C1191.96 92.34 1190.94 92.28 1189.86 92.28C1182.18 92.28 1175.94 94.5 1171.14 98.94C1166.46 103.26 1164.12 110.04 1164.12 119.28V165H1136.04ZM1266.49 66.72C1274.17 66.72 1281.01 68.28 1287.01 71.4C1293.13 74.4 1297.93 79.08 1301.41 85.44C1304.89 91.68 1306.63 99.72 1306.63 109.56V165H1278.55V113.88C1278.55 106.08 1276.81 100.32 1273.33 96.6C1269.97 92.88 1265.17 91.02 1258.93 91.02C1254.49 91.02 1250.47 91.98 1246.87 93.9C1243.39 95.7 1240.63 98.52 1238.59 102.36C1236.67 106.2 1235.71 111.12 1235.71 117.12V165H1207.63V68.16H1234.45V94.98L1229.41 86.88C1232.89 80.4 1237.87 75.42 1244.35 71.94C1250.83 68.46 1258.21 66.72 1266.49 66.72ZM1375.45 166.44C1364.41 166.44 1354.69 164.28 1346.29 159.96C1338.01 155.64 1331.59 149.76 1327.03 142.32C1322.47 134.76 1320.19 126.18 1320.19 116.58C1320.19 106.86 1322.41 98.28 1326.85 90.84C1331.41 83.28 1337.59 77.4 1345.39 73.2C1353.19 68.88 1362.01 66.72 1371.85 66.72C1381.33 66.72 1389.85 68.76 1397.41 72.84C1405.09 76.8 1411.15 82.56 1415.59 90.12C1420.03 97.56 1422.25 106.5 1422.25 116.94C1422.25 118.02 1422.19 119.28 1422.07 120.72C1421.95 122.04 1421.83 123.3 1421.71 124.5H1343.05V108.12H1406.95L1396.15 112.98C1396.15 107.94 1395.13 103.56 1393.09 99.84C1391.05 96.12 1388.23 93.24 1384.63 91.2C1381.03 89.04 1376.83 87.96 1372.03 87.96C1367.23 87.96 1362.97 89.04 1359.25 91.2C1355.65 93.24 1352.83 96.18 1350.79 100.02C1348.75 103.74 1347.73 108.18 1347.73 113.34V117.66C1347.73 122.94 1348.87 127.62 1351.15 131.7C1353.55 135.66 1356.85 138.72 1361.05 140.88C1365.37 142.92 1370.41 143.94 1376.17 143.94C1381.33 143.94 1385.83 143.16 1389.67 141.6C1393.63 140.04 1397.23 137.7 1400.47 134.58L1415.41 150.78C1410.97 155.82 1405.39 159.72 1398.67 162.48C1391.95 165.12 1384.21 166.44 1375.45 166.44ZM1477.12 166.44C1468 166.44 1459.78 164.4 1452.46 160.32C1445.14 156.12 1439.32 150.3 1435 142.86C1430.8 135.42 1428.7 126.66 1428.7 116.58C1428.7 106.38 1430.8 97.56 1435 90.12C1439.32 82.68 1445.14 76.92 1452.46 72.84C1459.78 68.76 1468 66.72 1477.12 66.72C1485.28 66.72 1492.42 68.52 1498.54 72.12C1504.66 75.72 1509.4 81.18 1512.76 88.5C1516.12 95.82 1517.8 105.18 1517.8 116.58C1517.8 127.86 1516.18 137.22 1512.94 144.66C1509.7 151.98 1505.02 157.44 1498.9 161.04C1492.9 164.64 1485.64 166.44 1477.12 166.44ZM1481.98 143.4C1486.54 143.4 1490.68 142.32 1494.4 140.16C1498.12 138 1501.06 134.94 1503.22 130.98C1505.5 126.9 1506.64 122.1 1506.64 116.58C1506.64 110.94 1505.5 106.14 1503.22 102.18C1501.06 98.22 1498.12 95.16 1494.4 93C1490.68 90.84 1486.54 89.76 1481.98 89.76C1477.3 89.76 1473.1 90.84 1469.38 93C1465.66 95.16 1462.66 98.22 1460.38 102.18C1458.22 106.14 1457.14 110.94 1457.14 116.58C1457.14 122.1 1458.22 126.9 1460.38 130.98C1462.66 134.94 1465.66 138 1469.38 140.16C1473.1 142.32 1477.3 143.4 1481.98 143.4ZM1507.36 165V145.2L1507.9 116.4L1506.1 87.78V31.44H1534.18V165H1507.36Z" fill="#282828" fill-opacity="0.02"/>
<path d="M666.761 120L653.937 80.8H663.345L674.489 115.52H669.785L681.433 80.8H689.833L701.033 115.52H696.497L707.921 80.8H716.601L703.777 120H694.033L684.121 89.536H686.697L676.505 120H666.761ZM741.862 89.424C744.251 89.424 746.379 89.9093 748.246 90.88C750.15 91.8133 751.643 93.2693 752.726 95.248C753.808 97.1893 754.35 99.6907 754.35 102.752V120H745.614V104.096C745.614 101.669 745.072 99.8773 743.99 98.72C742.944 97.5627 741.451 96.984 739.51 96.984C738.128 96.984 736.878 97.2827 735.758 97.88C734.675 98.44 733.816 99.3173 733.182 100.512C732.584 101.707 732.286 103.237 732.286 105.104V120H723.55V78.448H732.286V98.216L730.326 95.696C731.408 93.68 732.958 92.1307 734.974 91.048C736.99 89.9653 739.286 89.424 741.862 89.424ZM782.429 120V114.12L781.869 112.832V102.304C781.869 100.437 781.29 98.9813 780.133 97.936C779.013 96.8907 777.277 96.368 774.925 96.368C773.319 96.368 771.733 96.6293 770.165 97.152C768.634 97.6373 767.327 98.3093 766.245 99.168L763.109 93.064C764.751 91.9067 766.73 91.0107 769.045 90.376C771.359 89.7413 773.711 89.424 776.101 89.424C780.693 89.424 784.258 90.5067 786.797 92.672C789.335 94.8373 790.605 98.216 790.605 102.808V120H782.429ZM773.245 120.448C770.893 120.448 768.877 120.056 767.197 119.272C765.517 118.451 764.229 117.349 763.333 115.968C762.437 114.587 761.989 113.037 761.989 111.32C761.989 109.528 762.418 107.96 763.277 106.616C764.173 105.272 765.573 104.227 767.477 103.48C769.381 102.696 771.863 102.304 774.925 102.304H782.933V107.4H775.877C773.823 107.4 772.405 107.736 771.621 108.408C770.874 109.08 770.501 109.92 770.501 110.928C770.501 112.048 770.93 112.944 771.789 113.616C772.685 114.251 773.898 114.568 775.429 114.568C776.885 114.568 778.191 114.232 779.349 113.56C780.506 112.851 781.346 111.824 781.869 110.48L783.213 114.512C782.578 116.453 781.421 117.928 779.741 118.936C778.061 119.944 775.895 120.448 773.245 120.448ZM812.511 120.448C808.964 120.448 806.202 119.552 804.223 117.76C802.244 115.931 801.255 113.224 801.255 109.64V83.208H809.991V109.528C809.991 110.797 810.327 111.787 810.999 112.496C811.671 113.168 812.586 113.504 813.743 113.504C815.124 113.504 816.3 113.131 817.271 112.384L819.623 118.544C818.727 119.179 817.644 119.664 816.375 120C815.143 120.299 813.855 120.448 812.511 120.448ZM796.607 97.264V90.544H817.495V97.264H796.607ZM844.362 120V80.8H853.434V120H844.362ZM881.341 120V78.448H890.077V120H881.341ZM914.817 120.448C911.382 120.448 908.358 119.776 905.745 118.432C903.169 117.088 901.171 115.259 899.753 112.944C898.334 110.592 897.625 107.923 897.625 104.936C897.625 101.912 898.315 99.2427 899.697 96.928C901.115 94.576 903.038 92.7467 905.465 91.44C907.891 90.096 910.635 89.424 913.697 89.424C916.646 89.424 919.297 90.0587 921.649 91.328C924.038 92.56 925.923 94.352 927.305 96.704C928.686 99.0187 929.377 101.8 929.377 105.048C929.377 105.384 929.358 105.776 929.321 106.224C929.283 106.635 929.246 107.027 929.209 107.4H904.737V102.304H924.617L921.257 103.816C921.257 102.248 920.939 100.885 920.305 99.728C919.67 98.5707 918.793 97.6747 917.673 97.04C916.553 96.368 915.246 96.032 913.753 96.032C912.259 96.032 910.934 96.368 909.777 97.04C908.657 97.6747 907.779 98.5893 907.145 99.784C906.51 100.941 906.193 102.323 906.193 103.928V105.272C906.193 106.915 906.547 108.371 907.257 109.64C908.003 110.872 909.03 111.824 910.337 112.496C911.681 113.131 913.249 113.448 915.041 113.448C916.646 113.448 918.046 113.205 919.241 112.72C920.473 112.235 921.593 111.507 922.601 110.536L927.249 115.576C925.867 117.144 924.131 118.357 922.041 119.216C919.95 120.037 917.542 120.448 914.817 120.448ZM954.532 120V114.12L953.972 112.832V102.304C953.972 100.437 953.394 98.9813 952.236 97.936C951.116 96.8907 949.38 96.368 947.028 96.368C945.423 96.368 943.836 96.6293 942.268 97.152C940.738 97.6373 939.431 98.3093 938.348 99.168L935.212 93.064C936.855 91.9067 938.834 91.0107 941.148 90.376C943.463 89.7413 945.815 89.424 948.204 89.424C952.796 89.424 956.362 90.5067 958.9 92.672C961.439 94.8373 962.708 98.216 962.708 102.808V120H954.532ZM945.348 120.448C942.996 120.448 940.98 120.056 939.3 119.272C937.62 118.451 936.332 117.349 935.436 115.968C934.54 114.587 934.092 113.037 934.092 111.32C934.092 109.528 934.522 107.96 935.38 106.616C936.276 105.272 937.676 104.227 939.58 103.48C941.484 102.696 943.967 102.304 947.028 102.304H955.036V107.4H947.98C945.927 107.4 944.508 107.736 943.724 108.408C942.978 109.08 942.604 109.92 942.604 110.928C942.604 112.048 943.034 112.944 943.892 113.616C944.788 114.251 946.002 114.568 947.532 114.568C948.988 114.568 950.295 114.232 951.452 113.56C952.61 112.851 953.45 111.824 953.972 110.48L955.316 114.512C954.682 116.453 953.524 117.928 951.844 118.936C950.164 119.944 947.999 120.448 945.348 120.448ZM972.295 120V89.872H980.639V98.384L979.463 95.92C980.359 93.792 981.796 92.1867 983.775 91.104C985.753 89.984 988.161 89.424 990.999 89.424V97.488C990.625 97.4507 990.289 97.432 989.991 97.432C989.692 97.3947 989.375 97.376 989.039 97.376C986.649 97.376 984.708 98.0667 983.215 99.448C981.759 100.792 981.031 102.901 981.031 105.776V120H972.295ZM1016.24 89.424C1018.63 89.424 1020.76 89.9093 1022.62 90.88C1024.53 91.8133 1026.02 93.2693 1027.1 95.248C1028.19 97.1893 1028.73 99.6907 1028.73 102.752V120H1019.99V104.096C1019.99 101.669 1019.45 99.8773 1018.37 98.72C1017.32 97.5627 1015.83 96.984 1013.89 96.984C1012.51 96.984 1011.26 97.2827 1010.14 97.88C1009.05 98.44 1008.19 99.3173 1007.56 100.512C1006.96 101.707 1006.66 103.237 1006.66 105.104V120H997.928V89.872H1006.27V98.216L1004.7 95.696C1005.79 93.68 1007.34 92.1307 1009.35 91.048C1011.37 89.9653 1013.66 89.424 1016.24 89.424ZM1053.5 120.448C1050.06 120.448 1047.04 119.776 1044.43 118.432C1041.85 117.088 1039.85 115.259 1038.43 112.944C1037.01 110.592 1036.31 107.923 1036.31 104.936C1036.31 101.912 1037 99.2427 1038.38 96.928C1039.8 94.576 1041.72 92.7467 1044.15 91.44C1046.57 90.096 1049.32 89.424 1052.38 89.424C1055.33 89.424 1057.98 90.0587 1060.33 91.328C1062.72 92.56 1064.6 94.352 1065.99 96.704C1067.37 99.0187 1068.06 101.8 1068.06 105.048C1068.06 105.384 1068.04 105.776 1068 106.224C1067.96 106.635 1067.93 107.027 1067.89 107.4H1043.42V102.304H1063.3L1059.94 103.816C1059.94 102.248 1059.62 100.885 1058.99 99.728C1058.35 98.5707 1057.47 97.6747 1056.35 97.04C1055.23 96.368 1053.93 96.032 1052.43 96.032C1050.94 96.032 1049.61 96.368 1048.46 97.04C1047.34 97.6747 1046.46 98.5893 1045.83 99.784C1045.19 100.941 1044.87 102.323 1044.87 103.928V105.272C1044.87 106.915 1045.23 108.371 1045.94 109.64C1046.68 110.872 1047.71 111.824 1049.02 112.496C1050.36 113.131 1051.93 113.448 1053.72 113.448C1055.33 113.448 1056.73 113.205 1057.92 112.72C1059.15 112.235 1060.27 111.507 1061.28 110.536L1065.93 115.576C1064.55 117.144 1062.81 118.357 1060.72 119.216C1058.63 120.037 1056.22 120.448 1053.5 120.448ZM1088.49 120.448C1085.65 120.448 1083.09 119.813 1080.82 118.544C1078.54 117.237 1076.73 115.427 1075.39 113.112C1074.08 110.797 1073.43 108.072 1073.43 104.936C1073.43 101.763 1074.08 99.0187 1075.39 96.704C1076.73 94.3893 1078.54 92.5973 1080.82 91.328C1083.09 90.0587 1085.65 89.424 1088.49 89.424C1091.03 89.424 1093.25 89.984 1095.15 91.104C1097.06 92.224 1098.53 93.9227 1099.58 96.2C1100.62 98.4773 1101.15 101.389 1101.15 104.936C1101.15 108.445 1100.64 111.357 1099.63 113.672C1098.63 115.949 1097.17 117.648 1095.27 118.768C1093.4 119.888 1091.14 120.448 1088.49 120.448ZM1090 113.28C1091.42 113.28 1092.71 112.944 1093.87 112.272C1095.02 111.6 1095.94 110.648 1096.61 109.416C1097.32 108.147 1097.67 106.653 1097.67 104.936C1097.67 103.181 1097.32 101.688 1096.61 100.456C1095.94 99.224 1095.02 98.272 1093.87 97.6C1092.71 96.928 1091.42 96.592 1090 96.592C1088.55 96.592 1087.24 96.928 1086.08 97.6C1084.92 98.272 1083.99 99.224 1083.28 100.456C1082.61 101.688 1082.27 103.181 1082.27 104.936C1082.27 106.653 1082.61 108.147 1083.28 109.416C1083.99 110.648 1084.92 111.6 1086.08 112.272C1087.24 112.944 1088.55 113.28 1090 113.28ZM1097.9 120V113.84L1098.07 104.88L1097.51 95.976V78.448H1106.24V120H1097.9Z" fill="#282828"/>
</g>
<defs>
<clipPath id="clip0_1338_393">
<rect width="1764" height="200" fill="white"/>
</clipPath>
</defs>
</svg>
