<svg width="1764" height="200" viewBox="0 0 1764 200" fill="none" xmlns="http://www.w3.org/2000/svg">
<g clip-path="url(#clip0_1338_347)">
<path d="M682.94 165V39H712.1V141.24H775.28V165H682.94ZM824.526 166.44C816.486 166.44 809.286 164.88 802.926 161.76C796.686 158.64 791.826 153.9 788.346 147.54C784.866 141.06 783.126 132.84 783.126 122.88V68.16H811.206V118.74C811.206 126.78 812.886 132.72 816.246 136.56C819.726 140.28 824.586 142.14 830.826 142.14C835.146 142.14 838.986 141.24 842.346 139.44C845.706 137.52 848.346 134.64 850.266 130.8C852.186 126.84 853.146 121.92 853.146 116.04V68.16H881.226V165H854.586V138.36L859.446 146.1C856.206 152.82 851.406 157.92 845.046 161.4C838.806 164.76 831.966 166.44 824.526 166.44ZM948.64 166.44C938.2 166.44 928.9 164.34 920.74 160.14C912.58 155.82 906.16 149.88 901.48 142.32C896.92 134.76 894.64 126.18 894.64 116.58C894.64 106.86 896.92 98.28 901.48 90.84C906.16 83.28 912.58 77.4 920.74 73.2C928.9 68.88 938.2 66.72 948.64 66.72C958.84 66.72 967.72 68.88 975.28 73.2C982.84 77.4 988.42 83.46 992.02 91.38L970.24 103.08C967.72 98.52 964.54 95.16 960.7 93C956.98 90.84 952.9 89.76 948.46 89.76C943.66 89.76 939.34 90.84 935.5 93C931.66 95.16 928.6 98.22 926.32 102.18C924.16 106.14 923.08 110.94 923.08 116.58C923.08 122.22 924.16 127.02 926.32 130.98C928.6 134.94 931.66 138 935.5 140.16C939.34 142.32 943.66 143.4 948.46 143.4C952.9 143.4 956.98 142.38 960.7 140.34C964.54 138.18 967.72 134.76 970.24 130.08L992.02 141.96C988.42 149.76 982.84 155.82 975.28 160.14C967.72 164.34 958.84 166.44 948.64 166.44ZM1013.62 201.36C1008.58 201.36 1003.6 200.58 998.681 199.02C993.761 197.46 989.741 195.3 986.621 192.54L996.881 172.56C999.041 174.48 1001.5 175.98 1004.26 177.06C1007.14 178.14 1009.96 178.68 1012.72 178.68C1016.68 178.68 1019.8 177.72 1022.08 175.8C1024.48 174 1026.64 170.94 1028.56 166.62L1033.6 154.74L1035.76 151.68L1070.5 68.16H1097.5L1053.76 170.94C1050.64 178.74 1047.04 184.86 1042.96 189.3C1039 193.74 1034.56 196.86 1029.64 198.66C1024.84 200.46 1019.5 201.36 1013.62 201.36ZM1030.18 168.78L986.981 68.16H1015.96L1049.44 149.16L1030.18 168.78Z" fill="#282828" fill-opacity="0.02"/>
<path d="M814.53 120V80.8H823.602V112.608H843.258V120H814.53ZM861.939 120.448C859.438 120.448 857.198 119.963 855.219 118.992C853.278 118.021 851.766 116.547 850.683 114.568C849.6 112.552 849.059 109.995 849.059 106.896V89.872H857.795V105.608C857.795 108.109 858.318 109.957 859.363 111.152C860.446 112.309 861.958 112.888 863.899 112.888C865.243 112.888 866.438 112.608 867.483 112.048C868.528 111.451 869.35 110.555 869.947 109.36C870.544 108.128 870.843 106.597 870.843 104.768V89.872H879.579V120H871.291V111.712L872.803 114.12C871.795 116.211 870.302 117.797 868.323 118.88C866.382 119.925 864.254 120.448 861.939 120.448ZM903.912 120.448C900.664 120.448 897.771 119.795 895.232 118.488C892.694 117.144 890.696 115.296 889.24 112.944C887.822 110.592 887.112 107.923 887.112 104.936C887.112 101.912 887.822 99.2427 889.24 96.928C890.696 94.576 892.694 92.7467 895.232 91.44C897.771 90.096 900.664 89.424 903.912 89.424C907.086 89.424 909.848 90.096 912.2 91.44C914.552 92.7467 916.288 94.632 917.408 97.096L910.632 100.736C909.848 99.3173 908.859 98.272 907.664 97.6C906.507 96.928 905.238 96.592 903.856 96.592C902.363 96.592 901.019 96.928 899.824 97.6C898.63 98.272 897.678 99.224 896.968 100.456C896.296 101.688 895.96 103.181 895.96 104.936C895.96 106.691 896.296 108.184 896.968 109.416C897.678 110.648 898.63 111.6 899.824 112.272C901.019 112.944 902.363 113.28 903.856 113.28C905.238 113.28 906.507 112.963 907.664 112.328C908.859 111.656 909.848 110.592 910.632 109.136L917.408 112.832C916.288 115.259 914.552 117.144 912.2 118.488C909.848 119.795 907.086 120.448 903.912 120.448ZM927.489 131.312C925.921 131.312 924.372 131.069 922.841 130.584C921.31 130.099 920.06 129.427 919.089 128.568L922.281 122.352C922.953 122.949 923.718 123.416 924.577 123.752C925.473 124.088 926.35 124.256 927.209 124.256C928.441 124.256 929.412 123.957 930.121 123.36C930.868 122.8 931.54 121.848 932.137 120.504L933.705 116.808L934.377 115.856L945.185 89.872H953.585L939.977 121.848C939.006 124.275 937.886 126.179 936.617 127.56C935.385 128.941 934.004 129.912 932.473 130.472C930.98 131.032 929.318 131.312 927.489 131.312ZM932.641 121.176L919.201 89.872H928.217L938.633 115.072L932.641 121.176Z" fill="#282828"/>
</g>
<defs>
<clipPath id="clip0_1338_347">
<rect width="1764" height="200" fill="white"/>
</clipPath>
</defs>
</svg>
