<svg width="1764" height="200" viewBox="0 0 1764 200" fill="none" xmlns="http://www.w3.org/2000/svg">
<g clip-path="url(#clip0_1337_252)">
<path d="M88.721 165L47.501 39H77.741L113.561 150.6H98.441L135.881 39H162.881L198.881 150.6H184.301L221.021 39H248.921L207.701 165H176.381L144.521 67.08H152.801L120.041 165H88.721ZM330.116 66.72C337.796 66.72 344.636 68.28 350.636 71.4C356.756 74.4 361.556 79.08 365.036 85.44C368.516 91.68 370.256 99.72 370.256 109.56V165H342.176V113.88C342.176 106.08 340.436 100.32 336.956 96.6C333.596 92.88 328.796 91.02 322.556 91.02C318.116 91.02 314.096 91.98 310.496 93.9C307.016 95.7 304.256 98.52 302.216 102.36C300.296 106.2 299.336 111.12 299.336 117.12V165H271.256V31.44H299.336V94.98L293.036 86.88C296.516 80.4 301.496 75.42 307.976 71.94C314.456 68.46 321.836 66.72 330.116 66.72ZM447.893 166.44C437.573 166.44 428.393 164.28 420.353 159.96C412.433 155.64 406.133 149.76 401.453 142.32C396.893 134.76 394.613 126.18 394.613 116.58C394.613 106.86 396.893 98.28 401.453 90.84C406.133 83.28 412.433 77.4 420.353 73.2C428.393 68.88 437.573 66.72 447.893 66.72C458.093 66.72 467.213 68.88 475.253 73.2C483.293 77.4 489.593 83.22 494.153 90.66C498.713 98.1 500.993 106.74 500.993 116.58C500.993 126.18 498.713 134.76 494.153 142.32C489.593 149.76 483.293 155.64 475.253 159.96C467.213 164.28 458.093 166.44 447.893 166.44ZM447.893 143.4C452.573 143.4 456.773 142.32 460.493 140.16C464.213 138 467.153 134.94 469.313 130.98C471.473 126.9 472.553 122.1 472.553 116.58C472.553 110.94 471.473 106.14 469.313 102.18C467.153 98.22 464.213 95.16 460.493 93C456.773 90.84 452.573 89.76 447.893 89.76C443.213 89.76 439.013 90.84 435.293 93C431.573 95.16 428.573 98.22 426.293 102.18C424.133 106.14 423.053 110.94 423.053 116.58C423.053 122.1 424.133 126.9 426.293 130.98C428.573 134.94 431.573 138 435.293 140.16C439.013 142.32 443.213 143.4 447.893 143.4ZM628.338 166.44C617.898 166.44 608.598 164.34 600.438 160.14C592.278 155.82 585.858 149.88 581.178 142.32C576.618 134.76 574.338 126.18 574.338 116.58C574.338 106.86 576.618 98.28 581.178 90.84C585.858 83.28 592.278 77.4 600.438 73.2C608.598 68.88 617.898 66.72 628.338 66.72C638.538 66.72 647.418 68.88 654.978 73.2C662.538 77.4 668.118 83.46 671.718 91.38L649.938 103.08C647.418 98.52 644.238 95.16 640.398 93C636.678 90.84 632.598 89.76 628.158 89.76C623.358 89.76 619.038 90.84 615.198 93C611.358 95.16 608.298 98.22 606.018 102.18C603.858 106.14 602.778 110.94 602.778 116.58C602.778 122.22 603.858 127.02 606.018 130.98C608.298 134.94 611.358 138 615.198 140.16C619.038 142.32 623.358 143.4 628.158 143.4C632.598 143.4 636.678 142.38 640.398 140.34C644.238 138.18 647.418 134.76 649.938 130.08L671.718 141.96C668.118 149.76 662.538 155.82 654.978 160.14C647.418 164.34 638.538 166.44 628.338 166.44ZM738.136 166.44C727.816 166.44 718.636 164.28 710.596 159.96C702.676 155.64 696.376 149.76 691.696 142.32C687.136 134.76 684.856 126.18 684.856 116.58C684.856 106.86 687.136 98.28 691.696 90.84C696.376 83.28 702.676 77.4 710.596 73.2C718.636 68.88 727.816 66.72 738.136 66.72C748.336 66.72 757.456 68.88 765.496 73.2C773.536 77.4 779.836 83.22 784.396 90.66C788.956 98.1 791.236 106.74 791.236 116.58C791.236 126.18 788.956 134.76 784.396 142.32C779.836 149.76 773.536 155.64 765.496 159.96C757.456 164.28 748.336 166.44 738.136 166.44ZM738.136 143.4C742.816 143.4 747.016 142.32 750.736 140.16C754.456 138 757.396 134.94 759.556 130.98C761.716 126.9 762.796 122.1 762.796 116.58C762.796 110.94 761.716 106.14 759.556 102.18C757.396 98.22 754.456 95.16 750.736 93C747.016 90.84 742.816 89.76 738.136 89.76C733.456 89.76 729.256 90.84 725.536 93C721.816 95.16 718.816 98.22 716.536 102.18C714.376 106.14 713.296 110.94 713.296 116.58C713.296 122.1 714.376 126.9 716.536 130.98C718.816 134.94 721.816 138 725.536 140.16C729.256 142.32 733.456 143.4 738.136 143.4ZM856.265 166.44C848.225 166.44 841.025 164.88 834.665 161.76C828.425 158.64 823.565 153.9 820.085 147.54C816.605 141.06 814.865 132.84 814.865 122.88V68.16H842.945V118.74C842.945 126.78 844.625 132.72 847.985 136.56C851.465 140.28 856.325 142.14 862.565 142.14C866.885 142.14 870.725 141.24 874.085 139.44C877.445 137.52 880.085 134.64 882.005 130.8C883.925 126.84 884.885 121.92 884.885 116.04V68.16H912.965V165H886.325V138.36L891.185 146.1C887.945 152.82 883.145 157.92 876.785 161.4C870.545 164.76 863.705 166.44 856.265 166.44ZM944.379 165V31.44H972.459V165H944.379ZM1045.5 166.44C1036.38 166.44 1028.16 164.4 1020.84 160.32C1013.52 156.12 1007.7 150.3 1003.38 142.86C999.18 135.42 997.08 126.66 997.08 116.58C997.08 106.38 999.18 97.56 1003.38 90.12C1007.7 82.68 1013.52 76.92 1020.84 72.84C1028.16 68.76 1036.38 66.72 1045.5 66.72C1053.66 66.72 1060.8 68.52 1066.92 72.12C1073.04 75.72 1077.78 81.18 1081.14 88.5C1084.5 95.82 1086.18 105.18 1086.18 116.58C1086.18 127.86 1084.56 137.22 1081.32 144.66C1078.08 151.98 1073.4 157.44 1067.28 161.04C1061.28 164.64 1054.02 166.44 1045.5 166.44ZM1050.36 143.4C1054.92 143.4 1059.06 142.32 1062.78 140.16C1066.5 138 1069.44 134.94 1071.6 130.98C1073.88 126.9 1075.02 122.1 1075.02 116.58C1075.02 110.94 1073.88 106.14 1071.6 102.18C1069.44 98.22 1066.5 95.16 1062.78 93C1059.06 90.84 1054.92 89.76 1050.36 89.76C1045.68 89.76 1041.48 90.84 1037.76 93C1034.04 95.16 1031.04 98.22 1028.76 102.18C1026.6 106.14 1025.52 110.94 1025.52 116.58C1025.52 122.1 1026.6 126.9 1028.76 130.98C1031.04 134.94 1034.04 138 1037.76 140.16C1041.48 142.32 1045.68 143.4 1050.36 143.4ZM1075.74 165V145.2L1076.28 116.4L1074.48 87.78V31.44H1102.56V165H1075.74ZM1231.19 166.44C1223.15 166.44 1215.95 164.88 1209.59 161.76C1203.35 158.64 1198.49 153.9 1195.01 147.54C1191.53 141.06 1189.79 132.84 1189.79 122.88V68.16H1217.87V118.74C1217.87 126.78 1219.55 132.72 1222.91 136.56C1226.39 140.28 1231.25 142.14 1237.49 142.14C1241.81 142.14 1245.65 141.24 1249.01 139.44C1252.37 137.52 1255.01 134.64 1256.93 130.8C1258.85 126.84 1259.81 121.92 1259.81 116.04V68.16H1287.89V165H1261.25V138.36L1266.11 146.1C1262.87 152.82 1258.07 157.92 1251.71 161.4C1245.47 164.76 1238.63 166.44 1231.19 166.44ZM1351.88 166.44C1343.6 166.44 1335.62 165.48 1327.94 163.56C1320.38 161.52 1314.38 159 1309.94 156L1319.3 135.84C1323.74 138.6 1328.96 140.88 1334.96 142.68C1341.08 144.36 1347.08 145.2 1352.96 145.2C1359.44 145.2 1364 144.42 1366.64 142.86C1369.4 141.3 1370.78 139.14 1370.78 136.38C1370.78 134.1 1369.7 132.42 1367.54 131.34C1365.5 130.14 1362.74 129.24 1359.26 128.64C1355.78 128.04 1351.94 127.44 1347.74 126.84C1343.66 126.24 1339.52 125.46 1335.32 124.5C1331.12 123.42 1327.28 121.86 1323.8 119.82C1320.32 117.78 1317.5 115.02 1315.34 111.54C1313.3 108.06 1312.28 103.56 1312.28 98.04C1312.28 91.92 1314.02 86.52 1317.5 81.84C1321.1 77.16 1326.26 73.5 1332.98 70.86C1339.7 68.1 1347.74 66.72 1357.1 66.72C1363.7 66.72 1370.42 67.44 1377.26 68.88C1384.1 70.32 1389.8 72.42 1394.36 75.18L1385 95.16C1380.32 92.4 1375.58 90.54 1370.78 89.58C1366.1 88.5 1361.54 87.96 1357.1 87.96C1350.86 87.96 1346.3 88.8 1343.42 90.48C1340.54 92.16 1339.1 94.32 1339.1 96.96C1339.1 99.36 1340.12 101.16 1342.16 102.36C1344.32 103.56 1347.14 104.52 1350.62 105.24C1354.1 105.96 1357.88 106.62 1361.96 107.22C1366.16 107.7 1370.36 108.48 1374.56 109.56C1378.76 110.64 1382.54 112.2 1385.9 114.24C1389.38 116.16 1392.2 118.86 1394.36 122.34C1396.52 125.7 1397.6 130.14 1397.6 135.66C1397.6 141.66 1395.8 147 1392.2 151.68C1388.6 156.24 1383.38 159.84 1376.54 162.48C1369.82 165.12 1361.6 166.44 1351.88 166.44ZM1468.38 166.44C1457.34 166.44 1447.62 164.28 1439.22 159.96C1430.94 155.64 1424.52 149.76 1419.96 142.32C1415.4 134.76 1413.12 126.18 1413.12 116.58C1413.12 106.86 1415.34 98.28 1419.78 90.84C1424.34 83.28 1430.52 77.4 1438.32 73.2C1446.12 68.88 1454.94 66.72 1464.78 66.72C1474.26 66.72 1482.78 68.76 1490.34 72.84C1498.02 76.8 1504.08 82.56 1508.52 90.12C1512.96 97.56 1515.18 106.5 1515.18 116.94C1515.18 118.02 1515.12 119.28 1515 120.72C1514.88 122.04 1514.76 123.3 1514.64 124.5H1435.98V108.12H1499.88L1489.08 112.98C1489.08 107.94 1488.06 103.56 1486.02 99.84C1483.98 96.12 1481.16 93.24 1477.56 91.2C1473.96 89.04 1469.76 87.96 1464.96 87.96C1460.16 87.96 1455.9 89.04 1452.18 91.2C1448.58 93.24 1445.76 96.18 1443.72 100.02C1441.68 103.74 1440.66 108.18 1440.66 113.34V117.66C1440.66 122.94 1441.8 127.62 1444.08 131.7C1446.48 135.66 1449.78 138.72 1453.98 140.88C1458.3 142.92 1463.34 143.94 1469.1 143.94C1474.26 143.94 1478.76 143.16 1482.6 141.6C1486.56 140.04 1490.16 137.7 1493.4 134.58L1508.34 150.78C1503.9 155.82 1498.32 159.72 1491.6 162.48C1484.88 165.12 1477.14 166.44 1468.38 166.44ZM1595.66 165V68.16H1623.74V165H1595.66ZM1609.7 54.66C1604.54 54.66 1600.34 53.16 1597.1 50.16C1593.86 47.16 1592.24 43.44 1592.24 39C1592.24 34.56 1593.86 30.84 1597.1 27.84C1600.34 24.84 1604.54 23.34 1609.7 23.34C1614.86 23.34 1619.06 24.78 1622.3 27.66C1625.54 30.42 1627.16 34.02 1627.16 38.46C1627.16 43.14 1625.54 47.04 1622.3 50.16C1619.18 53.16 1614.98 54.66 1609.7 54.66ZM1694.8 166.44C1683.4 166.44 1674.52 163.56 1668.16 157.8C1661.8 151.92 1658.62 143.22 1658.62 131.7V46.74H1686.7V131.34C1686.7 135.42 1687.78 138.6 1689.94 140.88C1692.1 143.04 1695.04 144.12 1698.76 144.12C1703.2 144.12 1706.98 142.92 1710.1 140.52L1717.66 160.32C1714.78 162.36 1711.3 163.92 1707.22 165C1703.26 165.96 1699.12 166.44 1694.8 166.44ZM1643.68 91.92V70.32H1710.82V91.92H1643.68Z" fill="#282828" fill-opacity="0.02"/>
<path d="M635.202 120L622.378 80.8H631.786L642.93 115.52H638.226L649.874 80.8H658.274L669.474 115.52H664.938L676.362 80.8H685.042L672.218 120H662.474L652.562 89.536H655.138L644.946 120H635.202ZM710.303 89.424C712.692 89.424 714.82 89.9093 716.687 90.88C718.591 91.8133 720.084 93.2693 721.167 95.248C722.25 97.1893 722.791 99.6907 722.791 102.752V120H714.055V104.096C714.055 101.669 713.514 99.8773 712.431 98.72C711.386 97.5627 709.892 96.984 707.951 96.984C706.57 96.984 705.319 97.2827 704.199 97.88C703.116 98.44 702.258 99.3173 701.623 100.512C701.026 101.707 700.727 103.237 700.727 105.104V120H691.991V78.448H700.727V98.216L698.767 95.696C699.85 93.68 701.399 92.1307 703.415 91.048C705.431 89.9653 707.727 89.424 710.303 89.424ZM746.944 120.448C743.734 120.448 740.878 119.776 738.376 118.432C735.912 117.088 733.952 115.259 732.496 112.944C731.078 110.592 730.368 107.923 730.368 104.936C730.368 101.912 731.078 99.2427 732.496 96.928C733.952 94.576 735.912 92.7467 738.376 91.44C740.878 90.096 743.734 89.424 746.944 89.424C750.118 89.424 752.955 90.096 755.456 91.44C757.958 92.7467 759.918 94.5573 761.336 96.872C762.755 99.1867 763.464 101.875 763.464 104.936C763.464 107.923 762.755 110.592 761.336 112.944C759.918 115.259 757.958 117.088 755.456 118.432C752.955 119.776 750.118 120.448 746.944 120.448ZM746.944 113.28C748.4 113.28 749.707 112.944 750.864 112.272C752.022 111.6 752.936 110.648 753.608 109.416C754.28 108.147 754.616 106.653 754.616 104.936C754.616 103.181 754.28 101.688 753.608 100.456C752.936 99.224 752.022 98.272 750.864 97.6C749.707 96.928 748.4 96.592 746.944 96.592C745.488 96.592 744.182 96.928 743.024 97.6C741.867 98.272 740.934 99.224 740.224 100.456C739.552 101.688 739.216 103.181 739.216 104.936C739.216 106.653 739.552 108.147 740.224 109.416C740.934 110.648 741.867 111.6 743.024 112.272C744.182 112.944 745.488 113.28 746.944 113.28ZM803.083 120.448C799.835 120.448 796.942 119.795 794.403 118.488C791.864 117.144 789.867 115.296 788.411 112.944C786.992 110.592 786.283 107.923 786.283 104.936C786.283 101.912 786.992 99.2427 788.411 96.928C789.867 94.576 791.864 92.7467 794.403 91.44C796.942 90.096 799.835 89.424 803.083 89.424C806.256 89.424 809.019 90.096 811.371 91.44C813.723 92.7467 815.459 94.632 816.579 97.096L809.803 100.736C809.019 99.3173 808.03 98.272 806.835 97.6C805.678 96.928 804.408 96.592 803.027 96.592C801.534 96.592 800.19 96.928 798.995 97.6C797.8 98.272 796.848 99.224 796.139 100.456C795.467 101.688 795.131 103.181 795.131 104.936C795.131 106.691 795.467 108.184 796.139 109.416C796.848 110.648 797.8 111.6 798.995 112.272C800.19 112.944 801.534 113.28 803.027 113.28C804.408 113.28 805.678 112.963 806.835 112.328C808.03 111.656 809.019 110.592 809.803 109.136L816.579 112.832C815.459 115.259 813.723 117.144 811.371 118.488C809.019 119.795 806.256 120.448 803.083 120.448ZM837.242 120.448C834.032 120.448 831.176 119.776 828.674 118.432C826.21 117.088 824.25 115.259 822.794 112.944C821.376 110.592 820.666 107.923 820.666 104.936C820.666 101.912 821.376 99.2427 822.794 96.928C824.25 94.576 826.21 92.7467 828.674 91.44C831.176 90.096 834.032 89.424 837.242 89.424C840.416 89.424 843.253 90.096 845.754 91.44C848.256 92.7467 850.216 94.5573 851.634 96.872C853.053 99.1867 853.762 101.875 853.762 104.936C853.762 107.923 853.053 110.592 851.634 112.944C850.216 115.259 848.256 117.088 845.754 118.432C843.253 119.776 840.416 120.448 837.242 120.448ZM837.242 113.28C838.698 113.28 840.005 112.944 841.162 112.272C842.32 111.6 843.234 110.648 843.906 109.416C844.578 108.147 844.914 106.653 844.914 104.936C844.914 103.181 844.578 101.688 843.906 100.456C843.234 99.224 842.32 98.272 841.162 97.6C840.005 96.928 838.698 96.592 837.242 96.592C835.786 96.592 834.48 96.928 833.322 97.6C832.165 98.272 831.232 99.224 830.522 100.456C829.85 101.688 829.514 103.181 829.514 104.936C829.514 106.653 829.85 108.147 830.522 109.416C831.232 110.648 832.165 111.6 833.322 112.272C834.48 112.944 835.786 113.28 837.242 113.28ZM873.994 120.448C871.492 120.448 869.252 119.963 867.274 118.992C865.332 118.021 863.82 116.547 862.738 114.568C861.655 112.552 861.114 109.995 861.114 106.896V89.872H869.85V105.608C869.85 108.109 870.372 109.957 871.418 111.152C872.5 112.309 874.012 112.888 875.954 112.888C877.298 112.888 878.492 112.608 879.538 112.048C880.583 111.451 881.404 110.555 882.002 109.36C882.599 108.128 882.898 106.597 882.898 104.768V89.872H891.634V120H883.346V111.712L884.858 114.12C883.85 116.211 882.356 117.797 880.378 118.88C878.436 119.925 876.308 120.448 873.994 120.448ZM901.407 120V78.448H910.143V120H901.407ZM932.867 120.448C930.029 120.448 927.472 119.813 925.195 118.544C922.917 117.237 921.107 115.427 919.763 113.112C918.456 110.797 917.803 108.072 917.803 104.936C917.803 101.763 918.456 99.0187 919.763 96.704C921.107 94.3893 922.917 92.5973 925.195 91.328C927.472 90.0587 930.029 89.424 932.867 89.424C935.405 89.424 937.627 89.984 939.531 91.104C941.435 92.224 942.909 93.9227 943.955 96.2C945 98.4773 945.523 101.389 945.523 104.936C945.523 108.445 945.019 111.357 944.011 113.672C943.003 115.949 941.547 117.648 939.643 118.768C937.776 119.888 935.517 120.448 932.867 120.448ZM934.379 113.28C935.797 113.28 937.085 112.944 938.243 112.272C939.4 111.6 940.315 110.648 940.987 109.416C941.696 108.147 942.051 106.653 942.051 104.936C942.051 103.181 941.696 101.688 940.987 100.456C940.315 99.224 939.4 98.272 938.243 97.6C937.085 96.928 935.797 96.592 934.379 96.592C932.923 96.592 931.616 96.928 930.459 97.6C929.301 98.272 928.368 99.224 927.659 100.456C926.987 101.688 926.651 103.181 926.651 104.936C926.651 106.653 926.987 108.147 927.659 109.416C928.368 110.648 929.301 111.6 930.459 112.272C931.616 112.944 932.923 113.28 934.379 113.28ZM942.275 120V113.84L942.443 104.88L941.883 95.976V78.448H950.619V120H942.275ZM990.635 120.448C988.134 120.448 985.894 119.963 983.915 118.992C981.974 118.021 980.462 116.547 979.379 114.568C978.297 112.552 977.755 109.995 977.755 106.896V89.872H986.491V105.608C986.491 108.109 987.014 109.957 988.059 111.152C989.142 112.309 990.654 112.888 992.595 112.888C993.939 112.888 995.134 112.608 996.179 112.048C997.225 111.451 998.046 110.555 998.643 109.36C999.241 108.128 999.539 106.597 999.539 104.768V89.872H1008.28V120H999.987V111.712L1001.5 114.12C1000.49 116.211 998.998 117.797 997.019 118.88C995.078 119.925 992.95 120.448 990.635 120.448ZM1028.18 120.448C1025.61 120.448 1023.13 120.149 1020.74 119.552C1018.38 118.917 1016.52 118.133 1015.14 117.2L1018.05 110.928C1019.43 111.787 1021.05 112.496 1022.92 113.056C1024.82 113.579 1026.69 113.84 1028.52 113.84C1030.54 113.84 1031.96 113.597 1032.78 113.112C1033.64 112.627 1034.06 111.955 1034.06 111.096C1034.06 110.387 1033.73 109.864 1033.06 109.528C1032.42 109.155 1031.56 108.875 1030.48 108.688C1029.4 108.501 1028.2 108.315 1026.9 108.128C1025.63 107.941 1024.34 107.699 1023.03 107.4C1021.73 107.064 1020.53 106.579 1019.45 105.944C1018.37 105.309 1017.49 104.451 1016.82 103.368C1016.18 102.285 1015.86 100.885 1015.86 99.168C1015.86 97.264 1016.41 95.584 1017.49 94.128C1018.61 92.672 1020.21 91.5333 1022.3 90.712C1024.4 89.8533 1026.9 89.424 1029.81 89.424C1031.86 89.424 1033.95 89.648 1036.08 90.096C1038.21 90.544 1039.98 91.1973 1041.4 92.056L1038.49 98.272C1037.03 97.4133 1035.56 96.8347 1034.06 96.536C1032.61 96.2 1031.19 96.032 1029.81 96.032C1027.87 96.032 1026.45 96.2933 1025.55 96.816C1024.66 97.3387 1024.21 98.0107 1024.21 98.832C1024.21 99.5787 1024.53 100.139 1025.16 100.512C1025.83 100.885 1026.71 101.184 1027.79 101.408C1028.88 101.632 1030.05 101.837 1031.32 102.024C1032.63 102.173 1033.93 102.416 1035.24 102.752C1036.55 103.088 1037.72 103.573 1038.77 104.208C1039.85 104.805 1040.73 105.645 1041.4 106.728C1042.07 107.773 1042.41 109.155 1042.41 110.872C1042.41 112.739 1041.85 114.4 1040.73 115.856C1039.61 117.275 1037.98 118.395 1035.86 119.216C1033.77 120.037 1031.21 120.448 1028.18 120.448ZM1064.43 120.448C1061 120.448 1057.97 119.776 1055.36 118.432C1052.78 117.088 1050.79 115.259 1049.37 112.944C1047.95 110.592 1047.24 107.923 1047.24 104.936C1047.24 101.912 1047.93 99.2427 1049.31 96.928C1050.73 94.576 1052.65 92.7467 1055.08 91.44C1057.51 90.096 1060.25 89.424 1063.31 89.424C1066.26 89.424 1068.91 90.0587 1071.26 91.328C1073.65 92.56 1075.54 94.352 1076.92 96.704C1078.3 99.0187 1078.99 101.8 1078.99 105.048C1078.99 105.384 1078.97 105.776 1078.93 106.224C1078.9 106.635 1078.86 107.027 1078.82 107.4H1054.35V102.304H1074.23L1070.87 103.816C1070.87 102.248 1070.55 100.885 1069.92 99.728C1069.28 98.5707 1068.41 97.6747 1067.29 97.04C1066.17 96.368 1064.86 96.032 1063.37 96.032C1061.87 96.032 1060.55 96.368 1059.39 97.04C1058.27 97.6747 1057.39 98.5893 1056.76 99.784C1056.12 100.941 1055.81 102.323 1055.81 103.928V105.272C1055.81 106.915 1056.16 108.371 1056.87 109.64C1057.62 110.872 1058.64 111.824 1059.95 112.496C1061.29 113.131 1062.86 113.448 1064.65 113.448C1066.26 113.448 1067.66 113.205 1068.85 112.72C1070.09 112.235 1071.21 111.507 1072.21 110.536L1076.86 115.576C1075.48 117.144 1073.75 118.357 1071.65 119.216C1069.56 120.037 1067.16 120.448 1064.43 120.448ZM1104.03 120V89.872H1112.76V120H1104.03ZM1108.39 85.672C1106.79 85.672 1105.48 85.2053 1104.47 84.272C1103.47 83.3387 1102.96 82.1813 1102.96 80.8C1102.96 79.4187 1103.47 78.2613 1104.47 77.328C1105.48 76.3947 1106.79 75.928 1108.39 75.928C1110 75.928 1111.31 76.376 1112.31 77.272C1113.32 78.1307 1113.83 79.2507 1113.83 80.632C1113.83 82.088 1113.32 83.3013 1112.31 84.272C1111.34 85.2053 1110.04 85.672 1108.39 85.672ZM1134.87 120.448C1131.32 120.448 1128.56 119.552 1126.58 117.76C1124.6 115.931 1123.61 113.224 1123.61 109.64V83.208H1132.35V109.528C1132.35 110.797 1132.69 111.787 1133.36 112.496C1134.03 113.168 1134.94 113.504 1136.1 113.504C1137.48 113.504 1138.66 113.131 1139.63 112.384L1141.98 118.544C1141.09 119.179 1140 119.664 1138.73 120C1137.5 120.299 1136.21 120.448 1134.87 120.448ZM1118.97 97.264V90.544H1139.85V97.264H1118.97Z" fill="#282828"/>
</g>
<defs>
<clipPath id="clip0_1337_252">
<rect width="1764" height="200" fill="white"/>
</clipPath>
</defs>
</svg>
