<svg width="1764" height="200" viewBox="0 0 1764 200" fill="none" xmlns="http://www.w3.org/2000/svg">
<g clip-path="url(#clip0_1337_255)">
<path d="M53.7631 165V39H108.303C119.583 39 129.303 40.86 137.463 44.58C145.623 48.18 151.923 53.4 156.363 60.24C160.803 67.08 163.023 75.24 163.023 84.72C163.023 94.08 160.803 102.18 156.363 109.02C151.923 115.86 145.623 121.14 137.463 124.86C129.303 128.46 119.583 130.26 108.303 130.26H69.9631L82.9231 117.12V165H53.7631ZM82.9231 120.36L69.9631 106.5H106.683C115.683 106.5 122.403 104.58 126.843 100.74C131.283 96.9 133.503 91.56 133.503 84.72C133.503 77.76 131.283 72.36 126.843 68.52C122.403 64.68 115.683 62.76 106.683 62.76H69.9631L82.9231 48.9V120.36ZM176.285 165V68.16H203.105V95.52L199.325 87.6C202.205 80.76 206.825 75.6 213.185 72.12C219.545 68.52 227.285 66.72 236.405 66.72V92.64C235.205 92.52 234.125 92.46 233.165 92.46C232.205 92.34 231.185 92.28 230.105 92.28C222.425 92.28 216.185 94.5 211.385 98.94C206.705 103.26 204.365 110.04 204.365 119.28V165H176.285ZM293.079 166.44C282.759 166.44 273.579 164.28 265.539 159.96C257.619 155.64 251.319 149.76 246.639 142.32C242.079 134.76 239.799 126.18 239.799 116.58C239.799 106.86 242.079 98.28 246.639 90.84C251.319 83.28 257.619 77.4 265.539 73.2C273.579 68.88 282.759 66.72 293.079 66.72C303.279 66.72 312.399 68.88 320.439 73.2C328.479 77.4 334.779 83.22 339.339 90.66C343.899 98.1 346.179 106.74 346.179 116.58C346.179 126.18 343.899 134.76 339.339 142.32C334.779 149.76 328.479 155.64 320.439 159.96C312.399 164.28 303.279 166.44 293.079 166.44ZM293.079 143.4C297.759 143.4 301.959 142.32 305.679 140.16C309.399 138 312.339 134.94 314.499 130.98C316.659 126.9 317.739 122.1 317.739 116.58C317.739 110.94 316.659 106.14 314.499 102.18C312.339 98.22 309.399 95.16 305.679 93C301.959 90.84 297.759 89.76 293.079 89.76C288.399 89.76 284.199 90.84 280.479 93C276.759 95.16 273.759 98.22 271.479 102.18C269.319 106.14 268.239 110.94 268.239 116.58C268.239 122.1 269.319 126.9 271.479 130.98C273.759 134.94 276.759 138 280.479 140.16C284.199 142.32 288.399 143.4 293.079 143.4ZM416.788 166.44C408.268 166.44 400.948 164.64 394.828 161.04C388.708 157.44 384.028 151.98 380.788 144.66C377.548 137.22 375.928 127.86 375.928 116.58C375.928 105.18 377.608 95.82 380.968 88.5C384.448 81.18 389.248 75.72 395.368 72.12C401.488 68.52 408.628 66.72 416.788 66.72C425.908 66.72 434.068 68.76 441.268 72.84C448.588 76.92 454.348 82.68 458.548 90.12C462.868 97.56 465.028 106.38 465.028 116.58C465.028 126.66 462.868 135.42 458.548 142.86C454.348 150.3 448.588 156.12 441.268 160.32C434.068 164.4 425.908 166.44 416.788 166.44ZM359.548 165V31.44H387.628V87.78L385.828 116.4L386.368 145.2V165H359.548ZM411.928 143.4C416.608 143.4 420.748 142.32 424.348 140.16C428.068 138 431.008 134.94 433.168 130.98C435.448 126.9 436.588 122.1 436.588 116.58C436.588 110.94 435.448 106.14 433.168 102.18C431.008 98.22 428.068 95.16 424.348 93C420.748 90.84 416.608 89.76 411.928 89.76C407.248 89.76 403.048 90.84 399.328 93C395.608 95.16 392.668 98.22 390.508 102.18C388.348 106.14 387.268 110.94 387.268 116.58C387.268 122.1 388.348 126.9 390.508 130.98C392.668 134.94 395.608 138 399.328 140.16C403.048 142.32 407.248 143.4 411.928 143.4ZM478.425 165V31.44H506.505V165H478.425ZM575.226 166.44C564.186 166.44 554.466 164.28 546.066 159.96C537.786 155.64 531.366 149.76 526.806 142.32C522.246 134.76 519.966 126.18 519.966 116.58C519.966 106.86 522.186 98.28 526.626 90.84C531.186 83.28 537.366 77.4 545.166 73.2C552.966 68.88 561.786 66.72 571.626 66.72C581.106 66.72 589.626 68.76 597.186 72.84C604.866 76.8 610.926 82.56 615.366 90.12C619.806 97.56 622.026 106.5 622.026 116.94C622.026 118.02 621.966 119.28 621.846 120.72C621.726 122.04 621.606 123.3 621.486 124.5H542.826V108.12H606.726L595.926 112.98C595.926 107.94 594.906 103.56 592.866 99.84C590.826 96.12 588.006 93.24 584.406 91.2C580.806 89.04 576.606 87.96 571.806 87.96C567.006 87.96 562.746 89.04 559.026 91.2C555.426 93.24 552.606 96.18 550.566 100.02C548.526 103.74 547.506 108.18 547.506 113.34V117.66C547.506 122.94 548.646 127.62 550.926 131.7C553.326 135.66 556.626 138.72 560.826 140.88C565.146 142.92 570.186 143.94 575.946 143.94C581.106 143.94 585.606 143.16 589.446 141.6C593.406 140.04 597.006 137.7 600.246 134.58L615.186 150.78C610.746 155.82 605.166 159.72 598.446 162.48C591.726 165.12 583.986 166.44 575.226 166.44ZM759.341 66.72C767.021 66.72 773.801 68.28 779.681 71.4C785.681 74.4 790.361 79.08 793.721 85.44C797.201 91.68 798.941 99.72 798.941 109.56V165H770.861V113.88C770.861 106.08 769.241 100.32 766.001 96.6C762.761 92.88 758.201 91.02 752.321 91.02C748.241 91.02 744.581 91.98 741.341 93.9C738.101 95.7 735.581 98.46 733.781 102.18C731.981 105.9 731.081 110.64 731.081 116.4V165H703.001V113.88C703.001 106.08 701.381 100.32 698.141 96.6C695.021 92.88 690.521 91.02 684.641 91.02C680.561 91.02 676.901 91.98 673.661 93.9C670.421 95.7 667.901 98.46 666.101 102.18C664.301 105.9 663.401 110.64 663.401 116.4V165H635.321V68.16H662.141V94.62L657.101 86.88C660.461 80.28 665.201 75.3 671.321 71.94C677.561 68.46 684.641 66.72 692.561 66.72C701.441 66.72 709.181 69 715.781 73.56C722.501 78 726.941 84.84 729.101 94.08L719.201 91.38C722.441 83.82 727.601 77.82 734.681 73.38C741.881 68.94 750.101 66.72 759.341 66.72ZM905.866 166.44C896.746 166.44 888.526 164.4 881.206 160.32C873.886 156.12 868.066 150.3 863.746 142.86C859.546 135.42 857.446 126.66 857.446 116.58C857.446 106.38 859.546 97.56 863.746 90.12C868.066 82.68 873.886 76.92 881.206 72.84C888.526 68.76 896.746 66.72 905.866 66.72C914.026 66.72 921.166 68.52 927.286 72.12C933.406 75.72 938.146 81.18 941.506 88.5C944.866 95.82 946.546 105.18 946.546 116.58C946.546 127.86 944.926 137.22 941.686 144.66C938.446 151.98 933.766 157.44 927.646 161.04C921.646 164.64 914.386 166.44 905.866 166.44ZM910.726 143.4C915.286 143.4 919.426 142.32 923.146 140.16C926.866 138 929.806 134.94 931.966 130.98C934.246 126.9 935.386 122.1 935.386 116.58C935.386 110.94 934.246 106.14 931.966 102.18C929.806 98.22 926.866 95.16 923.146 93C919.426 90.84 915.286 89.76 910.726 89.76C906.046 89.76 901.846 90.84 898.126 93C894.406 95.16 891.406 98.22 889.126 102.18C886.966 106.14 885.886 110.94 885.886 116.58C885.886 122.1 886.966 126.9 889.126 130.98C891.406 134.94 894.406 138 898.126 140.16C901.846 142.32 906.046 143.4 910.726 143.4ZM936.106 165V145.2L936.646 116.4L934.846 87.78V31.44H962.926V165H936.106ZM1031.58 166.44C1020.54 166.44 1010.82 164.28 1002.42 159.96C994.135 155.64 987.715 149.76 983.155 142.32C978.595 134.76 976.315 126.18 976.315 116.58C976.315 106.86 978.535 98.28 982.975 90.84C987.535 83.28 993.715 77.4 1001.52 73.2C1009.32 68.88 1018.14 66.72 1027.98 66.72C1037.46 66.72 1045.98 68.76 1053.54 72.84C1061.22 76.8 1067.28 82.56 1071.72 90.12C1076.16 97.56 1078.38 106.5 1078.38 116.94C1078.38 118.02 1078.32 119.28 1078.2 120.72C1078.08 122.04 1077.96 123.3 1077.84 124.5H999.175V108.12H1063.08L1052.28 112.98C1052.28 107.94 1051.26 103.56 1049.22 99.84C1047.18 96.12 1044.36 93.24 1040.76 91.2C1037.16 89.04 1032.96 87.96 1028.16 87.96C1023.36 87.96 1019.1 89.04 1015.38 91.2C1011.78 93.24 1008.96 96.18 1006.92 100.02C1004.88 103.74 1003.86 108.18 1003.86 113.34V117.66C1003.86 122.94 1005 127.62 1007.28 131.7C1009.68 135.66 1012.98 138.72 1017.18 140.88C1021.5 142.92 1026.54 143.94 1032.3 143.94C1037.46 143.94 1041.96 143.16 1045.8 141.6C1049.76 140.04 1053.36 137.7 1056.6 134.58L1071.54 150.78C1067.1 155.82 1061.52 159.72 1054.8 162.48C1048.08 165.12 1040.34 166.44 1031.58 166.44ZM1095.09 165V66C1095.09 55.08 1098.33 46.38 1104.81 39.9C1111.29 33.3 1120.53 30 1132.53 30C1136.61 30 1140.51 30.42 1144.23 31.26C1148.07 32.1 1151.31 33.42 1153.95 35.22L1146.57 55.56C1145.01 54.48 1143.27 53.64 1141.35 53.04C1139.43 52.44 1137.39 52.14 1135.23 52.14C1131.15 52.14 1127.97 53.34 1125.69 55.74C1123.53 58.02 1122.45 61.5 1122.45 66.18V75.18L1123.17 87.24V165H1095.09ZM1080.15 91.92V70.32H1147.29V91.92H1080.15ZM1163.13 165V68.16H1191.21V165H1163.13ZM1177.17 54.66C1172.01 54.66 1167.81 53.16 1164.57 50.16C1161.33 47.16 1159.71 43.44 1159.71 39C1159.71 34.56 1161.33 30.84 1164.57 27.84C1167.81 24.84 1172.01 23.34 1177.17 23.34C1182.33 23.34 1186.53 24.78 1189.77 27.66C1193.01 30.42 1194.63 34.02 1194.63 38.46C1194.63 43.14 1193.01 47.04 1189.77 50.16C1186.65 53.16 1182.45 54.66 1177.17 54.66ZM1270.64 66.72C1278.32 66.72 1285.16 68.28 1291.16 71.4C1297.28 74.4 1302.08 79.08 1305.56 85.44C1309.04 91.68 1310.78 99.72 1310.78 109.56V165H1282.7V113.88C1282.7 106.08 1280.96 100.32 1277.48 96.6C1274.12 92.88 1269.32 91.02 1263.08 91.02C1258.64 91.02 1254.62 91.98 1251.02 93.9C1247.54 95.7 1244.78 98.52 1242.74 102.36C1240.82 106.2 1239.86 111.12 1239.86 117.12V165H1211.78V68.16H1238.6V94.98L1233.56 86.88C1237.04 80.4 1242.02 75.42 1248.5 71.94C1254.98 68.46 1262.36 66.72 1270.64 66.72ZM1330.83 165V68.16H1358.91V165H1330.83ZM1344.87 54.66C1339.71 54.66 1335.51 53.16 1332.27 50.16C1329.03 47.16 1327.41 43.44 1327.41 39C1327.41 34.56 1329.03 30.84 1332.27 27.84C1335.51 24.84 1339.71 23.34 1344.87 23.34C1350.03 23.34 1354.23 24.78 1357.47 27.66C1360.71 30.42 1362.33 34.02 1362.33 38.46C1362.33 43.14 1360.71 47.04 1357.47 50.16C1354.35 53.16 1350.15 54.66 1344.87 54.66ZM1419.17 166.44C1407.77 166.44 1398.89 163.56 1392.53 157.8C1386.17 151.92 1382.99 143.22 1382.99 131.7V46.74H1411.07V131.34C1411.07 135.42 1412.15 138.6 1414.31 140.88C1416.47 143.04 1419.41 144.12 1423.13 144.12C1427.57 144.12 1431.35 142.92 1434.47 140.52L1442.03 160.32C1439.15 162.36 1435.67 163.92 1431.59 165C1427.63 165.96 1423.49 166.44 1419.17 166.44ZM1368.05 91.92V70.32H1435.19V91.92H1368.05ZM1452.39 165V68.16H1480.47V165H1452.39ZM1466.43 54.66C1461.27 54.66 1457.07 53.16 1453.83 50.16C1450.59 47.16 1448.97 43.44 1448.97 39C1448.97 34.56 1450.59 30.84 1453.83 27.84C1457.07 24.84 1461.27 23.34 1466.43 23.34C1471.59 23.34 1475.79 24.78 1479.03 27.66C1482.27 30.42 1483.89 34.02 1483.89 38.46C1483.89 43.14 1482.27 47.04 1479.03 50.16C1475.91 53.16 1471.71 54.66 1466.43 54.66ZM1547.21 166.44C1536.89 166.44 1527.71 164.28 1519.67 159.96C1511.75 155.64 1505.45 149.76 1500.77 142.32C1496.21 134.76 1493.93 126.18 1493.93 116.58C1493.93 106.86 1496.21 98.28 1500.77 90.84C1505.45 83.28 1511.75 77.4 1519.67 73.2C1527.71 68.88 1536.89 66.72 1547.21 66.72C1557.41 66.72 1566.53 68.88 1574.57 73.2C1582.61 77.4 1588.91 83.22 1593.47 90.66C1598.03 98.1 1600.31 106.74 1600.31 116.58C1600.31 126.18 1598.03 134.76 1593.47 142.32C1588.91 149.76 1582.61 155.64 1574.57 159.96C1566.53 164.28 1557.41 166.44 1547.21 166.44ZM1547.21 143.4C1551.89 143.4 1556.09 142.32 1559.81 140.16C1563.53 138 1566.47 134.94 1568.63 130.98C1570.79 126.9 1571.87 122.1 1571.87 116.58C1571.87 110.94 1570.79 106.14 1568.63 102.18C1566.47 98.22 1563.53 95.16 1559.81 93C1556.09 90.84 1551.89 89.76 1547.21 89.76C1542.53 89.76 1538.33 90.84 1534.61 93C1530.89 95.16 1527.89 98.22 1525.61 102.18C1523.45 106.14 1522.37 110.94 1522.37 116.58C1522.37 122.1 1523.45 126.9 1525.61 130.98C1527.89 134.94 1530.89 138 1534.61 140.16C1538.33 142.32 1542.53 143.4 1547.21 143.4ZM1672.54 66.72C1680.22 66.72 1687.06 68.28 1693.06 71.4C1699.18 74.4 1703.98 79.08 1707.46 85.44C1710.94 91.68 1712.68 99.72 1712.68 109.56V165H1684.6V113.88C1684.6 106.08 1682.86 100.32 1679.38 96.6C1676.02 92.88 1671.22 91.02 1664.98 91.02C1660.54 91.02 1656.52 91.98 1652.92 93.9C1649.44 95.7 1646.68 98.52 1644.64 102.36C1642.72 106.2 1641.76 111.12 1641.76 117.12V165H1613.68V68.16H1640.5V94.98L1635.46 86.88C1638.94 80.4 1643.92 75.42 1650.4 71.94C1656.88 68.46 1664.26 66.72 1672.54 66.72Z" fill="#282828" fill-opacity="0.02"/>
<path d="M596.946 120V80.8H613.914C617.424 80.8 620.448 81.3787 622.986 82.536C625.525 83.656 627.485 85.28 628.866 87.408C630.248 89.536 630.938 92.0747 630.938 95.024C630.938 97.936 630.248 100.456 628.866 102.584C627.485 104.712 625.525 106.355 622.986 107.512C620.448 108.632 617.424 109.192 613.914 109.192H601.986L606.018 105.104V120H596.946ZM606.018 106.112L601.986 101.8H613.41C616.21 101.8 618.301 101.203 619.682 100.008C621.064 98.8133 621.754 97.152 621.754 95.024C621.754 92.8587 621.064 91.1787 619.682 89.984C618.301 88.7893 616.21 88.192 613.41 88.192H601.986L606.018 83.88V106.112ZM638.424 120V89.872H646.768V98.384L645.592 95.92C646.488 93.792 647.926 92.1867 649.904 91.104C651.883 89.984 654.291 89.424 657.128 89.424V97.488C656.755 97.4507 656.419 97.432 656.12 97.432C655.822 97.3947 655.504 97.376 655.168 97.376C652.779 97.376 650.838 98.0667 649.344 99.448C647.888 100.792 647.16 102.901 647.16 105.776V120H638.424ZM678.12 120.448C674.909 120.448 672.053 119.776 669.552 118.432C667.088 117.088 665.128 115.259 663.672 112.944C662.253 110.592 661.544 107.923 661.544 104.936C661.544 101.912 662.253 99.2427 663.672 96.928C665.128 94.576 667.088 92.7467 669.552 91.44C672.053 90.096 674.909 89.424 678.12 89.424C681.293 89.424 684.131 90.096 686.632 91.44C689.133 92.7467 691.093 94.5573 692.512 96.872C693.931 99.1867 694.64 101.875 694.64 104.936C694.64 107.923 693.931 110.592 692.512 112.944C691.093 115.259 689.133 117.088 686.632 118.432C684.131 119.776 681.293 120.448 678.12 120.448ZM678.12 113.28C679.576 113.28 680.883 112.944 682.04 112.272C683.197 111.6 684.112 110.648 684.784 109.416C685.456 108.147 685.792 106.653 685.792 104.936C685.792 103.181 685.456 101.688 684.784 100.456C684.112 99.224 683.197 98.272 682.04 97.6C680.883 96.928 679.576 96.592 678.12 96.592C676.664 96.592 675.357 96.928 674.2 97.6C673.043 98.272 672.109 99.224 671.4 100.456C670.728 101.688 670.392 103.181 670.392 104.936C670.392 106.653 670.728 108.147 671.4 109.416C672.109 110.648 673.043 111.6 674.2 112.272C675.357 112.944 676.664 113.28 678.12 113.28ZM719.967 120.448C717.317 120.448 715.039 119.888 713.135 118.768C711.231 117.648 709.775 115.949 708.767 113.672C707.759 111.357 707.255 108.445 707.255 104.936C707.255 101.389 707.778 98.4773 708.823 96.2C709.906 93.9227 711.399 92.224 713.303 91.104C715.207 89.984 717.429 89.424 719.967 89.424C722.805 89.424 725.343 90.0587 727.583 91.328C729.861 92.5973 731.653 94.3893 732.959 96.704C734.303 99.0187 734.975 101.763 734.975 104.936C734.975 108.072 734.303 110.797 732.959 113.112C731.653 115.427 729.861 117.237 727.583 118.544C725.343 119.813 722.805 120.448 719.967 120.448ZM702.159 120V78.448H710.895V95.976L710.335 104.88L710.503 113.84V120H702.159ZM718.455 113.28C719.911 113.28 721.199 112.944 722.319 112.272C723.477 111.6 724.391 110.648 725.063 109.416C725.773 108.147 726.127 106.653 726.127 104.936C726.127 103.181 725.773 101.688 725.063 100.456C724.391 99.224 723.477 98.272 722.319 97.6C721.199 96.928 719.911 96.592 718.455 96.592C716.999 96.592 715.693 96.928 714.535 97.6C713.378 98.272 712.463 99.224 711.791 100.456C711.119 101.688 710.783 103.181 710.783 104.936C710.783 106.653 711.119 108.147 711.791 109.416C712.463 110.648 713.378 111.6 714.535 112.272C715.693 112.944 716.999 113.28 718.455 113.28ZM742.503 120V78.448H751.239V120H742.503ZM775.979 120.448C772.544 120.448 769.52 119.776 766.907 118.432C764.331 117.088 762.334 115.259 760.915 112.944C759.496 110.592 758.787 107.923 758.787 104.936C758.787 101.912 759.478 99.2427 760.859 96.928C762.278 94.576 764.2 92.7467 766.627 91.44C769.054 90.096 771.798 89.424 774.859 89.424C777.808 89.424 780.459 90.0587 782.811 91.328C785.2 92.56 787.086 94.352 788.467 96.704C789.848 99.0187 790.539 101.8 790.539 105.048C790.539 105.384 790.52 105.776 790.483 106.224C790.446 106.635 790.408 107.027 790.371 107.4H765.899V102.304H785.779L782.419 103.816C782.419 102.248 782.102 100.885 781.467 99.728C780.832 98.5707 779.955 97.6747 778.835 97.04C777.715 96.368 776.408 96.032 774.915 96.032C773.422 96.032 772.096 96.368 770.939 97.04C769.819 97.6747 768.942 98.5893 768.307 99.784C767.672 100.941 767.355 102.323 767.355 103.928V105.272C767.355 106.915 767.71 108.371 768.419 109.64C769.166 110.872 770.192 111.824 771.499 112.496C772.843 113.131 774.411 113.448 776.203 113.448C777.808 113.448 779.208 113.205 780.403 112.72C781.635 112.235 782.755 111.507 783.763 110.536L788.411 115.576C787.03 117.144 785.294 118.357 783.203 119.216C781.112 120.037 778.704 120.448 775.979 120.448ZM836.619 89.424C839.009 89.424 841.118 89.9093 842.947 90.88C844.814 91.8133 846.27 93.2693 847.315 95.248C848.398 97.1893 848.939 99.6907 848.939 102.752V120H840.203V104.096C840.203 101.669 839.699 99.8773 838.691 98.72C837.683 97.5627 836.265 96.984 834.435 96.984C833.166 96.984 832.027 97.2827 831.019 97.88C830.011 98.44 829.227 99.2987 828.667 100.456C828.107 101.613 827.827 103.088 827.827 104.88V120H819.091V104.096C819.091 101.669 818.587 99.8773 817.579 98.72C816.609 97.5627 815.209 96.984 813.379 96.984C812.11 96.984 810.971 97.2827 809.963 97.88C808.955 98.44 808.171 99.2987 807.611 100.456C807.051 101.613 806.771 103.088 806.771 104.88V120H798.035V89.872H806.379V98.104L804.811 95.696C805.857 93.6427 807.331 92.0933 809.235 91.048C811.177 89.9653 813.379 89.424 815.843 89.424C818.606 89.424 821.014 90.1333 823.067 91.552C825.158 92.9333 826.539 95.0613 827.211 97.936L824.131 97.096C825.139 94.744 826.745 92.8773 828.947 91.496C831.187 90.1147 833.745 89.424 836.619 89.424ZM888.925 120.448C886.088 120.448 883.53 119.813 881.253 118.544C878.976 117.237 877.165 115.427 875.821 113.112C874.514 110.797 873.861 108.072 873.861 104.936C873.861 101.763 874.514 99.0187 875.821 96.704C877.165 94.3893 878.976 92.5973 881.253 91.328C883.53 90.0587 886.088 89.424 888.925 89.424C891.464 89.424 893.685 89.984 895.589 91.104C897.493 92.224 898.968 93.9227 900.013 96.2C901.058 98.4773 901.581 101.389 901.581 104.936C901.581 108.445 901.077 111.357 900.069 113.672C899.061 115.949 897.605 117.648 895.701 118.768C893.834 119.888 891.576 120.448 888.925 120.448ZM890.437 113.28C891.856 113.28 893.144 112.944 894.301 112.272C895.458 111.6 896.373 110.648 897.045 109.416C897.754 108.147 898.109 106.653 898.109 104.936C898.109 103.181 897.754 101.688 897.045 100.456C896.373 99.224 895.458 98.272 894.301 97.6C893.144 96.928 891.856 96.592 890.437 96.592C888.981 96.592 887.674 96.928 886.517 97.6C885.36 98.272 884.426 99.224 883.717 100.456C883.045 101.688 882.709 103.181 882.709 104.936C882.709 106.653 883.045 108.147 883.717 109.416C884.426 110.648 885.36 111.6 886.517 112.272C887.674 112.944 888.981 113.28 890.437 113.28ZM898.333 120V113.84L898.501 104.88L897.941 95.976V78.448H906.677V120H898.333ZM931.394 120.448C927.96 120.448 924.936 119.776 922.322 118.432C919.746 117.088 917.749 115.259 916.33 112.944C914.912 110.592 914.202 107.923 914.202 104.936C914.202 101.912 914.893 99.2427 916.274 96.928C917.693 94.576 919.616 92.7467 922.042 91.44C924.469 90.096 927.213 89.424 930.274 89.424C933.224 89.424 935.874 90.0587 938.226 91.328C940.616 92.56 942.501 94.352 943.882 96.704C945.264 99.0187 945.954 101.8 945.954 105.048C945.954 105.384 945.936 105.776 945.898 106.224C945.861 106.635 945.824 107.027 945.786 107.4H921.314V102.304H941.194L937.834 103.816C937.834 102.248 937.517 100.885 936.882 99.728C936.248 98.5707 935.37 97.6747 934.25 97.04C933.13 96.368 931.824 96.032 930.33 96.032C928.837 96.032 927.512 96.368 926.354 97.04C925.234 97.6747 924.357 98.5893 923.722 99.784C923.088 100.941 922.77 102.323 922.77 103.928V105.272C922.77 106.915 923.125 108.371 923.834 109.64C924.581 110.872 925.608 111.824 926.914 112.496C928.258 113.131 929.826 113.448 931.618 113.448C933.224 113.448 934.624 113.205 935.818 112.72C937.05 112.235 938.17 111.507 939.178 110.536L943.826 115.576C942.445 117.144 940.709 118.357 938.618 119.216C936.528 120.037 934.12 120.448 931.394 120.448ZM954.515 120V89.2C954.515 85.8027 955.523 83.096 957.539 81.08C959.555 79.0267 962.429 78 966.163 78C967.432 78 968.645 78.1307 969.803 78.392C970.997 78.6533 972.005 79.064 972.827 79.624L970.531 85.952C970.045 85.616 969.504 85.3547 968.907 85.168C968.309 84.9813 967.675 84.888 967.003 84.888C965.733 84.888 964.744 85.2613 964.035 86.008C963.363 86.7173 963.027 87.8 963.027 89.256V92.056L963.251 95.808V120H954.515ZM949.867 97.264V90.544H970.755V97.264H949.867ZM975.683 120V89.872H984.419V120H975.683ZM980.051 85.672C978.445 85.672 977.139 85.2053 976.131 84.272C975.123 83.3387 974.619 82.1813 974.619 80.8C974.619 79.4187 975.123 78.2613 976.131 77.328C977.139 76.3947 978.445 75.928 980.051 75.928C981.656 75.928 982.963 76.376 983.971 77.272C984.979 78.1307 985.483 79.2507 985.483 80.632C985.483 82.088 984.979 83.3013 983.971 84.272C983 85.2053 981.693 85.672 980.051 85.672ZM1012.49 89.424C1014.88 89.424 1017.01 89.9093 1018.87 90.88C1020.78 91.8133 1022.27 93.2693 1023.35 95.248C1024.44 97.1893 1024.98 99.6907 1024.98 102.752V120H1016.24V104.096C1016.24 101.669 1015.7 99.8773 1014.62 98.72C1013.57 97.5627 1012.08 96.984 1010.14 96.984C1008.76 96.984 1007.51 97.2827 1006.39 97.88C1005.3 98.44 1004.44 99.3173 1003.81 100.512C1003.21 101.707 1002.91 103.237 1002.91 105.104V120H994.177V89.872H1002.52V98.216L1000.95 95.696C1002.04 93.68 1003.59 92.1307 1005.6 91.048C1007.62 89.9653 1009.91 89.424 1012.49 89.424ZM1034.58 120V89.872H1043.31V120H1034.58ZM1038.94 85.672C1037.34 85.672 1036.03 85.2053 1035.02 84.272C1034.02 83.3387 1033.51 82.1813 1033.51 80.8C1033.51 79.4187 1034.02 78.2613 1035.02 77.328C1036.03 76.3947 1037.34 75.928 1038.94 75.928C1040.55 75.928 1041.86 76.376 1042.86 77.272C1043.87 78.1307 1044.38 79.2507 1044.38 80.632C1044.38 82.088 1043.87 83.3013 1042.86 84.272C1041.89 85.2053 1040.59 85.672 1038.94 85.672ZM1065.42 120.448C1061.87 120.448 1059.11 119.552 1057.13 117.76C1055.15 115.931 1054.16 113.224 1054.16 109.64V83.208H1062.9V109.528C1062.9 110.797 1063.24 111.787 1063.91 112.496C1064.58 113.168 1065.49 113.504 1066.65 113.504C1068.03 113.504 1069.21 113.131 1070.18 112.384L1072.53 118.544C1071.64 119.179 1070.55 119.664 1069.28 120C1068.05 120.299 1066.76 120.448 1065.42 120.448ZM1049.52 97.264V90.544H1070.4V97.264H1049.52ZM1079.12 120V89.872H1087.85V120H1079.12ZM1083.48 85.672C1081.88 85.672 1080.57 85.2053 1079.56 84.272C1078.56 83.3387 1078.05 82.1813 1078.05 80.8C1078.05 79.4187 1078.56 78.2613 1079.56 77.328C1080.57 76.3947 1081.88 75.928 1083.48 75.928C1085.09 75.928 1086.4 76.376 1087.4 77.272C1088.41 78.1307 1088.92 79.2507 1088.92 80.632C1088.92 82.088 1088.41 83.3013 1087.4 84.272C1086.43 85.2053 1085.13 85.672 1083.48 85.672ZM1111.98 120.448C1108.77 120.448 1105.91 119.776 1103.41 118.432C1100.94 117.088 1098.98 115.259 1097.53 112.944C1096.11 110.592 1095.4 107.923 1095.4 104.936C1095.4 101.912 1096.11 99.2427 1097.53 96.928C1098.98 94.576 1100.94 92.7467 1103.41 91.44C1105.91 90.096 1108.77 89.424 1111.98 89.424C1115.15 89.424 1117.99 90.096 1120.49 91.44C1122.99 92.7467 1124.95 94.5573 1126.37 96.872C1127.79 99.1867 1128.5 101.875 1128.5 104.936C1128.5 107.923 1127.79 110.592 1126.37 112.944C1124.95 115.259 1122.99 117.088 1120.49 118.432C1117.99 119.776 1115.15 120.448 1111.98 120.448ZM1111.98 113.28C1113.43 113.28 1114.74 112.944 1115.9 112.272C1117.05 111.6 1117.97 110.648 1118.64 109.416C1119.31 108.147 1119.65 106.653 1119.65 104.936C1119.65 103.181 1119.31 101.688 1118.64 100.456C1117.97 99.224 1117.05 98.272 1115.9 97.6C1114.74 96.928 1113.43 96.592 1111.98 96.592C1110.52 96.592 1109.21 96.928 1108.06 97.6C1106.9 98.272 1105.96 99.224 1105.26 100.456C1104.58 101.688 1104.25 103.181 1104.25 104.936C1104.25 106.653 1104.58 108.147 1105.26 109.416C1105.96 110.648 1106.9 111.6 1108.06 112.272C1109.21 112.944 1110.52 113.28 1111.98 113.28ZM1154.33 89.424C1156.72 89.424 1158.84 89.9093 1160.71 90.88C1162.61 91.8133 1164.11 93.2693 1165.19 95.248C1166.27 97.1893 1166.81 99.6907 1166.81 102.752V120H1158.08V104.096C1158.08 101.669 1157.54 99.8773 1156.45 98.72C1155.41 97.5627 1153.92 96.984 1151.97 96.984C1150.59 96.984 1149.34 97.2827 1148.22 97.88C1147.14 98.44 1146.28 99.3173 1145.65 100.512C1145.05 101.707 1144.75 103.237 1144.75 105.104V120H1136.01V89.872H1144.36V98.216L1142.79 95.696C1143.87 93.68 1145.42 92.1307 1147.44 91.048C1149.45 89.9653 1151.75 89.424 1154.33 89.424Z" fill="#282828"/>
</g>
<defs>
<clipPath id="clip0_1337_255">
<rect width="1764" height="200" fill="white"/>
</clipPath>
</defs>
</svg>
