<svg width="1764" height="200" viewBox="0 0 1764 200" fill="none" xmlns="http://www.w3.org/2000/svg">
<g clip-path="url(#clip0_1338_323)">
<path d="M107.619 167.16C97.5389 167.16 87.8789 165.84 78.6389 163.2C69.3989 160.44 61.9589 156.9 56.3189 152.58L66.2189 130.62C71.6189 134.46 77.9789 137.64 85.2989 140.16C92.7389 142.56 100.239 143.76 107.799 143.76C113.559 143.76 118.179 143.22 121.659 142.14C125.259 140.94 127.899 139.32 129.579 137.28C131.259 135.24 132.099 132.9 132.099 130.26C132.099 126.9 130.779 124.26 128.139 122.34C125.499 120.3 122.019 118.68 117.699 117.48C113.379 116.16 108.579 114.96 103.299 113.88C98.1389 112.68 92.9189 111.24 87.6389 109.56C82.4789 107.88 77.7389 105.72 73.4189 103.08C69.0989 100.44 65.5589 96.96 62.7989 92.64C60.1589 88.32 58.8389 82.8 58.8389 76.08C58.8389 68.88 60.7589 62.34 64.5989 56.46C68.5589 50.46 74.4389 45.72 82.2389 42.24C90.1589 38.64 100.059 36.84 111.939 36.84C119.859 36.84 127.659 37.8 135.339 39.72C143.019 41.52 149.799 44.28 155.679 48L146.679 70.14C140.799 66.78 134.919 64.32 129.039 62.76C123.159 61.08 117.399 60.24 111.759 60.24C106.119 60.24 101.499 60.9 97.8989 62.22C94.2989 63.54 91.7189 65.28 90.1589 67.44C88.5989 69.48 87.8189 71.88 87.8189 74.64C87.8189 77.88 89.1389 80.52 91.7789 82.56C94.4189 84.48 97.8989 86.04 102.219 87.24C106.539 88.44 111.279 89.64 116.439 90.84C121.719 92.04 126.939 93.42 132.099 94.98C137.379 96.54 142.179 98.64 146.499 101.28C150.819 103.92 154.299 107.4 156.939 111.72C159.699 116.04 161.079 121.5 161.079 128.1C161.079 135.18 159.099 141.66 155.139 147.54C151.179 153.42 145.239 158.16 137.319 161.76C129.519 165.36 119.619 167.16 107.619 167.16ZM219.704 166.44C209.384 166.44 200.204 164.28 192.164 159.96C184.244 155.64 177.944 149.76 173.264 142.32C168.704 134.76 166.424 126.18 166.424 116.58C166.424 106.86 168.704 98.28 173.264 90.84C177.944 83.28 184.244 77.4 192.164 73.2C200.204 68.88 209.384 66.72 219.704 66.72C229.904 66.72 239.024 68.88 247.064 73.2C255.104 77.4 261.404 83.22 265.964 90.66C270.524 98.1 272.804 106.74 272.804 116.58C272.804 126.18 270.524 134.76 265.964 142.32C261.404 149.76 255.104 155.64 247.064 159.96C239.024 164.28 229.904 166.44 219.704 166.44ZM219.704 143.4C224.384 143.4 228.584 142.32 232.304 140.16C236.024 138 238.964 134.94 241.124 130.98C243.284 126.9 244.364 122.1 244.364 116.58C244.364 110.94 243.284 106.14 241.124 102.18C238.964 98.22 236.024 95.16 232.304 93C228.584 90.84 224.384 89.76 219.704 89.76C215.024 89.76 210.824 90.84 207.104 93C203.384 95.16 200.384 98.22 198.104 102.18C195.944 106.14 194.864 110.94 194.864 116.58C194.864 122.1 195.944 126.9 198.104 130.98C200.384 134.94 203.384 138 207.104 140.16C210.824 142.32 215.024 143.4 219.704 143.4ZM286.173 165V31.44H314.253V165H286.173ZM375.774 166.44C367.734 166.44 360.534 164.88 354.174 161.76C347.934 158.64 343.074 153.9 339.594 147.54C336.114 141.06 334.374 132.84 334.374 122.88V68.16H362.454V118.74C362.454 126.78 364.134 132.72 367.494 136.56C370.974 140.28 375.834 142.14 382.074 142.14C386.394 142.14 390.234 141.24 393.594 139.44C396.954 137.52 399.594 134.64 401.514 130.8C403.434 126.84 404.394 121.92 404.394 116.04V68.16H432.474V165H405.834V138.36L410.694 146.1C407.454 152.82 402.654 157.92 396.294 161.4C390.054 164.76 383.214 166.44 375.774 166.44ZM492.688 166.44C481.288 166.44 472.408 163.56 466.048 157.8C459.688 151.92 456.508 143.22 456.508 131.7V46.74H484.588V131.34C484.588 135.42 485.668 138.6 487.828 140.88C489.988 143.04 492.928 144.12 496.648 144.12C501.088 144.12 504.868 142.92 507.988 140.52L515.548 160.32C512.668 162.36 509.188 163.92 505.108 165C501.148 165.96 497.008 166.44 492.688 166.44ZM441.568 91.92V70.32H508.708V91.92H441.568ZM525.911 165V68.16H553.991V165H525.911ZM539.951 54.66C534.791 54.66 530.591 53.16 527.351 50.16C524.111 47.16 522.491 43.44 522.491 39C522.491 34.56 524.111 30.84 527.351 27.84C530.591 24.84 534.791 23.34 539.951 23.34C545.111 23.34 549.311 24.78 552.551 27.66C555.791 30.42 557.411 34.02 557.411 38.46C557.411 43.14 555.791 47.04 552.551 50.16C549.431 53.16 545.231 54.66 539.951 54.66ZM620.731 166.44C610.411 166.44 601.231 164.28 593.191 159.96C585.271 155.64 578.971 149.76 574.291 142.32C569.731 134.76 567.451 126.18 567.451 116.58C567.451 106.86 569.731 98.28 574.291 90.84C578.971 83.28 585.271 77.4 593.191 73.2C601.231 68.88 610.411 66.72 620.731 66.72C630.931 66.72 640.051 68.88 648.091 73.2C656.131 77.4 662.431 83.22 666.991 90.66C671.551 98.1 673.831 106.74 673.831 116.58C673.831 126.18 671.551 134.76 666.991 142.32C662.431 149.76 656.131 155.64 648.091 159.96C640.051 164.28 630.931 166.44 620.731 166.44ZM620.731 143.4C625.411 143.4 629.611 142.32 633.331 140.16C637.051 138 639.991 134.94 642.151 130.98C644.311 126.9 645.391 122.1 645.391 116.58C645.391 110.94 644.311 106.14 642.151 102.18C639.991 98.22 637.051 95.16 633.331 93C629.611 90.84 625.411 89.76 620.731 89.76C616.051 89.76 611.851 90.84 608.131 93C604.411 95.16 601.411 98.22 599.131 102.18C596.971 106.14 595.891 110.94 595.891 116.58C595.891 122.1 596.971 126.9 599.131 130.98C601.411 134.94 604.411 138 608.131 140.16C611.851 142.32 616.051 143.4 620.731 143.4ZM746.061 66.72C753.741 66.72 760.581 68.28 766.581 71.4C772.701 74.4 777.501 79.08 780.981 85.44C784.461 91.68 786.201 99.72 786.201 109.56V165H758.121V113.88C758.121 106.08 756.381 100.32 752.901 96.6C749.541 92.88 744.741 91.02 738.501 91.02C734.061 91.02 730.041 91.98 726.441 93.9C722.961 95.7 720.201 98.52 718.161 102.36C716.241 106.2 715.281 111.12 715.281 117.12V165H687.201V68.16H714.021V94.98L708.981 86.88C712.461 80.4 717.441 75.42 723.921 71.94C730.401 68.46 737.781 66.72 746.061 66.72ZM909.07 166.44C900.91 166.44 893.77 164.64 887.65 161.04C881.53 157.44 876.73 151.98 873.25 144.66C869.89 137.22 868.21 127.86 868.21 116.58C868.21 105.18 869.83 95.82 873.07 88.5C876.31 81.18 880.99 75.72 887.11 72.12C893.23 68.52 900.55 66.72 909.07 66.72C918.19 66.72 926.35 68.82 933.55 73.02C940.87 77.1 946.63 82.86 950.83 90.3C955.15 97.74 957.31 106.5 957.31 116.58C957.31 126.78 955.15 135.6 950.83 143.04C946.63 150.48 940.87 156.24 933.55 160.32C926.35 164.4 918.19 166.44 909.07 166.44ZM851.83 199.92V68.16H878.65V87.96L878.11 116.76L879.91 145.38V199.92H851.83ZM904.21 143.4C908.89 143.4 913.03 142.32 916.63 140.16C920.35 138 923.29 134.94 925.45 130.98C927.73 126.9 928.87 122.1 928.87 116.58C928.87 110.94 927.73 106.14 925.45 102.18C923.29 98.22 920.35 95.16 916.63 93C913.03 90.84 908.89 89.76 904.21 89.76C899.53 89.76 895.33 90.84 891.61 93C887.89 95.16 884.95 98.22 882.79 102.18C880.63 106.14 879.55 110.94 879.55 116.58C879.55 122.1 880.63 126.9 882.79 130.98C884.95 134.94 887.89 138 891.61 140.16C895.33 142.32 899.53 143.4 904.21 143.4ZM970.708 165V68.16H997.528V95.52L993.748 87.6C996.628 80.76 1001.25 75.6 1007.61 72.12C1013.97 68.52 1021.71 66.72 1030.83 66.72V92.64C1029.63 92.52 1028.55 92.46 1027.59 92.46C1026.63 92.34 1025.61 92.28 1024.53 92.28C1016.85 92.28 1010.61 94.5 1005.81 98.94C1001.13 103.26 998.788 110.04 998.788 119.28V165H970.708ZM1087.5 166.44C1077.18 166.44 1068 164.28 1059.96 159.96C1052.04 155.64 1045.74 149.76 1041.06 142.32C1036.5 134.76 1034.22 126.18 1034.22 116.58C1034.22 106.86 1036.5 98.28 1041.06 90.84C1045.74 83.28 1052.04 77.4 1059.96 73.2C1068 68.88 1077.18 66.72 1087.5 66.72C1097.7 66.72 1106.82 68.88 1114.86 73.2C1122.9 77.4 1129.2 83.22 1133.76 90.66C1138.32 98.1 1140.6 106.74 1140.6 116.58C1140.6 126.18 1138.32 134.76 1133.76 142.32C1129.2 149.76 1122.9 155.64 1114.86 159.96C1106.82 164.28 1097.7 166.44 1087.5 166.44ZM1087.5 143.4C1092.18 143.4 1096.38 142.32 1100.1 140.16C1103.82 138 1106.76 134.94 1108.92 130.98C1111.08 126.9 1112.16 122.1 1112.16 116.58C1112.16 110.94 1111.08 106.14 1108.92 102.18C1106.76 98.22 1103.82 95.16 1100.1 93C1096.38 90.84 1092.18 89.76 1087.5 89.76C1082.82 89.76 1078.62 90.84 1074.9 93C1071.18 95.16 1068.18 98.22 1065.9 102.18C1063.74 106.14 1062.66 110.94 1062.66 116.58C1062.66 122.1 1063.74 126.9 1065.9 130.98C1068.18 134.94 1071.18 138 1074.9 140.16C1078.62 142.32 1082.82 143.4 1087.5 143.4ZM1211.21 166.44C1203.05 166.44 1195.91 164.64 1189.79 161.04C1183.67 157.44 1178.87 151.98 1175.39 144.66C1172.03 137.22 1170.35 127.86 1170.35 116.58C1170.35 105.18 1171.97 95.82 1175.21 88.5C1178.45 81.18 1183.13 75.72 1189.25 72.12C1195.37 68.52 1202.69 66.72 1211.21 66.72C1220.33 66.72 1228.49 68.82 1235.69 73.02C1243.01 77.1 1248.77 82.86 1252.97 90.3C1257.29 97.74 1259.45 106.5 1259.45 116.58C1259.45 126.78 1257.29 135.6 1252.97 143.04C1248.77 150.48 1243.01 156.24 1235.69 160.32C1228.49 164.4 1220.33 166.44 1211.21 166.44ZM1153.97 199.92V68.16H1180.79V87.96L1180.25 116.76L1182.05 145.38V199.92H1153.97ZM1206.35 143.4C1211.03 143.4 1215.17 142.32 1218.77 140.16C1222.49 138 1225.43 134.94 1227.59 130.98C1229.87 126.9 1231.01 122.1 1231.01 116.58C1231.01 110.94 1229.87 106.14 1227.59 102.18C1225.43 98.22 1222.49 95.16 1218.77 93C1215.17 90.84 1211.03 89.76 1206.35 89.76C1201.67 89.76 1197.47 90.84 1193.75 93C1190.03 95.16 1187.09 98.22 1184.93 102.18C1182.77 106.14 1181.69 110.94 1181.69 116.58C1181.69 122.1 1182.77 126.9 1184.93 130.98C1187.09 134.94 1190.03 138 1193.75 140.16C1197.47 142.32 1201.67 143.4 1206.35 143.4ZM1318.93 166.44C1308.61 166.44 1299.43 164.28 1291.39 159.96C1283.47 155.64 1277.17 149.76 1272.49 142.32C1267.93 134.76 1265.65 126.18 1265.65 116.58C1265.65 106.86 1267.93 98.28 1272.49 90.84C1277.17 83.28 1283.47 77.4 1291.39 73.2C1299.43 68.88 1308.61 66.72 1318.93 66.72C1329.13 66.72 1338.25 68.88 1346.29 73.2C1354.33 77.4 1360.63 83.22 1365.19 90.66C1369.75 98.1 1372.03 106.74 1372.03 116.58C1372.03 126.18 1369.75 134.76 1365.19 142.32C1360.63 149.76 1354.33 155.64 1346.29 159.96C1338.25 164.28 1329.13 166.44 1318.93 166.44ZM1318.93 143.4C1323.61 143.4 1327.81 142.32 1331.53 140.16C1335.25 138 1338.19 134.94 1340.35 130.98C1342.51 126.9 1343.59 122.1 1343.59 116.58C1343.59 110.94 1342.51 106.14 1340.35 102.18C1338.19 98.22 1335.25 95.16 1331.53 93C1327.81 90.84 1323.61 89.76 1318.93 89.76C1314.25 89.76 1310.05 90.84 1306.33 93C1302.61 95.16 1299.61 98.22 1297.33 102.18C1295.17 106.14 1294.09 110.94 1294.09 116.58C1294.09 122.1 1295.17 126.9 1297.33 130.98C1299.61 134.94 1302.61 138 1306.33 140.16C1310.05 142.32 1314.25 143.4 1318.93 143.4ZM1417.98 166.44C1409.7 166.44 1401.72 165.48 1394.04 163.56C1386.48 161.52 1380.48 159 1376.04 156L1385.4 135.84C1389.84 138.6 1395.06 140.88 1401.06 142.68C1407.18 144.36 1413.18 145.2 1419.06 145.2C1425.54 145.2 1430.1 144.42 1432.74 142.86C1435.5 141.3 1436.88 139.14 1436.88 136.38C1436.88 134.1 1435.8 132.42 1433.64 131.34C1431.6 130.14 1428.84 129.24 1425.36 128.64C1421.88 128.04 1418.04 127.44 1413.84 126.84C1409.76 126.24 1405.62 125.46 1401.42 124.5C1397.22 123.42 1393.38 121.86 1389.9 119.82C1386.42 117.78 1383.6 115.02 1381.44 111.54C1379.4 108.06 1378.38 103.56 1378.38 98.04C1378.38 91.92 1380.12 86.52 1383.6 81.84C1387.2 77.16 1392.36 73.5 1399.08 70.86C1405.8 68.1 1413.84 66.72 1423.2 66.72C1429.8 66.72 1436.52 67.44 1443.36 68.88C1450.2 70.32 1455.9 72.42 1460.46 75.18L1451.1 95.16C1446.42 92.4 1441.68 90.54 1436.88 89.58C1432.2 88.5 1427.64 87.96 1423.2 87.96C1416.96 87.96 1412.4 88.8 1409.52 90.48C1406.64 92.16 1405.2 94.32 1405.2 96.96C1405.2 99.36 1406.22 101.16 1408.26 102.36C1410.42 103.56 1413.24 104.52 1416.72 105.24C1420.2 105.96 1423.98 106.62 1428.06 107.22C1432.26 107.7 1436.46 108.48 1440.66 109.56C1444.86 110.64 1448.64 112.2 1452 114.24C1455.48 116.16 1458.3 118.86 1460.46 122.34C1462.62 125.7 1463.7 130.14 1463.7 135.66C1463.7 141.66 1461.9 147 1458.3 151.68C1454.7 156.24 1449.48 159.84 1442.64 162.48C1435.92 165.12 1427.7 166.44 1417.98 166.44ZM1535.02 165V146.1L1533.22 141.96V108.12C1533.22 102.12 1531.36 97.44 1527.64 94.08C1524.04 90.72 1518.46 89.04 1510.9 89.04C1505.74 89.04 1500.64 89.88 1495.6 91.56C1490.68 93.12 1486.48 95.28 1483 98.04L1472.92 78.42C1478.2 74.7 1484.56 71.82 1492 69.78C1499.44 67.74 1507 66.72 1514.68 66.72C1529.44 66.72 1540.9 70.2 1549.06 77.16C1557.22 84.12 1561.3 94.98 1561.3 109.74V165H1535.02ZM1505.5 166.44C1497.94 166.44 1491.46 165.18 1486.06 162.66C1480.66 160.02 1476.52 156.48 1473.64 152.04C1470.76 147.6 1469.32 142.62 1469.32 137.1C1469.32 131.34 1470.7 126.3 1473.46 121.98C1476.34 117.66 1480.84 114.3 1486.96 111.9C1493.08 109.38 1501.06 108.12 1510.9 108.12H1536.64V124.5H1513.96C1507.36 124.5 1502.8 125.58 1500.28 127.74C1497.88 129.9 1496.68 132.6 1496.68 135.84C1496.68 139.44 1498.06 142.32 1500.82 144.48C1503.7 146.52 1507.6 147.54 1512.52 147.54C1517.2 147.54 1521.4 146.46 1525.12 144.3C1528.84 142.02 1531.54 138.72 1533.22 134.4L1537.54 147.36C1535.5 153.6 1531.78 158.34 1526.38 161.58C1520.98 164.82 1514.02 166.44 1505.5 166.44ZM1581.32 165V31.44H1609.4V165H1581.32ZM1662.64 166.44C1654.36 166.44 1646.38 165.48 1638.7 163.56C1631.14 161.52 1625.14 159 1620.7 156L1630.06 135.84C1634.5 138.6 1639.72 140.88 1645.72 142.68C1651.84 144.36 1657.84 145.2 1663.72 145.2C1670.2 145.2 1674.76 144.42 1677.4 142.86C1680.16 141.3 1681.54 139.14 1681.54 136.38C1681.54 134.1 1680.46 132.42 1678.3 131.34C1676.26 130.14 1673.5 129.24 1670.02 128.64C1666.54 128.04 1662.7 127.44 1658.5 126.84C1654.42 126.24 1650.28 125.46 1646.08 124.5C1641.88 123.42 1638.04 121.86 1634.56 119.82C1631.08 117.78 1628.26 115.02 1626.1 111.54C1624.06 108.06 1623.04 103.56 1623.04 98.04C1623.04 91.92 1624.78 86.52 1628.26 81.84C1631.86 77.16 1637.02 73.5 1643.74 70.86C1650.46 68.1 1658.5 66.72 1667.86 66.72C1674.46 66.72 1681.18 67.44 1688.02 68.88C1694.86 70.32 1700.56 72.42 1705.12 75.18L1695.76 95.16C1691.08 92.4 1686.34 90.54 1681.54 89.58C1676.86 88.5 1672.3 87.96 1667.86 87.96C1661.62 87.96 1657.06 88.8 1654.18 90.48C1651.3 92.16 1649.86 94.32 1649.86 96.96C1649.86 99.36 1650.88 101.16 1652.92 102.36C1655.08 103.56 1657.9 104.52 1661.38 105.24C1664.86 105.96 1668.64 106.62 1672.72 107.22C1676.92 107.7 1681.12 108.48 1685.32 109.56C1689.52 110.64 1693.3 112.2 1696.66 114.24C1700.14 116.16 1702.96 118.86 1705.12 122.34C1707.28 125.7 1708.36 130.14 1708.36 135.66C1708.36 141.66 1706.56 147 1702.96 151.68C1699.36 156.24 1694.14 159.84 1687.3 162.48C1680.58 165.12 1672.36 166.44 1662.64 166.44Z" fill="#282828" fill-opacity="0.02"/>
<path d="M612.021 120.672C608.885 120.672 605.88 120.261 603.005 119.44C600.131 118.581 597.816 117.48 596.061 116.136L599.141 109.304C600.821 110.499 602.8 111.488 605.077 112.272C607.392 113.019 609.725 113.392 612.077 113.392C613.869 113.392 615.307 113.224 616.389 112.888C617.509 112.515 618.331 112.011 618.853 111.376C619.376 110.741 619.637 110.013 619.637 109.192C619.637 108.147 619.227 107.325 618.405 106.728C617.584 106.093 616.501 105.589 615.157 105.216C613.813 104.805 612.32 104.432 610.677 104.096C609.072 103.723 607.448 103.275 605.805 102.752C604.2 102.229 602.725 101.557 601.381 100.736C600.037 99.9147 598.936 98.832 598.077 97.488C597.256 96.144 596.845 94.4267 596.845 92.336C596.845 90.096 597.443 88.0613 598.637 86.232C599.869 84.3653 601.699 82.8907 604.125 81.808C606.589 80.688 609.669 80.128 613.365 80.128C615.829 80.128 618.256 80.4267 620.645 81.024C623.035 81.584 625.144 82.4427 626.973 83.6L624.173 90.488C622.344 89.4427 620.515 88.6773 618.685 88.192C616.856 87.6693 615.064 87.408 613.309 87.408C611.555 87.408 610.117 87.6133 608.997 88.024C607.877 88.4347 607.075 88.976 606.589 89.648C606.104 90.2827 605.861 91.0293 605.861 91.888C605.861 92.896 606.272 93.7173 607.093 94.352C607.915 94.9493 608.997 95.4347 610.341 95.808C611.685 96.1813 613.16 96.5547 614.765 96.928C616.408 97.3013 618.032 97.7307 619.637 98.216C621.28 98.7013 622.773 99.3547 624.117 100.176C625.461 100.997 626.544 102.08 627.365 103.424C628.224 104.768 628.653 106.467 628.653 108.52C628.653 110.723 628.037 112.739 626.805 114.568C625.573 116.397 623.725 117.872 621.261 118.992C618.835 120.112 615.755 120.672 612.021 120.672ZM650.252 120.448C647.042 120.448 644.186 119.776 641.684 118.432C639.22 117.088 637.26 115.259 635.804 112.944C634.386 110.592 633.676 107.923 633.676 104.936C633.676 101.912 634.386 99.2427 635.804 96.928C637.26 94.576 639.22 92.7467 641.684 91.44C644.186 90.096 647.042 89.424 650.252 89.424C653.426 89.424 656.263 90.096 658.764 91.44C661.266 92.7467 663.226 94.5573 664.644 96.872C666.063 99.1867 666.772 101.875 666.772 104.936C666.772 107.923 666.063 110.592 664.644 112.944C663.226 115.259 661.266 117.088 658.764 118.432C656.263 119.776 653.426 120.448 650.252 120.448ZM650.252 113.28C651.708 113.28 653.015 112.944 654.172 112.272C655.33 111.6 656.244 110.648 656.916 109.416C657.588 108.147 657.924 106.653 657.924 104.936C657.924 103.181 657.588 101.688 656.916 100.456C656.244 99.224 655.33 98.272 654.172 97.6C653.015 96.928 651.708 96.592 650.252 96.592C648.796 96.592 647.49 96.928 646.332 97.6C645.175 98.272 644.242 99.224 643.532 100.456C642.86 101.688 642.524 103.181 642.524 104.936C642.524 106.653 642.86 108.147 643.532 109.416C644.242 110.648 645.175 111.6 646.332 112.272C647.49 112.944 648.796 113.28 650.252 113.28ZM674.292 120V78.448H683.028V120H674.292ZM705.527 120.448C703.026 120.448 700.786 119.963 698.807 118.992C696.866 118.021 695.354 116.547 694.271 114.568C693.189 112.552 692.647 109.995 692.647 106.896V89.872H701.383V105.608C701.383 108.109 701.906 109.957 702.951 111.152C704.034 112.309 705.546 112.888 707.487 112.888C708.831 112.888 710.026 112.608 711.071 112.048C712.117 111.451 712.938 110.555 713.535 109.36C714.133 108.128 714.431 106.597 714.431 104.768V89.872H723.167V120H714.879V111.712L716.391 114.12C715.383 116.211 713.89 117.797 711.911 118.88C709.97 119.925 707.842 120.448 705.527 120.448ZM745.261 120.448C741.714 120.448 738.951 119.552 736.973 117.76C734.994 115.931 734.005 113.224 734.005 109.64V83.208H742.741V109.528C742.741 110.797 743.077 111.787 743.749 112.496C744.421 113.168 745.335 113.504 746.493 113.504C747.874 113.504 749.05 113.131 750.021 112.384L752.373 118.544C751.477 119.179 750.394 119.664 749.125 120C747.893 120.299 746.605 120.448 745.261 120.448ZM729.357 97.264V90.544H750.245V97.264H729.357ZM758.957 120V89.872H767.693V120H758.957ZM763.325 85.672C761.719 85.672 760.413 85.2053 759.405 84.272C758.397 83.3387 757.893 82.1813 757.893 80.8C757.893 79.4187 758.397 78.2613 759.405 77.328C760.413 76.3947 761.719 75.928 763.325 75.928C764.93 75.928 766.237 76.376 767.245 77.272C768.253 78.1307 768.757 79.2507 768.757 80.632C768.757 82.088 768.253 83.3013 767.245 84.272C766.274 85.2053 764.967 85.672 763.325 85.672ZM791.816 120.448C788.606 120.448 785.75 119.776 783.248 118.432C780.784 117.088 778.824 115.259 777.368 112.944C775.95 110.592 775.24 107.923 775.24 104.936C775.24 101.912 775.95 99.2427 777.368 96.928C778.824 94.576 780.784 92.7467 783.248 91.44C785.75 90.096 788.606 89.424 791.816 89.424C794.99 89.424 797.827 90.096 800.328 91.44C802.83 92.7467 804.79 94.5573 806.208 96.872C807.627 99.1867 808.336 101.875 808.336 104.936C808.336 107.923 807.627 110.592 806.208 112.944C804.79 115.259 802.83 117.088 800.328 118.432C797.827 119.776 794.99 120.448 791.816 120.448ZM791.816 113.28C793.272 113.28 794.579 112.944 795.736 112.272C796.894 111.6 797.808 110.648 798.48 109.416C799.152 108.147 799.488 106.653 799.488 104.936C799.488 103.181 799.152 101.688 798.48 100.456C797.808 99.224 796.894 98.272 795.736 97.6C794.579 96.928 793.272 96.592 791.816 96.592C790.36 96.592 789.054 96.928 787.896 97.6C786.739 98.272 785.806 99.224 785.096 100.456C784.424 101.688 784.088 103.181 784.088 104.936C784.088 106.653 784.424 108.147 785.096 109.416C785.806 110.648 786.739 111.6 787.896 112.272C789.054 112.944 790.36 113.28 791.816 113.28ZM834.168 89.424C836.557 89.424 838.685 89.9093 840.552 90.88C842.456 91.8133 843.949 93.2693 845.032 95.248C846.114 97.1893 846.656 99.6907 846.656 102.752V120H837.92V104.096C837.92 101.669 837.378 99.8773 836.296 98.72C835.25 97.5627 833.757 96.984 831.816 96.984C830.434 96.984 829.184 97.2827 828.064 97.88C826.981 98.44 826.122 99.3173 825.488 100.512C824.89 101.707 824.592 103.237 824.592 105.104V120H815.856V89.872H824.2V98.216L822.632 95.696C823.714 93.68 825.264 92.1307 827.28 91.048C829.296 89.9653 831.592 89.424 834.168 89.424ZM891.602 120.448C889.063 120.448 886.842 119.888 884.938 118.768C883.034 117.648 881.541 115.949 880.458 113.672C879.413 111.357 878.89 108.445 878.89 104.936C878.89 101.389 879.394 98.4773 880.402 96.2C881.41 93.9227 882.866 92.224 884.77 91.104C886.674 89.984 888.951 89.424 891.602 89.424C894.439 89.424 896.978 90.0773 899.218 91.384C901.495 92.6533 903.287 94.4453 904.594 96.76C905.938 99.0747 906.61 101.8 906.61 104.936C906.61 108.109 905.938 110.853 904.594 113.168C903.287 115.483 901.495 117.275 899.218 118.544C896.978 119.813 894.439 120.448 891.602 120.448ZM873.794 130.864V89.872H882.138V96.032L881.97 104.992L882.53 113.896V130.864H873.794ZM890.09 113.28C891.546 113.28 892.834 112.944 893.954 112.272C895.111 111.6 896.026 110.648 896.698 109.416C897.407 108.147 897.762 106.653 897.762 104.936C897.762 103.181 897.407 101.688 896.698 100.456C896.026 99.224 895.111 98.272 893.954 97.6C892.834 96.928 891.546 96.592 890.09 96.592C888.634 96.592 887.327 96.928 886.17 97.6C885.013 98.272 884.098 99.224 883.426 100.456C882.754 101.688 882.418 103.181 882.418 104.936C882.418 106.653 882.754 108.147 883.426 109.416C884.098 110.648 885.013 111.6 886.17 112.272C887.327 112.944 888.634 113.28 890.09 113.28ZM914.138 120V89.872H922.482V98.384L921.306 95.92C922.202 93.792 923.639 92.1867 925.618 91.104C927.597 89.984 930.005 89.424 932.842 89.424V97.488C932.469 97.4507 932.133 97.432 931.834 97.432C931.535 97.3947 931.218 97.376 930.882 97.376C928.493 97.376 926.551 98.0667 925.058 99.448C923.602 100.792 922.874 102.901 922.874 105.776V120H914.138ZM953.834 120.448C950.623 120.448 947.767 119.776 945.266 118.432C942.802 117.088 940.842 115.259 939.386 112.944C937.967 110.592 937.258 107.923 937.258 104.936C937.258 101.912 937.967 99.2427 939.386 96.928C940.842 94.576 942.802 92.7467 945.266 91.44C947.767 90.096 950.623 89.424 953.834 89.424C957.007 89.424 959.844 90.096 962.346 91.44C964.847 92.7467 966.807 94.5573 968.226 96.872C969.644 99.1867 970.354 101.875 970.354 104.936C970.354 107.923 969.644 110.592 968.226 112.944C966.807 115.259 964.847 117.088 962.346 118.432C959.844 119.776 957.007 120.448 953.834 120.448ZM953.834 113.28C955.29 113.28 956.596 112.944 957.754 112.272C958.911 111.6 959.826 110.648 960.498 109.416C961.17 108.147 961.506 106.653 961.506 104.936C961.506 103.181 961.17 101.688 960.498 100.456C959.826 99.224 958.911 98.272 957.754 97.6C956.596 96.928 955.29 96.592 953.834 96.592C952.378 96.592 951.071 96.928 949.914 97.6C948.756 98.272 947.823 99.224 947.114 100.456C946.442 101.688 946.106 103.181 946.106 104.936C946.106 106.653 946.442 108.147 947.114 109.416C947.823 110.648 948.756 111.6 949.914 112.272C951.071 112.944 952.378 113.28 953.834 113.28ZM995.681 120.448C993.142 120.448 990.921 119.888 989.017 118.768C987.113 117.648 985.62 115.949 984.537 113.672C983.492 111.357 982.969 108.445 982.969 104.936C982.969 101.389 983.473 98.4773 984.481 96.2C985.489 93.9227 986.945 92.224 988.849 91.104C990.753 89.984 993.03 89.424 995.681 89.424C998.518 89.424 1001.06 90.0773 1003.3 91.384C1005.57 92.6533 1007.37 94.4453 1008.67 96.76C1010.02 99.0747 1010.69 101.8 1010.69 104.936C1010.69 108.109 1010.02 110.853 1008.67 113.168C1007.37 115.483 1005.57 117.275 1003.3 118.544C1001.06 119.813 998.518 120.448 995.681 120.448ZM977.873 130.864V89.872H986.217V96.032L986.049 104.992L986.609 113.896V130.864H977.873ZM994.169 113.28C995.625 113.28 996.913 112.944 998.033 112.272C999.19 111.6 1000.1 110.648 1000.78 109.416C1001.49 108.147 1001.84 106.653 1001.84 104.936C1001.84 103.181 1001.49 101.688 1000.78 100.456C1000.1 99.224 999.19 98.272 998.033 97.6C996.913 96.928 995.625 96.592 994.169 96.592C992.713 96.592 991.406 96.928 990.249 97.6C989.092 98.272 988.177 99.224 987.505 100.456C986.833 101.688 986.497 103.181 986.497 104.936C986.497 106.653 986.833 108.147 987.505 109.416C988.177 110.648 989.092 111.6 990.249 112.272C991.406 112.944 992.713 113.28 994.169 113.28ZM1032.55 120.448C1029.34 120.448 1026.49 119.776 1023.98 118.432C1021.52 117.088 1019.56 115.259 1018.1 112.944C1016.69 110.592 1015.98 107.923 1015.98 104.936C1015.98 101.912 1016.69 99.2427 1018.1 96.928C1019.56 94.576 1021.52 92.7467 1023.98 91.44C1026.49 90.096 1029.34 89.424 1032.55 89.424C1035.73 89.424 1038.56 90.096 1041.06 91.44C1043.57 92.7467 1045.53 94.5573 1046.94 96.872C1048.36 99.1867 1049.07 101.875 1049.07 104.936C1049.07 107.923 1048.36 110.592 1046.94 112.944C1045.53 115.259 1043.57 117.088 1041.06 118.432C1038.56 119.776 1035.73 120.448 1032.55 120.448ZM1032.55 113.28C1034.01 113.28 1035.32 112.944 1036.47 112.272C1037.63 111.6 1038.54 110.648 1039.22 109.416C1039.89 108.147 1040.22 106.653 1040.22 104.936C1040.22 103.181 1039.89 101.688 1039.22 100.456C1038.54 99.224 1037.63 98.272 1036.47 97.6C1035.32 96.928 1034.01 96.592 1032.55 96.592C1031.1 96.592 1029.79 96.928 1028.63 97.6C1027.48 98.272 1026.54 99.224 1025.83 100.456C1025.16 101.688 1024.82 103.181 1024.82 104.936C1024.82 106.653 1025.16 108.147 1025.83 109.416C1026.54 110.648 1027.48 111.6 1028.63 112.272C1029.79 112.944 1031.1 113.28 1032.55 113.28ZM1066.73 120.448C1064.15 120.448 1061.67 120.149 1059.28 119.552C1056.93 118.917 1055.06 118.133 1053.68 117.2L1056.59 110.928C1057.97 111.787 1059.6 112.496 1061.46 113.056C1063.37 113.579 1065.23 113.84 1067.06 113.84C1069.08 113.84 1070.5 113.597 1071.32 113.112C1072.18 112.627 1072.61 111.955 1072.61 111.096C1072.61 110.387 1072.27 109.864 1071.6 109.528C1070.97 109.155 1070.11 108.875 1069.02 108.688C1067.94 108.501 1066.75 108.315 1065.44 108.128C1064.17 107.941 1062.88 107.699 1061.58 107.4C1060.27 107.064 1059.07 106.579 1057.99 105.944C1056.91 105.309 1056.03 104.451 1055.36 103.368C1054.73 102.285 1054.41 100.885 1054.41 99.168C1054.41 97.264 1054.95 95.584 1056.03 94.128C1057.15 92.672 1058.76 91.5333 1060.85 90.712C1062.94 89.8533 1065.44 89.424 1068.35 89.424C1070.41 89.424 1072.5 89.648 1074.62 90.096C1076.75 90.544 1078.53 91.1973 1079.94 92.056L1077.03 98.272C1075.58 97.4133 1074.1 96.8347 1072.61 96.536C1071.15 96.2 1069.73 96.032 1068.35 96.032C1066.41 96.032 1064.99 96.2933 1064.1 96.816C1063.2 97.3387 1062.75 98.0107 1062.75 98.832C1062.75 99.5787 1063.07 100.139 1063.7 100.512C1064.38 100.885 1065.25 101.184 1066.34 101.408C1067.42 101.632 1068.59 101.837 1069.86 102.024C1071.17 102.173 1072.48 102.416 1073.78 102.752C1075.09 103.088 1076.27 103.573 1077.31 104.208C1078.39 104.805 1079.27 105.645 1079.94 106.728C1080.62 107.773 1080.95 109.155 1080.95 110.872C1080.95 112.739 1080.39 114.4 1079.27 115.856C1078.15 117.275 1076.53 118.395 1074.4 119.216C1072.31 120.037 1069.75 120.448 1066.73 120.448ZM1106.5 120V114.12L1105.94 112.832V102.304C1105.94 100.437 1105.36 98.9813 1104.21 97.936C1103.09 96.8907 1101.35 96.368 1099 96.368C1097.39 96.368 1095.81 96.6293 1094.24 97.152C1092.71 97.6373 1091.4 98.3093 1090.32 99.168L1087.18 93.064C1088.82 91.9067 1090.8 91.0107 1093.12 90.376C1095.43 89.7413 1097.78 89.424 1100.17 89.424C1104.77 89.424 1108.33 90.5067 1110.87 92.672C1113.41 94.8373 1114.68 98.216 1114.68 102.808V120H1106.5ZM1097.32 120.448C1094.97 120.448 1092.95 120.056 1091.27 119.272C1089.59 118.451 1088.3 117.349 1087.41 115.968C1086.51 114.587 1086.06 113.037 1086.06 111.32C1086.06 109.528 1086.49 107.96 1087.35 106.616C1088.25 105.272 1089.65 104.227 1091.55 103.48C1093.45 102.696 1095.94 102.304 1099 102.304H1107.01V107.4H1099.95C1097.9 107.4 1096.48 107.736 1095.69 108.408C1094.95 109.08 1094.57 109.92 1094.57 110.928C1094.57 112.048 1095 112.944 1095.86 113.616C1096.76 114.251 1097.97 114.568 1099.5 114.568C1100.96 114.568 1102.26 114.232 1103.42 113.56C1104.58 112.851 1105.42 111.824 1105.94 110.48L1107.29 114.512C1106.65 116.453 1105.49 117.928 1103.81 118.936C1102.13 119.944 1099.97 120.448 1097.32 120.448ZM1124.26 120V78.448H1133V120H1124.26ZM1152.92 120.448C1150.35 120.448 1147.87 120.149 1145.48 119.552C1143.12 118.917 1141.26 118.133 1139.88 117.2L1142.79 110.928C1144.17 111.787 1145.79 112.496 1147.66 113.056C1149.56 113.579 1151.43 113.84 1153.26 113.84C1155.28 113.84 1156.7 113.597 1157.52 113.112C1158.38 112.627 1158.8 111.955 1158.8 111.096C1158.8 110.387 1158.47 109.864 1157.8 109.528C1157.16 109.155 1156.3 108.875 1155.22 108.688C1154.14 108.501 1152.94 108.315 1151.64 108.128C1150.37 107.941 1149.08 107.699 1147.77 107.4C1146.47 107.064 1145.27 106.579 1144.19 105.944C1143.11 105.309 1142.23 104.451 1141.56 103.368C1140.92 102.285 1140.6 100.885 1140.6 99.168C1140.6 97.264 1141.15 95.584 1142.23 94.128C1143.35 92.672 1144.95 91.5333 1147.04 90.712C1149.14 89.8533 1151.64 89.424 1154.55 89.424C1156.6 89.424 1158.69 89.648 1160.82 90.096C1162.95 90.544 1164.72 91.1973 1166.14 92.056L1163.23 98.272C1161.77 97.4133 1160.3 96.8347 1158.8 96.536C1157.35 96.2 1155.93 96.032 1154.55 96.032C1152.61 96.032 1151.19 96.2933 1150.29 96.816C1149.4 97.3387 1148.95 98.0107 1148.95 98.832C1148.95 99.5787 1149.27 100.139 1149.9 100.512C1150.57 100.885 1151.45 101.184 1152.53 101.408C1153.62 101.632 1154.79 101.837 1156.06 102.024C1157.37 102.173 1158.67 102.416 1159.98 102.752C1161.29 103.088 1162.46 103.573 1163.51 104.208C1164.59 104.805 1165.47 105.645 1166.14 106.728C1166.81 107.773 1167.15 109.155 1167.15 110.872C1167.15 112.739 1166.59 114.4 1165.47 115.856C1164.35 117.275 1162.72 118.395 1160.6 119.216C1158.51 120.037 1155.95 120.448 1152.92 120.448Z" fill="#282828"/>
</g>
<defs>
<clipPath id="clip0_1338_323">
<rect width="1764" height="200" fill="white"/>
</clipPath>
</defs>
</svg>
