<svg width="1764" height="200" viewBox="0 0 1764 200" fill="none" xmlns="http://www.w3.org/2000/svg">
<g clip-path="url(#clip0_1338_377)">
<path d="M429.207 167.16C419.127 167.16 409.467 165.84 400.227 163.2C390.987 160.44 383.547 156.9 377.907 152.58L387.807 130.62C393.207 134.46 399.567 137.64 406.887 140.16C414.327 142.56 421.827 143.76 429.387 143.76C435.147 143.76 439.767 143.22 443.247 142.14C446.847 140.94 449.487 139.32 451.167 137.28C452.847 135.24 453.687 132.9 453.687 130.26C453.687 126.9 452.367 124.26 449.727 122.34C447.087 120.3 443.607 118.68 439.287 117.48C434.967 116.16 430.167 114.96 424.887 113.88C419.727 112.68 414.507 111.24 409.227 109.56C404.067 107.88 399.327 105.72 395.007 103.08C390.687 100.44 387.147 96.96 384.387 92.64C381.747 88.32 380.427 82.8 380.427 76.08C380.427 68.88 382.347 62.34 386.187 56.46C390.147 50.46 396.027 45.72 403.827 42.24C411.747 38.64 421.647 36.84 433.527 36.84C441.447 36.84 449.247 37.8 456.927 39.72C464.607 41.52 471.387 44.28 477.267 48L468.267 70.14C462.387 66.78 456.507 64.32 450.627 62.76C444.747 61.08 438.987 60.24 433.347 60.24C427.707 60.24 423.087 60.9 419.487 62.22C415.887 63.54 413.307 65.28 411.747 67.44C410.187 69.48 409.407 71.88 409.407 74.64C409.407 77.88 410.727 80.52 413.367 82.56C416.007 84.48 419.487 86.04 423.807 87.24C428.127 88.44 432.867 89.64 438.027 90.84C443.307 92.04 448.527 93.42 453.687 94.98C458.967 96.54 463.767 98.64 468.087 101.28C472.407 103.92 475.887 107.4 478.527 111.72C481.287 116.04 482.667 121.5 482.667 128.1C482.667 135.18 480.687 141.66 476.727 147.54C472.767 153.42 466.827 158.16 458.907 161.76C451.107 165.36 441.207 167.16 429.207 167.16ZM534.812 166.44C523.412 166.44 514.532 163.56 508.172 157.8C501.812 151.92 498.632 143.22 498.632 131.7V46.74H526.712V131.34C526.712 135.42 527.792 138.6 529.952 140.88C532.112 143.04 535.052 144.12 538.772 144.12C543.212 144.12 546.992 142.92 550.112 140.52L557.672 160.32C554.792 162.36 551.312 163.92 547.232 165C543.272 165.96 539.132 166.44 534.812 166.44ZM483.692 91.92V70.32H550.832V91.92H483.692ZM578.517 201.36C573.477 201.36 568.497 200.58 563.577 199.02C558.657 197.46 554.637 195.3 551.517 192.54L561.777 172.56C563.937 174.48 566.397 175.98 569.157 177.06C572.037 178.14 574.857 178.68 577.617 178.68C581.577 178.68 584.697 177.72 586.977 175.8C589.377 174 591.537 170.94 593.457 166.62L598.497 154.74L600.657 151.68L635.397 68.16H662.397L618.657 170.94C615.537 178.74 611.937 184.86 607.857 189.3C603.897 193.74 599.457 196.86 594.537 198.66C589.737 200.46 584.397 201.36 578.517 201.36ZM595.077 168.78L551.877 68.16H580.857L614.337 149.16L595.077 168.78ZM668.455 165V31.44H696.535V165H668.455ZM765.256 166.44C754.216 166.44 744.496 164.28 736.096 159.96C727.816 155.64 721.396 149.76 716.836 142.32C712.276 134.76 709.996 126.18 709.996 116.58C709.996 106.86 712.216 98.28 716.656 90.84C721.216 83.28 727.396 77.4 735.196 73.2C742.996 68.88 751.816 66.72 761.656 66.72C771.136 66.72 779.656 68.76 787.216 72.84C794.896 76.8 800.956 82.56 805.396 90.12C809.836 97.56 812.056 106.5 812.056 116.94C812.056 118.02 811.996 119.28 811.876 120.72C811.756 122.04 811.636 123.3 811.516 124.5H732.856V108.12H796.756L785.956 112.98C785.956 107.94 784.936 103.56 782.896 99.84C780.856 96.12 778.036 93.24 774.436 91.2C770.836 89.04 766.636 87.96 761.836 87.96C757.036 87.96 752.776 89.04 749.056 91.2C745.456 93.24 742.636 96.18 740.596 100.02C738.556 103.74 737.536 108.18 737.536 113.34V117.66C737.536 122.94 738.676 127.62 740.956 131.7C743.356 135.66 746.656 138.72 750.856 140.88C755.176 142.92 760.216 143.94 765.976 143.94C771.136 143.94 775.636 143.16 779.476 141.6C783.436 140.04 787.036 137.7 790.276 134.58L805.216 150.78C800.776 155.82 795.196 159.72 788.476 162.48C781.756 165.12 774.016 166.44 765.256 166.44ZM933.747 167.16C923.787 167.16 914.607 165.6 906.207 162.48C897.927 159.24 890.667 154.68 884.427 148.8C878.307 142.92 873.507 136.02 870.027 128.1C866.667 120.18 864.987 111.48 864.987 102C864.987 92.52 866.667 83.82 870.027 75.9C873.507 67.98 878.367 61.08 884.607 55.2C890.847 49.32 898.167 44.82 906.567 41.7C914.967 38.46 924.207 36.84 934.287 36.84C945.447 36.84 955.467 38.7 964.347 42.42C973.347 46.14 980.907 51.54 987.027 58.62L968.307 75.9C963.747 71.1 958.767 67.56 953.367 65.28C947.967 62.88 942.087 61.68 935.727 61.68C929.607 61.68 924.027 62.64 918.987 64.56C913.947 66.48 909.567 69.24 905.847 72.84C902.247 76.44 899.427 80.7 897.387 85.62C895.467 90.54 894.507 96 894.507 102C894.507 107.88 895.467 113.28 897.387 118.2C899.427 123.12 902.247 127.44 905.847 131.16C909.567 134.76 913.887 137.52 918.807 139.44C923.847 141.36 929.367 142.32 935.367 142.32C941.127 142.32 946.707 141.42 952.107 139.62C957.627 137.7 962.967 134.52 968.127 130.08L984.687 151.14C977.847 156.3 969.867 160.26 960.747 163.02C951.747 165.78 942.747 167.16 933.747 167.16ZM958.047 147.36V100.02H984.687V151.14L958.047 147.36ZM1045.25 166.44C1037.21 166.44 1030.01 164.88 1023.65 161.76C1017.41 158.64 1012.55 153.9 1009.07 147.54C1005.59 141.06 1003.85 132.84 1003.85 122.88V68.16H1031.93V118.74C1031.93 126.78 1033.61 132.72 1036.97 136.56C1040.45 140.28 1045.31 142.14 1051.55 142.14C1055.87 142.14 1059.71 141.24 1063.07 139.44C1066.43 137.52 1069.07 134.64 1070.99 130.8C1072.91 126.84 1073.87 121.92 1073.87 116.04V68.16H1101.95V165H1075.31V138.36L1080.17 146.1C1076.93 152.82 1072.13 157.92 1065.77 161.4C1059.53 164.76 1052.69 166.44 1045.25 166.44ZM1122.57 165V68.16H1150.65V165H1122.57ZM1136.61 54.66C1131.45 54.66 1127.25 53.16 1124.01 50.16C1120.77 47.16 1119.15 43.44 1119.15 39C1119.15 34.56 1120.77 30.84 1124.01 27.84C1127.25 24.84 1131.45 23.34 1136.61 23.34C1141.77 23.34 1145.97 24.78 1149.21 27.66C1152.45 30.42 1154.07 34.02 1154.07 38.46C1154.07 43.14 1152.45 47.04 1149.21 50.16C1146.09 53.16 1141.89 54.66 1136.61 54.66ZM1212.89 166.44C1203.77 166.44 1195.55 164.4 1188.23 160.32C1180.91 156.12 1175.09 150.3 1170.77 142.86C1166.57 135.42 1164.47 126.66 1164.47 116.58C1164.47 106.38 1166.57 97.56 1170.77 90.12C1175.09 82.68 1180.91 76.92 1188.23 72.84C1195.55 68.76 1203.77 66.72 1212.89 66.72C1221.05 66.72 1228.19 68.52 1234.31 72.12C1240.43 75.72 1245.17 81.18 1248.53 88.5C1251.89 95.82 1253.57 105.18 1253.57 116.58C1253.57 127.86 1251.95 137.22 1248.71 144.66C1245.47 151.98 1240.79 157.44 1234.67 161.04C1228.67 164.64 1221.41 166.44 1212.89 166.44ZM1217.75 143.4C1222.31 143.4 1226.45 142.32 1230.17 140.16C1233.89 138 1236.83 134.94 1238.99 130.98C1241.27 126.9 1242.41 122.1 1242.41 116.58C1242.41 110.94 1241.27 106.14 1238.99 102.18C1236.83 98.22 1233.89 95.16 1230.17 93C1226.45 90.84 1222.31 89.76 1217.75 89.76C1213.07 89.76 1208.87 90.84 1205.15 93C1201.43 95.16 1198.43 98.22 1196.15 102.18C1193.99 106.14 1192.91 110.94 1192.91 116.58C1192.91 122.1 1193.99 126.9 1196.15 130.98C1198.43 134.94 1201.43 138 1205.15 140.16C1208.87 142.32 1213.07 143.4 1217.75 143.4ZM1243.13 165V145.2L1243.67 116.4L1241.87 87.78V31.44H1269.95V165H1243.13ZM1338.6 166.44C1327.56 166.44 1317.84 164.28 1309.44 159.96C1301.16 155.64 1294.74 149.76 1290.18 142.32C1285.62 134.76 1283.34 126.18 1283.34 116.58C1283.34 106.86 1285.56 98.28 1290 90.84C1294.56 83.28 1300.74 77.4 1308.54 73.2C1316.34 68.88 1325.16 66.72 1335 66.72C1344.48 66.72 1353 68.76 1360.56 72.84C1368.24 76.8 1374.3 82.56 1378.74 90.12C1383.18 97.56 1385.4 106.5 1385.4 116.94C1385.4 118.02 1385.34 119.28 1385.22 120.72C1385.1 122.04 1384.98 123.3 1384.86 124.5H1306.2V108.12H1370.1L1359.3 112.98C1359.3 107.94 1358.28 103.56 1356.24 99.84C1354.2 96.12 1351.38 93.24 1347.78 91.2C1344.18 89.04 1339.98 87.96 1335.18 87.96C1330.38 87.96 1326.12 89.04 1322.4 91.2C1318.8 93.24 1315.98 96.18 1313.94 100.02C1311.9 103.74 1310.88 108.18 1310.88 113.34V117.66C1310.88 122.94 1312.02 127.62 1314.3 131.7C1316.7 135.66 1320 138.72 1324.2 140.88C1328.52 142.92 1333.56 143.94 1339.32 143.94C1344.48 143.94 1348.98 143.16 1352.82 141.6C1356.78 140.04 1360.38 137.7 1363.62 134.58L1378.56 150.78C1374.12 155.82 1368.54 159.72 1361.82 162.48C1355.1 165.12 1347.36 166.44 1338.6 166.44Z" fill="#282828" fill-opacity="0.02"/>
<path d="M723.831 120.672C720.695 120.672 717.69 120.261 714.815 119.44C711.94 118.581 709.626 117.48 707.871 116.136L710.951 109.304C712.631 110.499 714.61 111.488 716.887 112.272C719.202 113.019 721.535 113.392 723.887 113.392C725.679 113.392 727.116 113.224 728.199 112.888C729.319 112.515 730.14 112.011 730.663 111.376C731.186 110.741 731.447 110.013 731.447 109.192C731.447 108.147 731.036 107.325 730.215 106.728C729.394 106.093 728.311 105.589 726.967 105.216C725.623 104.805 724.13 104.432 722.487 104.096C720.882 103.723 719.258 103.275 717.615 102.752C716.01 102.229 714.535 101.557 713.191 100.736C711.847 99.9147 710.746 98.832 709.887 97.488C709.066 96.144 708.655 94.4267 708.655 92.336C708.655 90.096 709.252 88.0613 710.447 86.232C711.679 84.3653 713.508 82.8907 715.935 81.808C718.399 80.688 721.479 80.128 725.175 80.128C727.639 80.128 730.066 80.4267 732.455 81.024C734.844 81.584 736.954 82.4427 738.783 83.6L735.983 90.488C734.154 89.4427 732.324 88.6773 730.495 88.192C728.666 87.6693 726.874 87.408 725.119 87.408C723.364 87.408 721.927 87.6133 720.807 88.024C719.687 88.4347 718.884 88.976 718.399 89.648C717.914 90.2827 717.671 91.0293 717.671 91.888C717.671 92.896 718.082 93.7173 718.903 94.352C719.724 94.9493 720.807 95.4347 722.151 95.808C723.495 96.1813 724.97 96.5547 726.575 96.928C728.218 97.3013 729.842 97.7307 731.447 98.216C733.09 98.7013 734.583 99.3547 735.927 100.176C737.271 100.997 738.354 102.08 739.175 103.424C740.034 104.768 740.463 106.467 740.463 108.52C740.463 110.723 739.847 112.739 738.615 114.568C737.383 116.397 735.535 117.872 733.071 118.992C730.644 120.112 727.564 120.672 723.831 120.672ZM760.046 120.448C756.499 120.448 753.737 119.552 751.758 117.76C749.779 115.931 748.79 113.224 748.79 109.64V83.208H757.526V109.528C757.526 110.797 757.862 111.787 758.534 112.496C759.206 113.168 760.121 113.504 761.278 113.504C762.659 113.504 763.835 113.131 764.806 112.384L767.158 118.544C766.262 119.179 765.179 119.664 763.91 120C762.678 120.299 761.39 120.448 760.046 120.448ZM744.142 97.264V90.544H765.03V97.264H744.142ZM777.003 131.312C775.435 131.312 773.886 131.069 772.355 130.584C770.824 130.099 769.574 129.427 768.603 128.568L771.795 122.352C772.467 122.949 773.232 123.416 774.091 123.752C774.987 124.088 775.864 124.256 776.723 124.256C777.955 124.256 778.926 123.957 779.635 123.36C780.382 122.8 781.054 121.848 781.651 120.504L783.219 116.808L783.891 115.856L794.699 89.872H803.099L789.491 121.848C788.52 124.275 787.4 126.179 786.131 127.56C784.899 128.941 783.518 129.912 781.987 130.472C780.494 131.032 778.832 131.312 777.003 131.312ZM782.155 121.176L768.715 89.872H777.731L788.147 115.072L782.155 121.176ZM808.344 120V78.448H817.08V120H808.344ZM841.82 120.448C838.385 120.448 835.361 119.776 832.748 118.432C830.172 117.088 828.174 115.259 826.756 112.944C825.337 110.592 824.628 107.923 824.628 104.936C824.628 101.912 825.318 99.2427 826.7 96.928C828.118 94.576 830.041 92.7467 832.468 91.44C834.894 90.096 837.638 89.424 840.7 89.424C843.649 89.424 846.3 90.0587 848.652 91.328C851.041 92.56 852.926 94.352 854.308 96.704C855.689 99.0187 856.38 101.8 856.38 105.048C856.38 105.384 856.361 105.776 856.324 106.224C856.286 106.635 856.249 107.027 856.212 107.4H831.74V102.304H851.62L848.26 103.816C848.26 102.248 847.942 100.885 847.308 99.728C846.673 98.5707 845.796 97.6747 844.676 97.04C843.556 96.368 842.249 96.032 840.756 96.032C839.262 96.032 837.937 96.368 836.78 97.04C835.66 97.6747 834.782 98.5893 834.148 99.784C833.513 100.941 833.196 102.323 833.196 103.928V105.272C833.196 106.915 833.55 108.371 834.26 109.64C835.006 110.872 836.033 111.824 837.34 112.496C838.684 113.131 840.252 113.448 842.044 113.448C843.649 113.448 845.049 113.205 846.244 112.72C847.476 112.235 848.596 111.507 849.604 110.536L854.252 115.576C852.87 117.144 851.134 118.357 849.044 119.216C846.953 120.037 844.545 120.448 841.82 120.448ZM900.959 120.672C897.86 120.672 895.004 120.187 892.391 119.216C889.815 118.208 887.556 116.789 885.615 114.96C883.711 113.131 882.218 110.984 881.135 108.52C880.09 106.056 879.567 103.349 879.567 100.4C879.567 97.4507 880.09 94.744 881.135 92.28C882.218 89.816 883.73 87.6693 885.671 85.84C887.612 84.0107 889.89 82.6107 892.503 81.64C895.116 80.632 897.991 80.128 901.127 80.128C904.599 80.128 907.716 80.7067 910.479 81.864C913.279 83.0213 915.631 84.7013 917.535 86.904L911.711 92.28C910.292 90.7867 908.743 89.6853 907.063 88.976C905.383 88.2293 903.554 87.856 901.575 87.856C899.671 87.856 897.935 88.1547 896.367 88.752C894.799 89.3493 893.436 90.208 892.279 91.328C891.159 92.448 890.282 93.7733 889.647 95.304C889.05 96.8347 888.751 98.5333 888.751 100.4C888.751 102.229 889.05 103.909 889.647 105.44C890.282 106.971 891.159 108.315 892.279 109.472C893.436 110.592 894.78 111.451 896.311 112.048C897.879 112.645 899.596 112.944 901.463 112.944C903.255 112.944 904.991 112.664 906.671 112.104C908.388 111.507 910.05 110.517 911.655 109.136L916.807 115.688C914.679 117.293 912.196 118.525 909.359 119.384C906.559 120.243 903.759 120.672 900.959 120.672ZM908.519 114.512V99.784H916.807V115.688L908.519 114.512ZM939.01 120.448C936.509 120.448 934.269 119.963 932.29 118.992C930.349 118.021 928.837 116.547 927.754 114.568C926.672 112.552 926.13 109.995 926.13 106.896V89.872H934.866V105.608C934.866 108.109 935.389 109.957 936.434 111.152C937.517 112.309 939.029 112.888 940.97 112.888C942.314 112.888 943.509 112.608 944.554 112.048C945.6 111.451 946.421 110.555 947.018 109.36C947.616 108.128 947.914 106.597 947.914 104.768V89.872H956.65V120H948.362V111.712L949.874 114.12C948.866 116.211 947.373 117.797 945.394 118.88C943.453 119.925 941.325 120.448 939.01 120.448ZM966.424 120V89.872H975.16V120H966.424ZM970.792 85.672C969.186 85.672 967.88 85.2053 966.872 84.272C965.864 83.3387 965.36 82.1813 965.36 80.8C965.36 79.4187 965.864 78.2613 966.872 77.328C967.88 76.3947 969.186 75.928 970.792 75.928C972.397 75.928 973.704 76.376 974.712 77.272C975.72 78.1307 976.224 79.2507 976.224 80.632C976.224 82.088 975.72 83.3013 974.712 84.272C973.741 85.2053 972.434 85.672 970.792 85.672ZM997.883 120.448C995.046 120.448 992.489 119.813 990.211 118.544C987.934 117.237 986.123 115.427 984.779 113.112C983.473 110.797 982.819 108.072 982.819 104.936C982.819 101.763 983.473 99.0187 984.779 96.704C986.123 94.3893 987.934 92.5973 990.211 91.328C992.489 90.0587 995.046 89.424 997.883 89.424C1000.42 89.424 1002.64 89.984 1004.55 91.104C1006.45 92.224 1007.93 93.9227 1008.97 96.2C1010.02 98.4773 1010.54 101.389 1010.54 104.936C1010.54 108.445 1010.04 111.357 1009.03 113.672C1008.02 115.949 1006.56 117.648 1004.66 118.768C1002.79 119.888 1000.53 120.448 997.883 120.448ZM999.395 113.28C1000.81 113.28 1002.1 112.944 1003.26 112.272C1004.42 111.6 1005.33 110.648 1006 109.416C1006.71 108.147 1007.07 106.653 1007.07 104.936C1007.07 103.181 1006.71 101.688 1006 100.456C1005.33 99.224 1004.42 98.272 1003.26 97.6C1002.1 96.928 1000.81 96.592 999.395 96.592C997.939 96.592 996.633 96.928 995.475 97.6C994.318 98.272 993.385 99.224 992.675 100.456C992.003 101.688 991.667 103.181 991.667 104.936C991.667 106.653 992.003 108.147 992.675 109.416C993.385 110.648 994.318 111.6 995.475 112.272C996.633 112.944 997.939 113.28 999.395 113.28ZM1007.29 120V113.84L1007.46 104.88L1006.9 95.976V78.448H1015.64V120H1007.29ZM1040.35 120.448C1036.92 120.448 1033.89 119.776 1031.28 118.432C1028.7 117.088 1026.71 115.259 1025.29 112.944C1023.87 110.592 1023.16 107.923 1023.16 104.936C1023.16 101.912 1023.85 99.2427 1025.23 96.928C1026.65 94.576 1028.57 92.7467 1031 91.44C1033.43 90.096 1036.17 89.424 1039.23 89.424C1042.18 89.424 1044.83 90.0587 1047.18 91.328C1049.57 92.56 1051.46 94.352 1052.84 96.704C1054.22 99.0187 1054.91 101.8 1054.91 105.048C1054.91 105.384 1054.89 105.776 1054.86 106.224C1054.82 106.635 1054.78 107.027 1054.74 107.4H1030.27V102.304H1050.15L1046.79 103.816C1046.79 102.248 1046.48 100.885 1045.84 99.728C1045.21 98.5707 1044.33 97.6747 1043.21 97.04C1042.09 96.368 1040.78 96.032 1039.29 96.032C1037.8 96.032 1036.47 96.368 1035.31 97.04C1034.19 97.6747 1033.32 98.5893 1032.68 99.784C1032.05 100.941 1031.73 102.323 1031.73 103.928V105.272C1031.73 106.915 1032.08 108.371 1032.79 109.64C1033.54 110.872 1034.57 111.824 1035.87 112.496C1037.22 113.131 1038.78 113.448 1040.58 113.448C1042.18 113.448 1043.58 113.205 1044.78 112.72C1046.01 112.235 1047.13 111.507 1048.14 110.536L1052.78 115.576C1051.4 117.144 1049.67 118.357 1047.58 119.216C1045.49 120.037 1043.08 120.448 1040.35 120.448Z" fill="#282828"/>
</g>
<defs>
<clipPath id="clip0_1338_377">
<rect width="1764" height="200" fill="white"/>
</clipPath>
</defs>
</svg>
