<svg width="1764" height="200" viewBox="0 0 1764 200" fill="none" xmlns="http://www.w3.org/2000/svg">
<g clip-path="url(#clip0_1338_384)">
<path d="M691.613 165V62.76H651.293V39H761.093V62.76H720.773V165H691.613ZM807.619 166.44C796.579 166.44 786.859 164.28 778.459 159.96C770.179 155.64 763.759 149.76 759.199 142.32C754.639 134.76 752.359 126.18 752.359 116.58C752.359 106.86 754.579 98.28 759.019 90.84C763.579 83.28 769.759 77.4 777.559 73.2C785.359 68.88 794.179 66.72 804.019 66.72C813.499 66.72 822.019 68.76 829.579 72.84C837.259 76.8 843.319 82.56 847.759 90.12C852.199 97.56 854.419 106.5 854.419 116.94C854.419 118.02 854.359 119.28 854.239 120.72C854.119 122.04 853.999 123.3 853.879 124.5H775.219V108.12H839.119L828.319 112.98C828.319 107.94 827.299 103.56 825.259 99.84C823.219 96.12 820.399 93.24 816.799 91.2C813.199 89.04 808.999 87.96 804.199 87.96C799.399 87.96 795.139 89.04 791.419 91.2C787.819 93.24 784.999 96.18 782.959 100.02C780.919 103.74 779.899 108.18 779.899 113.34V117.66C779.899 122.94 781.039 127.62 783.319 131.7C785.719 135.66 789.019 138.72 793.219 140.88C797.539 142.92 802.579 143.94 808.339 143.94C813.499 143.94 817.999 143.16 821.839 141.6C825.799 140.04 829.399 137.7 832.639 134.58L847.579 150.78C843.139 155.82 837.559 159.72 830.839 162.48C824.119 165.12 816.379 166.44 807.619 166.44ZM900.294 166.44C892.014 166.44 884.034 165.48 876.354 163.56C868.794 161.52 862.794 159 858.354 156L867.714 135.84C872.154 138.6 877.374 140.88 883.374 142.68C889.494 144.36 895.494 145.2 901.374 145.2C907.854 145.2 912.414 144.42 915.054 142.86C917.814 141.3 919.194 139.14 919.194 136.38C919.194 134.1 918.114 132.42 915.954 131.34C913.914 130.14 911.154 129.24 907.674 128.64C904.194 128.04 900.354 127.44 896.154 126.84C892.074 126.24 887.934 125.46 883.734 124.5C879.534 123.42 875.694 121.86 872.214 119.82C868.734 117.78 865.914 115.02 863.754 111.54C861.714 108.06 860.694 103.56 860.694 98.04C860.694 91.92 862.434 86.52 865.914 81.84C869.514 77.16 874.674 73.5 881.394 70.86C888.114 68.1 896.154 66.72 905.514 66.72C912.114 66.72 918.834 67.44 925.674 68.88C932.514 70.32 938.214 72.42 942.774 75.18L933.414 95.16C928.734 92.4 923.994 90.54 919.194 89.58C914.514 88.5 909.954 87.96 905.514 87.96C899.274 87.96 894.714 88.8 891.834 90.48C888.954 92.16 887.514 94.32 887.514 96.96C887.514 99.36 888.534 101.16 890.574 102.36C892.734 103.56 895.554 104.52 899.034 105.24C902.514 105.96 906.294 106.62 910.374 107.22C914.574 107.7 918.774 108.48 922.974 109.56C927.174 110.64 930.954 112.2 934.314 114.24C937.794 116.16 940.614 118.86 942.774 122.34C944.934 125.7 946.014 130.14 946.014 135.66C946.014 141.66 944.214 147 940.614 151.68C937.014 156.24 931.794 159.84 924.954 162.48C918.234 165.12 910.014 166.44 900.294 166.44ZM997.539 166.44C986.139 166.44 977.259 163.56 970.899 157.8C964.539 151.92 961.359 143.22 961.359 131.7V46.74H989.439V131.34C989.439 135.42 990.519 138.6 992.679 140.88C994.839 143.04 997.779 144.12 1001.5 144.12C1005.94 144.12 1009.72 142.92 1012.84 140.52L1020.4 160.32C1017.52 162.36 1014.04 163.92 1009.96 165C1006 165.96 1001.86 166.44 997.539 166.44ZM946.419 91.92V70.32H1013.56V91.92H946.419ZM1063.34 166.44C1055.06 166.44 1047.08 165.48 1039.4 163.56C1031.84 161.52 1025.84 159 1021.4 156L1030.76 135.84C1035.2 138.6 1040.42 140.88 1046.42 142.68C1052.54 144.36 1058.54 145.2 1064.42 145.2C1070.9 145.2 1075.46 144.42 1078.1 142.86C1080.86 141.3 1082.24 139.14 1082.24 136.38C1082.24 134.1 1081.16 132.42 1079 131.34C1076.96 130.14 1074.2 129.24 1070.72 128.64C1067.24 128.04 1063.4 127.44 1059.2 126.84C1055.12 126.24 1050.98 125.46 1046.78 124.5C1042.58 123.42 1038.74 121.86 1035.26 119.82C1031.78 117.78 1028.96 115.02 1026.8 111.54C1024.76 108.06 1023.74 103.56 1023.74 98.04C1023.74 91.92 1025.48 86.52 1028.96 81.84C1032.56 77.16 1037.72 73.5 1044.44 70.86C1051.16 68.1 1059.2 66.72 1068.56 66.72C1075.16 66.72 1081.88 67.44 1088.72 68.88C1095.56 70.32 1101.26 72.42 1105.82 75.18L1096.46 95.16C1091.78 92.4 1087.04 90.54 1082.24 89.58C1077.56 88.5 1073 87.96 1068.56 87.96C1062.32 87.96 1057.76 88.8 1054.88 90.48C1052 92.16 1050.56 94.32 1050.56 96.96C1050.56 99.36 1051.58 101.16 1053.62 102.36C1055.78 103.56 1058.6 104.52 1062.08 105.24C1065.56 105.96 1069.34 106.62 1073.42 107.22C1077.62 107.7 1081.82 108.48 1086.02 109.56C1090.22 110.64 1094 112.2 1097.36 114.24C1100.84 116.16 1103.66 118.86 1105.82 122.34C1107.98 125.7 1109.06 130.14 1109.06 135.66C1109.06 141.66 1107.26 147 1103.66 151.68C1100.06 156.24 1094.84 159.84 1088 162.48C1081.28 165.12 1073.06 166.44 1063.34 166.44Z" fill="#282828" fill-opacity="0.02"/>
<path d="M815.549 120V88.192H803.005V80.8H837.165V88.192H824.621V120H815.549ZM854.999 120.448C851.565 120.448 848.541 119.776 845.927 118.432C843.351 117.088 841.354 115.259 839.935 112.944C838.517 110.592 837.807 107.923 837.807 104.936C837.807 101.912 838.498 99.2427 839.879 96.928C841.298 94.576 843.221 92.7467 845.647 91.44C848.074 90.096 850.818 89.424 853.879 89.424C856.829 89.424 859.479 90.0587 861.831 91.328C864.221 92.56 866.106 94.352 867.487 96.704C868.869 99.0187 869.559 101.8 869.559 105.048C869.559 105.384 869.541 105.776 869.503 106.224C869.466 106.635 869.429 107.027 869.391 107.4H844.919V102.304H864.799L861.439 103.816C861.439 102.248 861.122 100.885 860.487 99.728C859.853 98.5707 858.975 97.6747 857.855 97.04C856.735 96.368 855.429 96.032 853.935 96.032C852.442 96.032 851.117 96.368 849.959 97.04C848.839 97.6747 847.962 98.5893 847.327 99.784C846.693 100.941 846.375 102.323 846.375 103.928V105.272C846.375 106.915 846.73 108.371 847.439 109.64C848.186 110.872 849.213 111.824 850.519 112.496C851.863 113.131 853.431 113.448 855.223 113.448C856.829 113.448 858.229 113.205 859.423 112.72C860.655 112.235 861.775 111.507 862.783 110.536L867.431 115.576C866.05 117.144 864.314 118.357 862.223 119.216C860.133 120.037 857.725 120.448 854.999 120.448ZM887.191 120.448C884.615 120.448 882.133 120.149 879.743 119.552C877.391 118.917 875.525 118.133 874.143 117.2L877.055 110.928C878.437 111.787 880.061 112.496 881.927 113.056C883.831 113.579 885.698 113.84 887.527 113.84C889.543 113.84 890.962 113.597 891.783 113.112C892.642 112.627 893.071 111.955 893.071 111.096C893.071 110.387 892.735 109.864 892.063 109.528C891.429 109.155 890.57 108.875 889.487 108.688C888.405 108.501 887.21 108.315 885.903 108.128C884.634 107.941 883.346 107.699 882.039 107.4C880.733 107.064 879.538 106.579 878.455 105.944C877.373 105.309 876.495 104.451 875.823 103.368C875.189 102.285 874.871 100.885 874.871 99.168C874.871 97.264 875.413 95.584 876.495 94.128C877.615 92.672 879.221 91.5333 881.311 90.712C883.402 89.8533 885.903 89.424 888.815 89.424C890.869 89.424 892.959 89.648 895.087 90.096C897.215 90.544 898.989 91.1973 900.407 92.056L897.495 98.272C896.039 97.4133 894.565 96.8347 893.071 96.536C891.615 96.2 890.197 96.032 888.815 96.032C886.874 96.032 885.455 96.2933 884.559 96.816C883.663 97.3387 883.215 98.0107 883.215 98.832C883.215 99.5787 883.533 100.139 884.167 100.512C884.839 100.885 885.717 101.184 886.799 101.408C887.882 101.632 889.058 101.837 890.327 102.024C891.634 102.173 892.941 102.416 894.247 102.752C895.554 103.088 896.73 103.573 897.775 104.208C898.858 104.805 899.735 105.645 900.407 106.728C901.079 107.773 901.415 109.155 901.415 110.872C901.415 112.739 900.855 114.4 899.735 115.856C898.615 117.275 896.991 118.395 894.863 119.216C892.773 120.037 890.215 120.448 887.191 120.448ZM920.805 120.448C917.259 120.448 914.496 119.552 912.517 117.76C910.539 115.931 909.549 113.224 909.549 109.64V83.208H918.285V109.528C918.285 110.797 918.621 111.787 919.293 112.496C919.965 113.168 920.88 113.504 922.037 113.504C923.419 113.504 924.595 113.131 925.565 112.384L927.917 118.544C927.021 119.179 925.939 119.664 924.669 120C923.437 120.299 922.149 120.448 920.805 120.448ZM904.901 97.264V90.544H925.789V97.264H904.901ZM944.637 120.448C942.061 120.448 939.579 120.149 937.189 119.552C934.837 118.917 932.971 118.133 931.589 117.2L934.501 110.928C935.883 111.787 937.507 112.496 939.373 113.056C941.277 113.579 943.144 113.84 944.973 113.84C946.989 113.84 948.408 113.597 949.229 113.112C950.088 112.627 950.517 111.955 950.517 111.096C950.517 110.387 950.181 109.864 949.509 109.528C948.875 109.155 948.016 108.875 946.933 108.688C945.851 108.501 944.656 108.315 943.349 108.128C942.08 107.941 940.792 107.699 939.485 107.4C938.179 107.064 936.984 106.579 935.901 105.944C934.819 105.309 933.941 104.451 933.269 103.368C932.635 102.285 932.317 100.885 932.317 99.168C932.317 97.264 932.859 95.584 933.941 94.128C935.061 92.672 936.667 91.5333 938.757 90.712C940.848 89.8533 943.349 89.424 946.261 89.424C948.315 89.424 950.405 89.648 952.533 90.096C954.661 90.544 956.435 91.1973 957.853 92.056L954.941 98.272C953.485 97.4133 952.011 96.8347 950.517 96.536C949.061 96.2 947.643 96.032 946.261 96.032C944.32 96.032 942.901 96.2933 942.005 96.816C941.109 97.3387 940.661 98.0107 940.661 98.832C940.661 99.5787 940.979 100.139 941.613 100.512C942.285 100.885 943.163 101.184 944.245 101.408C945.328 101.632 946.504 101.837 947.773 102.024C949.08 102.173 950.387 102.416 951.693 102.752C953 103.088 954.176 103.573 955.221 104.208C956.304 104.805 957.181 105.645 957.853 106.728C958.525 107.773 958.861 109.155 958.861 110.872C958.861 112.739 958.301 114.4 957.181 115.856C956.061 117.275 954.437 118.395 952.309 119.216C950.219 120.037 947.661 120.448 944.637 120.448Z" fill="#282828"/>
</g>
<defs>
<clipPath id="clip0_1338_384">
<rect width="1764" height="200" fill="white"/>
</clipPath>
</defs>
</svg>
